<?xml version="1.0" encoding="UTF-8"?>
<svg xmlns="http://www.w3.org/2000/svg" xmlns:xlink="http://www.w3.org/1999/xlink" width="164pt" height="169pt" viewBox="0 0 164 169" version="1.1">
<g id="surface14098">
<path style=" stroke:none;fill-rule:evenodd;fill:rgb(45.098039%,45.098039%,87.058824%);fill-opacity:1;" d="M 144.851563 61.695313 L 144.851563 63.148438 C 144.851563 63.488281 144.574219 63.765625 144.230469 63.765625 L 142.992188 63.765625 C 142.648438 63.765625 142.371094 63.488281 142.371094 63.148438 L 142.371094 61.695313 C 142.371094 61.351563 142.648438 61.074219 142.992188 61.074219 L 144.230469 61.074219 C 144.574219 61.074219 144.851563 61.351563 144.851563 61.695313 Z "/>
<path style=" stroke:none;fill-rule:evenodd;fill:rgb(45.098039%,45.098039%,87.058824%);fill-opacity:1;" d="M 140.386719 61.695313 L 140.386719 63.148438 C 140.386719 63.488281 140.109375 63.765625 139.765625 63.765625 L 138.527344 63.765625 C 138.183594 63.765625 137.90625 63.488281 137.90625 63.148438 L 137.90625 61.695313 C 137.90625 61.351563 138.183594 61.074219 138.527344 61.074219 L 139.765625 61.074219 C 140.109375 61.074219 140.386719 61.351563 140.386719 61.695313 Z "/>
<path style=" stroke:none;fill-rule:evenodd;fill:rgb(45.098039%,45.098039%,87.058824%);fill-opacity:1;" d="M 144.851563 68.894531 L 144.851563 70.347656 C 144.851563 70.691406 144.574219 70.96875 144.230469 70.96875 L 142.992188 70.96875 C 142.648438 70.96875 142.371094 70.691406 142.371094 70.347656 L 142.371094 68.894531 C 142.371094 68.550781 142.648438 68.273438 142.992188 68.273438 L 144.230469 68.273438 C 144.574219 68.273438 144.851563 68.550781 144.851563 68.894531 Z "/>
<path style=" stroke:none;fill-rule:evenodd;fill:rgb(45.098039%,45.098039%,87.058824%);fill-opacity:1;" d="M 140.386719 68.894531 L 140.386719 70.347656 C 140.386719 70.691406 140.109375 70.96875 139.765625 70.96875 L 138.527344 70.96875 C 138.183594 70.96875 137.90625 70.691406 137.90625 70.347656 L 137.90625 68.894531 C 137.90625 68.550781 138.183594 68.273438 138.527344 68.273438 L 139.765625 68.273438 C 140.109375 68.273438 140.386719 68.550781 140.386719 68.894531 Z "/>
<path style=" stroke:none;fill-rule:evenodd;fill:rgb(45.098039%,45.098039%,87.058824%);fill-opacity:1;" d="M 142.371094 113.546875 L 142.371094 112.09375 C 142.371094 111.75 142.648438 111.472656 142.992188 111.472656 L 144.230469 111.472656 C 144.574219 111.472656 144.851563 111.75 144.851563 112.09375 L 144.851563 113.546875 C 144.851563 113.890625 144.574219 114.167969 144.230469 114.167969 L 142.992188 114.167969 C 142.648438 114.167969 142.371094 113.890625 142.371094 113.546875 Z "/>
<path style=" stroke:none;fill-rule:evenodd;fill:rgb(45.098039%,45.098039%,87.058824%);fill-opacity:1;" d="M 137.90625 113.546875 L 137.90625 112.09375 C 137.90625 111.75 138.183594 111.472656 138.527344 111.472656 L 139.765625 111.472656 C 140.109375 111.472656 140.386719 111.75 140.386719 112.09375 L 140.386719 113.546875 C 140.386719 113.890625 140.109375 114.167969 139.765625 114.167969 L 138.527344 114.167969 C 138.183594 114.167969 137.90625 113.890625 137.90625 113.546875 Z "/>
<path style=" stroke:none;fill-rule:evenodd;fill:rgb(45.098039%,45.098039%,87.058824%);fill-opacity:1;" d="M 142.371094 120.746094 L 142.371094 119.292969 C 142.371094 118.953125 142.648438 118.675781 142.992188 118.675781 L 144.230469 118.675781 C 144.574219 118.675781 144.851563 118.953125 144.851563 119.292969 L 144.851563 120.746094 C 144.851563 121.089844 144.574219 121.367188 144.230469 121.367188 L 142.992188 121.367188 C 142.648438 121.367188 142.371094 121.089844 142.371094 120.746094 Z "/>
<path style=" stroke:none;fill-rule:evenodd;fill:rgb(45.098039%,45.098039%,87.058824%);fill-opacity:1;" d="M 137.90625 120.746094 L 137.90625 119.292969 C 137.90625 118.953125 138.183594 118.675781 138.527344 118.675781 L 139.765625 118.675781 C 140.109375 118.675781 140.386719 118.953125 140.386719 119.292969 L 140.386719 120.746094 C 140.386719 121.089844 140.109375 121.367188 139.765625 121.367188 L 138.527344 121.367188 C 138.183594 121.367188 137.90625 121.089844 137.90625 120.746094 Z "/>
<path style=" stroke:none;fill-rule:evenodd;fill:rgb(45.098039%,45.098039%,87.058824%);fill-opacity:1;" d="M 36.613281 38.296875 L 48.121094 38.296875 L 48.121094 28.941406 L 36.613281 28.941406 Z "/>
<path style=" stroke:none;fill-rule:evenodd;fill:rgb(45.098039%,45.098039%,87.058824%);fill-opacity:1;" d="M 8.292969 18.640625 L 24.621094 18.640625 L 24.621094 7.839844 L 8.292969 7.839844 Z "/>
<path style=" stroke:none;fill-rule:evenodd;fill:rgb(45.098039%,45.098039%,87.058824%);fill-opacity:1;" d="M 7.457031 56.3125 L 25.457031 56.3125 L 25.457031 45.511719 L 7.457031 45.511719 Z "/>
<path style=" stroke:none;fill-rule:evenodd;fill:rgb(45.098039%,45.098039%,87.058824%);fill-opacity:1;" d="M 60.097656 13.246094 L 60.097656 15.835938 C 60.097656 16.214844 59.789063 16.523438 59.40625 16.523438 L 58.023438 16.523438 C 57.644531 16.523438 57.335938 16.214844 57.335938 15.835938 L 57.335938 13.246094 C 57.335938 12.867188 57.644531 12.554688 58.023438 12.554688 L 59.40625 12.554688 C 59.789063 12.554688 60.097656 12.867188 60.097656 13.246094 Z "/>
<path style=" stroke:none;fill-rule:evenodd;fill:rgb(45.098039%,45.098039%,87.058824%);fill-opacity:1;" d="M 54.78125 13.246094 L 54.78125 15.835938 C 54.78125 16.214844 54.472656 16.523438 54.09375 16.523438 L 52.710938 16.523438 C 52.328125 16.523438 52.019531 16.214844 52.019531 15.835938 L 52.019531 13.246094 C 52.019531 12.867188 52.328125 12.554688 52.710938 12.554688 L 54.09375 12.554688 C 54.472656 12.554688 54.78125 12.867188 54.78125 13.246094 Z "/>
<path style=" stroke:none;fill-rule:evenodd;fill:rgb(45.098039%,45.098039%,87.058824%);fill-opacity:1;" d="M 52.945313 21.386719 L 52.945313 19.933594 C 52.945313 19.59375 53.222656 19.3125 53.566406 19.3125 L 54.804688 19.3125 C 55.148438 19.3125 55.425781 19.59375 55.425781 19.933594 L 55.425781 21.386719 C 55.425781 21.730469 55.148438 22.007813 54.804688 22.007813 L 53.566406 22.007813 C 53.222656 22.007813 52.945313 21.730469 52.945313 21.386719 Z "/>
<path style=" stroke:none;fill-rule:evenodd;fill:rgb(45.098039%,45.098039%,87.058824%);fill-opacity:1;" d="M 57.410156 21.386719 L 57.410156 19.933594 C 57.410156 19.59375 57.6875 19.3125 58.03125 19.3125 L 59.269531 19.3125 C 59.613281 19.3125 59.890625 19.59375 59.890625 19.933594 L 59.890625 21.386719 C 59.890625 21.730469 59.613281 22.007813 59.269531 22.007813 L 58.03125 22.007813 C 57.6875 22.007813 57.410156 21.730469 57.410156 21.386719 Z "/>
<path style=" stroke:none;fill-rule:evenodd;fill:rgb(45.098039%,45.098039%,87.058824%);fill-opacity:1;" d="M 122.652344 34.613281 L 124.105469 34.613281 C 124.449219 34.613281 124.726563 34.890625 124.726563 35.234375 L 124.726563 36.472656 C 124.726563 36.816406 124.449219 37.09375 124.105469 37.09375 L 122.652344 37.09375 C 122.308594 37.09375 122.03125 36.816406 122.03125 36.472656 L 122.03125 35.234375 C 122.03125 34.890625 122.308594 34.613281 122.652344 34.613281 Z "/>
<path style=" stroke:none;fill-rule:evenodd;fill:rgb(45.098039%,45.098039%,87.058824%);fill-opacity:1;" d="M 122.652344 30.148438 L 124.105469 30.148438 C 124.449219 30.148438 124.726563 30.425781 124.726563 30.769531 L 124.726563 32.007813 C 124.726563 32.351563 124.449219 32.628906 124.105469 32.628906 L 122.652344 32.628906 C 122.308594 32.628906 122.03125 32.351563 122.03125 32.007813 L 122.03125 30.769531 C 122.03125 30.425781 122.308594 30.148438 122.652344 30.148438 Z "/>
<path style=" stroke:none;fill-rule:evenodd;fill:rgb(45.098039%,45.098039%,87.058824%);fill-opacity:1;" d="M 124.105469 155.894531 L 122.652344 155.894531 C 122.308594 155.894531 122.03125 155.617188 122.03125 155.273438 L 122.03125 154.03125 C 122.03125 153.691406 122.308594 153.414063 122.652344 153.414063 L 124.105469 153.414063 C 124.449219 153.414063 124.726563 153.691406 124.726563 154.03125 L 124.726563 155.273438 C 124.726563 155.617188 124.449219 155.894531 124.105469 155.894531 Z "/>
<path style=" stroke:none;fill-rule:evenodd;fill:rgb(45.098039%,45.098039%,87.058824%);fill-opacity:1;" d="M 124.105469 151.429688 L 122.652344 151.429688 C 122.308594 151.429688 122.03125 151.152344 122.03125 150.808594 L 122.03125 149.570313 C 122.03125 149.226563 122.308594 148.949219 122.652344 148.949219 L 124.105469 148.949219 C 124.449219 148.949219 124.726563 149.226563 124.726563 149.570313 L 124.726563 150.808594 C 124.726563 151.152344 124.449219 151.429688 124.105469 151.429688 Z "/>
<path style=" stroke:none;fill-rule:evenodd;fill:rgb(45.098039%,45.098039%,87.058824%);fill-opacity:1;" d="M 108.253906 34.613281 L 109.703125 34.613281 C 110.046875 34.613281 110.324219 34.890625 110.324219 35.234375 L 110.324219 36.472656 C 110.324219 36.816406 110.046875 37.09375 109.703125 37.09375 L 108.253906 37.09375 C 107.910156 37.09375 107.632813 36.816406 107.632813 36.472656 L 107.632813 35.234375 C 107.632813 34.890625 107.910156 34.613281 108.253906 34.613281 Z "/>
<path style=" stroke:none;fill-rule:evenodd;fill:rgb(45.098039%,45.098039%,87.058824%);fill-opacity:1;" d="M 108.253906 30.148438 L 109.703125 30.148438 C 110.046875 30.148438 110.324219 30.425781 110.324219 30.769531 L 110.324219 32.007813 C 110.324219 32.351563 110.046875 32.628906 109.703125 32.628906 L 108.253906 32.628906 C 107.910156 32.628906 107.632813 32.351563 107.632813 32.007813 L 107.632813 30.769531 C 107.632813 30.425781 107.910156 30.148438 108.253906 30.148438 Z "/>
<path style=" stroke:none;fill-rule:evenodd;fill:rgb(45.098039%,45.098039%,87.058824%);fill-opacity:1;" d="M 109.703125 155.894531 L 108.253906 155.894531 C 107.910156 155.894531 107.632813 155.617188 107.632813 155.273438 L 107.632813 154.03125 C 107.632813 153.691406 107.910156 153.414063 108.253906 153.414063 L 109.703125 153.414063 C 110.046875 153.414063 110.324219 153.691406 110.324219 154.03125 L 110.324219 155.273438 C 110.324219 155.617188 110.046875 155.894531 109.703125 155.894531 Z "/>
<path style=" stroke:none;fill-rule:evenodd;fill:rgb(45.098039%,45.098039%,87.058824%);fill-opacity:1;" d="M 109.703125 151.429688 L 108.253906 151.429688 C 107.910156 151.429688 107.632813 151.152344 107.632813 150.808594 L 107.632813 149.570313 C 107.632813 149.226563 107.910156 148.949219 108.253906 148.949219 L 109.703125 148.949219 C 110.046875 148.949219 110.324219 149.226563 110.324219 149.570313 L 110.324219 150.808594 C 110.324219 151.152344 110.046875 151.429688 109.703125 151.429688 Z "/>
<path style=" stroke:none;fill-rule:evenodd;fill:rgb(45.098039%,45.098039%,87.058824%);fill-opacity:1;" d="M 76.449219 104.894531 L 76.449219 106.347656 C 76.449219 106.691406 76.171875 106.96875 75.832031 106.96875 L 74.589844 106.96875 C 74.25 106.96875 73.96875 106.691406 73.96875 106.347656 L 73.96875 104.894531 C 73.96875 104.550781 74.25 104.273438 74.589844 104.273438 L 75.832031 104.273438 C 76.171875 104.273438 76.449219 104.550781 76.449219 104.894531 Z "/>
<path style=" stroke:none;fill-rule:evenodd;fill:rgb(45.098039%,45.098039%,87.058824%);fill-opacity:1;" d="M 71.988281 104.894531 L 71.988281 106.347656 C 71.988281 106.691406 71.707031 106.96875 71.367188 106.96875 L 70.125 106.96875 C 69.785156 106.96875 69.507813 106.691406 69.507813 106.347656 L 69.507813 104.894531 C 69.507813 104.550781 69.785156 104.273438 70.125 104.273438 L 71.367188 104.273438 C 71.707031 104.273438 71.988281 104.550781 71.988281 104.894531 Z "/>
<path style=" stroke:none;fill-rule:evenodd;fill:rgb(45.098039%,45.098039%,87.058824%);fill-opacity:1;" d="M 76.449219 97.695313 L 76.449219 99.148438 C 76.449219 99.488281 76.171875 99.765625 75.832031 99.765625 L 74.589844 99.765625 C 74.25 99.765625 73.96875 99.488281 73.96875 99.148438 L 73.96875 97.695313 C 73.96875 97.351563 74.25 97.074219 74.589844 97.074219 L 75.832031 97.074219 C 76.171875 97.074219 76.449219 97.351563 76.449219 97.695313 Z "/>
<path style=" stroke:none;fill-rule:evenodd;fill:rgb(45.098039%,45.098039%,87.058824%);fill-opacity:1;" d="M 71.988281 97.695313 L 71.988281 99.148438 C 71.988281 99.488281 71.707031 99.765625 71.367188 99.765625 L 70.125 99.765625 C 69.785156 99.765625 69.507813 99.488281 69.507813 99.148438 L 69.507813 97.695313 C 69.507813 97.351563 69.785156 97.074219 70.125 97.074219 L 71.367188 97.074219 C 71.707031 97.074219 71.988281 97.351563 71.988281 97.695313 Z "/>
<path style=" stroke:none;fill-rule:evenodd;fill:rgb(45.098039%,45.098039%,87.058824%);fill-opacity:1;" d="M 76.449219 90.496094 L 76.449219 91.945313 C 76.449219 92.289063 76.171875 92.566406 75.832031 92.566406 L 74.589844 92.566406 C 74.25 92.566406 73.96875 92.289063 73.96875 91.945313 L 73.96875 90.496094 C 73.96875 90.152344 74.25 89.875 74.589844 89.875 L 75.832031 89.875 C 76.171875 89.875 76.449219 90.152344 76.449219 90.496094 Z "/>
<path style=" stroke:none;fill-rule:evenodd;fill:rgb(45.098039%,45.098039%,87.058824%);fill-opacity:1;" d="M 71.988281 90.496094 L 71.988281 91.945313 C 71.988281 92.289063 71.707031 92.566406 71.367188 92.566406 L 70.125 92.566406 C 69.785156 92.566406 69.507813 92.289063 69.507813 91.945313 L 69.507813 90.496094 C 69.507813 90.152344 69.785156 89.875 70.125 89.875 L 71.367188 89.875 C 71.707031 89.875 71.988281 90.152344 71.988281 90.496094 Z "/>
<path style=" stroke:none;fill-rule:evenodd;fill:rgb(45.098039%,45.098039%,87.058824%);fill-opacity:1;" d="M 76.449219 83.292969 L 76.449219 84.746094 C 76.449219 85.089844 76.171875 85.367188 75.832031 85.367188 L 74.589844 85.367188 C 74.25 85.367188 73.96875 85.089844 73.96875 84.746094 L 73.96875 83.292969 C 73.96875 82.953125 74.25 82.675781 74.589844 82.675781 L 75.832031 82.675781 C 76.171875 82.675781 76.449219 82.953125 76.449219 83.292969 Z "/>
<path style=" stroke:none;fill-rule:evenodd;fill:rgb(45.098039%,45.098039%,87.058824%);fill-opacity:1;" d="M 71.988281 83.292969 L 71.988281 84.746094 C 71.988281 85.089844 71.707031 85.367188 71.367188 85.367188 L 70.125 85.367188 C 69.785156 85.367188 69.507813 85.089844 69.507813 84.746094 L 69.507813 83.292969 C 69.507813 82.953125 69.785156 82.675781 70.125 82.675781 L 71.367188 82.675781 C 71.707031 82.675781 71.988281 82.953125 71.988281 83.292969 Z "/>
<path style=" stroke:none;fill-rule:evenodd;fill:rgb(45.098039%,45.098039%,87.058824%);fill-opacity:1;" d="M 76.449219 76.09375 L 76.449219 77.546875 C 76.449219 77.890625 76.171875 78.167969 75.832031 78.167969 L 74.589844 78.167969 C 74.25 78.167969 73.96875 77.890625 73.96875 77.546875 L 73.96875 76.09375 C 73.96875 75.75 74.25 75.472656 74.589844 75.472656 L 75.832031 75.472656 C 76.171875 75.472656 76.449219 75.75 76.449219 76.09375 Z "/>
<path style=" stroke:none;fill-rule:evenodd;fill:rgb(45.098039%,45.098039%,87.058824%);fill-opacity:1;" d="M 71.988281 76.09375 L 71.988281 77.546875 C 71.988281 77.890625 71.707031 78.167969 71.367188 78.167969 L 70.125 78.167969 C 69.785156 78.167969 69.507813 77.890625 69.507813 77.546875 L 69.507813 76.09375 C 69.507813 75.75 69.785156 75.472656 70.125 75.472656 L 71.367188 75.472656 C 71.707031 75.472656 71.988281 75.75 71.988281 76.09375 Z "/>
<path style=" stroke:none;fill-rule:evenodd;fill:rgb(45.098039%,45.098039%,87.058824%);fill-opacity:1;" d="M 136.402344 86.96875 L 135.554688 86.96875 C 135.320313 86.96875 135.128906 86.777344 135.128906 86.542969 L 135.128906 81.867188 C 135.128906 81.632813 135.320313 81.441406 135.554688 81.441406 L 136.402344 81.441406 C 136.636719 81.441406 136.828125 81.632813 136.828125 81.867188 L 136.828125 86.542969 C 136.828125 86.777344 136.636719 86.96875 136.402344 86.96875 Z "/>
<path style=" stroke:none;fill-rule:evenodd;fill:rgb(45.098039%,45.098039%,87.058824%);fill-opacity:1;" d="M 140.003906 86.96875 L 139.152344 86.96875 C 138.917969 86.96875 138.726563 86.777344 138.726563 86.542969 L 138.726563 81.867188 C 138.726563 81.632813 138.917969 81.441406 139.152344 81.441406 L 140.003906 81.441406 C 140.238281 81.441406 140.429688 81.632813 140.429688 81.867188 L 140.429688 86.542969 C 140.429688 86.777344 140.238281 86.96875 140.003906 86.96875 Z "/>
<path style=" stroke:none;fill-rule:evenodd;fill:rgb(45.098039%,45.098039%,87.058824%);fill-opacity:1;" d="M 143.605469 86.96875 L 142.753906 86.96875 C 142.519531 86.96875 142.328125 86.777344 142.328125 86.542969 L 142.328125 81.867188 C 142.328125 81.632813 142.519531 81.441406 142.753906 81.441406 L 143.605469 81.441406 C 143.839844 81.441406 144.027344 81.632813 144.027344 81.867188 L 144.027344 86.542969 C 144.027344 86.777344 143.839844 86.96875 143.605469 86.96875 Z "/>
<path style=" stroke:none;fill-rule:evenodd;fill:rgb(45.098039%,45.098039%,87.058824%);fill-opacity:1;" d="M 147.203125 86.96875 L 146.351563 86.96875 C 146.117188 86.96875 145.929688 86.777344 145.929688 86.542969 L 145.929688 81.867188 C 145.929688 81.632813 146.117188 81.441406 146.351563 81.441406 L 147.203125 81.441406 C 147.4375 81.441406 147.628906 81.632813 147.628906 81.867188 L 147.628906 86.542969 C 147.628906 86.777344 147.4375 86.96875 147.203125 86.96875 Z "/>
<path style=" stroke:none;fill-rule:evenodd;fill:rgb(45.098039%,45.098039%,87.058824%);fill-opacity:1;" d="M 147.203125 101 L 146.351563 101 C 146.117188 101 145.929688 100.808594 145.929688 100.574219 L 145.929688 95.898438 C 145.929688 95.664063 146.117188 95.472656 146.351563 95.472656 L 147.203125 95.472656 C 147.4375 95.472656 147.628906 95.664063 147.628906 95.898438 L 147.628906 100.574219 C 147.628906 100.808594 147.4375 101 147.203125 101 Z "/>
<path style=" stroke:none;fill-rule:evenodd;fill:rgb(45.098039%,45.098039%,87.058824%);fill-opacity:1;" d="M 143.605469 101 L 142.753906 101 C 142.519531 101 142.328125 100.808594 142.328125 100.574219 L 142.328125 95.898438 C 142.328125 95.664063 142.519531 95.472656 142.753906 95.472656 L 143.605469 95.472656 C 143.839844 95.472656 144.027344 95.664063 144.027344 95.898438 L 144.027344 100.574219 C 144.027344 100.808594 143.839844 101 143.605469 101 Z "/>
<path style=" stroke:none;fill-rule:evenodd;fill:rgb(45.098039%,45.098039%,87.058824%);fill-opacity:1;" d="M 140.003906 101 L 139.152344 101 C 138.917969 101 138.726563 100.808594 138.726563 100.574219 L 138.726563 95.898438 C 138.726563 95.664063 138.917969 95.472656 139.152344 95.472656 L 140.003906 95.472656 C 140.238281 95.472656 140.429688 95.664063 140.429688 95.898438 L 140.429688 100.574219 C 140.429688 100.808594 140.238281 101 140.003906 101 Z "/>
<path style=" stroke:none;fill-rule:evenodd;fill:rgb(45.098039%,45.098039%,87.058824%);fill-opacity:1;" d="M 136.402344 101 L 135.554688 101 C 135.320313 101 135.128906 100.808594 135.128906 100.574219 L 135.128906 95.898438 C 135.128906 95.664063 135.320313 95.472656 135.554688 95.472656 L 136.402344 95.472656 C 136.636719 95.472656 136.828125 95.664063 136.828125 95.898438 L 136.828125 100.574219 C 136.828125 100.808594 136.636719 101 136.402344 101 Z "/>
</g>
</svg>
