%TF.GenerationSoftware,KiCad,Pcbnew,(5.1.7)-1*%
%TF.CreationDate,2021-05-11T13:40:29-05:00*%
%TF.ProjectId,instrumentation_amplifier,696e7374-7275-46d6-956e-746174696f6e,1.1*%
%TF.SameCoordinates,Original*%
%TF.FileFunction,Legend,Top*%
%TF.FilePolarity,Positive*%
%FSLAX46Y46*%
G04 Gerber Fmt 4.6, Leading zero omitted, Abs format (unit mm)*
G04 Created by KiCad (PCBNEW (5.1.7)-1) date 2021-05-11 13:40:29*
%MOMM*%
%LPD*%
G01*
G04 APERTURE LIST*
%ADD10C,0.300000*%
%ADD11C,0.177800*%
%ADD12C,0.228600*%
%ADD13C,0.539750*%
%ADD14C,0.150000*%
%ADD15C,0.120000*%
%ADD16C,0.762000*%
%ADD17C,0.010000*%
%ADD18C,0.127000*%
%ADD19C,0.200000*%
%ADD20C,0.254000*%
%ADD21C,0.100000*%
G04 APERTURE END LIST*
D10*
X121523285Y-115677142D02*
X122666142Y-115677142D01*
X122094714Y-116248571D02*
X122094714Y-115105714D01*
X124094714Y-114748571D02*
X123380428Y-114748571D01*
X123309000Y-115462857D01*
X123380428Y-115391428D01*
X123523285Y-115320000D01*
X123880428Y-115320000D01*
X124023285Y-115391428D01*
X124094714Y-115462857D01*
X124166142Y-115605714D01*
X124166142Y-115962857D01*
X124094714Y-116105714D01*
X124023285Y-116177142D01*
X123880428Y-116248571D01*
X123523285Y-116248571D01*
X123380428Y-116177142D01*
X123309000Y-116105714D01*
X122301142Y-112280000D02*
X122158285Y-112208571D01*
X121944000Y-112208571D01*
X121729714Y-112280000D01*
X121586857Y-112422857D01*
X121515428Y-112565714D01*
X121444000Y-112851428D01*
X121444000Y-113065714D01*
X121515428Y-113351428D01*
X121586857Y-113494285D01*
X121729714Y-113637142D01*
X121944000Y-113708571D01*
X122086857Y-113708571D01*
X122301142Y-113637142D01*
X122372571Y-113565714D01*
X122372571Y-113065714D01*
X122086857Y-113065714D01*
X123015428Y-113708571D02*
X123015428Y-112208571D01*
X123872571Y-113708571D01*
X123872571Y-112208571D01*
X124586857Y-113708571D02*
X124586857Y-112208571D01*
X124944000Y-112208571D01*
X125158285Y-112280000D01*
X125301142Y-112422857D01*
X125372571Y-112565714D01*
X125444000Y-112851428D01*
X125444000Y-113065714D01*
X125372571Y-113351428D01*
X125301142Y-113494285D01*
X125158285Y-113637142D01*
X124944000Y-113708571D01*
X124586857Y-113708571D01*
X122301142Y-109740000D02*
X122158285Y-109668571D01*
X121944000Y-109668571D01*
X121729714Y-109740000D01*
X121586857Y-109882857D01*
X121515428Y-110025714D01*
X121444000Y-110311428D01*
X121444000Y-110525714D01*
X121515428Y-110811428D01*
X121586857Y-110954285D01*
X121729714Y-111097142D01*
X121944000Y-111168571D01*
X122086857Y-111168571D01*
X122301142Y-111097142D01*
X122372571Y-111025714D01*
X122372571Y-110525714D01*
X122086857Y-110525714D01*
X123015428Y-111168571D02*
X123015428Y-109668571D01*
X123872571Y-111168571D01*
X123872571Y-109668571D01*
X124586857Y-111168571D02*
X124586857Y-109668571D01*
X124944000Y-109668571D01*
X125158285Y-109740000D01*
X125301142Y-109882857D01*
X125372571Y-110025714D01*
X125444000Y-110311428D01*
X125444000Y-110525714D01*
X125372571Y-110811428D01*
X125301142Y-110954285D01*
X125158285Y-111097142D01*
X124944000Y-111168571D01*
X124586857Y-111168571D01*
X121523285Y-108057142D02*
X122666142Y-108057142D01*
X124094714Y-107128571D02*
X123380428Y-107128571D01*
X123309000Y-107842857D01*
X123380428Y-107771428D01*
X123523285Y-107700000D01*
X123880428Y-107700000D01*
X124023285Y-107771428D01*
X124094714Y-107842857D01*
X124166142Y-107985714D01*
X124166142Y-108342857D01*
X124094714Y-108485714D01*
X124023285Y-108557142D01*
X123880428Y-108628571D01*
X123523285Y-108628571D01*
X123380428Y-108557142D01*
X123309000Y-108485714D01*
X119336714Y-60114571D02*
X119336714Y-58614571D01*
X119908142Y-58614571D01*
X120051000Y-58686000D01*
X120122428Y-58757428D01*
X120193857Y-58900285D01*
X120193857Y-59114571D01*
X120122428Y-59257428D01*
X120051000Y-59328857D01*
X119908142Y-59400285D01*
X119336714Y-59400285D01*
X121051000Y-60114571D02*
X120908142Y-60043142D01*
X120836714Y-59971714D01*
X120765285Y-59828857D01*
X120765285Y-59400285D01*
X120836714Y-59257428D01*
X120908142Y-59186000D01*
X121051000Y-59114571D01*
X121265285Y-59114571D01*
X121408142Y-59186000D01*
X121479571Y-59257428D01*
X121551000Y-59400285D01*
X121551000Y-59828857D01*
X121479571Y-59971714D01*
X121408142Y-60043142D01*
X121265285Y-60114571D01*
X121051000Y-60114571D01*
X122051000Y-59114571D02*
X122336714Y-60114571D01*
X122622428Y-59400285D01*
X122908142Y-60114571D01*
X123193857Y-59114571D01*
X124336714Y-60043142D02*
X124193857Y-60114571D01*
X123908142Y-60114571D01*
X123765285Y-60043142D01*
X123693857Y-59900285D01*
X123693857Y-59328857D01*
X123765285Y-59186000D01*
X123908142Y-59114571D01*
X124193857Y-59114571D01*
X124336714Y-59186000D01*
X124408142Y-59328857D01*
X124408142Y-59471714D01*
X123693857Y-59614571D01*
X125051000Y-60114571D02*
X125051000Y-59114571D01*
X125051000Y-59400285D02*
X125122428Y-59257428D01*
X125193857Y-59186000D01*
X125336714Y-59114571D01*
X125479571Y-59114571D01*
D11*
X137894785Y-102625071D02*
X137894785Y-103387071D01*
X137622642Y-102189642D02*
X137350500Y-103006071D01*
X138058071Y-103006071D01*
X138384642Y-102244071D02*
X139146642Y-102244071D01*
X138656785Y-103387071D01*
X139582071Y-103387071D02*
X139582071Y-102244071D01*
X139690928Y-102951642D02*
X140017500Y-103387071D01*
X140017500Y-102625071D02*
X139582071Y-103060500D01*
X147782642Y-103387071D02*
X147129500Y-103387071D01*
X147456071Y-103387071D02*
X147456071Y-102244071D01*
X147347214Y-102407357D01*
X147238357Y-102516214D01*
X147129500Y-102570642D01*
X148490214Y-102244071D02*
X148599071Y-102244071D01*
X148707928Y-102298500D01*
X148762357Y-102352928D01*
X148816785Y-102461785D01*
X148871214Y-102679500D01*
X148871214Y-102951642D01*
X148816785Y-103169357D01*
X148762357Y-103278214D01*
X148707928Y-103332642D01*
X148599071Y-103387071D01*
X148490214Y-103387071D01*
X148381357Y-103332642D01*
X148326928Y-103278214D01*
X148272500Y-103169357D01*
X148218071Y-102951642D01*
X148218071Y-102679500D01*
X148272500Y-102461785D01*
X148326928Y-102352928D01*
X148381357Y-102298500D01*
X148490214Y-102244071D01*
X149361071Y-103387071D02*
X149361071Y-102244071D01*
X149469928Y-102951642D02*
X149796500Y-103387071D01*
X149796500Y-102625071D02*
X149361071Y-103060500D01*
X137767785Y-74685071D02*
X137767785Y-75447071D01*
X137495642Y-74249642D02*
X137223500Y-75066071D01*
X137931071Y-75066071D01*
X138257642Y-74304071D02*
X139019642Y-74304071D01*
X138529785Y-75447071D01*
X139455071Y-75447071D02*
X139455071Y-74304071D01*
X139563928Y-75011642D02*
X139890500Y-75447071D01*
X139890500Y-74685071D02*
X139455071Y-75120500D01*
X147782642Y-75447071D02*
X147129500Y-75447071D01*
X147456071Y-75447071D02*
X147456071Y-74304071D01*
X147347214Y-74467357D01*
X147238357Y-74576214D01*
X147129500Y-74630642D01*
X148490214Y-74304071D02*
X148599071Y-74304071D01*
X148707928Y-74358500D01*
X148762357Y-74412928D01*
X148816785Y-74521785D01*
X148871214Y-74739500D01*
X148871214Y-75011642D01*
X148816785Y-75229357D01*
X148762357Y-75338214D01*
X148707928Y-75392642D01*
X148599071Y-75447071D01*
X148490214Y-75447071D01*
X148381357Y-75392642D01*
X148326928Y-75338214D01*
X148272500Y-75229357D01*
X148218071Y-75011642D01*
X148218071Y-74739500D01*
X148272500Y-74521785D01*
X148326928Y-74412928D01*
X148381357Y-74358500D01*
X148490214Y-74304071D01*
X149361071Y-75447071D02*
X149361071Y-74304071D01*
X149469928Y-75011642D02*
X149796500Y-75447071D01*
X149796500Y-74685071D02*
X149361071Y-75120500D01*
D10*
X108176714Y-90721571D02*
X108176714Y-89221571D01*
X108891000Y-89721571D02*
X108891000Y-90721571D01*
X108891000Y-89864428D02*
X108962428Y-89793000D01*
X109105285Y-89721571D01*
X109319571Y-89721571D01*
X109462428Y-89793000D01*
X109533857Y-89935857D01*
X109533857Y-90721571D01*
X110248142Y-89721571D02*
X110248142Y-91221571D01*
X110248142Y-89793000D02*
X110391000Y-89721571D01*
X110676714Y-89721571D01*
X110819571Y-89793000D01*
X110891000Y-89864428D01*
X110962428Y-90007285D01*
X110962428Y-90435857D01*
X110891000Y-90578714D01*
X110819571Y-90650142D01*
X110676714Y-90721571D01*
X110391000Y-90721571D01*
X110248142Y-90650142D01*
X112248142Y-89721571D02*
X112248142Y-90721571D01*
X111605285Y-89721571D02*
X111605285Y-90507285D01*
X111676714Y-90650142D01*
X111819571Y-90721571D01*
X112033857Y-90721571D01*
X112176714Y-90650142D01*
X112248142Y-90578714D01*
X112748142Y-89721571D02*
X113319571Y-89721571D01*
X112962428Y-89221571D02*
X112962428Y-90507285D01*
X113033857Y-90650142D01*
X113176714Y-90721571D01*
X113319571Y-90721571D01*
X114962428Y-90150142D02*
X116105285Y-90150142D01*
X108176714Y-88181571D02*
X108176714Y-86681571D01*
X108891000Y-87181571D02*
X108891000Y-88181571D01*
X108891000Y-87324428D02*
X108962428Y-87253000D01*
X109105285Y-87181571D01*
X109319571Y-87181571D01*
X109462428Y-87253000D01*
X109533857Y-87395857D01*
X109533857Y-88181571D01*
X110248142Y-87181571D02*
X110248142Y-88681571D01*
X110248142Y-87253000D02*
X110391000Y-87181571D01*
X110676714Y-87181571D01*
X110819571Y-87253000D01*
X110891000Y-87324428D01*
X110962428Y-87467285D01*
X110962428Y-87895857D01*
X110891000Y-88038714D01*
X110819571Y-88110142D01*
X110676714Y-88181571D01*
X110391000Y-88181571D01*
X110248142Y-88110142D01*
X112248142Y-87181571D02*
X112248142Y-88181571D01*
X111605285Y-87181571D02*
X111605285Y-87967285D01*
X111676714Y-88110142D01*
X111819571Y-88181571D01*
X112033857Y-88181571D01*
X112176714Y-88110142D01*
X112248142Y-88038714D01*
X112748142Y-87181571D02*
X113319571Y-87181571D01*
X112962428Y-86681571D02*
X112962428Y-87967285D01*
X113033857Y-88110142D01*
X113176714Y-88181571D01*
X113319571Y-88181571D01*
X114962428Y-87610142D02*
X116105285Y-87610142D01*
X115533857Y-88181571D02*
X115533857Y-87038714D01*
X164604285Y-86808571D02*
X164890000Y-86808571D01*
X165032857Y-86880000D01*
X165175714Y-87022857D01*
X165247142Y-87308571D01*
X165247142Y-87808571D01*
X165175714Y-88094285D01*
X165032857Y-88237142D01*
X164890000Y-88308571D01*
X164604285Y-88308571D01*
X164461428Y-88237142D01*
X164318571Y-88094285D01*
X164247142Y-87808571D01*
X164247142Y-87308571D01*
X164318571Y-87022857D01*
X164461428Y-86880000D01*
X164604285Y-86808571D01*
X166532857Y-87308571D02*
X166532857Y-88308571D01*
X165890000Y-87308571D02*
X165890000Y-88094285D01*
X165961428Y-88237142D01*
X166104285Y-88308571D01*
X166318571Y-88308571D01*
X166461428Y-88237142D01*
X166532857Y-88165714D01*
X167032857Y-87308571D02*
X167604285Y-87308571D01*
X167247142Y-86808571D02*
X167247142Y-88094285D01*
X167318571Y-88237142D01*
X167461428Y-88308571D01*
X167604285Y-88308571D01*
X168104285Y-87308571D02*
X168104285Y-88808571D01*
X168104285Y-87380000D02*
X168247142Y-87308571D01*
X168532857Y-87308571D01*
X168675714Y-87380000D01*
X168747142Y-87451428D01*
X168818571Y-87594285D01*
X168818571Y-88022857D01*
X168747142Y-88165714D01*
X168675714Y-88237142D01*
X168532857Y-88308571D01*
X168247142Y-88308571D01*
X168104285Y-88237142D01*
X170104285Y-87308571D02*
X170104285Y-88308571D01*
X169461428Y-87308571D02*
X169461428Y-88094285D01*
X169532857Y-88237142D01*
X169675714Y-88308571D01*
X169890000Y-88308571D01*
X170032857Y-88237142D01*
X170104285Y-88165714D01*
X170604285Y-87308571D02*
X171175714Y-87308571D01*
X170818571Y-86808571D02*
X170818571Y-88094285D01*
X170890000Y-88237142D01*
X171032857Y-88308571D01*
X171175714Y-88308571D01*
X165100142Y-89674000D02*
X164957285Y-89602571D01*
X164743000Y-89602571D01*
X164528714Y-89674000D01*
X164385857Y-89816857D01*
X164314428Y-89959714D01*
X164243000Y-90245428D01*
X164243000Y-90459714D01*
X164314428Y-90745428D01*
X164385857Y-90888285D01*
X164528714Y-91031142D01*
X164743000Y-91102571D01*
X164885857Y-91102571D01*
X165100142Y-91031142D01*
X165171571Y-90959714D01*
X165171571Y-90459714D01*
X164885857Y-90459714D01*
X165814428Y-91102571D02*
X165814428Y-89602571D01*
X166671571Y-91102571D01*
X166671571Y-89602571D01*
X167385857Y-91102571D02*
X167385857Y-89602571D01*
X167743000Y-89602571D01*
X167957285Y-89674000D01*
X168100142Y-89816857D01*
X168171571Y-89959714D01*
X168243000Y-90245428D01*
X168243000Y-90459714D01*
X168171571Y-90745428D01*
X168100142Y-90888285D01*
X167957285Y-91031142D01*
X167743000Y-91102571D01*
X167385857Y-91102571D01*
D12*
X104400047Y-77887285D02*
X104400047Y-78564619D01*
X104158142Y-77500238D02*
X103916238Y-78225952D01*
X104545190Y-78225952D01*
X104932238Y-78467857D02*
X104980619Y-78516238D01*
X104932238Y-78564619D01*
X104883857Y-78516238D01*
X104932238Y-78467857D01*
X104932238Y-78564619D01*
X105899857Y-77548619D02*
X105416047Y-77548619D01*
X105367666Y-78032428D01*
X105416047Y-77984047D01*
X105512809Y-77935666D01*
X105754714Y-77935666D01*
X105851476Y-77984047D01*
X105899857Y-78032428D01*
X105948238Y-78129190D01*
X105948238Y-78371095D01*
X105899857Y-78467857D01*
X105851476Y-78516238D01*
X105754714Y-78564619D01*
X105512809Y-78564619D01*
X105416047Y-78516238D01*
X105367666Y-78467857D01*
X106383666Y-78177571D02*
X107157761Y-78177571D01*
X108173761Y-78564619D02*
X107593190Y-78564619D01*
X107883476Y-78564619D02*
X107883476Y-77548619D01*
X107786714Y-77693761D01*
X107689952Y-77790523D01*
X107593190Y-77838904D01*
X108512428Y-77548619D02*
X109141380Y-77548619D01*
X108802714Y-77935666D01*
X108947857Y-77935666D01*
X109044619Y-77984047D01*
X109093000Y-78032428D01*
X109141380Y-78129190D01*
X109141380Y-78371095D01*
X109093000Y-78467857D01*
X109044619Y-78516238D01*
X108947857Y-78564619D01*
X108657571Y-78564619D01*
X108560809Y-78516238D01*
X108512428Y-78467857D01*
X109576809Y-78467857D02*
X109625190Y-78516238D01*
X109576809Y-78564619D01*
X109528428Y-78516238D01*
X109576809Y-78467857D01*
X109576809Y-78564619D01*
X110012238Y-77645380D02*
X110060619Y-77597000D01*
X110157380Y-77548619D01*
X110399285Y-77548619D01*
X110496047Y-77597000D01*
X110544428Y-77645380D01*
X110592809Y-77742142D01*
X110592809Y-77838904D01*
X110544428Y-77984047D01*
X109963857Y-78564619D01*
X110592809Y-78564619D01*
X111657190Y-77548619D02*
X111995857Y-78564619D01*
X112334523Y-77548619D01*
X112673190Y-78564619D02*
X112673190Y-77548619D01*
X112915095Y-77548619D01*
X113060238Y-77597000D01*
X113157000Y-77693761D01*
X113205380Y-77790523D01*
X113253761Y-77984047D01*
X113253761Y-78129190D01*
X113205380Y-78322714D01*
X113157000Y-78419476D01*
X113060238Y-78516238D01*
X112915095Y-78564619D01*
X112673190Y-78564619D01*
X114269761Y-78467857D02*
X114221380Y-78516238D01*
X114076238Y-78564619D01*
X113979476Y-78564619D01*
X113834333Y-78516238D01*
X113737571Y-78419476D01*
X113689190Y-78322714D01*
X113640809Y-78129190D01*
X113640809Y-77984047D01*
X113689190Y-77790523D01*
X113737571Y-77693761D01*
X113834333Y-77597000D01*
X113979476Y-77548619D01*
X114076238Y-77548619D01*
X114221380Y-77597000D01*
X114269761Y-77645380D01*
D13*
X146440071Y-125309690D02*
X145411976Y-125309690D01*
X145411976Y-123150690D01*
X147982214Y-125206880D02*
X147776595Y-125309690D01*
X147365357Y-125309690D01*
X147159738Y-125206880D01*
X147056928Y-125001261D01*
X147056928Y-124178785D01*
X147159738Y-123973166D01*
X147365357Y-123870357D01*
X147776595Y-123870357D01*
X147982214Y-123973166D01*
X148085023Y-124178785D01*
X148085023Y-124384404D01*
X147056928Y-124590023D01*
X149832785Y-125206880D02*
X149627166Y-125309690D01*
X149215928Y-125309690D01*
X149010309Y-125206880D01*
X148907500Y-125001261D01*
X148907500Y-124178785D01*
X149010309Y-123973166D01*
X149215928Y-123870357D01*
X149627166Y-123870357D01*
X149832785Y-123973166D01*
X149935595Y-124178785D01*
X149935595Y-124384404D01*
X148907500Y-124590023D01*
X150860880Y-125309690D02*
X150860880Y-123870357D01*
X150860880Y-124075976D02*
X150963690Y-123973166D01*
X151169309Y-123870357D01*
X151477738Y-123870357D01*
X151683357Y-123973166D01*
X151786166Y-124178785D01*
X151786166Y-125309690D01*
X151786166Y-124178785D02*
X151888976Y-123973166D01*
X152094595Y-123870357D01*
X152403023Y-123870357D01*
X152608642Y-123973166D01*
X152711452Y-124178785D01*
X152711452Y-125309690D01*
X154664833Y-125309690D02*
X154664833Y-124178785D01*
X154562023Y-123973166D01*
X154356404Y-123870357D01*
X153945166Y-123870357D01*
X153739547Y-123973166D01*
X154664833Y-125206880D02*
X154459214Y-125309690D01*
X153945166Y-125309690D01*
X153739547Y-125206880D01*
X153636738Y-125001261D01*
X153636738Y-124795642D01*
X153739547Y-124590023D01*
X153945166Y-124487214D01*
X154459214Y-124487214D01*
X154664833Y-124384404D01*
X155692928Y-123870357D02*
X155692928Y-125309690D01*
X155692928Y-124075976D02*
X155795738Y-123973166D01*
X156001357Y-123870357D01*
X156309785Y-123870357D01*
X156515404Y-123973166D01*
X156618214Y-124178785D01*
X156618214Y-125309690D01*
X160422166Y-123253500D02*
X160216547Y-123150690D01*
X159908119Y-123150690D01*
X159599690Y-123253500D01*
X159394071Y-123459119D01*
X159291261Y-123664738D01*
X159188452Y-124075976D01*
X159188452Y-124384404D01*
X159291261Y-124795642D01*
X159394071Y-125001261D01*
X159599690Y-125206880D01*
X159908119Y-125309690D01*
X160113738Y-125309690D01*
X160422166Y-125206880D01*
X160524976Y-125104071D01*
X160524976Y-124384404D01*
X160113738Y-124384404D01*
X162272738Y-125206880D02*
X162067119Y-125309690D01*
X161655880Y-125309690D01*
X161450261Y-125206880D01*
X161347452Y-125001261D01*
X161347452Y-124178785D01*
X161450261Y-123973166D01*
X161655880Y-123870357D01*
X162067119Y-123870357D01*
X162272738Y-123973166D01*
X162375547Y-124178785D01*
X162375547Y-124384404D01*
X161347452Y-124590023D01*
X163609261Y-125309690D02*
X163403642Y-125206880D01*
X163300833Y-125104071D01*
X163198023Y-124898452D01*
X163198023Y-124281595D01*
X163300833Y-124075976D01*
X163403642Y-123973166D01*
X163609261Y-123870357D01*
X163917690Y-123870357D01*
X164123309Y-123973166D01*
X164226119Y-124075976D01*
X164328928Y-124281595D01*
X164328928Y-124898452D01*
X164226119Y-125104071D01*
X164123309Y-125206880D01*
X163917690Y-125309690D01*
X163609261Y-125309690D01*
X165254214Y-123870357D02*
X165254214Y-126029357D01*
X165254214Y-123973166D02*
X165459833Y-123870357D01*
X165871071Y-123870357D01*
X166076690Y-123973166D01*
X166179500Y-124075976D01*
X166282309Y-124281595D01*
X166282309Y-124898452D01*
X166179500Y-125104071D01*
X166076690Y-125206880D01*
X165871071Y-125309690D01*
X165459833Y-125309690D01*
X165254214Y-125206880D01*
X167207595Y-125309690D02*
X167207595Y-123150690D01*
X168132880Y-125309690D02*
X168132880Y-124178785D01*
X168030071Y-123973166D01*
X167824452Y-123870357D01*
X167516023Y-123870357D01*
X167310404Y-123973166D01*
X167207595Y-124075976D01*
X168955357Y-123870357D02*
X169469404Y-125309690D01*
X169983452Y-123870357D02*
X169469404Y-125309690D01*
X169263785Y-125823738D01*
X169160976Y-125926547D01*
X168955357Y-126029357D01*
X170703119Y-125206880D02*
X170908738Y-125309690D01*
X171319976Y-125309690D01*
X171525595Y-125206880D01*
X171628404Y-125001261D01*
X171628404Y-124898452D01*
X171525595Y-124692833D01*
X171319976Y-124590023D01*
X171011547Y-124590023D01*
X170805928Y-124487214D01*
X170703119Y-124281595D01*
X170703119Y-124178785D01*
X170805928Y-123973166D01*
X171011547Y-123870357D01*
X171319976Y-123870357D01*
X171525595Y-123973166D01*
X172553690Y-125309690D02*
X172553690Y-123870357D01*
X172553690Y-123150690D02*
X172450880Y-123253500D01*
X172553690Y-123356309D01*
X172656500Y-123253500D01*
X172553690Y-123150690D01*
X172553690Y-123356309D01*
X174507071Y-125206880D02*
X174301452Y-125309690D01*
X173890214Y-125309690D01*
X173684595Y-125206880D01*
X173581785Y-125104071D01*
X173478976Y-124898452D01*
X173478976Y-124281595D01*
X173581785Y-124075976D01*
X173684595Y-123973166D01*
X173890214Y-123870357D01*
X174301452Y-123870357D01*
X174507071Y-123973166D01*
X176357642Y-125309690D02*
X176357642Y-124178785D01*
X176254833Y-123973166D01*
X176049214Y-123870357D01*
X175637976Y-123870357D01*
X175432357Y-123973166D01*
X176357642Y-125206880D02*
X176152023Y-125309690D01*
X175637976Y-125309690D01*
X175432357Y-125206880D01*
X175329547Y-125001261D01*
X175329547Y-124795642D01*
X175432357Y-124590023D01*
X175637976Y-124487214D01*
X176152023Y-124487214D01*
X176357642Y-124384404D01*
X177694166Y-125309690D02*
X177488547Y-125206880D01*
X177385738Y-125001261D01*
X177385738Y-123150690D01*
X181189690Y-125309690D02*
X180161595Y-125309690D01*
X180161595Y-123150690D01*
X182937452Y-125309690D02*
X181909357Y-125309690D01*
X181909357Y-123150690D01*
X184890833Y-125104071D02*
X184788023Y-125206880D01*
X184479595Y-125309690D01*
X184273976Y-125309690D01*
X183965547Y-125206880D01*
X183759928Y-125001261D01*
X183657119Y-124795642D01*
X183554309Y-124384404D01*
X183554309Y-124075976D01*
X183657119Y-123664738D01*
X183759928Y-123459119D01*
X183965547Y-123253500D01*
X184273976Y-123150690D01*
X184479595Y-123150690D01*
X184788023Y-123253500D01*
X184890833Y-123356309D01*
D11*
X196741142Y-112404071D02*
X196196857Y-112404071D01*
X196142428Y-112948357D01*
X196196857Y-112893928D01*
X196305714Y-112839500D01*
X196577857Y-112839500D01*
X196686714Y-112893928D01*
X196741142Y-112948357D01*
X196795571Y-113057214D01*
X196795571Y-113329357D01*
X196741142Y-113438214D01*
X196686714Y-113492642D01*
X196577857Y-113547071D01*
X196305714Y-113547071D01*
X196196857Y-113492642D01*
X196142428Y-113438214D01*
X196686714Y-108975071D02*
X196686714Y-109737071D01*
X196414571Y-108539642D02*
X196142428Y-109356071D01*
X196850000Y-109356071D01*
X196142428Y-101082928D02*
X196196857Y-101028500D01*
X196305714Y-100974071D01*
X196577857Y-100974071D01*
X196686714Y-101028500D01*
X196741142Y-101082928D01*
X196795571Y-101191785D01*
X196795571Y-101300642D01*
X196741142Y-101463928D01*
X196088000Y-102117071D01*
X196795571Y-102117071D01*
X196088000Y-104784071D02*
X196795571Y-104784071D01*
X196414571Y-105219500D01*
X196577857Y-105219500D01*
X196686714Y-105273928D01*
X196741142Y-105328357D01*
X196795571Y-105437214D01*
X196795571Y-105709357D01*
X196741142Y-105818214D01*
X196686714Y-105872642D01*
X196577857Y-105927071D01*
X196251285Y-105927071D01*
X196142428Y-105872642D01*
X196088000Y-105818214D01*
X196795571Y-98307071D02*
X196142428Y-98307071D01*
X196469000Y-98307071D02*
X196469000Y-97164071D01*
X196360142Y-97327357D01*
X196251285Y-97436214D01*
X196142428Y-97490642D01*
D14*
X193302333Y-95194380D02*
X193302333Y-94194380D01*
X193683285Y-94194380D01*
X193778523Y-94242000D01*
X193826142Y-94289619D01*
X193873761Y-94384857D01*
X193873761Y-94527714D01*
X193826142Y-94622952D01*
X193778523Y-94670571D01*
X193683285Y-94718190D01*
X193302333Y-94718190D01*
X194492809Y-94194380D02*
X194683285Y-94194380D01*
X194778523Y-94242000D01*
X194873761Y-94337238D01*
X194921380Y-94527714D01*
X194921380Y-94861047D01*
X194873761Y-95051523D01*
X194778523Y-95146761D01*
X194683285Y-95194380D01*
X194492809Y-95194380D01*
X194397571Y-95146761D01*
X194302333Y-95051523D01*
X194254714Y-94861047D01*
X194254714Y-94527714D01*
X194302333Y-94337238D01*
X194397571Y-94242000D01*
X194492809Y-94194380D01*
X195302333Y-95146761D02*
X195445190Y-95194380D01*
X195683285Y-95194380D01*
X195778523Y-95146761D01*
X195826142Y-95099142D01*
X195873761Y-95003904D01*
X195873761Y-94908666D01*
X195826142Y-94813428D01*
X195778523Y-94765809D01*
X195683285Y-94718190D01*
X195492809Y-94670571D01*
X195397571Y-94622952D01*
X195349952Y-94575333D01*
X195302333Y-94480095D01*
X195302333Y-94384857D01*
X195349952Y-94289619D01*
X195397571Y-94242000D01*
X195492809Y-94194380D01*
X195730904Y-94194380D01*
X195873761Y-94242000D01*
X196302333Y-95194380D02*
X196302333Y-94194380D01*
X196635666Y-94194380D02*
X197207095Y-94194380D01*
X196921380Y-95194380D02*
X196921380Y-94194380D01*
X197540428Y-95194380D02*
X197540428Y-94194380D01*
X198207095Y-94194380D02*
X198397571Y-94194380D01*
X198492809Y-94242000D01*
X198588047Y-94337238D01*
X198635666Y-94527714D01*
X198635666Y-94861047D01*
X198588047Y-95051523D01*
X198492809Y-95146761D01*
X198397571Y-95194380D01*
X198207095Y-95194380D01*
X198111857Y-95146761D01*
X198016619Y-95051523D01*
X197969000Y-94861047D01*
X197969000Y-94527714D01*
X198016619Y-94337238D01*
X198111857Y-94242000D01*
X198207095Y-94194380D01*
X199064238Y-95194380D02*
X199064238Y-94194380D01*
X199635666Y-95194380D01*
X199635666Y-94194380D01*
X204430428Y-94242000D02*
X204335190Y-94194380D01*
X204192333Y-94194380D01*
X204049476Y-94242000D01*
X203954238Y-94337238D01*
X203906619Y-94432476D01*
X203859000Y-94622952D01*
X203859000Y-94765809D01*
X203906619Y-94956285D01*
X203954238Y-95051523D01*
X204049476Y-95146761D01*
X204192333Y-95194380D01*
X204287571Y-95194380D01*
X204430428Y-95146761D01*
X204478047Y-95099142D01*
X204478047Y-94765809D01*
X204287571Y-94765809D01*
X204859000Y-94908666D02*
X205335190Y-94908666D01*
X204763761Y-95194380D02*
X205097095Y-94194380D01*
X205430428Y-95194380D01*
X205763761Y-95194380D02*
X205763761Y-94194380D01*
X206239952Y-95194380D02*
X206239952Y-94194380D01*
X206811380Y-95194380D01*
X206811380Y-94194380D01*
D15*
X210439000Y-115062000D02*
X192659000Y-115062000D01*
X192659000Y-113792000D02*
X192659000Y-115062000D01*
X210439000Y-113792000D02*
X210439000Y-115062000D01*
X200279000Y-113792000D02*
X200279000Y-115062000D01*
X192659000Y-111252000D02*
X210439000Y-111252000D01*
X192659000Y-107442000D02*
X210439000Y-107442000D01*
X192659000Y-103632000D02*
X210439000Y-103632000D01*
X192659000Y-99822000D02*
X210439000Y-99822000D01*
X192659000Y-96012000D02*
X210439000Y-96012000D01*
X210439000Y-93472000D02*
X210439000Y-113792000D01*
X207899000Y-93472000D02*
X210439000Y-93472000D01*
X192659000Y-93472000D02*
X192659000Y-113792000D01*
X200279000Y-93472000D02*
X200279000Y-113792000D01*
X192659000Y-93472000D02*
X207899000Y-93472000D01*
X199263000Y-57150000D02*
X131445000Y-57150000D01*
D16*
X131995333Y-56218666D02*
X131995333Y-52662666D01*
X133688666Y-53848000D02*
X133688666Y-56218666D01*
X133688666Y-54186666D02*
X133857999Y-54017333D01*
X134196666Y-53848000D01*
X134704666Y-53848000D01*
X135043333Y-54017333D01*
X135212666Y-54356000D01*
X135212666Y-56218666D01*
X136736666Y-56049333D02*
X137075333Y-56218666D01*
X137752666Y-56218666D01*
X138091333Y-56049333D01*
X138260666Y-55710666D01*
X138260666Y-55541333D01*
X138091333Y-55202666D01*
X137752666Y-55033333D01*
X137244666Y-55033333D01*
X136906000Y-54864000D01*
X136736666Y-54525333D01*
X136736666Y-54356000D01*
X136906000Y-54017333D01*
X137244666Y-53848000D01*
X137752666Y-53848000D01*
X138091333Y-54017333D01*
X139276666Y-53848000D02*
X140631333Y-53848000D01*
X139784666Y-52662666D02*
X139784666Y-55710666D01*
X139954000Y-56049333D01*
X140292666Y-56218666D01*
X140631333Y-56218666D01*
X141816666Y-56218666D02*
X141816666Y-53848000D01*
X141816666Y-54525333D02*
X141986000Y-54186666D01*
X142155333Y-54017333D01*
X142494000Y-53848000D01*
X142832666Y-53848000D01*
X145542000Y-53848000D02*
X145542000Y-56218666D01*
X144018000Y-53848000D02*
X144018000Y-55710666D01*
X144187333Y-56049333D01*
X144526000Y-56218666D01*
X145034000Y-56218666D01*
X145372666Y-56049333D01*
X145542000Y-55880000D01*
X147235333Y-56218666D02*
X147235333Y-53848000D01*
X147235333Y-54186666D02*
X147404666Y-54017333D01*
X147743333Y-53848000D01*
X148251333Y-53848000D01*
X148590000Y-54017333D01*
X148759333Y-54356000D01*
X148759333Y-56218666D01*
X148759333Y-54356000D02*
X148928666Y-54017333D01*
X149267333Y-53848000D01*
X149775333Y-53848000D01*
X150114000Y-54017333D01*
X150283333Y-54356000D01*
X150283333Y-56218666D01*
X153331333Y-56049333D02*
X152992666Y-56218666D01*
X152315333Y-56218666D01*
X151976666Y-56049333D01*
X151807333Y-55710666D01*
X151807333Y-54356000D01*
X151976666Y-54017333D01*
X152315333Y-53848000D01*
X152992666Y-53848000D01*
X153331333Y-54017333D01*
X153500666Y-54356000D01*
X153500666Y-54694666D01*
X151807333Y-55033333D01*
X155024666Y-53848000D02*
X155024666Y-56218666D01*
X155024666Y-54186666D02*
X155194000Y-54017333D01*
X155532666Y-53848000D01*
X156040666Y-53848000D01*
X156379333Y-54017333D01*
X156548666Y-54356000D01*
X156548666Y-56218666D01*
X157734000Y-53848000D02*
X159088666Y-53848000D01*
X158242000Y-52662666D02*
X158242000Y-55710666D01*
X158411333Y-56049333D01*
X158750000Y-56218666D01*
X159088666Y-56218666D01*
X161798000Y-56218666D02*
X161798000Y-54356000D01*
X161628666Y-54017333D01*
X161290000Y-53848000D01*
X160612666Y-53848000D01*
X160274000Y-54017333D01*
X161798000Y-56049333D02*
X161459333Y-56218666D01*
X160612666Y-56218666D01*
X160274000Y-56049333D01*
X160104666Y-55710666D01*
X160104666Y-55372000D01*
X160274000Y-55033333D01*
X160612666Y-54864000D01*
X161459333Y-54864000D01*
X161798000Y-54694666D01*
X162983333Y-53848000D02*
X164338000Y-53848000D01*
X163491333Y-52662666D02*
X163491333Y-55710666D01*
X163660666Y-56049333D01*
X163999333Y-56218666D01*
X164338000Y-56218666D01*
X165523333Y-56218666D02*
X165523333Y-53848000D01*
X165523333Y-52662666D02*
X165354000Y-52832000D01*
X165523333Y-53001333D01*
X165692666Y-52832000D01*
X165523333Y-52662666D01*
X165523333Y-53001333D01*
X167724666Y-56218666D02*
X167386000Y-56049333D01*
X167216666Y-55880000D01*
X167047333Y-55541333D01*
X167047333Y-54525333D01*
X167216666Y-54186666D01*
X167386000Y-54017333D01*
X167724666Y-53848000D01*
X168232666Y-53848000D01*
X168571333Y-54017333D01*
X168740666Y-54186666D01*
X168910000Y-54525333D01*
X168910000Y-55541333D01*
X168740666Y-55880000D01*
X168571333Y-56049333D01*
X168232666Y-56218666D01*
X167724666Y-56218666D01*
X170434000Y-53848000D02*
X170434000Y-56218666D01*
X170434000Y-54186666D02*
X170603333Y-54017333D01*
X170942000Y-53848000D01*
X171450000Y-53848000D01*
X171788666Y-54017333D01*
X171958000Y-54356000D01*
X171958000Y-56218666D01*
X176191333Y-55202666D02*
X177884666Y-55202666D01*
X175852666Y-56218666D02*
X177038000Y-52662666D01*
X178223333Y-56218666D01*
X179408666Y-56218666D02*
X179408666Y-53848000D01*
X179408666Y-54186666D02*
X179578000Y-54017333D01*
X179916666Y-53848000D01*
X180424666Y-53848000D01*
X180763333Y-54017333D01*
X180932666Y-54356000D01*
X180932666Y-56218666D01*
X180932666Y-54356000D02*
X181102000Y-54017333D01*
X181440666Y-53848000D01*
X181948666Y-53848000D01*
X182287333Y-54017333D01*
X182456666Y-54356000D01*
X182456666Y-56218666D01*
X184150000Y-53848000D02*
X184150000Y-57404000D01*
X184150000Y-54017333D02*
X184488666Y-53848000D01*
X185166000Y-53848000D01*
X185504666Y-54017333D01*
X185674000Y-54186666D01*
X185843333Y-54525333D01*
X185843333Y-55541333D01*
X185674000Y-55880000D01*
X185504666Y-56049333D01*
X185166000Y-56218666D01*
X184488666Y-56218666D01*
X184150000Y-56049333D01*
X187875333Y-56218666D02*
X187536666Y-56049333D01*
X187367333Y-55710666D01*
X187367333Y-52662666D01*
X189230000Y-56218666D02*
X189230000Y-53848000D01*
X189230000Y-52662666D02*
X189060666Y-52832000D01*
X189230000Y-53001333D01*
X189399333Y-52832000D01*
X189230000Y-52662666D01*
X189230000Y-53001333D01*
X190415333Y-53848000D02*
X191770000Y-53848000D01*
X190923333Y-56218666D02*
X190923333Y-53170666D01*
X191092666Y-52832000D01*
X191431333Y-52662666D01*
X191770000Y-52662666D01*
X192955333Y-56218666D02*
X192955333Y-53848000D01*
X192955333Y-52662666D02*
X192786000Y-52832000D01*
X192955333Y-53001333D01*
X193124666Y-52832000D01*
X192955333Y-52662666D01*
X192955333Y-53001333D01*
X196003333Y-56049333D02*
X195664666Y-56218666D01*
X194987333Y-56218666D01*
X194648666Y-56049333D01*
X194479333Y-55710666D01*
X194479333Y-54356000D01*
X194648666Y-54017333D01*
X194987333Y-53848000D01*
X195664666Y-53848000D01*
X196003333Y-54017333D01*
X196172666Y-54356000D01*
X196172666Y-54694666D01*
X194479333Y-55033333D01*
X197696666Y-56218666D02*
X197696666Y-53848000D01*
X197696666Y-54525333D02*
X197866000Y-54186666D01*
X198035333Y-54017333D01*
X198374000Y-53848000D01*
X198712666Y-53848000D01*
D17*
%TO.C,G\u002A\u002A\u002A*%
G36*
X204509688Y-64441397D02*
G01*
X204532792Y-64451748D01*
X204551848Y-64479468D01*
X204567329Y-64534155D01*
X204579707Y-64625410D01*
X204589455Y-64762833D01*
X204597047Y-64956021D01*
X204602954Y-65214576D01*
X204607649Y-65548097D01*
X204611606Y-65966183D01*
X204615298Y-66478434D01*
X204616104Y-66602074D01*
X204629916Y-68744927D01*
X208955270Y-70914068D01*
X213280625Y-73083209D01*
X218360625Y-73109667D01*
X219215264Y-73114265D01*
X219970093Y-73118699D01*
X220631133Y-73123096D01*
X221204408Y-73127579D01*
X221695938Y-73132276D01*
X222111748Y-73137310D01*
X222457858Y-73142809D01*
X222740292Y-73148897D01*
X222965071Y-73155699D01*
X223138218Y-73163341D01*
X223265756Y-73171949D01*
X223353706Y-73181649D01*
X223408091Y-73192564D01*
X223434934Y-73204822D01*
X223440625Y-73215500D01*
X223431225Y-73228936D01*
X223399000Y-73240924D01*
X223337912Y-73251590D01*
X223241923Y-73261062D01*
X223104995Y-73269465D01*
X222921091Y-73276925D01*
X222684173Y-73283570D01*
X222388202Y-73289526D01*
X222027141Y-73294918D01*
X221594952Y-73299875D01*
X221085598Y-73304521D01*
X220493040Y-73308984D01*
X219811240Y-73313390D01*
X219034161Y-73317865D01*
X218387084Y-73321334D01*
X213333542Y-73347792D01*
X210436354Y-74802774D01*
X207539167Y-76257756D01*
X207539167Y-83269667D01*
X208223961Y-83269667D01*
X208548580Y-83274343D01*
X208780062Y-83288114D01*
X208913661Y-83310592D01*
X208945061Y-83328413D01*
X208919564Y-83379662D01*
X208831142Y-83490570D01*
X208693135Y-83647418D01*
X208518887Y-83836489D01*
X208321736Y-84044062D01*
X208115026Y-84256421D01*
X207912096Y-84459847D01*
X207726288Y-84640621D01*
X207570943Y-84785026D01*
X207459403Y-84879343D01*
X207406875Y-84910084D01*
X207347576Y-84874139D01*
X207232165Y-84775451D01*
X207073983Y-84627738D01*
X206886371Y-84444718D01*
X206682672Y-84240110D01*
X206476225Y-84027632D01*
X206280373Y-83821001D01*
X206108455Y-83633938D01*
X205974843Y-83481334D01*
X206244513Y-83481334D01*
X206824792Y-84063417D01*
X207025694Y-84263213D01*
X207200144Y-84433429D01*
X207334724Y-84561231D01*
X207416016Y-84633785D01*
X207433334Y-84645500D01*
X207478464Y-84609961D01*
X207584487Y-84511898D01*
X207737986Y-84364147D01*
X207925542Y-84179541D01*
X208041875Y-84063417D01*
X208622154Y-83481334D01*
X206244513Y-83481334D01*
X205974843Y-83481334D01*
X205973814Y-83480159D01*
X205889791Y-83373383D01*
X205868689Y-83328413D01*
X205940213Y-83301076D01*
X206113407Y-83282058D01*
X206384412Y-83271660D01*
X206616248Y-83269667D01*
X207327500Y-83269667D01*
X207327500Y-79830084D01*
X207327098Y-79237456D01*
X207325938Y-78677135D01*
X207324089Y-78157906D01*
X207321619Y-77688558D01*
X207318597Y-77277877D01*
X207315092Y-76934651D01*
X207311171Y-76667667D01*
X207306905Y-76485712D01*
X207302361Y-76397574D01*
X207300635Y-76390500D01*
X207248172Y-76413258D01*
X207113444Y-76477510D01*
X206908750Y-76577226D01*
X206646388Y-76706377D01*
X206338655Y-76858932D01*
X205997850Y-77028861D01*
X205951853Y-77051865D01*
X204629937Y-77713230D01*
X204616115Y-79869678D01*
X204612251Y-80410066D01*
X204607983Y-80853790D01*
X204602914Y-81210021D01*
X204596649Y-81487926D01*
X204588789Y-81696677D01*
X204578940Y-81845443D01*
X204566705Y-81943393D01*
X204551688Y-81999697D01*
X204533492Y-82023524D01*
X204522917Y-82026125D01*
X204502725Y-82015204D01*
X204485993Y-81976253D01*
X204472310Y-81899991D01*
X204461262Y-81777138D01*
X204452441Y-81598412D01*
X204445434Y-81354532D01*
X204439829Y-81036218D01*
X204435216Y-80634189D01*
X204431184Y-80139163D01*
X204429706Y-79922893D01*
X204415869Y-77819661D01*
X201606217Y-79224684D01*
X201040100Y-79506566D01*
X200518989Y-79763617D01*
X200049460Y-79992714D01*
X199638086Y-80190734D01*
X199291440Y-80354552D01*
X199016098Y-80481046D01*
X198818633Y-80567091D01*
X198705619Y-80609564D01*
X198683178Y-80613541D01*
X198637868Y-80602015D01*
X198606073Y-80571347D01*
X198584898Y-80504718D01*
X198571444Y-80385309D01*
X198562815Y-80196300D01*
X198556114Y-79920874D01*
X198555069Y-79869771D01*
X198540347Y-79142167D01*
X186531250Y-79142167D01*
X186531250Y-81735084D01*
X187085013Y-81735084D01*
X187336329Y-81737045D01*
X187502462Y-81745243D01*
X187604027Y-81763142D01*
X187661637Y-81794212D01*
X187693555Y-81837438D01*
X187703168Y-81907018D01*
X187712025Y-82070572D01*
X187720081Y-82316243D01*
X187727291Y-82632175D01*
X187733608Y-83006511D01*
X187738990Y-83427393D01*
X187743389Y-83882966D01*
X187746762Y-84361372D01*
X187749063Y-84850754D01*
X187750246Y-85339256D01*
X187750267Y-85815020D01*
X187749081Y-86266191D01*
X187746642Y-86680911D01*
X187742905Y-87047323D01*
X187737826Y-87353571D01*
X187731358Y-87587797D01*
X187723458Y-87738145D01*
X187716214Y-87789714D01*
X187684646Y-87827572D01*
X187612553Y-87852342D01*
X187481774Y-87866522D01*
X187274151Y-87872610D01*
X187107672Y-87873417D01*
X186531250Y-87873417D01*
X186531250Y-90519250D01*
X187216044Y-90519250D01*
X187540663Y-90523926D01*
X187772145Y-90537697D01*
X187905744Y-90560176D01*
X187937145Y-90577996D01*
X187911647Y-90629246D01*
X187823225Y-90740154D01*
X187685219Y-90897002D01*
X187510970Y-91086072D01*
X187313820Y-91293645D01*
X187107109Y-91506004D01*
X186904179Y-91709430D01*
X186718371Y-91890205D01*
X186563027Y-92034609D01*
X186451486Y-92128926D01*
X186398959Y-92159667D01*
X186339659Y-92123722D01*
X186224248Y-92025034D01*
X186066066Y-91877321D01*
X185878455Y-91694302D01*
X185674755Y-91489693D01*
X185468309Y-91277215D01*
X185272456Y-91070585D01*
X185100538Y-90883521D01*
X184966926Y-90730917D01*
X185236597Y-90730917D01*
X185816875Y-91313000D01*
X186015691Y-91512324D01*
X186185392Y-91682250D01*
X186313241Y-91810039D01*
X186386501Y-91882955D01*
X186398959Y-91895084D01*
X186434833Y-91859718D01*
X186532663Y-91762112D01*
X186679712Y-91615003D01*
X186863242Y-91431129D01*
X186981042Y-91313000D01*
X187561320Y-90730917D01*
X185236597Y-90730917D01*
X184966926Y-90730917D01*
X184965897Y-90729742D01*
X184881874Y-90622966D01*
X184860772Y-90577996D01*
X184932340Y-90550396D01*
X185104685Y-90531268D01*
X185373062Y-90520999D01*
X185581873Y-90519250D01*
X186266667Y-90519250D01*
X186266667Y-87873417D01*
X185690245Y-87873417D01*
X185428584Y-87870942D01*
X185254516Y-87861854D01*
X185149882Y-87843654D01*
X185096522Y-87813844D01*
X185081703Y-87789714D01*
X185075693Y-87722400D01*
X185070049Y-87559155D01*
X185064876Y-87309879D01*
X185060282Y-86984475D01*
X185056370Y-86592843D01*
X185053248Y-86144884D01*
X185051021Y-85650501D01*
X185049795Y-85119594D01*
X185049584Y-84784047D01*
X185050170Y-84111450D01*
X185052016Y-83538516D01*
X185055254Y-83059082D01*
X185060013Y-82666984D01*
X185066426Y-82356058D01*
X185074623Y-82120141D01*
X185075509Y-82105500D01*
X185420000Y-82105500D01*
X185420000Y-87555917D01*
X187377917Y-87555917D01*
X187377917Y-82105500D01*
X185420000Y-82105500D01*
X185075509Y-82105500D01*
X185084736Y-81953068D01*
X185096896Y-81848676D01*
X185111233Y-81800801D01*
X185113084Y-81798583D01*
X185203946Y-81765091D01*
X185393527Y-81743742D01*
X185675336Y-81735216D01*
X185721625Y-81735084D01*
X186266667Y-81735084D01*
X186266667Y-79142167D01*
X181953959Y-79144457D01*
X181874584Y-79315291D01*
X181764609Y-79463772D01*
X181624375Y-79565500D01*
X181453541Y-79644875D01*
X181452395Y-80689979D01*
X181451250Y-81735084D01*
X181996292Y-81735084D01*
X182290454Y-81741767D01*
X182493295Y-81761367D01*
X182598323Y-81793206D01*
X182604833Y-81798583D01*
X182619438Y-81840166D01*
X182631848Y-81937536D01*
X182642197Y-82096855D01*
X182650615Y-82324288D01*
X182657232Y-82625999D01*
X182662181Y-83008151D01*
X182665592Y-83476908D01*
X182667597Y-84038435D01*
X182668326Y-84698894D01*
X182668334Y-84784047D01*
X182667766Y-85332280D01*
X182666133Y-85849993D01*
X182663541Y-86327286D01*
X182660096Y-86754256D01*
X182655903Y-87121004D01*
X182651068Y-87417626D01*
X182645697Y-87634223D01*
X182639896Y-87760892D01*
X182636214Y-87789714D01*
X182604646Y-87827572D01*
X182532553Y-87852342D01*
X182401774Y-87866522D01*
X182194151Y-87872610D01*
X182027672Y-87873417D01*
X181451250Y-87873417D01*
X181451250Y-90519250D01*
X182136044Y-90519250D01*
X182460663Y-90523926D01*
X182692145Y-90537697D01*
X182825744Y-90560176D01*
X182857145Y-90577996D01*
X182831647Y-90629246D01*
X182743225Y-90740154D01*
X182605219Y-90897002D01*
X182430970Y-91086072D01*
X182233820Y-91293645D01*
X182027109Y-91506004D01*
X181824179Y-91709430D01*
X181638371Y-91890205D01*
X181483027Y-92034609D01*
X181371486Y-92128926D01*
X181318959Y-92159667D01*
X181266716Y-92123793D01*
X181152342Y-92023674D01*
X180987869Y-91870563D01*
X180785334Y-91675711D01*
X180556770Y-91450372D01*
X180504569Y-91398205D01*
X180260167Y-91148855D01*
X180056753Y-90932314D01*
X179903110Y-90758533D01*
X179881420Y-90730917D01*
X180156597Y-90730917D01*
X180736875Y-91313000D01*
X180935691Y-91512324D01*
X181105392Y-91682250D01*
X181233241Y-91810039D01*
X181306501Y-91882955D01*
X181318959Y-91895084D01*
X181354833Y-91859718D01*
X181452663Y-91762112D01*
X181599712Y-91615003D01*
X181783242Y-91431129D01*
X181901042Y-91313000D01*
X182481320Y-90730917D01*
X180156597Y-90730917D01*
X179881420Y-90730917D01*
X179808017Y-90637463D01*
X179780258Y-90579057D01*
X179780772Y-90577996D01*
X179852340Y-90550396D01*
X180024685Y-90531268D01*
X180293062Y-90520999D01*
X180501873Y-90519250D01*
X181186667Y-90519250D01*
X181186667Y-87873417D01*
X180610245Y-87873417D01*
X180348584Y-87870942D01*
X180174516Y-87861854D01*
X180069882Y-87843654D01*
X180016522Y-87813844D01*
X180001703Y-87789714D01*
X179992645Y-87713605D01*
X179985055Y-87544299D01*
X179978888Y-87293654D01*
X179974100Y-86973527D01*
X179970645Y-86595774D01*
X179968478Y-86172252D01*
X179967554Y-85714818D01*
X179967828Y-85235328D01*
X179969255Y-84745640D01*
X179971788Y-84257611D01*
X179975385Y-83783096D01*
X179979998Y-83333954D01*
X179985584Y-82922040D01*
X179992097Y-82559212D01*
X179999491Y-82257327D01*
X180004946Y-82105500D01*
X180340000Y-82105500D01*
X180340000Y-87555917D01*
X182297917Y-87555917D01*
X182297917Y-82105500D01*
X180340000Y-82105500D01*
X180004946Y-82105500D01*
X180007722Y-82028240D01*
X180016745Y-81883810D01*
X180024362Y-81837438D01*
X180059733Y-81791180D01*
X180120081Y-81761284D01*
X180226023Y-81744282D01*
X180398170Y-81736707D01*
X180632904Y-81735084D01*
X181186667Y-81735084D01*
X181186667Y-79681787D01*
X180999286Y-79571230D01*
X180851891Y-79457461D01*
X180733977Y-79322078D01*
X180721473Y-79301754D01*
X180631042Y-79142836D01*
X178798667Y-79142501D01*
X178290295Y-79141666D01*
X177878348Y-79139126D01*
X177553428Y-79134529D01*
X177306136Y-79127519D01*
X177127072Y-79117742D01*
X177006837Y-79104843D01*
X176936032Y-79088468D01*
X176907355Y-79071152D01*
X176873787Y-78993991D01*
X176883237Y-78965319D01*
X176942462Y-78957228D01*
X177095285Y-78949803D01*
X177329468Y-78943268D01*
X177632776Y-78937847D01*
X177992975Y-78933765D01*
X178397827Y-78931246D01*
X178782041Y-78930500D01*
X180646027Y-78930500D01*
X180677750Y-78804104D01*
X180764668Y-78641084D01*
X180920326Y-78492594D01*
X181108415Y-78386043D01*
X181281112Y-78348615D01*
X181521678Y-78395014D01*
X181733505Y-78519886D01*
X181884053Y-78702477D01*
X181904936Y-78746451D01*
X181981837Y-78930500D01*
X186266667Y-78930500D01*
X186531250Y-78930500D01*
X198543334Y-78930500D01*
X198543334Y-76231750D01*
X195953489Y-76231750D01*
X195923959Y-77634042D01*
X191373125Y-77634042D01*
X191358315Y-76959354D01*
X191343505Y-76284667D01*
X190768664Y-76284667D01*
X190507393Y-76282181D01*
X190333693Y-76273051D01*
X190229380Y-76254770D01*
X190176273Y-76224830D01*
X190161703Y-76200964D01*
X190155059Y-76131681D01*
X190149202Y-75968401D01*
X190144131Y-75722958D01*
X190139848Y-75407185D01*
X190136351Y-75032917D01*
X190133641Y-74611987D01*
X190131719Y-74156228D01*
X190130583Y-73677475D01*
X190130234Y-73187560D01*
X190130673Y-72698318D01*
X190131898Y-72221583D01*
X190133910Y-71769187D01*
X190136709Y-71352965D01*
X190140295Y-70984751D01*
X190144668Y-70676377D01*
X190149301Y-70463834D01*
X190500000Y-70463834D01*
X190500000Y-75967167D01*
X192457917Y-75967167D01*
X192457917Y-70463834D01*
X190500000Y-70463834D01*
X190149301Y-70463834D01*
X190149828Y-70439678D01*
X190155775Y-70286487D01*
X190161703Y-70230036D01*
X190193322Y-70192132D01*
X190265532Y-70167349D01*
X190396516Y-70153181D01*
X190604455Y-70147121D01*
X190768664Y-70146334D01*
X191343505Y-70146334D01*
X191358315Y-69471646D01*
X191369059Y-68982167D01*
X191611250Y-68982167D01*
X191611250Y-70146334D01*
X192165013Y-70146334D01*
X192416329Y-70148295D01*
X192582462Y-70156493D01*
X192684027Y-70174392D01*
X192741637Y-70205462D01*
X192773555Y-70248688D01*
X192785641Y-70323541D01*
X192796277Y-70492243D01*
X192805464Y-70742822D01*
X192813201Y-71063302D01*
X192819489Y-71441711D01*
X192824328Y-71866075D01*
X192827716Y-72324419D01*
X192829656Y-72804770D01*
X192830146Y-73295155D01*
X192829186Y-73783599D01*
X192826777Y-74258129D01*
X192822918Y-74706771D01*
X192817610Y-75117551D01*
X192810852Y-75478496D01*
X192802645Y-75777631D01*
X192792989Y-76002984D01*
X192781882Y-76142579D01*
X192773555Y-76182312D01*
X192738184Y-76228570D01*
X192677836Y-76258466D01*
X192571894Y-76275468D01*
X192399747Y-76283043D01*
X192165013Y-76284667D01*
X191611250Y-76284667D01*
X191611250Y-77448834D01*
X195682762Y-77448834D01*
X195712292Y-76046542D01*
X197127813Y-76032448D01*
X198543334Y-76018355D01*
X198543334Y-73215500D01*
X198913750Y-73215500D01*
X198913948Y-74062802D01*
X198914524Y-74880395D01*
X198915456Y-75662090D01*
X198916720Y-76401697D01*
X198918293Y-77093027D01*
X198920151Y-77729889D01*
X198922269Y-78306094D01*
X198924626Y-78815452D01*
X198927197Y-79251774D01*
X198929959Y-79608869D01*
X198932888Y-79880547D01*
X198935960Y-80060619D01*
X198939153Y-80142896D01*
X198940126Y-80147584D01*
X198990206Y-80124442D01*
X199128358Y-80057192D01*
X199348014Y-79949098D01*
X199642605Y-79803425D01*
X200005565Y-79623436D01*
X200430326Y-79412394D01*
X200910319Y-79173565D01*
X201438977Y-78910211D01*
X202009732Y-78625597D01*
X202616016Y-78322987D01*
X203251262Y-78005645D01*
X203438906Y-77911854D01*
X207911311Y-75676125D01*
X207209302Y-75649667D01*
X206507292Y-75623209D01*
X206491015Y-75337255D01*
X206498332Y-75184000D01*
X206745417Y-75184000D01*
X206745417Y-75438000D01*
X207288049Y-75438000D01*
X207262084Y-75167776D01*
X207225406Y-74967266D01*
X207154228Y-74852872D01*
X207034923Y-74806957D01*
X206980896Y-74803810D01*
X206851289Y-74835877D01*
X206775378Y-74941900D01*
X206746241Y-75133056D01*
X206745417Y-75184000D01*
X206498332Y-75184000D01*
X206505606Y-75031673D01*
X206587550Y-74804520D01*
X206735342Y-74657950D01*
X206947481Y-74594114D01*
X207011796Y-74591334D01*
X207180991Y-74624275D01*
X207327447Y-74707999D01*
X207418587Y-74819854D01*
X207433334Y-74884437D01*
X207442283Y-74941592D01*
X207480374Y-74951916D01*
X207564466Y-74909832D01*
X207711421Y-74809767D01*
X207756316Y-74777655D01*
X207922717Y-74676057D01*
X208053377Y-74629761D01*
X208132482Y-74640720D01*
X208144218Y-74710890D01*
X208137734Y-74730537D01*
X208081196Y-74797522D01*
X207961022Y-74899673D01*
X207802828Y-75015284D01*
X207797117Y-75019172D01*
X207604963Y-75165797D01*
X207502438Y-75282582D01*
X207486250Y-75334139D01*
X207498494Y-75392444D01*
X207551354Y-75423824D01*
X207669024Y-75436272D01*
X207800627Y-75438000D01*
X207973785Y-75446068D01*
X208100788Y-75466979D01*
X208146934Y-75489663D01*
X208197476Y-75475074D01*
X208331380Y-75418275D01*
X208537521Y-75324730D01*
X208804772Y-75199903D01*
X209122009Y-75049256D01*
X209478104Y-74878252D01*
X209861932Y-74692355D01*
X210262368Y-74497028D01*
X210668285Y-74297734D01*
X211068557Y-74099936D01*
X211452059Y-73909098D01*
X211807664Y-73730682D01*
X212124248Y-73570152D01*
X212390683Y-73432972D01*
X212595844Y-73324603D01*
X212728606Y-73250510D01*
X212777842Y-73216156D01*
X212777917Y-73215689D01*
X212731635Y-73189934D01*
X212597054Y-73120124D01*
X212380569Y-73009463D01*
X212088578Y-72861155D01*
X211727474Y-72678405D01*
X211303656Y-72464416D01*
X210823519Y-72222393D01*
X210293458Y-71955541D01*
X209719871Y-71667062D01*
X209109153Y-71360163D01*
X208467700Y-71038046D01*
X207801908Y-70703916D01*
X207118174Y-70360977D01*
X206422893Y-70012434D01*
X205722461Y-69661491D01*
X205023275Y-69311351D01*
X204331731Y-68965220D01*
X203654224Y-68626300D01*
X202997151Y-68297798D01*
X202366908Y-67982916D01*
X201769890Y-67684860D01*
X201212495Y-67406833D01*
X200701118Y-67152039D01*
X200242154Y-66923683D01*
X199842001Y-66724968D01*
X199507054Y-66559100D01*
X199243710Y-66429283D01*
X199058364Y-66338720D01*
X198957412Y-66290616D01*
X198940155Y-66283417D01*
X198936927Y-66335302D01*
X198933813Y-66486830D01*
X198930836Y-66731813D01*
X198928018Y-67064059D01*
X198925385Y-67477379D01*
X198922959Y-67965584D01*
X198920764Y-68522483D01*
X198918824Y-69141888D01*
X198917162Y-69817607D01*
X198915802Y-70543452D01*
X198914767Y-71313232D01*
X198914081Y-72120757D01*
X198913768Y-72959839D01*
X198913750Y-73215500D01*
X198543334Y-73215500D01*
X198543334Y-70412645D01*
X195712292Y-70384459D01*
X195682762Y-68982167D01*
X191611250Y-68982167D01*
X191369059Y-68982167D01*
X191373125Y-68796959D01*
X195923959Y-68796959D01*
X195938724Y-69498104D01*
X195953489Y-70199250D01*
X198543334Y-70199250D01*
X198543334Y-67553417D01*
X192788646Y-67553751D01*
X187033959Y-67554086D01*
X186942918Y-67714065D01*
X186828733Y-67856674D01*
X186691898Y-67965085D01*
X186531919Y-68056125D01*
X186531585Y-73493313D01*
X186531250Y-78930500D01*
X186266667Y-78930500D01*
X186265522Y-73493313D01*
X186264376Y-68056125D01*
X186093542Y-67976750D01*
X185946372Y-67874861D01*
X185822345Y-67735978D01*
X185816875Y-67727434D01*
X185711042Y-67557494D01*
X181338667Y-67555455D01*
X180533278Y-67554813D01*
X179827630Y-67553619D01*
X179215632Y-67551775D01*
X178691190Y-67549181D01*
X178248215Y-67545738D01*
X177880614Y-67541347D01*
X177582296Y-67535909D01*
X177347168Y-67529325D01*
X177169140Y-67521495D01*
X177042120Y-67512322D01*
X176960016Y-67501704D01*
X176916737Y-67489544D01*
X176908155Y-67483366D01*
X176882534Y-67449432D01*
X176869833Y-67419689D01*
X176876357Y-67393864D01*
X176908412Y-67371678D01*
X176972303Y-67352855D01*
X177074337Y-67337121D01*
X177220818Y-67324198D01*
X177418053Y-67313810D01*
X177672346Y-67305682D01*
X177990005Y-67299536D01*
X178377333Y-67295097D01*
X178840636Y-67292089D01*
X179386221Y-67290235D01*
X180020393Y-67289259D01*
X180749457Y-67288885D01*
X181349580Y-67288833D01*
X185724660Y-67288834D01*
X185793009Y-67123825D01*
X185923647Y-66939471D01*
X186126747Y-66813951D01*
X186379140Y-66760769D01*
X186417479Y-66759865D01*
X186582266Y-66774717D01*
X186709345Y-66834871D01*
X186827584Y-66939584D01*
X186934303Y-67062917D01*
X186998796Y-67169501D01*
X187007500Y-67204167D01*
X187014224Y-67217520D01*
X187038234Y-67229404D01*
X187085285Y-67239903D01*
X187161133Y-67249102D01*
X187271534Y-67257085D01*
X187422245Y-67263937D01*
X187619020Y-67269741D01*
X187867616Y-67274584D01*
X188173789Y-67278548D01*
X188543295Y-67281720D01*
X188981889Y-67284182D01*
X189495327Y-67286020D01*
X190089366Y-67287319D01*
X190769761Y-67288162D01*
X191542269Y-67288634D01*
X192412644Y-67288820D01*
X192773924Y-67288834D01*
X198540347Y-67288834D01*
X198555069Y-66561887D01*
X198562516Y-66267603D01*
X198572405Y-66062923D01*
X198586988Y-65931619D01*
X198608518Y-65857461D01*
X198639247Y-65824221D01*
X198658329Y-65817956D01*
X198720496Y-65838006D01*
X198868566Y-65901699D01*
X199093991Y-66004939D01*
X199388224Y-66143626D01*
X199742714Y-66313663D01*
X200148913Y-66510950D01*
X200598274Y-66731391D01*
X201082246Y-66970885D01*
X201554388Y-67206362D01*
X202060988Y-67459729D01*
X202539125Y-67698422D01*
X202980471Y-67918314D01*
X203376700Y-68115276D01*
X203719484Y-68285181D01*
X204000497Y-68423901D01*
X204211410Y-68527307D01*
X204343898Y-68591273D01*
X204389497Y-68611750D01*
X204395544Y-68560711D01*
X204401134Y-68415100D01*
X204406117Y-68186180D01*
X204410346Y-67885213D01*
X204413671Y-67523460D01*
X204415944Y-67112182D01*
X204417018Y-66662643D01*
X204417084Y-66517662D01*
X204417318Y-65991355D01*
X204418304Y-65561327D01*
X204420470Y-65218023D01*
X204424240Y-64951887D01*
X204430041Y-64753366D01*
X204438299Y-64612904D01*
X204449440Y-64520948D01*
X204463890Y-64467941D01*
X204482076Y-64444331D01*
X204504424Y-64440561D01*
X204509688Y-64441397D01*
G37*
X204509688Y-64441397D02*
X204532792Y-64451748D01*
X204551848Y-64479468D01*
X204567329Y-64534155D01*
X204579707Y-64625410D01*
X204589455Y-64762833D01*
X204597047Y-64956021D01*
X204602954Y-65214576D01*
X204607649Y-65548097D01*
X204611606Y-65966183D01*
X204615298Y-66478434D01*
X204616104Y-66602074D01*
X204629916Y-68744927D01*
X208955270Y-70914068D01*
X213280625Y-73083209D01*
X218360625Y-73109667D01*
X219215264Y-73114265D01*
X219970093Y-73118699D01*
X220631133Y-73123096D01*
X221204408Y-73127579D01*
X221695938Y-73132276D01*
X222111748Y-73137310D01*
X222457858Y-73142809D01*
X222740292Y-73148897D01*
X222965071Y-73155699D01*
X223138218Y-73163341D01*
X223265756Y-73171949D01*
X223353706Y-73181649D01*
X223408091Y-73192564D01*
X223434934Y-73204822D01*
X223440625Y-73215500D01*
X223431225Y-73228936D01*
X223399000Y-73240924D01*
X223337912Y-73251590D01*
X223241923Y-73261062D01*
X223104995Y-73269465D01*
X222921091Y-73276925D01*
X222684173Y-73283570D01*
X222388202Y-73289526D01*
X222027141Y-73294918D01*
X221594952Y-73299875D01*
X221085598Y-73304521D01*
X220493040Y-73308984D01*
X219811240Y-73313390D01*
X219034161Y-73317865D01*
X218387084Y-73321334D01*
X213333542Y-73347792D01*
X210436354Y-74802774D01*
X207539167Y-76257756D01*
X207539167Y-83269667D01*
X208223961Y-83269667D01*
X208548580Y-83274343D01*
X208780062Y-83288114D01*
X208913661Y-83310592D01*
X208945061Y-83328413D01*
X208919564Y-83379662D01*
X208831142Y-83490570D01*
X208693135Y-83647418D01*
X208518887Y-83836489D01*
X208321736Y-84044062D01*
X208115026Y-84256421D01*
X207912096Y-84459847D01*
X207726288Y-84640621D01*
X207570943Y-84785026D01*
X207459403Y-84879343D01*
X207406875Y-84910084D01*
X207347576Y-84874139D01*
X207232165Y-84775451D01*
X207073983Y-84627738D01*
X206886371Y-84444718D01*
X206682672Y-84240110D01*
X206476225Y-84027632D01*
X206280373Y-83821001D01*
X206108455Y-83633938D01*
X205974843Y-83481334D01*
X206244513Y-83481334D01*
X206824792Y-84063417D01*
X207025694Y-84263213D01*
X207200144Y-84433429D01*
X207334724Y-84561231D01*
X207416016Y-84633785D01*
X207433334Y-84645500D01*
X207478464Y-84609961D01*
X207584487Y-84511898D01*
X207737986Y-84364147D01*
X207925542Y-84179541D01*
X208041875Y-84063417D01*
X208622154Y-83481334D01*
X206244513Y-83481334D01*
X205974843Y-83481334D01*
X205973814Y-83480159D01*
X205889791Y-83373383D01*
X205868689Y-83328413D01*
X205940213Y-83301076D01*
X206113407Y-83282058D01*
X206384412Y-83271660D01*
X206616248Y-83269667D01*
X207327500Y-83269667D01*
X207327500Y-79830084D01*
X207327098Y-79237456D01*
X207325938Y-78677135D01*
X207324089Y-78157906D01*
X207321619Y-77688558D01*
X207318597Y-77277877D01*
X207315092Y-76934651D01*
X207311171Y-76667667D01*
X207306905Y-76485712D01*
X207302361Y-76397574D01*
X207300635Y-76390500D01*
X207248172Y-76413258D01*
X207113444Y-76477510D01*
X206908750Y-76577226D01*
X206646388Y-76706377D01*
X206338655Y-76858932D01*
X205997850Y-77028861D01*
X205951853Y-77051865D01*
X204629937Y-77713230D01*
X204616115Y-79869678D01*
X204612251Y-80410066D01*
X204607983Y-80853790D01*
X204602914Y-81210021D01*
X204596649Y-81487926D01*
X204588789Y-81696677D01*
X204578940Y-81845443D01*
X204566705Y-81943393D01*
X204551688Y-81999697D01*
X204533492Y-82023524D01*
X204522917Y-82026125D01*
X204502725Y-82015204D01*
X204485993Y-81976253D01*
X204472310Y-81899991D01*
X204461262Y-81777138D01*
X204452441Y-81598412D01*
X204445434Y-81354532D01*
X204439829Y-81036218D01*
X204435216Y-80634189D01*
X204431184Y-80139163D01*
X204429706Y-79922893D01*
X204415869Y-77819661D01*
X201606217Y-79224684D01*
X201040100Y-79506566D01*
X200518989Y-79763617D01*
X200049460Y-79992714D01*
X199638086Y-80190734D01*
X199291440Y-80354552D01*
X199016098Y-80481046D01*
X198818633Y-80567091D01*
X198705619Y-80609564D01*
X198683178Y-80613541D01*
X198637868Y-80602015D01*
X198606073Y-80571347D01*
X198584898Y-80504718D01*
X198571444Y-80385309D01*
X198562815Y-80196300D01*
X198556114Y-79920874D01*
X198555069Y-79869771D01*
X198540347Y-79142167D01*
X186531250Y-79142167D01*
X186531250Y-81735084D01*
X187085013Y-81735084D01*
X187336329Y-81737045D01*
X187502462Y-81745243D01*
X187604027Y-81763142D01*
X187661637Y-81794212D01*
X187693555Y-81837438D01*
X187703168Y-81907018D01*
X187712025Y-82070572D01*
X187720081Y-82316243D01*
X187727291Y-82632175D01*
X187733608Y-83006511D01*
X187738990Y-83427393D01*
X187743389Y-83882966D01*
X187746762Y-84361372D01*
X187749063Y-84850754D01*
X187750246Y-85339256D01*
X187750267Y-85815020D01*
X187749081Y-86266191D01*
X187746642Y-86680911D01*
X187742905Y-87047323D01*
X187737826Y-87353571D01*
X187731358Y-87587797D01*
X187723458Y-87738145D01*
X187716214Y-87789714D01*
X187684646Y-87827572D01*
X187612553Y-87852342D01*
X187481774Y-87866522D01*
X187274151Y-87872610D01*
X187107672Y-87873417D01*
X186531250Y-87873417D01*
X186531250Y-90519250D01*
X187216044Y-90519250D01*
X187540663Y-90523926D01*
X187772145Y-90537697D01*
X187905744Y-90560176D01*
X187937145Y-90577996D01*
X187911647Y-90629246D01*
X187823225Y-90740154D01*
X187685219Y-90897002D01*
X187510970Y-91086072D01*
X187313820Y-91293645D01*
X187107109Y-91506004D01*
X186904179Y-91709430D01*
X186718371Y-91890205D01*
X186563027Y-92034609D01*
X186451486Y-92128926D01*
X186398959Y-92159667D01*
X186339659Y-92123722D01*
X186224248Y-92025034D01*
X186066066Y-91877321D01*
X185878455Y-91694302D01*
X185674755Y-91489693D01*
X185468309Y-91277215D01*
X185272456Y-91070585D01*
X185100538Y-90883521D01*
X184966926Y-90730917D01*
X185236597Y-90730917D01*
X185816875Y-91313000D01*
X186015691Y-91512324D01*
X186185392Y-91682250D01*
X186313241Y-91810039D01*
X186386501Y-91882955D01*
X186398959Y-91895084D01*
X186434833Y-91859718D01*
X186532663Y-91762112D01*
X186679712Y-91615003D01*
X186863242Y-91431129D01*
X186981042Y-91313000D01*
X187561320Y-90730917D01*
X185236597Y-90730917D01*
X184966926Y-90730917D01*
X184965897Y-90729742D01*
X184881874Y-90622966D01*
X184860772Y-90577996D01*
X184932340Y-90550396D01*
X185104685Y-90531268D01*
X185373062Y-90520999D01*
X185581873Y-90519250D01*
X186266667Y-90519250D01*
X186266667Y-87873417D01*
X185690245Y-87873417D01*
X185428584Y-87870942D01*
X185254516Y-87861854D01*
X185149882Y-87843654D01*
X185096522Y-87813844D01*
X185081703Y-87789714D01*
X185075693Y-87722400D01*
X185070049Y-87559155D01*
X185064876Y-87309879D01*
X185060282Y-86984475D01*
X185056370Y-86592843D01*
X185053248Y-86144884D01*
X185051021Y-85650501D01*
X185049795Y-85119594D01*
X185049584Y-84784047D01*
X185050170Y-84111450D01*
X185052016Y-83538516D01*
X185055254Y-83059082D01*
X185060013Y-82666984D01*
X185066426Y-82356058D01*
X185074623Y-82120141D01*
X185075509Y-82105500D01*
X185420000Y-82105500D01*
X185420000Y-87555917D01*
X187377917Y-87555917D01*
X187377917Y-82105500D01*
X185420000Y-82105500D01*
X185075509Y-82105500D01*
X185084736Y-81953068D01*
X185096896Y-81848676D01*
X185111233Y-81800801D01*
X185113084Y-81798583D01*
X185203946Y-81765091D01*
X185393527Y-81743742D01*
X185675336Y-81735216D01*
X185721625Y-81735084D01*
X186266667Y-81735084D01*
X186266667Y-79142167D01*
X181953959Y-79144457D01*
X181874584Y-79315291D01*
X181764609Y-79463772D01*
X181624375Y-79565500D01*
X181453541Y-79644875D01*
X181452395Y-80689979D01*
X181451250Y-81735084D01*
X181996292Y-81735084D01*
X182290454Y-81741767D01*
X182493295Y-81761367D01*
X182598323Y-81793206D01*
X182604833Y-81798583D01*
X182619438Y-81840166D01*
X182631848Y-81937536D01*
X182642197Y-82096855D01*
X182650615Y-82324288D01*
X182657232Y-82625999D01*
X182662181Y-83008151D01*
X182665592Y-83476908D01*
X182667597Y-84038435D01*
X182668326Y-84698894D01*
X182668334Y-84784047D01*
X182667766Y-85332280D01*
X182666133Y-85849993D01*
X182663541Y-86327286D01*
X182660096Y-86754256D01*
X182655903Y-87121004D01*
X182651068Y-87417626D01*
X182645697Y-87634223D01*
X182639896Y-87760892D01*
X182636214Y-87789714D01*
X182604646Y-87827572D01*
X182532553Y-87852342D01*
X182401774Y-87866522D01*
X182194151Y-87872610D01*
X182027672Y-87873417D01*
X181451250Y-87873417D01*
X181451250Y-90519250D01*
X182136044Y-90519250D01*
X182460663Y-90523926D01*
X182692145Y-90537697D01*
X182825744Y-90560176D01*
X182857145Y-90577996D01*
X182831647Y-90629246D01*
X182743225Y-90740154D01*
X182605219Y-90897002D01*
X182430970Y-91086072D01*
X182233820Y-91293645D01*
X182027109Y-91506004D01*
X181824179Y-91709430D01*
X181638371Y-91890205D01*
X181483027Y-92034609D01*
X181371486Y-92128926D01*
X181318959Y-92159667D01*
X181266716Y-92123793D01*
X181152342Y-92023674D01*
X180987869Y-91870563D01*
X180785334Y-91675711D01*
X180556770Y-91450372D01*
X180504569Y-91398205D01*
X180260167Y-91148855D01*
X180056753Y-90932314D01*
X179903110Y-90758533D01*
X179881420Y-90730917D01*
X180156597Y-90730917D01*
X180736875Y-91313000D01*
X180935691Y-91512324D01*
X181105392Y-91682250D01*
X181233241Y-91810039D01*
X181306501Y-91882955D01*
X181318959Y-91895084D01*
X181354833Y-91859718D01*
X181452663Y-91762112D01*
X181599712Y-91615003D01*
X181783242Y-91431129D01*
X181901042Y-91313000D01*
X182481320Y-90730917D01*
X180156597Y-90730917D01*
X179881420Y-90730917D01*
X179808017Y-90637463D01*
X179780258Y-90579057D01*
X179780772Y-90577996D01*
X179852340Y-90550396D01*
X180024685Y-90531268D01*
X180293062Y-90520999D01*
X180501873Y-90519250D01*
X181186667Y-90519250D01*
X181186667Y-87873417D01*
X180610245Y-87873417D01*
X180348584Y-87870942D01*
X180174516Y-87861854D01*
X180069882Y-87843654D01*
X180016522Y-87813844D01*
X180001703Y-87789714D01*
X179992645Y-87713605D01*
X179985055Y-87544299D01*
X179978888Y-87293654D01*
X179974100Y-86973527D01*
X179970645Y-86595774D01*
X179968478Y-86172252D01*
X179967554Y-85714818D01*
X179967828Y-85235328D01*
X179969255Y-84745640D01*
X179971788Y-84257611D01*
X179975385Y-83783096D01*
X179979998Y-83333954D01*
X179985584Y-82922040D01*
X179992097Y-82559212D01*
X179999491Y-82257327D01*
X180004946Y-82105500D01*
X180340000Y-82105500D01*
X180340000Y-87555917D01*
X182297917Y-87555917D01*
X182297917Y-82105500D01*
X180340000Y-82105500D01*
X180004946Y-82105500D01*
X180007722Y-82028240D01*
X180016745Y-81883810D01*
X180024362Y-81837438D01*
X180059733Y-81791180D01*
X180120081Y-81761284D01*
X180226023Y-81744282D01*
X180398170Y-81736707D01*
X180632904Y-81735084D01*
X181186667Y-81735084D01*
X181186667Y-79681787D01*
X180999286Y-79571230D01*
X180851891Y-79457461D01*
X180733977Y-79322078D01*
X180721473Y-79301754D01*
X180631042Y-79142836D01*
X178798667Y-79142501D01*
X178290295Y-79141666D01*
X177878348Y-79139126D01*
X177553428Y-79134529D01*
X177306136Y-79127519D01*
X177127072Y-79117742D01*
X177006837Y-79104843D01*
X176936032Y-79088468D01*
X176907355Y-79071152D01*
X176873787Y-78993991D01*
X176883237Y-78965319D01*
X176942462Y-78957228D01*
X177095285Y-78949803D01*
X177329468Y-78943268D01*
X177632776Y-78937847D01*
X177992975Y-78933765D01*
X178397827Y-78931246D01*
X178782041Y-78930500D01*
X180646027Y-78930500D01*
X180677750Y-78804104D01*
X180764668Y-78641084D01*
X180920326Y-78492594D01*
X181108415Y-78386043D01*
X181281112Y-78348615D01*
X181521678Y-78395014D01*
X181733505Y-78519886D01*
X181884053Y-78702477D01*
X181904936Y-78746451D01*
X181981837Y-78930500D01*
X186266667Y-78930500D01*
X186531250Y-78930500D01*
X198543334Y-78930500D01*
X198543334Y-76231750D01*
X195953489Y-76231750D01*
X195923959Y-77634042D01*
X191373125Y-77634042D01*
X191358315Y-76959354D01*
X191343505Y-76284667D01*
X190768664Y-76284667D01*
X190507393Y-76282181D01*
X190333693Y-76273051D01*
X190229380Y-76254770D01*
X190176273Y-76224830D01*
X190161703Y-76200964D01*
X190155059Y-76131681D01*
X190149202Y-75968401D01*
X190144131Y-75722958D01*
X190139848Y-75407185D01*
X190136351Y-75032917D01*
X190133641Y-74611987D01*
X190131719Y-74156228D01*
X190130583Y-73677475D01*
X190130234Y-73187560D01*
X190130673Y-72698318D01*
X190131898Y-72221583D01*
X190133910Y-71769187D01*
X190136709Y-71352965D01*
X190140295Y-70984751D01*
X190144668Y-70676377D01*
X190149301Y-70463834D01*
X190500000Y-70463834D01*
X190500000Y-75967167D01*
X192457917Y-75967167D01*
X192457917Y-70463834D01*
X190500000Y-70463834D01*
X190149301Y-70463834D01*
X190149828Y-70439678D01*
X190155775Y-70286487D01*
X190161703Y-70230036D01*
X190193322Y-70192132D01*
X190265532Y-70167349D01*
X190396516Y-70153181D01*
X190604455Y-70147121D01*
X190768664Y-70146334D01*
X191343505Y-70146334D01*
X191358315Y-69471646D01*
X191369059Y-68982167D01*
X191611250Y-68982167D01*
X191611250Y-70146334D01*
X192165013Y-70146334D01*
X192416329Y-70148295D01*
X192582462Y-70156493D01*
X192684027Y-70174392D01*
X192741637Y-70205462D01*
X192773555Y-70248688D01*
X192785641Y-70323541D01*
X192796277Y-70492243D01*
X192805464Y-70742822D01*
X192813201Y-71063302D01*
X192819489Y-71441711D01*
X192824328Y-71866075D01*
X192827716Y-72324419D01*
X192829656Y-72804770D01*
X192830146Y-73295155D01*
X192829186Y-73783599D01*
X192826777Y-74258129D01*
X192822918Y-74706771D01*
X192817610Y-75117551D01*
X192810852Y-75478496D01*
X192802645Y-75777631D01*
X192792989Y-76002984D01*
X192781882Y-76142579D01*
X192773555Y-76182312D01*
X192738184Y-76228570D01*
X192677836Y-76258466D01*
X192571894Y-76275468D01*
X192399747Y-76283043D01*
X192165013Y-76284667D01*
X191611250Y-76284667D01*
X191611250Y-77448834D01*
X195682762Y-77448834D01*
X195712292Y-76046542D01*
X197127813Y-76032448D01*
X198543334Y-76018355D01*
X198543334Y-73215500D01*
X198913750Y-73215500D01*
X198913948Y-74062802D01*
X198914524Y-74880395D01*
X198915456Y-75662090D01*
X198916720Y-76401697D01*
X198918293Y-77093027D01*
X198920151Y-77729889D01*
X198922269Y-78306094D01*
X198924626Y-78815452D01*
X198927197Y-79251774D01*
X198929959Y-79608869D01*
X198932888Y-79880547D01*
X198935960Y-80060619D01*
X198939153Y-80142896D01*
X198940126Y-80147584D01*
X198990206Y-80124442D01*
X199128358Y-80057192D01*
X199348014Y-79949098D01*
X199642605Y-79803425D01*
X200005565Y-79623436D01*
X200430326Y-79412394D01*
X200910319Y-79173565D01*
X201438977Y-78910211D01*
X202009732Y-78625597D01*
X202616016Y-78322987D01*
X203251262Y-78005645D01*
X203438906Y-77911854D01*
X207911311Y-75676125D01*
X207209302Y-75649667D01*
X206507292Y-75623209D01*
X206491015Y-75337255D01*
X206498332Y-75184000D01*
X206745417Y-75184000D01*
X206745417Y-75438000D01*
X207288049Y-75438000D01*
X207262084Y-75167776D01*
X207225406Y-74967266D01*
X207154228Y-74852872D01*
X207034923Y-74806957D01*
X206980896Y-74803810D01*
X206851289Y-74835877D01*
X206775378Y-74941900D01*
X206746241Y-75133056D01*
X206745417Y-75184000D01*
X206498332Y-75184000D01*
X206505606Y-75031673D01*
X206587550Y-74804520D01*
X206735342Y-74657950D01*
X206947481Y-74594114D01*
X207011796Y-74591334D01*
X207180991Y-74624275D01*
X207327447Y-74707999D01*
X207418587Y-74819854D01*
X207433334Y-74884437D01*
X207442283Y-74941592D01*
X207480374Y-74951916D01*
X207564466Y-74909832D01*
X207711421Y-74809767D01*
X207756316Y-74777655D01*
X207922717Y-74676057D01*
X208053377Y-74629761D01*
X208132482Y-74640720D01*
X208144218Y-74710890D01*
X208137734Y-74730537D01*
X208081196Y-74797522D01*
X207961022Y-74899673D01*
X207802828Y-75015284D01*
X207797117Y-75019172D01*
X207604963Y-75165797D01*
X207502438Y-75282582D01*
X207486250Y-75334139D01*
X207498494Y-75392444D01*
X207551354Y-75423824D01*
X207669024Y-75436272D01*
X207800627Y-75438000D01*
X207973785Y-75446068D01*
X208100788Y-75466979D01*
X208146934Y-75489663D01*
X208197476Y-75475074D01*
X208331380Y-75418275D01*
X208537521Y-75324730D01*
X208804772Y-75199903D01*
X209122009Y-75049256D01*
X209478104Y-74878252D01*
X209861932Y-74692355D01*
X210262368Y-74497028D01*
X210668285Y-74297734D01*
X211068557Y-74099936D01*
X211452059Y-73909098D01*
X211807664Y-73730682D01*
X212124248Y-73570152D01*
X212390683Y-73432972D01*
X212595844Y-73324603D01*
X212728606Y-73250510D01*
X212777842Y-73216156D01*
X212777917Y-73215689D01*
X212731635Y-73189934D01*
X212597054Y-73120124D01*
X212380569Y-73009463D01*
X212088578Y-72861155D01*
X211727474Y-72678405D01*
X211303656Y-72464416D01*
X210823519Y-72222393D01*
X210293458Y-71955541D01*
X209719871Y-71667062D01*
X209109153Y-71360163D01*
X208467700Y-71038046D01*
X207801908Y-70703916D01*
X207118174Y-70360977D01*
X206422893Y-70012434D01*
X205722461Y-69661491D01*
X205023275Y-69311351D01*
X204331731Y-68965220D01*
X203654224Y-68626300D01*
X202997151Y-68297798D01*
X202366908Y-67982916D01*
X201769890Y-67684860D01*
X201212495Y-67406833D01*
X200701118Y-67152039D01*
X200242154Y-66923683D01*
X199842001Y-66724968D01*
X199507054Y-66559100D01*
X199243710Y-66429283D01*
X199058364Y-66338720D01*
X198957412Y-66290616D01*
X198940155Y-66283417D01*
X198936927Y-66335302D01*
X198933813Y-66486830D01*
X198930836Y-66731813D01*
X198928018Y-67064059D01*
X198925385Y-67477379D01*
X198922959Y-67965584D01*
X198920764Y-68522483D01*
X198918824Y-69141888D01*
X198917162Y-69817607D01*
X198915802Y-70543452D01*
X198914767Y-71313232D01*
X198914081Y-72120757D01*
X198913768Y-72959839D01*
X198913750Y-73215500D01*
X198543334Y-73215500D01*
X198543334Y-70412645D01*
X195712292Y-70384459D01*
X195682762Y-68982167D01*
X191611250Y-68982167D01*
X191369059Y-68982167D01*
X191373125Y-68796959D01*
X195923959Y-68796959D01*
X195938724Y-69498104D01*
X195953489Y-70199250D01*
X198543334Y-70199250D01*
X198543334Y-67553417D01*
X192788646Y-67553751D01*
X187033959Y-67554086D01*
X186942918Y-67714065D01*
X186828733Y-67856674D01*
X186691898Y-67965085D01*
X186531919Y-68056125D01*
X186531585Y-73493313D01*
X186531250Y-78930500D01*
X186266667Y-78930500D01*
X186265522Y-73493313D01*
X186264376Y-68056125D01*
X186093542Y-67976750D01*
X185946372Y-67874861D01*
X185822345Y-67735978D01*
X185816875Y-67727434D01*
X185711042Y-67557494D01*
X181338667Y-67555455D01*
X180533278Y-67554813D01*
X179827630Y-67553619D01*
X179215632Y-67551775D01*
X178691190Y-67549181D01*
X178248215Y-67545738D01*
X177880614Y-67541347D01*
X177582296Y-67535909D01*
X177347168Y-67529325D01*
X177169140Y-67521495D01*
X177042120Y-67512322D01*
X176960016Y-67501704D01*
X176916737Y-67489544D01*
X176908155Y-67483366D01*
X176882534Y-67449432D01*
X176869833Y-67419689D01*
X176876357Y-67393864D01*
X176908412Y-67371678D01*
X176972303Y-67352855D01*
X177074337Y-67337121D01*
X177220818Y-67324198D01*
X177418053Y-67313810D01*
X177672346Y-67305682D01*
X177990005Y-67299536D01*
X178377333Y-67295097D01*
X178840636Y-67292089D01*
X179386221Y-67290235D01*
X180020393Y-67289259D01*
X180749457Y-67288885D01*
X181349580Y-67288833D01*
X185724660Y-67288834D01*
X185793009Y-67123825D01*
X185923647Y-66939471D01*
X186126747Y-66813951D01*
X186379140Y-66760769D01*
X186417479Y-66759865D01*
X186582266Y-66774717D01*
X186709345Y-66834871D01*
X186827584Y-66939584D01*
X186934303Y-67062917D01*
X186998796Y-67169501D01*
X187007500Y-67204167D01*
X187014224Y-67217520D01*
X187038234Y-67229404D01*
X187085285Y-67239903D01*
X187161133Y-67249102D01*
X187271534Y-67257085D01*
X187422245Y-67263937D01*
X187619020Y-67269741D01*
X187867616Y-67274584D01*
X188173789Y-67278548D01*
X188543295Y-67281720D01*
X188981889Y-67284182D01*
X189495327Y-67286020D01*
X190089366Y-67287319D01*
X190769761Y-67288162D01*
X191542269Y-67288634D01*
X192412644Y-67288820D01*
X192773924Y-67288834D01*
X198540347Y-67288834D01*
X198555069Y-66561887D01*
X198562516Y-66267603D01*
X198572405Y-66062923D01*
X198586988Y-65931619D01*
X198608518Y-65857461D01*
X198639247Y-65824221D01*
X198658329Y-65817956D01*
X198720496Y-65838006D01*
X198868566Y-65901699D01*
X199093991Y-66004939D01*
X199388224Y-66143626D01*
X199742714Y-66313663D01*
X200148913Y-66510950D01*
X200598274Y-66731391D01*
X201082246Y-66970885D01*
X201554388Y-67206362D01*
X202060988Y-67459729D01*
X202539125Y-67698422D01*
X202980471Y-67918314D01*
X203376700Y-68115276D01*
X203719484Y-68285181D01*
X204000497Y-68423901D01*
X204211410Y-68527307D01*
X204343898Y-68591273D01*
X204389497Y-68611750D01*
X204395544Y-68560711D01*
X204401134Y-68415100D01*
X204406117Y-68186180D01*
X204410346Y-67885213D01*
X204413671Y-67523460D01*
X204415944Y-67112182D01*
X204417018Y-66662643D01*
X204417084Y-66517662D01*
X204417318Y-65991355D01*
X204418304Y-65561327D01*
X204420470Y-65218023D01*
X204424240Y-64951887D01*
X204430041Y-64753366D01*
X204438299Y-64612904D01*
X204449440Y-64520948D01*
X204463890Y-64467941D01*
X204482076Y-64444331D01*
X204504424Y-64440561D01*
X204509688Y-64441397D01*
G36*
X203670287Y-83656499D02*
G01*
X203704665Y-83790279D01*
X203719636Y-84017499D01*
X203717785Y-84308562D01*
X203708319Y-84569565D01*
X203694380Y-84741939D01*
X203673138Y-84842873D01*
X203641764Y-84889559D01*
X203620753Y-84898056D01*
X203526669Y-84891442D01*
X203501691Y-84876635D01*
X203486494Y-84811434D01*
X203474309Y-84663984D01*
X203466583Y-84457859D01*
X203464584Y-84272743D01*
X203469001Y-83990947D01*
X203483330Y-83800662D01*
X203509186Y-83687892D01*
X203536938Y-83645910D01*
X203614909Y-83610321D01*
X203670287Y-83656499D01*
G37*
X203670287Y-83656499D02*
X203704665Y-83790279D01*
X203719636Y-84017499D01*
X203717785Y-84308562D01*
X203708319Y-84569565D01*
X203694380Y-84741939D01*
X203673138Y-84842873D01*
X203641764Y-84889559D01*
X203620753Y-84898056D01*
X203526669Y-84891442D01*
X203501691Y-84876635D01*
X203486494Y-84811434D01*
X203474309Y-84663984D01*
X203466583Y-84457859D01*
X203464584Y-84272743D01*
X203469001Y-83990947D01*
X203483330Y-83800662D01*
X203509186Y-83687892D01*
X203536938Y-83645910D01*
X203614909Y-83610321D01*
X203670287Y-83656499D01*
G36*
X203891743Y-82167721D02*
G01*
X204003465Y-82207943D01*
X204101028Y-82297547D01*
X204121338Y-82321227D01*
X204234354Y-82528606D01*
X204262259Y-82759402D01*
X204204698Y-82980842D01*
X204129723Y-83094737D01*
X204032622Y-83188616D01*
X203965610Y-83200827D01*
X203938391Y-83181522D01*
X203906519Y-83111995D01*
X203950199Y-83013799D01*
X203961168Y-82997769D01*
X204029155Y-82836029D01*
X204041357Y-82654643D01*
X203997579Y-82498981D01*
X203963512Y-82453238D01*
X203828862Y-82384070D01*
X203657972Y-82375649D01*
X203499894Y-82426073D01*
X203440262Y-82473556D01*
X203386999Y-82560163D01*
X203370427Y-82677466D01*
X203390556Y-82849056D01*
X203440519Y-83071229D01*
X203456019Y-83174096D01*
X203411623Y-83209124D01*
X203325232Y-83209680D01*
X203177880Y-83197816D01*
X202989557Y-83176507D01*
X202922428Y-83167586D01*
X202762049Y-83135761D01*
X202644308Y-83095398D01*
X202615675Y-83076925D01*
X202589103Y-82996814D01*
X202574979Y-82838654D01*
X202575739Y-82629754D01*
X202575748Y-82629539D01*
X202586692Y-82427747D01*
X202603923Y-82309860D01*
X202634244Y-82253949D01*
X202684459Y-82238088D01*
X202697292Y-82237792D01*
X202754386Y-82249354D01*
X202788564Y-82299256D01*
X202807589Y-82410323D01*
X202818772Y-82594979D01*
X202828790Y-82784040D01*
X202845529Y-82890852D01*
X202880297Y-82938901D01*
X202944402Y-82951671D01*
X202990751Y-82952167D01*
X203086314Y-82945246D01*
X203131968Y-82905502D01*
X203146094Y-82804457D01*
X203147084Y-82709971D01*
X203162666Y-82531641D01*
X203223628Y-82401661D01*
X203301763Y-82313096D01*
X203419965Y-82214649D01*
X203545457Y-82169172D01*
X203720392Y-82158417D01*
X203891743Y-82167721D01*
G37*
X203891743Y-82167721D02*
X204003465Y-82207943D01*
X204101028Y-82297547D01*
X204121338Y-82321227D01*
X204234354Y-82528606D01*
X204262259Y-82759402D01*
X204204698Y-82980842D01*
X204129723Y-83094737D01*
X204032622Y-83188616D01*
X203965610Y-83200827D01*
X203938391Y-83181522D01*
X203906519Y-83111995D01*
X203950199Y-83013799D01*
X203961168Y-82997769D01*
X204029155Y-82836029D01*
X204041357Y-82654643D01*
X203997579Y-82498981D01*
X203963512Y-82453238D01*
X203828862Y-82384070D01*
X203657972Y-82375649D01*
X203499894Y-82426073D01*
X203440262Y-82473556D01*
X203386999Y-82560163D01*
X203370427Y-82677466D01*
X203390556Y-82849056D01*
X203440519Y-83071229D01*
X203456019Y-83174096D01*
X203411623Y-83209124D01*
X203325232Y-83209680D01*
X203177880Y-83197816D01*
X202989557Y-83176507D01*
X202922428Y-83167586D01*
X202762049Y-83135761D01*
X202644308Y-83095398D01*
X202615675Y-83076925D01*
X202589103Y-82996814D01*
X202574979Y-82838654D01*
X202575739Y-82629754D01*
X202575748Y-82629539D01*
X202586692Y-82427747D01*
X202603923Y-82309860D01*
X202634244Y-82253949D01*
X202684459Y-82238088D01*
X202697292Y-82237792D01*
X202754386Y-82249354D01*
X202788564Y-82299256D01*
X202807589Y-82410323D01*
X202818772Y-82594979D01*
X202828790Y-82784040D01*
X202845529Y-82890852D01*
X202880297Y-82938901D01*
X202944402Y-82951671D01*
X202990751Y-82952167D01*
X203086314Y-82945246D01*
X203131968Y-82905502D01*
X203146094Y-82804457D01*
X203147084Y-82709971D01*
X203162666Y-82531641D01*
X203223628Y-82401661D01*
X203301763Y-82313096D01*
X203419965Y-82214649D01*
X203545457Y-82169172D01*
X203720392Y-82158417D01*
X203891743Y-82167721D01*
G36*
X203756429Y-79218114D02*
G01*
X203766025Y-79245224D01*
X203815689Y-79318330D01*
X203932234Y-79355790D01*
X204012425Y-79364286D01*
X204175490Y-79396367D01*
X204240542Y-79449631D01*
X204207866Y-79506037D01*
X204077743Y-79547541D01*
X204009429Y-79555194D01*
X203786982Y-79571346D01*
X203771304Y-79898621D01*
X203754418Y-80093463D01*
X203723939Y-80200215D01*
X203676250Y-80236110D01*
X203594640Y-80223979D01*
X203439100Y-80183066D01*
X203235244Y-80120527D01*
X203094167Y-80073462D01*
X202817282Y-79969477D01*
X202644380Y-79883670D01*
X202575206Y-79815914D01*
X202574349Y-79812425D01*
X202584128Y-79749861D01*
X202652834Y-79728280D01*
X202791331Y-79748470D01*
X203010482Y-79811222D01*
X203137815Y-79853389D01*
X203517500Y-79982529D01*
X203517500Y-79777209D01*
X203510832Y-79643688D01*
X203470807Y-79582392D01*
X203367398Y-79559767D01*
X203319063Y-79555465D01*
X203169473Y-79520843D01*
X203114375Y-79463671D01*
X203154368Y-79405168D01*
X203290056Y-79366552D01*
X203313642Y-79364192D01*
X203461925Y-79331359D01*
X203529694Y-79257841D01*
X203533584Y-79245129D01*
X203594975Y-79159715D01*
X203684335Y-79150716D01*
X203756429Y-79218114D01*
G37*
X203756429Y-79218114D02*
X203766025Y-79245224D01*
X203815689Y-79318330D01*
X203932234Y-79355790D01*
X204012425Y-79364286D01*
X204175490Y-79396367D01*
X204240542Y-79449631D01*
X204207866Y-79506037D01*
X204077743Y-79547541D01*
X204009429Y-79555194D01*
X203786982Y-79571346D01*
X203771304Y-79898621D01*
X203754418Y-80093463D01*
X203723939Y-80200215D01*
X203676250Y-80236110D01*
X203594640Y-80223979D01*
X203439100Y-80183066D01*
X203235244Y-80120527D01*
X203094167Y-80073462D01*
X202817282Y-79969477D01*
X202644380Y-79883670D01*
X202575206Y-79815914D01*
X202574349Y-79812425D01*
X202584128Y-79749861D01*
X202652834Y-79728280D01*
X202791331Y-79748470D01*
X203010482Y-79811222D01*
X203137815Y-79853389D01*
X203517500Y-79982529D01*
X203517500Y-79777209D01*
X203510832Y-79643688D01*
X203470807Y-79582392D01*
X203367398Y-79559767D01*
X203319063Y-79555465D01*
X203169473Y-79520843D01*
X203114375Y-79463671D01*
X203154368Y-79405168D01*
X203290056Y-79366552D01*
X203313642Y-79364192D01*
X203461925Y-79331359D01*
X203529694Y-79257841D01*
X203533584Y-79245129D01*
X203594975Y-79159715D01*
X203684335Y-79150716D01*
X203756429Y-79218114D01*
G36*
X206851195Y-78524115D02*
G01*
X206988834Y-78634167D01*
X207131720Y-78840867D01*
X207171519Y-79069631D01*
X207107641Y-79316153D01*
X207088016Y-79356461D01*
X207004575Y-79472254D01*
X206925838Y-79515879D01*
X206874142Y-79486223D01*
X206871828Y-79382172D01*
X206875315Y-79367063D01*
X206927341Y-79132728D01*
X206943313Y-78974829D01*
X206923372Y-78870349D01*
X206878718Y-78806777D01*
X206762302Y-78746203D01*
X206600069Y-78720828D01*
X206440169Y-78732808D01*
X206332667Y-78782334D01*
X206290800Y-78874173D01*
X206271711Y-79013890D01*
X206276366Y-79156586D01*
X206305729Y-79257362D01*
X206322084Y-79274459D01*
X206366537Y-79349096D01*
X206375000Y-79409873D01*
X206354512Y-79467822D01*
X206283392Y-79499421D01*
X206147152Y-79505927D01*
X205931307Y-79488595D01*
X205740000Y-79464948D01*
X205501875Y-79433209D01*
X205501875Y-79009875D01*
X205505614Y-78792666D01*
X205519179Y-78662311D01*
X205546093Y-78600018D01*
X205581250Y-78586542D01*
X205628469Y-78613762D01*
X205657900Y-78707617D01*
X205674806Y-78886397D01*
X205676379Y-78917271D01*
X205689558Y-79100787D01*
X205712265Y-79201517D01*
X205752489Y-79242494D01*
X205791114Y-79248000D01*
X205923757Y-79265257D01*
X205973797Y-79280120D01*
X206023249Y-79282326D01*
X206048668Y-79226136D01*
X206057177Y-79090836D01*
X206057500Y-79036767D01*
X206066485Y-78859866D01*
X206105228Y-78741957D01*
X206191407Y-78636890D01*
X206221846Y-78607773D01*
X206426148Y-78476344D01*
X206639431Y-78448579D01*
X206851195Y-78524115D01*
G37*
X206851195Y-78524115D02*
X206988834Y-78634167D01*
X207131720Y-78840867D01*
X207171519Y-79069631D01*
X207107641Y-79316153D01*
X207088016Y-79356461D01*
X207004575Y-79472254D01*
X206925838Y-79515879D01*
X206874142Y-79486223D01*
X206871828Y-79382172D01*
X206875315Y-79367063D01*
X206927341Y-79132728D01*
X206943313Y-78974829D01*
X206923372Y-78870349D01*
X206878718Y-78806777D01*
X206762302Y-78746203D01*
X206600069Y-78720828D01*
X206440169Y-78732808D01*
X206332667Y-78782334D01*
X206290800Y-78874173D01*
X206271711Y-79013890D01*
X206276366Y-79156586D01*
X206305729Y-79257362D01*
X206322084Y-79274459D01*
X206366537Y-79349096D01*
X206375000Y-79409873D01*
X206354512Y-79467822D01*
X206283392Y-79499421D01*
X206147152Y-79505927D01*
X205931307Y-79488595D01*
X205740000Y-79464948D01*
X205501875Y-79433209D01*
X205501875Y-79009875D01*
X205505614Y-78792666D01*
X205519179Y-78662311D01*
X205546093Y-78600018D01*
X205581250Y-78586542D01*
X205628469Y-78613762D01*
X205657900Y-78707617D01*
X205674806Y-78886397D01*
X205676379Y-78917271D01*
X205689558Y-79100787D01*
X205712265Y-79201517D01*
X205752489Y-79242494D01*
X205791114Y-79248000D01*
X205923757Y-79265257D01*
X205973797Y-79280120D01*
X206023249Y-79282326D01*
X206048668Y-79226136D01*
X206057177Y-79090836D01*
X206057500Y-79036767D01*
X206066485Y-78859866D01*
X206105228Y-78741957D01*
X206191407Y-78636890D01*
X206221846Y-78607773D01*
X206426148Y-78476344D01*
X206639431Y-78448579D01*
X206851195Y-78524115D01*
G36*
X173226947Y-77119110D02*
G01*
X173248763Y-77171503D01*
X173263112Y-77276586D01*
X173271408Y-77448893D01*
X173275066Y-77702955D01*
X173275625Y-77920674D01*
X173273166Y-78256029D01*
X173265212Y-78496608D01*
X173250898Y-78653368D01*
X173229361Y-78737265D01*
X173209507Y-78758512D01*
X173135261Y-78738196D01*
X173115384Y-78707571D01*
X173106350Y-78630638D01*
X173100613Y-78468981D01*
X173098506Y-78243665D01*
X173100363Y-77975758D01*
X173102127Y-77869733D01*
X173109628Y-77564640D01*
X173119631Y-77350596D01*
X173133957Y-77212820D01*
X173154423Y-77136530D01*
X173182849Y-77106946D01*
X173196250Y-77104875D01*
X173226947Y-77119110D01*
G37*
X173226947Y-77119110D02*
X173248763Y-77171503D01*
X173263112Y-77276586D01*
X173271408Y-77448893D01*
X173275066Y-77702955D01*
X173275625Y-77920674D01*
X173273166Y-78256029D01*
X173265212Y-78496608D01*
X173250898Y-78653368D01*
X173229361Y-78737265D01*
X173209507Y-78758512D01*
X173135261Y-78738196D01*
X173115384Y-78707571D01*
X173106350Y-78630638D01*
X173100613Y-78468981D01*
X173098506Y-78243665D01*
X173100363Y-77975758D01*
X173102127Y-77869733D01*
X173109628Y-77564640D01*
X173119631Y-77350596D01*
X173133957Y-77212820D01*
X173154423Y-77136530D01*
X173182849Y-77106946D01*
X173196250Y-77104875D01*
X173226947Y-77119110D01*
G36*
X174762340Y-77120227D02*
G01*
X174785426Y-77176005D01*
X174801831Y-77286795D01*
X174813290Y-77467182D01*
X174821543Y-77731750D01*
X174824905Y-77894512D01*
X174829376Y-78258783D01*
X174823692Y-78519896D01*
X174802471Y-78680422D01*
X174760333Y-78742928D01*
X174691896Y-78709983D01*
X174591780Y-78584156D01*
X174454602Y-78368016D01*
X174317458Y-78136750D01*
X173991931Y-77581125D01*
X173990966Y-78146856D01*
X173985557Y-78435866D01*
X173969042Y-78627154D01*
X173939240Y-78728458D01*
X173893972Y-78747513D01*
X173835756Y-78697805D01*
X173808396Y-78608896D01*
X173792221Y-78420293D01*
X173787117Y-78129929D01*
X173790073Y-77864950D01*
X173797593Y-77560929D01*
X173807648Y-77347918D01*
X173822073Y-77211097D01*
X173842703Y-77135645D01*
X173871372Y-77106740D01*
X173884167Y-77104875D01*
X173941424Y-77148302D01*
X174037611Y-77267304D01*
X174160222Y-77444964D01*
X174292313Y-77656909D01*
X174621085Y-78208943D01*
X174636272Y-77656909D01*
X174645941Y-77402829D01*
X174660123Y-77237813D01*
X174681690Y-77145104D01*
X174713511Y-77107947D01*
X174730834Y-77104875D01*
X174762340Y-77120227D01*
G37*
X174762340Y-77120227D02*
X174785426Y-77176005D01*
X174801831Y-77286795D01*
X174813290Y-77467182D01*
X174821543Y-77731750D01*
X174824905Y-77894512D01*
X174829376Y-78258783D01*
X174823692Y-78519896D01*
X174802471Y-78680422D01*
X174760333Y-78742928D01*
X174691896Y-78709983D01*
X174591780Y-78584156D01*
X174454602Y-78368016D01*
X174317458Y-78136750D01*
X173991931Y-77581125D01*
X173990966Y-78146856D01*
X173985557Y-78435866D01*
X173969042Y-78627154D01*
X173939240Y-78728458D01*
X173893972Y-78747513D01*
X173835756Y-78697805D01*
X173808396Y-78608896D01*
X173792221Y-78420293D01*
X173787117Y-78129929D01*
X173790073Y-77864950D01*
X173797593Y-77560929D01*
X173807648Y-77347918D01*
X173822073Y-77211097D01*
X173842703Y-77135645D01*
X173871372Y-77106740D01*
X173884167Y-77104875D01*
X173941424Y-77148302D01*
X174037611Y-77267304D01*
X174160222Y-77444964D01*
X174292313Y-77656909D01*
X174621085Y-78208943D01*
X174636272Y-77656909D01*
X174645941Y-77402829D01*
X174660123Y-77237813D01*
X174681690Y-77145104D01*
X174713511Y-77107947D01*
X174730834Y-77104875D01*
X174762340Y-77120227D01*
G36*
X176005294Y-77989414D02*
G01*
X176272553Y-77998391D01*
X176450216Y-78011199D01*
X176554510Y-78030375D01*
X176601666Y-78058457D01*
X176609375Y-78083834D01*
X176591948Y-78119029D01*
X176528934Y-78143791D01*
X176404235Y-78160576D01*
X176201753Y-78171840D01*
X175991743Y-78178081D01*
X175674299Y-78180405D01*
X175461152Y-78169533D01*
X175351586Y-78145417D01*
X175337541Y-78133783D01*
X175321688Y-78068765D01*
X175374084Y-78023931D01*
X175504142Y-77997246D01*
X175721273Y-77986675D01*
X176005294Y-77989414D01*
G37*
X176005294Y-77989414D02*
X176272553Y-77998391D01*
X176450216Y-78011199D01*
X176554510Y-78030375D01*
X176601666Y-78058457D01*
X176609375Y-78083834D01*
X176591948Y-78119029D01*
X176528934Y-78143791D01*
X176404235Y-78160576D01*
X176201753Y-78171840D01*
X175991743Y-78178081D01*
X175674299Y-78180405D01*
X175461152Y-78169533D01*
X175351586Y-78145417D01*
X175337541Y-78133783D01*
X175321688Y-78068765D01*
X175374084Y-78023931D01*
X175504142Y-77997246D01*
X175721273Y-77986675D01*
X176005294Y-77989414D01*
G36*
X214992678Y-71327634D02*
G01*
X215017346Y-71414442D01*
X214954447Y-71484193D01*
X214822245Y-71520324D01*
X214778167Y-71522167D01*
X214638196Y-71557531D01*
X214509079Y-71644072D01*
X214428608Y-71752465D01*
X214418334Y-71801378D01*
X214459346Y-71845383D01*
X214588730Y-71852064D01*
X214629757Y-71848759D01*
X214771506Y-71846834D01*
X214879708Y-71886773D01*
X214999728Y-71987469D01*
X215026632Y-72014049D01*
X215147822Y-72155253D01*
X215201463Y-72285014D01*
X215210323Y-72403229D01*
X215162519Y-72619874D01*
X215038857Y-72793282D01*
X214862912Y-72909519D01*
X214658254Y-72954648D01*
X214448455Y-72914732D01*
X214392530Y-72886725D01*
X214237641Y-72773848D01*
X214148892Y-72638915D01*
X214113424Y-72453127D01*
X214113656Y-72383574D01*
X214365417Y-72383574D01*
X214379314Y-72539833D01*
X214414086Y-72654580D01*
X214428917Y-72675750D01*
X214538673Y-72726318D01*
X214689821Y-72735838D01*
X214829819Y-72705670D01*
X214891338Y-72663786D01*
X214926832Y-72566389D01*
X214939605Y-72414437D01*
X214937505Y-72360497D01*
X214916150Y-72209402D01*
X214866833Y-72127773D01*
X214777653Y-72082538D01*
X214587221Y-72065456D01*
X214499841Y-72093650D01*
X214412810Y-72150617D01*
X214373837Y-72240111D01*
X214365417Y-72383574D01*
X214113656Y-72383574D01*
X214114059Y-72263000D01*
X214160326Y-71936703D01*
X214260686Y-71657687D01*
X214405981Y-71446166D01*
X214527560Y-71350188D01*
X214720688Y-71273009D01*
X214885557Y-71267147D01*
X214992678Y-71327634D01*
G37*
X214992678Y-71327634D02*
X215017346Y-71414442D01*
X214954447Y-71484193D01*
X214822245Y-71520324D01*
X214778167Y-71522167D01*
X214638196Y-71557531D01*
X214509079Y-71644072D01*
X214428608Y-71752465D01*
X214418334Y-71801378D01*
X214459346Y-71845383D01*
X214588730Y-71852064D01*
X214629757Y-71848759D01*
X214771506Y-71846834D01*
X214879708Y-71886773D01*
X214999728Y-71987469D01*
X215026632Y-72014049D01*
X215147822Y-72155253D01*
X215201463Y-72285014D01*
X215210323Y-72403229D01*
X215162519Y-72619874D01*
X215038857Y-72793282D01*
X214862912Y-72909519D01*
X214658254Y-72954648D01*
X214448455Y-72914732D01*
X214392530Y-72886725D01*
X214237641Y-72773848D01*
X214148892Y-72638915D01*
X214113424Y-72453127D01*
X214113656Y-72383574D01*
X214365417Y-72383574D01*
X214379314Y-72539833D01*
X214414086Y-72654580D01*
X214428917Y-72675750D01*
X214538673Y-72726318D01*
X214689821Y-72735838D01*
X214829819Y-72705670D01*
X214891338Y-72663786D01*
X214926832Y-72566389D01*
X214939605Y-72414437D01*
X214937505Y-72360497D01*
X214916150Y-72209402D01*
X214866833Y-72127773D01*
X214777653Y-72082538D01*
X214587221Y-72065456D01*
X214499841Y-72093650D01*
X214412810Y-72150617D01*
X214373837Y-72240111D01*
X214365417Y-72383574D01*
X214113656Y-72383574D01*
X214114059Y-72263000D01*
X214160326Y-71936703D01*
X214260686Y-71657687D01*
X214405981Y-71446166D01*
X214527560Y-71350188D01*
X214720688Y-71273009D01*
X214885557Y-71267147D01*
X214992678Y-71327634D01*
G36*
X224312828Y-71279495D02*
G01*
X224508716Y-71376646D01*
X224652223Y-71510463D01*
X224741169Y-71689084D01*
X224781064Y-71930484D01*
X224777415Y-72252638D01*
X224777367Y-72253396D01*
X224760220Y-72463371D01*
X224734379Y-72599416D01*
X224688652Y-72693403D01*
X224611849Y-72777206D01*
X224584829Y-72801778D01*
X224376227Y-72921617D01*
X224137317Y-72950934D01*
X223898028Y-72886225D01*
X223891460Y-72882948D01*
X223765197Y-72787071D01*
X223683194Y-72640015D01*
X223639117Y-72424192D01*
X223626614Y-72147383D01*
X223626764Y-72142483D01*
X223837500Y-72142483D01*
X223843095Y-72358556D01*
X223864051Y-72498222D01*
X223906629Y-72590515D01*
X223943334Y-72633417D01*
X224098007Y-72720418D01*
X224282838Y-72730855D01*
X224449157Y-72664141D01*
X224499997Y-72612543D01*
X224530957Y-72532887D01*
X224546661Y-72401174D01*
X224551728Y-72193402D01*
X224551875Y-72130709D01*
X224543066Y-71865889D01*
X224509749Y-71689290D01*
X224441589Y-71584253D01*
X224328251Y-71534120D01*
X224174345Y-71522167D01*
X224023817Y-71548828D01*
X223922186Y-71637052D01*
X223862742Y-71799194D01*
X223838776Y-72047613D01*
X223837500Y-72142483D01*
X223626764Y-72142483D01*
X223635367Y-71861753D01*
X223668194Y-71658188D01*
X223733021Y-71514156D01*
X223837773Y-71407126D01*
X223902327Y-71363639D01*
X224115325Y-71272586D01*
X224312828Y-71279495D01*
G37*
X224312828Y-71279495D02*
X224508716Y-71376646D01*
X224652223Y-71510463D01*
X224741169Y-71689084D01*
X224781064Y-71930484D01*
X224777415Y-72252638D01*
X224777367Y-72253396D01*
X224760220Y-72463371D01*
X224734379Y-72599416D01*
X224688652Y-72693403D01*
X224611849Y-72777206D01*
X224584829Y-72801778D01*
X224376227Y-72921617D01*
X224137317Y-72950934D01*
X223898028Y-72886225D01*
X223891460Y-72882948D01*
X223765197Y-72787071D01*
X223683194Y-72640015D01*
X223639117Y-72424192D01*
X223626614Y-72147383D01*
X223626764Y-72142483D01*
X223837500Y-72142483D01*
X223843095Y-72358556D01*
X223864051Y-72498222D01*
X223906629Y-72590515D01*
X223943334Y-72633417D01*
X224098007Y-72720418D01*
X224282838Y-72730855D01*
X224449157Y-72664141D01*
X224499997Y-72612543D01*
X224530957Y-72532887D01*
X224546661Y-72401174D01*
X224551728Y-72193402D01*
X224551875Y-72130709D01*
X224543066Y-71865889D01*
X224509749Y-71689290D01*
X224441589Y-71584253D01*
X224328251Y-71534120D01*
X224174345Y-71522167D01*
X224023817Y-71548828D01*
X223922186Y-71637052D01*
X223862742Y-71799194D01*
X223838776Y-72047613D01*
X223837500Y-72142483D01*
X223626764Y-72142483D01*
X223635367Y-71861753D01*
X223668194Y-71658188D01*
X223733021Y-71514156D01*
X223837773Y-71407126D01*
X223902327Y-71363639D01*
X224115325Y-71272586D01*
X224312828Y-71279495D01*
G36*
X226183931Y-71293320D02*
G01*
X226197009Y-71356572D01*
X226207846Y-71504545D01*
X226215416Y-71716131D01*
X226218692Y-71970225D01*
X226218750Y-72009642D01*
X226217740Y-72290807D01*
X226212524Y-72486619D01*
X226199824Y-72617552D01*
X226176364Y-72704082D01*
X226138864Y-72766684D01*
X226088864Y-72821030D01*
X225915246Y-72926375D01*
X225704327Y-72958651D01*
X225495289Y-72917938D01*
X225341678Y-72819489D01*
X225288541Y-72762206D01*
X225252549Y-72702297D01*
X225230900Y-72619739D01*
X225220790Y-72494510D01*
X225219417Y-72306585D01*
X225223978Y-72035944D01*
X225225021Y-71986051D01*
X225232978Y-71695281D01*
X225243865Y-71495028D01*
X225259733Y-71369979D01*
X225282637Y-71304821D01*
X225314631Y-71284243D01*
X225319167Y-71284042D01*
X225353357Y-71301559D01*
X225378703Y-71364333D01*
X225397602Y-71487697D01*
X225412451Y-71686983D01*
X225425000Y-71960813D01*
X225439231Y-72262351D01*
X225458772Y-72473933D01*
X225490156Y-72611432D01*
X225539918Y-72690717D01*
X225614593Y-72727660D01*
X225720713Y-72738132D01*
X225745146Y-72738440D01*
X225849207Y-72728993D01*
X225921698Y-72688682D01*
X225968167Y-72601743D01*
X225994163Y-72452415D01*
X226005236Y-72224932D01*
X226007084Y-71994313D01*
X226011019Y-71699115D01*
X226023748Y-71496305D01*
X226046654Y-71372699D01*
X226078098Y-71317439D01*
X226155259Y-71283870D01*
X226183931Y-71293320D01*
G37*
X226183931Y-71293320D02*
X226197009Y-71356572D01*
X226207846Y-71504545D01*
X226215416Y-71716131D01*
X226218692Y-71970225D01*
X226218750Y-72009642D01*
X226217740Y-72290807D01*
X226212524Y-72486619D01*
X226199824Y-72617552D01*
X226176364Y-72704082D01*
X226138864Y-72766684D01*
X226088864Y-72821030D01*
X225915246Y-72926375D01*
X225704327Y-72958651D01*
X225495289Y-72917938D01*
X225341678Y-72819489D01*
X225288541Y-72762206D01*
X225252549Y-72702297D01*
X225230900Y-72619739D01*
X225220790Y-72494510D01*
X225219417Y-72306585D01*
X225223978Y-72035944D01*
X225225021Y-71986051D01*
X225232978Y-71695281D01*
X225243865Y-71495028D01*
X225259733Y-71369979D01*
X225282637Y-71304821D01*
X225314631Y-71284243D01*
X225319167Y-71284042D01*
X225353357Y-71301559D01*
X225378703Y-71364333D01*
X225397602Y-71487697D01*
X225412451Y-71686983D01*
X225425000Y-71960813D01*
X225439231Y-72262351D01*
X225458772Y-72473933D01*
X225490156Y-72611432D01*
X225539918Y-72690717D01*
X225614593Y-72727660D01*
X225720713Y-72738132D01*
X225745146Y-72738440D01*
X225849207Y-72728993D01*
X225921698Y-72688682D01*
X225968167Y-72601743D01*
X225994163Y-72452415D01*
X226005236Y-72224932D01*
X226007084Y-71994313D01*
X226011019Y-71699115D01*
X226023748Y-71496305D01*
X226046654Y-71372699D01*
X226078098Y-71317439D01*
X226155259Y-71283870D01*
X226183931Y-71293320D01*
G36*
X227197488Y-71260740D02*
G01*
X227378167Y-71277955D01*
X227502288Y-71307457D01*
X227533928Y-71327634D01*
X227559610Y-71414199D01*
X227495671Y-71482390D01*
X227358190Y-71519146D01*
X227294494Y-71522167D01*
X227121405Y-71522167D01*
X227106640Y-72218980D01*
X227095839Y-72537570D01*
X227077737Y-72759271D01*
X227050267Y-72892898D01*
X227011363Y-72947266D01*
X226958957Y-72931190D01*
X226943047Y-72916741D01*
X226929357Y-72852856D01*
X226918020Y-72704356D01*
X226910115Y-72492452D01*
X226906721Y-72238356D01*
X226906667Y-72201264D01*
X226906667Y-71522167D01*
X226754396Y-71522167D01*
X226613443Y-71496937D01*
X226529857Y-71434266D01*
X226523547Y-71353681D01*
X226548093Y-71319824D01*
X226635554Y-71285356D01*
X226794237Y-71264188D01*
X226992196Y-71256067D01*
X227197488Y-71260740D01*
G37*
X227197488Y-71260740D02*
X227378167Y-71277955D01*
X227502288Y-71307457D01*
X227533928Y-71327634D01*
X227559610Y-71414199D01*
X227495671Y-71482390D01*
X227358190Y-71519146D01*
X227294494Y-71522167D01*
X227121405Y-71522167D01*
X227106640Y-72218980D01*
X227095839Y-72537570D01*
X227077737Y-72759271D01*
X227050267Y-72892898D01*
X227011363Y-72947266D01*
X226958957Y-72931190D01*
X226943047Y-72916741D01*
X226929357Y-72852856D01*
X226918020Y-72704356D01*
X226910115Y-72492452D01*
X226906721Y-72238356D01*
X226906667Y-72201264D01*
X226906667Y-71522167D01*
X226754396Y-71522167D01*
X226613443Y-71496937D01*
X226529857Y-71434266D01*
X226523547Y-71353681D01*
X226548093Y-71319824D01*
X226635554Y-71285356D01*
X226794237Y-71264188D01*
X226992196Y-71256067D01*
X227197488Y-71260740D01*
G36*
X202699823Y-66139148D02*
G01*
X202843613Y-66177093D01*
X203041698Y-66243064D01*
X203273253Y-66328728D01*
X203517460Y-66425755D01*
X203753495Y-66525814D01*
X203960538Y-66620572D01*
X204117768Y-66701698D01*
X204204363Y-66760862D01*
X204211834Y-66770050D01*
X204231689Y-66848227D01*
X204161035Y-66871882D01*
X204000050Y-66841044D01*
X203748917Y-66755742D01*
X203492579Y-66652269D01*
X203257009Y-66553295D01*
X203059048Y-66471335D01*
X202917739Y-66414185D01*
X202852128Y-66389641D01*
X202850085Y-66389250D01*
X202840212Y-66437817D01*
X202832944Y-66566129D01*
X202829650Y-66748107D01*
X202829584Y-66779646D01*
X202816581Y-67034225D01*
X202778812Y-67197333D01*
X202718134Y-67264892D01*
X202636404Y-67232821D01*
X202627241Y-67224074D01*
X202595268Y-67139898D01*
X202574333Y-66982312D01*
X202564328Y-66781146D01*
X202565146Y-66566232D01*
X202576680Y-66367400D01*
X202598823Y-66214481D01*
X202631146Y-66137560D01*
X202699823Y-66139148D01*
G37*
X202699823Y-66139148D02*
X202843613Y-66177093D01*
X203041698Y-66243064D01*
X203273253Y-66328728D01*
X203517460Y-66425755D01*
X203753495Y-66525814D01*
X203960538Y-66620572D01*
X204117768Y-66701698D01*
X204204363Y-66760862D01*
X204211834Y-66770050D01*
X204231689Y-66848227D01*
X204161035Y-66871882D01*
X204000050Y-66841044D01*
X203748917Y-66755742D01*
X203492579Y-66652269D01*
X203257009Y-66553295D01*
X203059048Y-66471335D01*
X202917739Y-66414185D01*
X202852128Y-66389641D01*
X202850085Y-66389250D01*
X202840212Y-66437817D01*
X202832944Y-66566129D01*
X202829650Y-66748107D01*
X202829584Y-66779646D01*
X202816581Y-67034225D01*
X202778812Y-67197333D01*
X202718134Y-67264892D01*
X202636404Y-67232821D01*
X202627241Y-67224074D01*
X202595268Y-67139898D01*
X202574333Y-66982312D01*
X202564328Y-66781146D01*
X202565146Y-66566232D01*
X202576680Y-66367400D01*
X202598823Y-66214481D01*
X202631146Y-66137560D01*
X202699823Y-66139148D01*
G36*
X173227448Y-65531316D02*
G01*
X173250382Y-65586523D01*
X173266736Y-65696199D01*
X173278192Y-65874795D01*
X173286433Y-66136764D01*
X173290233Y-66323104D01*
X173294661Y-66634635D01*
X173294007Y-66855372D01*
X173287011Y-67000285D01*
X173272415Y-67084343D01*
X173248963Y-67122518D01*
X173222426Y-67130084D01*
X173134159Y-67092073D01*
X173113652Y-67061389D01*
X173105088Y-66985672D01*
X173099853Y-66825542D01*
X173098252Y-66602380D01*
X173100591Y-66337563D01*
X173102083Y-66254410D01*
X173109782Y-65955302D01*
X173120146Y-65747025D01*
X173135091Y-65614578D01*
X173156529Y-65542962D01*
X173186372Y-65517176D01*
X173196250Y-65516125D01*
X173227448Y-65531316D01*
G37*
X173227448Y-65531316D02*
X173250382Y-65586523D01*
X173266736Y-65696199D01*
X173278192Y-65874795D01*
X173286433Y-66136764D01*
X173290233Y-66323104D01*
X173294661Y-66634635D01*
X173294007Y-66855372D01*
X173287011Y-67000285D01*
X173272415Y-67084343D01*
X173248963Y-67122518D01*
X173222426Y-67130084D01*
X173134159Y-67092073D01*
X173113652Y-67061389D01*
X173105088Y-66985672D01*
X173099853Y-66825542D01*
X173098252Y-66602380D01*
X173100591Y-66337563D01*
X173102083Y-66254410D01*
X173109782Y-65955302D01*
X173120146Y-65747025D01*
X173135091Y-65614578D01*
X173156529Y-65542962D01*
X173186372Y-65517176D01*
X173196250Y-65516125D01*
X173227448Y-65531316D01*
G36*
X173960865Y-65547970D02*
G01*
X174073762Y-65695032D01*
X174224793Y-65937550D01*
X174336410Y-66128925D01*
X174621051Y-66623259D01*
X174636255Y-66069692D01*
X174645911Y-65815214D01*
X174660056Y-65649818D01*
X174681549Y-65556761D01*
X174713250Y-65519306D01*
X174730834Y-65516125D01*
X174761960Y-65531281D01*
X174784862Y-65586363D01*
X174801210Y-65695792D01*
X174812674Y-65873986D01*
X174820928Y-66135366D01*
X174824838Y-66327254D01*
X174829587Y-66636477D01*
X174829870Y-66854948D01*
X174824199Y-66997704D01*
X174811085Y-67079783D01*
X174789043Y-67116226D01*
X174756583Y-67122069D01*
X174746366Y-67120453D01*
X174682352Y-67068860D01*
X174580809Y-66941404D01*
X174454444Y-66755376D01*
X174334861Y-66560463D01*
X174016459Y-66018403D01*
X174001439Y-66574243D01*
X173990537Y-66839967D01*
X173973654Y-67012663D01*
X173948873Y-67105059D01*
X173917654Y-67130084D01*
X173828355Y-67105987D01*
X173813611Y-67094806D01*
X173800986Y-67031886D01*
X173790359Y-66883073D01*
X173782622Y-66668303D01*
X173778663Y-66407511D01*
X173778334Y-66304179D01*
X173782014Y-65948383D01*
X173796678Y-65696570D01*
X173827754Y-65547033D01*
X173880673Y-65498068D01*
X173960865Y-65547970D01*
G37*
X173960865Y-65547970D02*
X174073762Y-65695032D01*
X174224793Y-65937550D01*
X174336410Y-66128925D01*
X174621051Y-66623259D01*
X174636255Y-66069692D01*
X174645911Y-65815214D01*
X174660056Y-65649818D01*
X174681549Y-65556761D01*
X174713250Y-65519306D01*
X174730834Y-65516125D01*
X174761960Y-65531281D01*
X174784862Y-65586363D01*
X174801210Y-65695792D01*
X174812674Y-65873986D01*
X174820928Y-66135366D01*
X174824838Y-66327254D01*
X174829587Y-66636477D01*
X174829870Y-66854948D01*
X174824199Y-66997704D01*
X174811085Y-67079783D01*
X174789043Y-67116226D01*
X174756583Y-67122069D01*
X174746366Y-67120453D01*
X174682352Y-67068860D01*
X174580809Y-66941404D01*
X174454444Y-66755376D01*
X174334861Y-66560463D01*
X174016459Y-66018403D01*
X174001439Y-66574243D01*
X173990537Y-66839967D01*
X173973654Y-67012663D01*
X173948873Y-67105059D01*
X173917654Y-67130084D01*
X173828355Y-67105987D01*
X173813611Y-67094806D01*
X173800986Y-67031886D01*
X173790359Y-66883073D01*
X173782622Y-66668303D01*
X173778663Y-66407511D01*
X173778334Y-66304179D01*
X173782014Y-65948383D01*
X173796678Y-65696570D01*
X173827754Y-65547033D01*
X173880673Y-65498068D01*
X173960865Y-65547970D01*
G36*
X176053085Y-65899438D02*
G01*
X176094861Y-66027482D01*
X176106667Y-66154705D01*
X176106667Y-66383451D01*
X176358021Y-66399580D01*
X176523937Y-66421558D01*
X176600156Y-66463637D01*
X176609375Y-66495084D01*
X176573091Y-66550099D01*
X176454294Y-66581732D01*
X176360807Y-66590473D01*
X176112238Y-66606488D01*
X176096223Y-66854581D01*
X176074400Y-67019070D01*
X176030335Y-67101011D01*
X175987604Y-67120258D01*
X175932108Y-67114970D01*
X175904212Y-67056266D01*
X175895282Y-66921009D01*
X175895000Y-66872146D01*
X175895000Y-66606448D01*
X175617188Y-66590453D01*
X175442652Y-66571203D01*
X175356388Y-66535389D01*
X175339375Y-66495084D01*
X175371582Y-66443362D01*
X175479546Y-66412499D01*
X175617188Y-66399714D01*
X175895000Y-66383719D01*
X175895000Y-66130721D01*
X175901731Y-65974924D01*
X175918810Y-65866948D01*
X175929819Y-65842904D01*
X175993653Y-65830123D01*
X176053085Y-65899438D01*
G37*
X176053085Y-65899438D02*
X176094861Y-66027482D01*
X176106667Y-66154705D01*
X176106667Y-66383451D01*
X176358021Y-66399580D01*
X176523937Y-66421558D01*
X176600156Y-66463637D01*
X176609375Y-66495084D01*
X176573091Y-66550099D01*
X176454294Y-66581732D01*
X176360807Y-66590473D01*
X176112238Y-66606488D01*
X176096223Y-66854581D01*
X176074400Y-67019070D01*
X176030335Y-67101011D01*
X175987604Y-67120258D01*
X175932108Y-67114970D01*
X175904212Y-67056266D01*
X175895282Y-66921009D01*
X175895000Y-66872146D01*
X175895000Y-66606448D01*
X175617188Y-66590453D01*
X175442652Y-66571203D01*
X175356388Y-66535389D01*
X175339375Y-66495084D01*
X175371582Y-66443362D01*
X175479546Y-66412499D01*
X175617188Y-66399714D01*
X175895000Y-66383719D01*
X175895000Y-66130721D01*
X175901731Y-65974924D01*
X175918810Y-65866948D01*
X175929819Y-65842904D01*
X175993653Y-65830123D01*
X176053085Y-65899438D01*
G36*
X197457207Y-65494967D02*
G01*
X197644795Y-65509577D01*
X197756323Y-65531564D01*
X197777274Y-65544578D01*
X197763889Y-65611284D01*
X197692984Y-65723320D01*
X197624231Y-65806454D01*
X197437251Y-66013418D01*
X197619876Y-66196042D01*
X197765837Y-66402962D01*
X197809615Y-66622013D01*
X197750493Y-66841078D01*
X197665505Y-66967273D01*
X197580653Y-67057156D01*
X197494954Y-67106051D01*
X197372713Y-67126257D01*
X197193034Y-67130084D01*
X196961922Y-67117655D01*
X196818633Y-67078346D01*
X196774405Y-67046929D01*
X196706822Y-66947661D01*
X196691250Y-66888179D01*
X196729626Y-66825537D01*
X196809805Y-66817503D01*
X196876459Y-66865500D01*
X196955220Y-66907028D01*
X197096928Y-66922135D01*
X197262701Y-66913231D01*
X197413654Y-66882724D01*
X197510904Y-66833022D01*
X197517171Y-66825813D01*
X197578764Y-66669382D01*
X197560779Y-66501009D01*
X197478066Y-66351843D01*
X197345476Y-66253033D01*
X197233358Y-66230500D01*
X197116828Y-66205454D01*
X197093330Y-66130882D01*
X197162823Y-66007638D01*
X197248996Y-65910828D01*
X197448476Y-65706543D01*
X197083639Y-65690709D01*
X196884149Y-65677245D01*
X196768219Y-65654239D01*
X196713626Y-65615389D01*
X196701146Y-65582271D01*
X196702926Y-65540033D01*
X196739757Y-65512931D01*
X196829762Y-65497689D01*
X196991063Y-65491029D01*
X197213414Y-65489667D01*
X197457207Y-65494967D01*
G37*
X197457207Y-65494967D02*
X197644795Y-65509577D01*
X197756323Y-65531564D01*
X197777274Y-65544578D01*
X197763889Y-65611284D01*
X197692984Y-65723320D01*
X197624231Y-65806454D01*
X197437251Y-66013418D01*
X197619876Y-66196042D01*
X197765837Y-66402962D01*
X197809615Y-66622013D01*
X197750493Y-66841078D01*
X197665505Y-66967273D01*
X197580653Y-67057156D01*
X197494954Y-67106051D01*
X197372713Y-67126257D01*
X197193034Y-67130084D01*
X196961922Y-67117655D01*
X196818633Y-67078346D01*
X196774405Y-67046929D01*
X196706822Y-66947661D01*
X196691250Y-66888179D01*
X196729626Y-66825537D01*
X196809805Y-66817503D01*
X196876459Y-66865500D01*
X196955220Y-66907028D01*
X197096928Y-66922135D01*
X197262701Y-66913231D01*
X197413654Y-66882724D01*
X197510904Y-66833022D01*
X197517171Y-66825813D01*
X197578764Y-66669382D01*
X197560779Y-66501009D01*
X197478066Y-66351843D01*
X197345476Y-66253033D01*
X197233358Y-66230500D01*
X197116828Y-66205454D01*
X197093330Y-66130882D01*
X197162823Y-66007638D01*
X197248996Y-65910828D01*
X197448476Y-65706543D01*
X197083639Y-65690709D01*
X196884149Y-65677245D01*
X196768219Y-65654239D01*
X196713626Y-65615389D01*
X196701146Y-65582271D01*
X196702926Y-65540033D01*
X196739757Y-65512931D01*
X196829762Y-65497689D01*
X196991063Y-65491029D01*
X197213414Y-65489667D01*
X197457207Y-65494967D01*
G36*
X203666926Y-62908593D02*
G01*
X203705957Y-62997607D01*
X203727613Y-63144081D01*
X203729167Y-63195476D01*
X203729167Y-63420118D01*
X203980521Y-63436247D01*
X204146437Y-63458225D01*
X204222656Y-63500304D01*
X204231875Y-63531750D01*
X204195990Y-63586447D01*
X204078227Y-63618073D01*
X203980521Y-63627254D01*
X203729167Y-63643382D01*
X203729167Y-63872129D01*
X203709545Y-64048151D01*
X203657835Y-64158872D01*
X203584775Y-64189288D01*
X203526824Y-64154908D01*
X203487794Y-64065893D01*
X203466138Y-63919420D01*
X203464584Y-63868025D01*
X203464584Y-63643382D01*
X203213229Y-63627254D01*
X203047314Y-63605275D01*
X202971095Y-63563196D01*
X202961875Y-63531750D01*
X202997760Y-63477053D01*
X203115523Y-63445427D01*
X203213229Y-63436247D01*
X203464584Y-63420118D01*
X203464584Y-63191372D01*
X203484206Y-63015349D01*
X203535915Y-62904628D01*
X203608975Y-62874212D01*
X203666926Y-62908593D01*
G37*
X203666926Y-62908593D02*
X203705957Y-62997607D01*
X203727613Y-63144081D01*
X203729167Y-63195476D01*
X203729167Y-63420118D01*
X203980521Y-63436247D01*
X204146437Y-63458225D01*
X204222656Y-63500304D01*
X204231875Y-63531750D01*
X204195990Y-63586447D01*
X204078227Y-63618073D01*
X203980521Y-63627254D01*
X203729167Y-63643382D01*
X203729167Y-63872129D01*
X203709545Y-64048151D01*
X203657835Y-64158872D01*
X203584775Y-64189288D01*
X203526824Y-64154908D01*
X203487794Y-64065893D01*
X203466138Y-63919420D01*
X203464584Y-63868025D01*
X203464584Y-63643382D01*
X203213229Y-63627254D01*
X203047314Y-63605275D01*
X202971095Y-63563196D01*
X202961875Y-63531750D01*
X202997760Y-63477053D01*
X203115523Y-63445427D01*
X203213229Y-63436247D01*
X203464584Y-63420118D01*
X203464584Y-63191372D01*
X203484206Y-63015349D01*
X203535915Y-62904628D01*
X203608975Y-62874212D01*
X203666926Y-62908593D01*
G36*
X203896936Y-61436940D02*
G01*
X204074557Y-61506833D01*
X204195767Y-61623675D01*
X204224427Y-61690777D01*
X204256268Y-61909597D01*
X204240396Y-62116079D01*
X204183966Y-62285750D01*
X204094135Y-62394137D01*
X204011036Y-62420500D01*
X203955194Y-62394703D01*
X203966631Y-62302973D01*
X203967127Y-62301438D01*
X204031060Y-62023567D01*
X204018701Y-61819032D01*
X203930041Y-61687803D01*
X203765068Y-61629853D01*
X203702709Y-61626750D01*
X203517728Y-61667813D01*
X203399737Y-61780971D01*
X203355663Y-61951181D01*
X203392432Y-62163399D01*
X203421887Y-62236591D01*
X203457926Y-62345503D01*
X203431224Y-62407067D01*
X203408658Y-62423479D01*
X203329047Y-62460875D01*
X203305834Y-62462818D01*
X203242472Y-62454509D01*
X203107479Y-62442655D01*
X202989938Y-62434001D01*
X202815550Y-62413078D01*
X202680319Y-62380795D01*
X202632750Y-62357936D01*
X202593117Y-62271815D01*
X202570119Y-62116912D01*
X202563655Y-61928944D01*
X202573627Y-61743630D01*
X202599936Y-61596689D01*
X202635051Y-61528655D01*
X202721042Y-61499651D01*
X202784144Y-61568326D01*
X202821061Y-61728352D01*
X202829584Y-61901917D01*
X202831876Y-62073963D01*
X202847503Y-62165547D01*
X202889588Y-62202040D01*
X202971252Y-62208813D01*
X202988334Y-62208834D01*
X203082924Y-62202873D01*
X203129695Y-62166630D01*
X203145472Y-62072565D01*
X203147084Y-61948954D01*
X203156858Y-61778417D01*
X203198830Y-61666638D01*
X203291969Y-61567376D01*
X203309894Y-61552079D01*
X203486174Y-61455252D01*
X203691331Y-61418309D01*
X203896936Y-61436940D01*
G37*
X203896936Y-61436940D02*
X204074557Y-61506833D01*
X204195767Y-61623675D01*
X204224427Y-61690777D01*
X204256268Y-61909597D01*
X204240396Y-62116079D01*
X204183966Y-62285750D01*
X204094135Y-62394137D01*
X204011036Y-62420500D01*
X203955194Y-62394703D01*
X203966631Y-62302973D01*
X203967127Y-62301438D01*
X204031060Y-62023567D01*
X204018701Y-61819032D01*
X203930041Y-61687803D01*
X203765068Y-61629853D01*
X203702709Y-61626750D01*
X203517728Y-61667813D01*
X203399737Y-61780971D01*
X203355663Y-61951181D01*
X203392432Y-62163399D01*
X203421887Y-62236591D01*
X203457926Y-62345503D01*
X203431224Y-62407067D01*
X203408658Y-62423479D01*
X203329047Y-62460875D01*
X203305834Y-62462818D01*
X203242472Y-62454509D01*
X203107479Y-62442655D01*
X202989938Y-62434001D01*
X202815550Y-62413078D01*
X202680319Y-62380795D01*
X202632750Y-62357936D01*
X202593117Y-62271815D01*
X202570119Y-62116912D01*
X202563655Y-61928944D01*
X202573627Y-61743630D01*
X202599936Y-61596689D01*
X202635051Y-61528655D01*
X202721042Y-61499651D01*
X202784144Y-61568326D01*
X202821061Y-61728352D01*
X202829584Y-61901917D01*
X202831876Y-62073963D01*
X202847503Y-62165547D01*
X202889588Y-62202040D01*
X202971252Y-62208813D01*
X202988334Y-62208834D01*
X203082924Y-62202873D01*
X203129695Y-62166630D01*
X203145472Y-62072565D01*
X203147084Y-61948954D01*
X203156858Y-61778417D01*
X203198830Y-61666638D01*
X203291969Y-61567376D01*
X203309894Y-61552079D01*
X203486174Y-61455252D01*
X203691331Y-61418309D01*
X203896936Y-61436940D01*
G36*
X200110267Y-79011442D02*
G01*
X200292649Y-79017821D01*
X200404657Y-79031532D01*
X200464005Y-79055093D01*
X200488411Y-79091022D01*
X200491176Y-79102479D01*
X200489954Y-79140824D01*
X200457945Y-79166895D01*
X200378785Y-79183019D01*
X200236107Y-79191522D01*
X200013547Y-79194731D01*
X199839792Y-79195084D01*
X199562917Y-79193893D01*
X199375499Y-79188769D01*
X199261170Y-79177385D01*
X199203566Y-79157415D01*
X199186322Y-79126532D01*
X199188407Y-79102479D01*
X199206731Y-79062989D01*
X199255476Y-79036510D01*
X199352356Y-79020524D01*
X199515090Y-79012513D01*
X199761392Y-79009957D01*
X199839792Y-79009875D01*
X200110267Y-79011442D01*
G37*
X200110267Y-79011442D02*
X200292649Y-79017821D01*
X200404657Y-79031532D01*
X200464005Y-79055093D01*
X200488411Y-79091022D01*
X200491176Y-79102479D01*
X200489954Y-79140824D01*
X200457945Y-79166895D01*
X200378785Y-79183019D01*
X200236107Y-79191522D01*
X200013547Y-79194731D01*
X199839792Y-79195084D01*
X199562917Y-79193893D01*
X199375499Y-79188769D01*
X199261170Y-79177385D01*
X199203566Y-79157415D01*
X199186322Y-79126532D01*
X199188407Y-79102479D01*
X199206731Y-79062989D01*
X199255476Y-79036510D01*
X199352356Y-79020524D01*
X199515090Y-79012513D01*
X199761392Y-79009957D01*
X199839792Y-79009875D01*
X200110267Y-79011442D01*
G36*
X201453750Y-76380600D02*
G01*
X201453053Y-76659433D01*
X201448465Y-76853124D01*
X201436243Y-76982361D01*
X201412643Y-77067834D01*
X201373921Y-77130234D01*
X201316333Y-77190251D01*
X201305334Y-77200808D01*
X201120582Y-77310745D01*
X200900444Y-77343776D01*
X200726146Y-77307954D01*
X200670776Y-77239217D01*
X200660000Y-77179215D01*
X200673897Y-77114886D01*
X200734633Y-77095382D01*
X200862577Y-77109560D01*
X201027147Y-77117387D01*
X201135300Y-77070260D01*
X201153619Y-77053488D01*
X201231376Y-76951803D01*
X201214081Y-76891707D01*
X201098787Y-76867738D01*
X201052805Y-76866750D01*
X200876262Y-76834079D01*
X200719044Y-76722129D01*
X200708846Y-76712071D01*
X200615188Y-76602183D01*
X200568979Y-76487920D01*
X200554612Y-76324627D01*
X200554290Y-76284667D01*
X200765834Y-76284667D01*
X200801177Y-76487382D01*
X200906262Y-76611381D01*
X201079671Y-76655031D01*
X201087113Y-76655084D01*
X201242084Y-76655084D01*
X201242084Y-75914250D01*
X201087113Y-75914250D01*
X200911289Y-75954999D01*
X200803738Y-76076155D01*
X200765879Y-76276086D01*
X200765834Y-76284667D01*
X200554290Y-76284667D01*
X200554167Y-76269495D01*
X200563570Y-76083549D01*
X200601081Y-75959743D01*
X200680650Y-75855334D01*
X200693674Y-75842091D01*
X200792372Y-75760033D01*
X200902646Y-75717901D01*
X201064124Y-75703404D01*
X201143466Y-75702584D01*
X201453750Y-75702584D01*
X201453750Y-76380600D01*
G37*
X201453750Y-76380600D02*
X201453053Y-76659433D01*
X201448465Y-76853124D01*
X201436243Y-76982361D01*
X201412643Y-77067834D01*
X201373921Y-77130234D01*
X201316333Y-77190251D01*
X201305334Y-77200808D01*
X201120582Y-77310745D01*
X200900444Y-77343776D01*
X200726146Y-77307954D01*
X200670776Y-77239217D01*
X200660000Y-77179215D01*
X200673897Y-77114886D01*
X200734633Y-77095382D01*
X200862577Y-77109560D01*
X201027147Y-77117387D01*
X201135300Y-77070260D01*
X201153619Y-77053488D01*
X201231376Y-76951803D01*
X201214081Y-76891707D01*
X201098787Y-76867738D01*
X201052805Y-76866750D01*
X200876262Y-76834079D01*
X200719044Y-76722129D01*
X200708846Y-76712071D01*
X200615188Y-76602183D01*
X200568979Y-76487920D01*
X200554612Y-76324627D01*
X200554290Y-76284667D01*
X200765834Y-76284667D01*
X200801177Y-76487382D01*
X200906262Y-76611381D01*
X201079671Y-76655031D01*
X201087113Y-76655084D01*
X201242084Y-76655084D01*
X201242084Y-75914250D01*
X201087113Y-75914250D01*
X200911289Y-75954999D01*
X200803738Y-76076155D01*
X200765879Y-76276086D01*
X200765834Y-76284667D01*
X200554290Y-76284667D01*
X200554167Y-76269495D01*
X200563570Y-76083549D01*
X200601081Y-75959743D01*
X200680650Y-75855334D01*
X200693674Y-75842091D01*
X200792372Y-75760033D01*
X200902646Y-75717901D01*
X201064124Y-75703404D01*
X201143466Y-75702584D01*
X201453750Y-75702584D01*
X201453750Y-76380600D01*
G36*
X203762767Y-76138086D02*
G01*
X203913598Y-76171389D01*
X204138603Y-76237182D01*
X204450046Y-76337366D01*
X204469922Y-76343910D01*
X204796169Y-76455607D01*
X205028570Y-76546026D01*
X205175854Y-76619940D01*
X205246753Y-76682124D01*
X205249995Y-76737352D01*
X205232155Y-76760762D01*
X205169089Y-76792356D01*
X205027711Y-76848975D01*
X204830318Y-76922808D01*
X204599209Y-77006042D01*
X204356681Y-77090866D01*
X204125033Y-77169469D01*
X203926562Y-77234038D01*
X203783566Y-77276761D01*
X203721264Y-77290084D01*
X203660665Y-77252175D01*
X203649792Y-77237167D01*
X203633253Y-77182645D01*
X203665180Y-77131452D01*
X203758869Y-77075742D01*
X203927612Y-77007668D01*
X204184705Y-76919385D01*
X204192724Y-76916738D01*
X204413576Y-76842718D01*
X204597714Y-76778856D01*
X204721252Y-76733557D01*
X204758399Y-76717678D01*
X204731760Y-76690922D01*
X204621900Y-76639688D01*
X204446510Y-76571403D01*
X204229233Y-76495478D01*
X203938147Y-76391898D01*
X203745907Y-76307776D01*
X203647775Y-76240876D01*
X203632683Y-76214103D01*
X203634574Y-76161344D01*
X203673848Y-76135372D01*
X203762767Y-76138086D01*
G37*
X203762767Y-76138086D02*
X203913598Y-76171389D01*
X204138603Y-76237182D01*
X204450046Y-76337366D01*
X204469922Y-76343910D01*
X204796169Y-76455607D01*
X205028570Y-76546026D01*
X205175854Y-76619940D01*
X205246753Y-76682124D01*
X205249995Y-76737352D01*
X205232155Y-76760762D01*
X205169089Y-76792356D01*
X205027711Y-76848975D01*
X204830318Y-76922808D01*
X204599209Y-77006042D01*
X204356681Y-77090866D01*
X204125033Y-77169469D01*
X203926562Y-77234038D01*
X203783566Y-77276761D01*
X203721264Y-77290084D01*
X203660665Y-77252175D01*
X203649792Y-77237167D01*
X203633253Y-77182645D01*
X203665180Y-77131452D01*
X203758869Y-77075742D01*
X203927612Y-77007668D01*
X204184705Y-76919385D01*
X204192724Y-76916738D01*
X204413576Y-76842718D01*
X204597714Y-76778856D01*
X204721252Y-76733557D01*
X204758399Y-76717678D01*
X204731760Y-76690922D01*
X204621900Y-76639688D01*
X204446510Y-76571403D01*
X204229233Y-76495478D01*
X203938147Y-76391898D01*
X203745907Y-76307776D01*
X203647775Y-76240876D01*
X203632683Y-76214103D01*
X203634574Y-76161344D01*
X203673848Y-76135372D01*
X203762767Y-76138086D01*
G36*
X199786395Y-75201210D02*
G01*
X200011829Y-75290448D01*
X200163583Y-75444143D01*
X200233102Y-75656041D01*
X200236667Y-75724395D01*
X200204138Y-75852084D01*
X200124672Y-75986154D01*
X200025450Y-76089596D01*
X199941784Y-76125917D01*
X199885949Y-76135292D01*
X199875269Y-76175250D01*
X199914575Y-76263536D01*
X200008699Y-76417898D01*
X200030607Y-76452155D01*
X200124073Y-76622114D01*
X200164932Y-76751586D01*
X200161796Y-76794720D01*
X200129038Y-76851578D01*
X200078545Y-76833729D01*
X200030918Y-76792731D01*
X199947661Y-76700741D01*
X199835852Y-76556646D01*
X199754209Y-76441672D01*
X199616764Y-76262389D01*
X199513901Y-76182443D01*
X199442110Y-76202429D01*
X199397875Y-76322944D01*
X199379296Y-76505363D01*
X199357671Y-76693764D01*
X199318709Y-76820822D01*
X199270205Y-76873373D01*
X199219953Y-76838254D01*
X199203301Y-76802571D01*
X199194267Y-76725638D01*
X199188530Y-76563981D01*
X199186423Y-76338665D01*
X199188279Y-76070758D01*
X199190044Y-75964733D01*
X199200200Y-75438000D01*
X199390000Y-75438000D01*
X199390000Y-75967167D01*
X199589893Y-75967167D01*
X199756471Y-75945282D01*
X199896532Y-75891881D01*
X199907393Y-75884791D01*
X200012108Y-75768601D01*
X200024265Y-75648365D01*
X199954930Y-75541549D01*
X199815168Y-75465620D01*
X199624345Y-75438000D01*
X199390000Y-75438000D01*
X199200200Y-75438000D01*
X199204792Y-75199875D01*
X199495834Y-75182686D01*
X199786395Y-75201210D01*
G37*
X199786395Y-75201210D02*
X200011829Y-75290448D01*
X200163583Y-75444143D01*
X200233102Y-75656041D01*
X200236667Y-75724395D01*
X200204138Y-75852084D01*
X200124672Y-75986154D01*
X200025450Y-76089596D01*
X199941784Y-76125917D01*
X199885949Y-76135292D01*
X199875269Y-76175250D01*
X199914575Y-76263536D01*
X200008699Y-76417898D01*
X200030607Y-76452155D01*
X200124073Y-76622114D01*
X200164932Y-76751586D01*
X200161796Y-76794720D01*
X200129038Y-76851578D01*
X200078545Y-76833729D01*
X200030918Y-76792731D01*
X199947661Y-76700741D01*
X199835852Y-76556646D01*
X199754209Y-76441672D01*
X199616764Y-76262389D01*
X199513901Y-76182443D01*
X199442110Y-76202429D01*
X199397875Y-76322944D01*
X199379296Y-76505363D01*
X199357671Y-76693764D01*
X199318709Y-76820822D01*
X199270205Y-76873373D01*
X199219953Y-76838254D01*
X199203301Y-76802571D01*
X199194267Y-76725638D01*
X199188530Y-76563981D01*
X199186423Y-76338665D01*
X199188279Y-76070758D01*
X199190044Y-75964733D01*
X199200200Y-75438000D01*
X199390000Y-75438000D01*
X199390000Y-75967167D01*
X199589893Y-75967167D01*
X199756471Y-75945282D01*
X199896532Y-75891881D01*
X199907393Y-75884791D01*
X200012108Y-75768601D01*
X200024265Y-75648365D01*
X199954930Y-75541549D01*
X199815168Y-75465620D01*
X199624345Y-75438000D01*
X199390000Y-75438000D01*
X199200200Y-75438000D01*
X199204792Y-75199875D01*
X199495834Y-75182686D01*
X199786395Y-75201210D01*
G36*
X204648652Y-74572104D02*
G01*
X204679894Y-74605905D01*
X204699753Y-74684450D01*
X204711962Y-74825912D01*
X204720257Y-75048463D01*
X204723014Y-75152331D01*
X204726693Y-75429048D01*
X204720147Y-75617189D01*
X204701836Y-75733656D01*
X204670219Y-75795350D01*
X204663889Y-75801213D01*
X204585207Y-75832660D01*
X204528091Y-75788193D01*
X204496448Y-75688532D01*
X204480513Y-75485566D01*
X204480384Y-75180666D01*
X204481382Y-75139311D01*
X204489382Y-74886330D01*
X204500061Y-74720807D01*
X204517286Y-74624376D01*
X204544923Y-74578669D01*
X204586838Y-74565317D01*
X204602292Y-74564875D01*
X204648652Y-74572104D01*
G37*
X204648652Y-74572104D02*
X204679894Y-74605905D01*
X204699753Y-74684450D01*
X204711962Y-74825912D01*
X204720257Y-75048463D01*
X204723014Y-75152331D01*
X204726693Y-75429048D01*
X204720147Y-75617189D01*
X204701836Y-75733656D01*
X204670219Y-75795350D01*
X204663889Y-75801213D01*
X204585207Y-75832660D01*
X204528091Y-75788193D01*
X204496448Y-75688532D01*
X204480513Y-75485566D01*
X204480384Y-75180666D01*
X204481382Y-75139311D01*
X204489382Y-74886330D01*
X204500061Y-74720807D01*
X204517286Y-74624376D01*
X204544923Y-74578669D01*
X204586838Y-74565317D01*
X204602292Y-74564875D01*
X204648652Y-74572104D01*
G36*
X207520897Y-73414325D02*
G01*
X207586107Y-73599740D01*
X207615494Y-73761052D01*
X207642452Y-73913165D01*
X207677859Y-73985436D01*
X207740822Y-74003317D01*
X207794237Y-73999177D01*
X207878513Y-73980983D01*
X207920468Y-73932588D01*
X207934714Y-73825036D01*
X207936042Y-73718209D01*
X207942997Y-73557424D01*
X207968098Y-73481908D01*
X208014916Y-73471097D01*
X208116720Y-73541252D01*
X208171119Y-73675543D01*
X208176754Y-73842817D01*
X208132266Y-74011917D01*
X208044280Y-74143947D01*
X207949251Y-74220755D01*
X207837886Y-74259051D01*
X207671423Y-74269998D01*
X207607718Y-74269656D01*
X207426069Y-74262663D01*
X207280796Y-74249036D01*
X207221667Y-74237110D01*
X207093189Y-74143097D01*
X207024429Y-73970290D01*
X207012891Y-73827165D01*
X207221667Y-73827165D01*
X207233699Y-73953141D01*
X207281117Y-74003465D01*
X207329898Y-74009250D01*
X207398409Y-73997035D01*
X207419032Y-73940922D01*
X207402415Y-73811708D01*
X207402253Y-73810813D01*
X207372575Y-73662618D01*
X207345817Y-73597393D01*
X207308610Y-73593533D01*
X207278104Y-73610199D01*
X207239900Y-73682169D01*
X207221877Y-73811311D01*
X207221667Y-73827165D01*
X207012891Y-73827165D01*
X207010000Y-73791310D01*
X207021324Y-73621177D01*
X207066460Y-73512217D01*
X207149428Y-73431008D01*
X207308182Y-73333942D01*
X207430130Y-73327053D01*
X207520897Y-73414325D01*
G37*
X207520897Y-73414325D02*
X207586107Y-73599740D01*
X207615494Y-73761052D01*
X207642452Y-73913165D01*
X207677859Y-73985436D01*
X207740822Y-74003317D01*
X207794237Y-73999177D01*
X207878513Y-73980983D01*
X207920468Y-73932588D01*
X207934714Y-73825036D01*
X207936042Y-73718209D01*
X207942997Y-73557424D01*
X207968098Y-73481908D01*
X208014916Y-73471097D01*
X208116720Y-73541252D01*
X208171119Y-73675543D01*
X208176754Y-73842817D01*
X208132266Y-74011917D01*
X208044280Y-74143947D01*
X207949251Y-74220755D01*
X207837886Y-74259051D01*
X207671423Y-74269998D01*
X207607718Y-74269656D01*
X207426069Y-74262663D01*
X207280796Y-74249036D01*
X207221667Y-74237110D01*
X207093189Y-74143097D01*
X207024429Y-73970290D01*
X207012891Y-73827165D01*
X207221667Y-73827165D01*
X207233699Y-73953141D01*
X207281117Y-74003465D01*
X207329898Y-74009250D01*
X207398409Y-73997035D01*
X207419032Y-73940922D01*
X207402415Y-73811708D01*
X207402253Y-73810813D01*
X207372575Y-73662618D01*
X207345817Y-73597393D01*
X207308610Y-73593533D01*
X207278104Y-73610199D01*
X207239900Y-73682169D01*
X207221877Y-73811311D01*
X207221667Y-73827165D01*
X207012891Y-73827165D01*
X207010000Y-73791310D01*
X207021324Y-73621177D01*
X207066460Y-73512217D01*
X207149428Y-73431008D01*
X207308182Y-73333942D01*
X207430130Y-73327053D01*
X207520897Y-73414325D01*
G36*
X207179184Y-72441249D02*
G01*
X207211640Y-72565258D01*
X207228072Y-72735223D01*
X207687890Y-72750466D01*
X207917238Y-72761688D01*
X208058503Y-72779267D01*
X208129399Y-72806848D01*
X208147709Y-72845084D01*
X208126670Y-72885466D01*
X208051729Y-72912360D01*
X207905142Y-72929432D01*
X207690342Y-72939665D01*
X207466451Y-72949749D01*
X207326807Y-72965368D01*
X207249826Y-72991826D01*
X207213923Y-73034428D01*
X207205817Y-73058728D01*
X207150435Y-73148803D01*
X207078461Y-73146420D01*
X207025333Y-73056750D01*
X206954467Y-72967158D01*
X206887661Y-72950917D01*
X206771706Y-72912219D01*
X206642042Y-72817573D01*
X206533682Y-72699153D01*
X206481637Y-72589131D01*
X206480834Y-72577079D01*
X206518843Y-72466870D01*
X206553188Y-72427577D01*
X206638921Y-72405580D01*
X206711485Y-72477441D01*
X206753492Y-72606959D01*
X206817058Y-72700580D01*
X206887886Y-72729231D01*
X206969318Y-72722568D01*
X207007864Y-72653165D01*
X207019637Y-72570481D01*
X207057314Y-72435346D01*
X207118872Y-72392041D01*
X207179184Y-72441249D01*
G37*
X207179184Y-72441249D02*
X207211640Y-72565258D01*
X207228072Y-72735223D01*
X207687890Y-72750466D01*
X207917238Y-72761688D01*
X208058503Y-72779267D01*
X208129399Y-72806848D01*
X208147709Y-72845084D01*
X208126670Y-72885466D01*
X208051729Y-72912360D01*
X207905142Y-72929432D01*
X207690342Y-72939665D01*
X207466451Y-72949749D01*
X207326807Y-72965368D01*
X207249826Y-72991826D01*
X207213923Y-73034428D01*
X207205817Y-73058728D01*
X207150435Y-73148803D01*
X207078461Y-73146420D01*
X207025333Y-73056750D01*
X206954467Y-72967158D01*
X206887661Y-72950917D01*
X206771706Y-72912219D01*
X206642042Y-72817573D01*
X206533682Y-72699153D01*
X206481637Y-72589131D01*
X206480834Y-72577079D01*
X206518843Y-72466870D01*
X206553188Y-72427577D01*
X206638921Y-72405580D01*
X206711485Y-72477441D01*
X206753492Y-72606959D01*
X206817058Y-72700580D01*
X206887886Y-72729231D01*
X206969318Y-72722568D01*
X207007864Y-72653165D01*
X207019637Y-72570481D01*
X207057314Y-72435346D01*
X207118872Y-72392041D01*
X207179184Y-72441249D01*
G36*
X203780526Y-70955361D02*
G01*
X203937492Y-70991995D01*
X204168433Y-71060644D01*
X204469922Y-71158077D01*
X204800620Y-71271641D01*
X205036079Y-71364035D01*
X205183853Y-71439291D01*
X205251492Y-71501441D01*
X205246546Y-71554520D01*
X205235024Y-71566692D01*
X205170788Y-71598085D01*
X205028549Y-71655147D01*
X204830647Y-71729912D01*
X204599425Y-71814411D01*
X204357224Y-71900676D01*
X204126385Y-71980738D01*
X203929250Y-72046631D01*
X203788161Y-72090384D01*
X203727774Y-72104250D01*
X203660644Y-72066009D01*
X203649792Y-72051334D01*
X203633274Y-71995807D01*
X203666698Y-71943627D01*
X203763445Y-71886654D01*
X203936895Y-71816750D01*
X204166266Y-71737182D01*
X204436232Y-71645405D01*
X204612727Y-71578663D01*
X204702903Y-71529208D01*
X204713917Y-71489291D01*
X204652923Y-71451163D01*
X204527075Y-71407075D01*
X204483703Y-71393394D01*
X204127466Y-71276545D01*
X203869739Y-71179678D01*
X203705544Y-71100607D01*
X203629907Y-71037148D01*
X203623334Y-71015656D01*
X203636461Y-70969381D01*
X203684521Y-70948553D01*
X203780526Y-70955361D01*
G37*
X203780526Y-70955361D02*
X203937492Y-70991995D01*
X204168433Y-71060644D01*
X204469922Y-71158077D01*
X204800620Y-71271641D01*
X205036079Y-71364035D01*
X205183853Y-71439291D01*
X205251492Y-71501441D01*
X205246546Y-71554520D01*
X205235024Y-71566692D01*
X205170788Y-71598085D01*
X205028549Y-71655147D01*
X204830647Y-71729912D01*
X204599425Y-71814411D01*
X204357224Y-71900676D01*
X204126385Y-71980738D01*
X203929250Y-72046631D01*
X203788161Y-72090384D01*
X203727774Y-72104250D01*
X203660644Y-72066009D01*
X203649792Y-72051334D01*
X203633274Y-71995807D01*
X203666698Y-71943627D01*
X203763445Y-71886654D01*
X203936895Y-71816750D01*
X204166266Y-71737182D01*
X204436232Y-71645405D01*
X204612727Y-71578663D01*
X204702903Y-71529208D01*
X204713917Y-71489291D01*
X204652923Y-71451163D01*
X204527075Y-71407075D01*
X204483703Y-71393394D01*
X204127466Y-71276545D01*
X203869739Y-71179678D01*
X203705544Y-71100607D01*
X203629907Y-71037148D01*
X203623334Y-71015656D01*
X203636461Y-70969381D01*
X203684521Y-70948553D01*
X203780526Y-70955361D01*
G36*
X201148218Y-69892170D02*
G01*
X201427292Y-69908209D01*
X201456968Y-71265033D01*
X201291013Y-71420058D01*
X201103170Y-71543291D01*
X200916591Y-71569813D01*
X200746871Y-71498479D01*
X200706671Y-71463004D01*
X200640699Y-71364479D01*
X200669616Y-71303043D01*
X200787461Y-71283691D01*
X200906365Y-71295630D01*
X201076105Y-71291441D01*
X201196626Y-71227670D01*
X201242084Y-71118812D01*
X201197532Y-71066420D01*
X201059309Y-71046298D01*
X201028012Y-71045917D01*
X200807722Y-71009339D01*
X200657657Y-70897068D01*
X200574579Y-70705295D01*
X200554167Y-70488627D01*
X200555833Y-70449055D01*
X200765834Y-70449055D01*
X200789702Y-70657542D01*
X200866983Y-70781385D01*
X201006185Y-70831777D01*
X201058737Y-70834250D01*
X201242084Y-70834250D01*
X201242084Y-70463834D01*
X201240378Y-70270392D01*
X201229387Y-70159692D01*
X201200299Y-70108646D01*
X201144303Y-70094163D01*
X201100729Y-70093417D01*
X200923636Y-70138514D01*
X200807085Y-70263352D01*
X200765834Y-70449055D01*
X200555833Y-70449055D01*
X200561931Y-70304212D01*
X200595219Y-70181782D01*
X200669027Y-70078011D01*
X200711655Y-70033621D01*
X200818507Y-69939836D01*
X200921517Y-69896288D01*
X201065652Y-69888408D01*
X201148218Y-69892170D01*
G37*
X201148218Y-69892170D02*
X201427292Y-69908209D01*
X201456968Y-71265033D01*
X201291013Y-71420058D01*
X201103170Y-71543291D01*
X200916591Y-71569813D01*
X200746871Y-71498479D01*
X200706671Y-71463004D01*
X200640699Y-71364479D01*
X200669616Y-71303043D01*
X200787461Y-71283691D01*
X200906365Y-71295630D01*
X201076105Y-71291441D01*
X201196626Y-71227670D01*
X201242084Y-71118812D01*
X201197532Y-71066420D01*
X201059309Y-71046298D01*
X201028012Y-71045917D01*
X200807722Y-71009339D01*
X200657657Y-70897068D01*
X200574579Y-70705295D01*
X200554167Y-70488627D01*
X200555833Y-70449055D01*
X200765834Y-70449055D01*
X200789702Y-70657542D01*
X200866983Y-70781385D01*
X201006185Y-70831777D01*
X201058737Y-70834250D01*
X201242084Y-70834250D01*
X201242084Y-70463834D01*
X201240378Y-70270392D01*
X201229387Y-70159692D01*
X201200299Y-70108646D01*
X201144303Y-70094163D01*
X201100729Y-70093417D01*
X200923636Y-70138514D01*
X200807085Y-70263352D01*
X200765834Y-70449055D01*
X200555833Y-70449055D01*
X200561931Y-70304212D01*
X200595219Y-70181782D01*
X200669027Y-70078011D01*
X200711655Y-70033621D01*
X200818507Y-69939836D01*
X200921517Y-69896288D01*
X201065652Y-69888408D01*
X201148218Y-69892170D01*
G36*
X199895989Y-69433680D02*
G01*
X199999636Y-69482332D01*
X200039568Y-69511435D01*
X200160125Y-69659594D01*
X200216142Y-69842700D01*
X200209147Y-70030536D01*
X200140665Y-70192887D01*
X200012224Y-70299535D01*
X199999491Y-70304723D01*
X199901318Y-70352294D01*
X199866250Y-70386844D01*
X199893870Y-70444668D01*
X199964727Y-70559069D01*
X200025000Y-70649042D01*
X200115525Y-70795545D01*
X200173007Y-70917270D01*
X200183750Y-70962847D01*
X200159349Y-71040732D01*
X200090826Y-71030779D01*
X199985202Y-70937803D01*
X199849498Y-70766623D01*
X199805921Y-70703634D01*
X199653983Y-70495114D01*
X199540808Y-70382751D01*
X199461351Y-70366365D01*
X199410568Y-70445773D01*
X199383414Y-70620792D01*
X199379296Y-70688198D01*
X199364543Y-70876788D01*
X199338084Y-70982817D01*
X199292610Y-71029463D01*
X199269537Y-71036306D01*
X199233819Y-71036144D01*
X199208992Y-71009742D01*
X199193548Y-70942041D01*
X199185982Y-70817982D01*
X199184785Y-70622506D01*
X199188452Y-70340553D01*
X199190162Y-70243087D01*
X199201451Y-69617167D01*
X199390000Y-69617167D01*
X199390000Y-70146334D01*
X199624345Y-70146334D01*
X199811425Y-70125287D01*
X199935968Y-70068685D01*
X199941845Y-70063179D01*
X200017777Y-69933394D01*
X200001605Y-69807651D01*
X199906324Y-69702422D01*
X199744933Y-69634176D01*
X199589893Y-69617167D01*
X199390000Y-69617167D01*
X199201451Y-69617167D01*
X199204792Y-69431959D01*
X199552057Y-69416538D01*
X199758634Y-69414053D01*
X199895989Y-69433680D01*
G37*
X199895989Y-69433680D02*
X199999636Y-69482332D01*
X200039568Y-69511435D01*
X200160125Y-69659594D01*
X200216142Y-69842700D01*
X200209147Y-70030536D01*
X200140665Y-70192887D01*
X200012224Y-70299535D01*
X199999491Y-70304723D01*
X199901318Y-70352294D01*
X199866250Y-70386844D01*
X199893870Y-70444668D01*
X199964727Y-70559069D01*
X200025000Y-70649042D01*
X200115525Y-70795545D01*
X200173007Y-70917270D01*
X200183750Y-70962847D01*
X200159349Y-71040732D01*
X200090826Y-71030779D01*
X199985202Y-70937803D01*
X199849498Y-70766623D01*
X199805921Y-70703634D01*
X199653983Y-70495114D01*
X199540808Y-70382751D01*
X199461351Y-70366365D01*
X199410568Y-70445773D01*
X199383414Y-70620792D01*
X199379296Y-70688198D01*
X199364543Y-70876788D01*
X199338084Y-70982817D01*
X199292610Y-71029463D01*
X199269537Y-71036306D01*
X199233819Y-71036144D01*
X199208992Y-71009742D01*
X199193548Y-70942041D01*
X199185982Y-70817982D01*
X199184785Y-70622506D01*
X199188452Y-70340553D01*
X199190162Y-70243087D01*
X199201451Y-69617167D01*
X199390000Y-69617167D01*
X199390000Y-70146334D01*
X199624345Y-70146334D01*
X199811425Y-70125287D01*
X199935968Y-70068685D01*
X199941845Y-70063179D01*
X200017777Y-69933394D01*
X200001605Y-69807651D01*
X199906324Y-69702422D01*
X199744933Y-69634176D01*
X199589893Y-69617167D01*
X199390000Y-69617167D01*
X199201451Y-69617167D01*
X199204792Y-69431959D01*
X199552057Y-69416538D01*
X199758634Y-69414053D01*
X199895989Y-69433680D01*
G36*
X204679349Y-69324693D02*
G01*
X204711413Y-69393401D01*
X204731341Y-69530226D01*
X204734584Y-69620290D01*
X204734584Y-69881750D01*
X205003047Y-69881750D01*
X205162270Y-69887165D01*
X205239045Y-69909090D01*
X205256453Y-69956046D01*
X205253925Y-69974354D01*
X205212515Y-70036537D01*
X205103247Y-70071110D01*
X204985462Y-70083087D01*
X204734584Y-70099216D01*
X204734584Y-70327962D01*
X204714961Y-70503984D01*
X204663252Y-70614706D01*
X204590192Y-70645121D01*
X204532241Y-70610741D01*
X204493210Y-70521726D01*
X204471554Y-70375253D01*
X204470000Y-70323858D01*
X204470000Y-70099216D01*
X204218646Y-70083087D01*
X204052730Y-70061109D01*
X203976511Y-70019030D01*
X203967292Y-69987584D01*
X204003177Y-69932886D01*
X204120940Y-69901261D01*
X204218646Y-69892080D01*
X204470000Y-69875951D01*
X204470000Y-69647205D01*
X204492031Y-69473320D01*
X204549486Y-69354100D01*
X204629408Y-69309505D01*
X204679349Y-69324693D01*
G37*
X204679349Y-69324693D02*
X204711413Y-69393401D01*
X204731341Y-69530226D01*
X204734584Y-69620290D01*
X204734584Y-69881750D01*
X205003047Y-69881750D01*
X205162270Y-69887165D01*
X205239045Y-69909090D01*
X205256453Y-69956046D01*
X205253925Y-69974354D01*
X205212515Y-70036537D01*
X205103247Y-70071110D01*
X204985462Y-70083087D01*
X204734584Y-70099216D01*
X204734584Y-70327962D01*
X204714961Y-70503984D01*
X204663252Y-70614706D01*
X204590192Y-70645121D01*
X204532241Y-70610741D01*
X204493210Y-70521726D01*
X204471554Y-70375253D01*
X204470000Y-70323858D01*
X204470000Y-70099216D01*
X204218646Y-70083087D01*
X204052730Y-70061109D01*
X203976511Y-70019030D01*
X203967292Y-69987584D01*
X204003177Y-69932886D01*
X204120940Y-69901261D01*
X204218646Y-69892080D01*
X204470000Y-69875951D01*
X204470000Y-69647205D01*
X204492031Y-69473320D01*
X204549486Y-69354100D01*
X204629408Y-69309505D01*
X204679349Y-69324693D01*
G36*
X199882059Y-66880614D02*
G01*
X199909955Y-66939317D01*
X199918885Y-67074574D01*
X199919167Y-67123438D01*
X199919167Y-67389136D01*
X200196979Y-67405131D01*
X200371515Y-67424381D01*
X200457779Y-67460195D01*
X200474792Y-67500500D01*
X200442585Y-67552222D01*
X200334621Y-67583085D01*
X200196979Y-67595870D01*
X199919167Y-67611864D01*
X199919167Y-67870559D01*
X199906048Y-68064038D01*
X199866166Y-68156240D01*
X199798736Y-68148484D01*
X199768888Y-68122804D01*
X199730405Y-68034377D01*
X199709041Y-67888281D01*
X199707500Y-67836775D01*
X199707500Y-67612132D01*
X199456146Y-67596004D01*
X199290230Y-67574025D01*
X199214011Y-67531946D01*
X199204792Y-67500500D01*
X199241076Y-67445485D01*
X199359873Y-67413851D01*
X199453360Y-67405110D01*
X199701929Y-67389096D01*
X199717944Y-67141003D01*
X199739767Y-66976514D01*
X199783832Y-66894573D01*
X199826563Y-66875325D01*
X199882059Y-66880614D01*
G37*
X199882059Y-66880614D02*
X199909955Y-66939317D01*
X199918885Y-67074574D01*
X199919167Y-67123438D01*
X199919167Y-67389136D01*
X200196979Y-67405131D01*
X200371515Y-67424381D01*
X200457779Y-67460195D01*
X200474792Y-67500500D01*
X200442585Y-67552222D01*
X200334621Y-67583085D01*
X200196979Y-67595870D01*
X199919167Y-67611864D01*
X199919167Y-67870559D01*
X199906048Y-68064038D01*
X199866166Y-68156240D01*
X199798736Y-68148484D01*
X199768888Y-68122804D01*
X199730405Y-68034377D01*
X199709041Y-67888281D01*
X199707500Y-67836775D01*
X199707500Y-67612132D01*
X199456146Y-67596004D01*
X199290230Y-67574025D01*
X199214011Y-67531946D01*
X199204792Y-67500500D01*
X199241076Y-67445485D01*
X199359873Y-67413851D01*
X199453360Y-67405110D01*
X199701929Y-67389096D01*
X199717944Y-67141003D01*
X199739767Y-66976514D01*
X199783832Y-66894573D01*
X199826563Y-66875325D01*
X199882059Y-66880614D01*
G36*
X197391103Y-77097069D02*
G01*
X197522719Y-77168016D01*
X197622584Y-77258333D01*
X197729376Y-77382281D01*
X197793853Y-77490215D01*
X197802500Y-77525545D01*
X197759546Y-77693051D01*
X197636589Y-77903883D01*
X197442488Y-78143880D01*
X197362108Y-78229354D01*
X197091740Y-78507167D01*
X197383620Y-78507167D01*
X197600168Y-78523123D01*
X197732231Y-78568356D01*
X197772525Y-78638907D01*
X197741845Y-78701699D01*
X197661750Y-78740801D01*
X197494616Y-78763760D01*
X197231761Y-78771724D01*
X197212277Y-78771750D01*
X196977566Y-78768245D01*
X196828699Y-78755525D01*
X196745849Y-78730286D01*
X196709190Y-78689221D01*
X196708624Y-78687784D01*
X196725952Y-78610132D01*
X196819321Y-78476940D01*
X196991808Y-78284094D01*
X197074815Y-78198305D01*
X197295937Y-77966850D01*
X197446107Y-77792073D01*
X197534039Y-77660979D01*
X197568445Y-77560573D01*
X197558038Y-77477859D01*
X197557960Y-77477655D01*
X197478953Y-77382586D01*
X197348224Y-77315384D01*
X197203454Y-77285754D01*
X197082322Y-77303403D01*
X197035209Y-77343000D01*
X196968525Y-77382128D01*
X196865494Y-77394745D01*
X196774920Y-77380206D01*
X196744167Y-77346841D01*
X196790896Y-77258810D01*
X196908916Y-77172562D01*
X197064977Y-77106364D01*
X197225826Y-77078478D01*
X197232845Y-77078417D01*
X197391103Y-77097069D01*
G37*
X197391103Y-77097069D02*
X197522719Y-77168016D01*
X197622584Y-77258333D01*
X197729376Y-77382281D01*
X197793853Y-77490215D01*
X197802500Y-77525545D01*
X197759546Y-77693051D01*
X197636589Y-77903883D01*
X197442488Y-78143880D01*
X197362108Y-78229354D01*
X197091740Y-78507167D01*
X197383620Y-78507167D01*
X197600168Y-78523123D01*
X197732231Y-78568356D01*
X197772525Y-78638907D01*
X197741845Y-78701699D01*
X197661750Y-78740801D01*
X197494616Y-78763760D01*
X197231761Y-78771724D01*
X197212277Y-78771750D01*
X196977566Y-78768245D01*
X196828699Y-78755525D01*
X196745849Y-78730286D01*
X196709190Y-78689221D01*
X196708624Y-78687784D01*
X196725952Y-78610132D01*
X196819321Y-78476940D01*
X196991808Y-78284094D01*
X197074815Y-78198305D01*
X197295937Y-77966850D01*
X197446107Y-77792073D01*
X197534039Y-77660979D01*
X197568445Y-77560573D01*
X197558038Y-77477859D01*
X197557960Y-77477655D01*
X197478953Y-77382586D01*
X197348224Y-77315384D01*
X197203454Y-77285754D01*
X197082322Y-77303403D01*
X197035209Y-77343000D01*
X196968525Y-77382128D01*
X196865494Y-77394745D01*
X196774920Y-77380206D01*
X196744167Y-77346841D01*
X196790896Y-77258810D01*
X196908916Y-77172562D01*
X197064977Y-77106364D01*
X197225826Y-77078478D01*
X197232845Y-77078417D01*
X197391103Y-77097069D01*
G36*
X188316160Y-73293004D02*
G01*
X188477726Y-73360346D01*
X188598691Y-73459573D01*
X188647876Y-73564870D01*
X188647917Y-73567660D01*
X188656729Y-73621446D01*
X188695363Y-73628871D01*
X188782112Y-73584430D01*
X188935272Y-73482619D01*
X188938959Y-73480084D01*
X189085462Y-73389559D01*
X189207187Y-73332076D01*
X189252764Y-73321334D01*
X189330431Y-73346629D01*
X189322655Y-73416419D01*
X189235222Y-73521558D01*
X189073922Y-73652898D01*
X189018334Y-73691750D01*
X188814897Y-73843643D01*
X188709455Y-73958997D01*
X188702120Y-74041522D01*
X188793006Y-74094928D01*
X188982225Y-74122926D01*
X189031563Y-74125788D01*
X189222904Y-74141435D01*
X189326907Y-74168914D01*
X189361865Y-74213487D01*
X189362292Y-74220917D01*
X189346750Y-74252805D01*
X189290288Y-74276063D01*
X189178152Y-74292494D01*
X188995589Y-74303902D01*
X188727846Y-74312091D01*
X188593701Y-74314867D01*
X188255342Y-74318084D01*
X188012259Y-74312554D01*
X187854204Y-74297659D01*
X187770933Y-74272780D01*
X187760263Y-74264596D01*
X187716498Y-74163246D01*
X187697548Y-73997919D01*
X187699419Y-73926396D01*
X187907084Y-73926396D01*
X187907084Y-74115084D01*
X188436250Y-74115084D01*
X188436250Y-73533000D01*
X188226445Y-73533000D01*
X188057639Y-73558616D01*
X187956976Y-73645473D01*
X187912267Y-73808589D01*
X187907084Y-73926396D01*
X187699419Y-73926396D01*
X187702536Y-73807304D01*
X187730584Y-73630092D01*
X187777371Y-73510031D01*
X187924031Y-73370519D01*
X188118988Y-73292222D01*
X188316160Y-73293004D01*
G37*
X188316160Y-73293004D02*
X188477726Y-73360346D01*
X188598691Y-73459573D01*
X188647876Y-73564870D01*
X188647917Y-73567660D01*
X188656729Y-73621446D01*
X188695363Y-73628871D01*
X188782112Y-73584430D01*
X188935272Y-73482619D01*
X188938959Y-73480084D01*
X189085462Y-73389559D01*
X189207187Y-73332076D01*
X189252764Y-73321334D01*
X189330431Y-73346629D01*
X189322655Y-73416419D01*
X189235222Y-73521558D01*
X189073922Y-73652898D01*
X189018334Y-73691750D01*
X188814897Y-73843643D01*
X188709455Y-73958997D01*
X188702120Y-74041522D01*
X188793006Y-74094928D01*
X188982225Y-74122926D01*
X189031563Y-74125788D01*
X189222904Y-74141435D01*
X189326907Y-74168914D01*
X189361865Y-74213487D01*
X189362292Y-74220917D01*
X189346750Y-74252805D01*
X189290288Y-74276063D01*
X189178152Y-74292494D01*
X188995589Y-74303902D01*
X188727846Y-74312091D01*
X188593701Y-74314867D01*
X188255342Y-74318084D01*
X188012259Y-74312554D01*
X187854204Y-74297659D01*
X187770933Y-74272780D01*
X187760263Y-74264596D01*
X187716498Y-74163246D01*
X187697548Y-73997919D01*
X187699419Y-73926396D01*
X187907084Y-73926396D01*
X187907084Y-74115084D01*
X188436250Y-74115084D01*
X188436250Y-73533000D01*
X188226445Y-73533000D01*
X188057639Y-73558616D01*
X187956976Y-73645473D01*
X187912267Y-73808589D01*
X187907084Y-73926396D01*
X187699419Y-73926396D01*
X187702536Y-73807304D01*
X187730584Y-73630092D01*
X187777371Y-73510031D01*
X187924031Y-73370519D01*
X188118988Y-73292222D01*
X188316160Y-73293004D01*
G36*
X189181433Y-72052031D02*
G01*
X189375124Y-72056618D01*
X189504361Y-72068840D01*
X189589834Y-72092441D01*
X189652234Y-72131163D01*
X189712251Y-72188751D01*
X189722808Y-72199750D01*
X189815293Y-72343695D01*
X189856304Y-72508341D01*
X189848064Y-72665417D01*
X189792798Y-72786654D01*
X189692731Y-72843780D01*
X189672041Y-72845084D01*
X189618925Y-72823862D01*
X189610618Y-72742969D01*
X189623245Y-72660617D01*
X189629047Y-72488533D01*
X189587336Y-72348257D01*
X189509550Y-72270104D01*
X189473231Y-72263000D01*
X189419216Y-72312384D01*
X189378940Y-72446586D01*
X189372560Y-72487600D01*
X189300660Y-72712713D01*
X189154628Y-72863068D01*
X188933218Y-72939638D01*
X188779668Y-72950654D01*
X188590310Y-72937007D01*
X188456833Y-72885242D01*
X188369564Y-72816484D01*
X188285939Y-72724956D01*
X188242230Y-72624621D01*
X188226130Y-72477298D01*
X188224584Y-72366692D01*
X188224584Y-72263000D01*
X188436250Y-72263000D01*
X188436250Y-72445579D01*
X188466314Y-72609528D01*
X188528854Y-72682095D01*
X188684695Y-72729894D01*
X188868733Y-72730046D01*
X189029522Y-72685386D01*
X189080313Y-72651674D01*
X189153052Y-72534320D01*
X189177084Y-72413549D01*
X189177084Y-72263000D01*
X188436250Y-72263000D01*
X188224584Y-72263000D01*
X188224584Y-72051334D01*
X188902600Y-72051334D01*
X189181433Y-72052031D01*
G37*
X189181433Y-72052031D02*
X189375124Y-72056618D01*
X189504361Y-72068840D01*
X189589834Y-72092441D01*
X189652234Y-72131163D01*
X189712251Y-72188751D01*
X189722808Y-72199750D01*
X189815293Y-72343695D01*
X189856304Y-72508341D01*
X189848064Y-72665417D01*
X189792798Y-72786654D01*
X189692731Y-72843780D01*
X189672041Y-72845084D01*
X189618925Y-72823862D01*
X189610618Y-72742969D01*
X189623245Y-72660617D01*
X189629047Y-72488533D01*
X189587336Y-72348257D01*
X189509550Y-72270104D01*
X189473231Y-72263000D01*
X189419216Y-72312384D01*
X189378940Y-72446586D01*
X189372560Y-72487600D01*
X189300660Y-72712713D01*
X189154628Y-72863068D01*
X188933218Y-72939638D01*
X188779668Y-72950654D01*
X188590310Y-72937007D01*
X188456833Y-72885242D01*
X188369564Y-72816484D01*
X188285939Y-72724956D01*
X188242230Y-72624621D01*
X188226130Y-72477298D01*
X188224584Y-72366692D01*
X188224584Y-72263000D01*
X188436250Y-72263000D01*
X188436250Y-72445579D01*
X188466314Y-72609528D01*
X188528854Y-72682095D01*
X188684695Y-72729894D01*
X188868733Y-72730046D01*
X189029522Y-72685386D01*
X189080313Y-72651674D01*
X189153052Y-72534320D01*
X189177084Y-72413549D01*
X189177084Y-72263000D01*
X188436250Y-72263000D01*
X188224584Y-72263000D01*
X188224584Y-72051334D01*
X188902600Y-72051334D01*
X189181433Y-72052031D01*
G36*
X197340897Y-68464737D02*
G01*
X197361484Y-68569911D01*
X197373731Y-68751479D01*
X197378841Y-69021965D01*
X197379167Y-69136062D01*
X197379167Y-69822445D01*
X197577604Y-69838868D01*
X197725966Y-69870353D01*
X197776021Y-69932996D01*
X197776042Y-69934667D01*
X197756715Y-69972729D01*
X197687342Y-69998716D01*
X197550831Y-70015733D01*
X197330094Y-70026887D01*
X197255845Y-70029239D01*
X197017663Y-70034632D01*
X196866793Y-70032050D01*
X196784836Y-70018584D01*
X196753392Y-69991326D01*
X196753577Y-69949864D01*
X196807724Y-69876892D01*
X196945395Y-69841157D01*
X196969503Y-69838868D01*
X197167500Y-69822445D01*
X197167500Y-68817416D01*
X197049893Y-68899791D01*
X196925725Y-68962183D01*
X196814342Y-68980150D01*
X196749567Y-68950532D01*
X196744167Y-68928360D01*
X196781371Y-68856743D01*
X196875828Y-68749556D01*
X197001806Y-68629731D01*
X197133569Y-68520199D01*
X197245386Y-68443893D01*
X197310770Y-68423432D01*
X197340897Y-68464737D01*
G37*
X197340897Y-68464737D02*
X197361484Y-68569911D01*
X197373731Y-68751479D01*
X197378841Y-69021965D01*
X197379167Y-69136062D01*
X197379167Y-69822445D01*
X197577604Y-69838868D01*
X197725966Y-69870353D01*
X197776021Y-69932996D01*
X197776042Y-69934667D01*
X197756715Y-69972729D01*
X197687342Y-69998716D01*
X197550831Y-70015733D01*
X197330094Y-70026887D01*
X197255845Y-70029239D01*
X197017663Y-70034632D01*
X196866793Y-70032050D01*
X196784836Y-70018584D01*
X196753392Y-69991326D01*
X196753577Y-69949864D01*
X196807724Y-69876892D01*
X196945395Y-69841157D01*
X196969503Y-69838868D01*
X197167500Y-69822445D01*
X197167500Y-68817416D01*
X197049893Y-68899791D01*
X196925725Y-68962183D01*
X196814342Y-68980150D01*
X196749567Y-68950532D01*
X196744167Y-68928360D01*
X196781371Y-68856743D01*
X196875828Y-68749556D01*
X197001806Y-68629731D01*
X197133569Y-68520199D01*
X197245386Y-68443893D01*
X197310770Y-68423432D01*
X197340897Y-68464737D01*
G36*
X197520297Y-74254752D02*
G01*
X197583945Y-74302616D01*
X197731148Y-74458574D01*
X197779959Y-74603119D01*
X197734637Y-74750612D01*
X197722482Y-74770098D01*
X197668882Y-74870599D01*
X197672719Y-74957660D01*
X197719681Y-75060924D01*
X197793202Y-75296619D01*
X197771295Y-75511215D01*
X197663161Y-75687097D01*
X197478001Y-75806650D01*
X197308975Y-75847222D01*
X197147987Y-75856134D01*
X197039036Y-75825480D01*
X196930747Y-75738206D01*
X196905443Y-75713251D01*
X196782872Y-75527132D01*
X196744903Y-75339407D01*
X196955740Y-75339407D01*
X196998591Y-75495847D01*
X197096882Y-75605108D01*
X197230992Y-75651694D01*
X197381300Y-75620109D01*
X197485000Y-75543834D01*
X197578100Y-75402733D01*
X197571658Y-75250727D01*
X197536055Y-75169938D01*
X197451343Y-75102018D01*
X197313606Y-75066662D01*
X197162980Y-75065236D01*
X197039601Y-75099107D01*
X196987953Y-75151286D01*
X196955740Y-75339407D01*
X196744903Y-75339407D01*
X196739682Y-75313594D01*
X196780167Y-75107371D01*
X196821456Y-75033703D01*
X196870987Y-74937778D01*
X196846807Y-74856751D01*
X196823139Y-74823491D01*
X196750856Y-74655061D01*
X196758320Y-74615410D01*
X196955834Y-74615410D01*
X197000574Y-74712813D01*
X197111728Y-74774123D01*
X197254693Y-74794817D01*
X197394870Y-74770373D01*
X197497656Y-74696270D01*
X197503875Y-74687035D01*
X197515358Y-74583668D01*
X197453918Y-74476737D01*
X197346015Y-74399061D01*
X197256070Y-74379667D01*
X197136101Y-74414277D01*
X197023123Y-74496080D01*
X196959218Y-74592035D01*
X196955834Y-74615410D01*
X196758320Y-74615410D01*
X196783284Y-74482798D01*
X196908513Y-74321523D01*
X197107226Y-74194557D01*
X197314002Y-74172220D01*
X197520297Y-74254752D01*
G37*
X197520297Y-74254752D02*
X197583945Y-74302616D01*
X197731148Y-74458574D01*
X197779959Y-74603119D01*
X197734637Y-74750612D01*
X197722482Y-74770098D01*
X197668882Y-74870599D01*
X197672719Y-74957660D01*
X197719681Y-75060924D01*
X197793202Y-75296619D01*
X197771295Y-75511215D01*
X197663161Y-75687097D01*
X197478001Y-75806650D01*
X197308975Y-75847222D01*
X197147987Y-75856134D01*
X197039036Y-75825480D01*
X196930747Y-75738206D01*
X196905443Y-75713251D01*
X196782872Y-75527132D01*
X196744903Y-75339407D01*
X196955740Y-75339407D01*
X196998591Y-75495847D01*
X197096882Y-75605108D01*
X197230992Y-75651694D01*
X197381300Y-75620109D01*
X197485000Y-75543834D01*
X197578100Y-75402733D01*
X197571658Y-75250727D01*
X197536055Y-75169938D01*
X197451343Y-75102018D01*
X197313606Y-75066662D01*
X197162980Y-75065236D01*
X197039601Y-75099107D01*
X196987953Y-75151286D01*
X196955740Y-75339407D01*
X196744903Y-75339407D01*
X196739682Y-75313594D01*
X196780167Y-75107371D01*
X196821456Y-75033703D01*
X196870987Y-74937778D01*
X196846807Y-74856751D01*
X196823139Y-74823491D01*
X196750856Y-74655061D01*
X196758320Y-74615410D01*
X196955834Y-74615410D01*
X197000574Y-74712813D01*
X197111728Y-74774123D01*
X197254693Y-74794817D01*
X197394870Y-74770373D01*
X197497656Y-74696270D01*
X197503875Y-74687035D01*
X197515358Y-74583668D01*
X197453918Y-74476737D01*
X197346015Y-74399061D01*
X197256070Y-74379667D01*
X197136101Y-74414277D01*
X197023123Y-74496080D01*
X196959218Y-74592035D01*
X196955834Y-74615410D01*
X196758320Y-74615410D01*
X196783284Y-74482798D01*
X196908513Y-74321523D01*
X197107226Y-74194557D01*
X197314002Y-74172220D01*
X197520297Y-74254752D01*
G36*
X169216126Y-114638667D02*
G01*
X171884837Y-114638667D01*
X171861839Y-115263083D01*
X171835037Y-115723479D01*
X171787786Y-116131280D01*
X171714912Y-116517170D01*
X171611244Y-116911831D01*
X171550841Y-117107738D01*
X171283079Y-117807902D01*
X170944104Y-118467158D01*
X170538930Y-119081089D01*
X170072571Y-119645278D01*
X169550042Y-120155309D01*
X168976357Y-120606765D01*
X168356530Y-120995231D01*
X167695576Y-121316290D01*
X166998508Y-121565525D01*
X166299071Y-121733292D01*
X166089747Y-121762546D01*
X165820916Y-121786418D01*
X165514539Y-121804272D01*
X165192577Y-121815477D01*
X164876988Y-121819399D01*
X164589734Y-121815404D01*
X164352773Y-121802859D01*
X164253333Y-121792290D01*
X163519889Y-121652269D01*
X162817643Y-121438921D01*
X162150746Y-121156880D01*
X161523349Y-120810779D01*
X160939605Y-120405251D01*
X160403665Y-119944930D01*
X159919681Y-119434447D01*
X159491804Y-118878438D01*
X159124187Y-118281534D01*
X158820981Y-117648370D01*
X158701652Y-117310287D01*
X160282805Y-117310287D01*
X160343803Y-117539740D01*
X160460873Y-117803929D01*
X160797502Y-118377841D01*
X161198245Y-118898631D01*
X161658238Y-119362271D01*
X162172613Y-119764733D01*
X162736505Y-120101986D01*
X163345048Y-120370004D01*
X163703000Y-120488197D01*
X164220039Y-120605687D01*
X164777949Y-120671728D01*
X165349098Y-120684628D01*
X165905853Y-120642697D01*
X166003444Y-120629039D01*
X166644844Y-120490400D01*
X167258263Y-120274407D01*
X167837517Y-119985515D01*
X168376422Y-119628184D01*
X168868793Y-119206870D01*
X169308447Y-118726031D01*
X169689198Y-118190126D01*
X169898531Y-117821429D01*
X170014075Y-117576143D01*
X170078359Y-117380559D01*
X170094340Y-117219348D01*
X170064977Y-117077181D01*
X170049393Y-117039488D01*
X169957677Y-116924116D01*
X169817589Y-116836257D01*
X169665245Y-116797934D01*
X169652783Y-116797667D01*
X169525904Y-116812384D01*
X169416138Y-116863707D01*
X169312214Y-116962395D01*
X169202859Y-117119203D01*
X169076803Y-117344890D01*
X169074204Y-117349855D01*
X168753663Y-117877107D01*
X168378111Y-118344381D01*
X167953770Y-118749096D01*
X167486861Y-119088671D01*
X166983607Y-119360525D01*
X166450230Y-119562075D01*
X165892952Y-119690743D01*
X165317995Y-119743945D01*
X164731580Y-119719102D01*
X164139930Y-119613632D01*
X163830000Y-119525335D01*
X163265027Y-119300558D01*
X162749112Y-119006986D01*
X162283457Y-118645668D01*
X161869261Y-118217653D01*
X161507727Y-117723990D01*
X161253475Y-117275055D01*
X161110349Y-117034004D01*
X160963255Y-116875834D01*
X160808828Y-116798765D01*
X160643704Y-116801014D01*
X160485222Y-116868163D01*
X160353369Y-116980063D01*
X160285945Y-117125583D01*
X160282805Y-117310287D01*
X158701652Y-117310287D01*
X158586337Y-116983578D01*
X158469396Y-116483988D01*
X162560158Y-116483988D01*
X162591643Y-116652991D01*
X162679262Y-116858166D01*
X162812231Y-117083815D01*
X162979770Y-117314240D01*
X163171094Y-117533743D01*
X163375421Y-117726624D01*
X163459936Y-117793979D01*
X163697760Y-117962158D01*
X163913278Y-118086719D01*
X164142019Y-118185880D01*
X164380333Y-118265943D01*
X164649260Y-118324111D01*
X164967290Y-118354493D01*
X165306051Y-118357488D01*
X165637169Y-118333490D01*
X165932270Y-118282899D01*
X166073667Y-118242252D01*
X166448957Y-118078965D01*
X166810092Y-117860730D01*
X167125095Y-117607374D01*
X167174333Y-117559667D01*
X167353653Y-117359140D01*
X167517138Y-117137136D01*
X167653068Y-116913033D01*
X167749721Y-116706210D01*
X167795375Y-116536045D01*
X167795775Y-116532303D01*
X167780598Y-116330593D01*
X167694969Y-116169203D01*
X167545337Y-116058235D01*
X167476826Y-116032510D01*
X167287890Y-116011022D01*
X167120981Y-116068126D01*
X166973111Y-116205562D01*
X166856833Y-116393404D01*
X166647868Y-116718961D01*
X166382947Y-116989310D01*
X166073318Y-117199629D01*
X165730227Y-117345094D01*
X165364921Y-117420884D01*
X164988646Y-117422175D01*
X164628209Y-117349057D01*
X164294782Y-117211686D01*
X164005822Y-117017062D01*
X163751637Y-116756831D01*
X163522539Y-116422638D01*
X163491690Y-116369074D01*
X163397999Y-116215992D01*
X163317823Y-116121608D01*
X163232478Y-116066312D01*
X163186336Y-116048601D01*
X162991724Y-116022313D01*
X162816118Y-116067561D01*
X162675335Y-116173348D01*
X162585193Y-116328676D01*
X162560158Y-116483988D01*
X158469396Y-116483988D01*
X158424407Y-116291792D01*
X158339344Y-115577644D01*
X158326828Y-115178417D01*
X158326667Y-114638667D01*
X161096530Y-114638667D01*
X163866394Y-114638666D01*
X163960301Y-114826699D01*
X164134014Y-115081923D01*
X164379080Y-115300673D01*
X164592000Y-115429561D01*
X164718688Y-115489020D01*
X164832712Y-115524857D01*
X164963586Y-115542807D01*
X165140827Y-115548606D01*
X165205833Y-115548833D01*
X165402151Y-115545521D01*
X165543433Y-115531759D01*
X165659179Y-115501804D01*
X165778889Y-115449918D01*
X165819667Y-115429381D01*
X166054284Y-115289252D01*
X166232397Y-115130573D01*
X166381813Y-114927050D01*
X166420890Y-114860917D01*
X166547415Y-114638666D01*
X169216126Y-114638667D01*
G37*
X169216126Y-114638667D02*
X171884837Y-114638667D01*
X171861839Y-115263083D01*
X171835037Y-115723479D01*
X171787786Y-116131280D01*
X171714912Y-116517170D01*
X171611244Y-116911831D01*
X171550841Y-117107738D01*
X171283079Y-117807902D01*
X170944104Y-118467158D01*
X170538930Y-119081089D01*
X170072571Y-119645278D01*
X169550042Y-120155309D01*
X168976357Y-120606765D01*
X168356530Y-120995231D01*
X167695576Y-121316290D01*
X166998508Y-121565525D01*
X166299071Y-121733292D01*
X166089747Y-121762546D01*
X165820916Y-121786418D01*
X165514539Y-121804272D01*
X165192577Y-121815477D01*
X164876988Y-121819399D01*
X164589734Y-121815404D01*
X164352773Y-121802859D01*
X164253333Y-121792290D01*
X163519889Y-121652269D01*
X162817643Y-121438921D01*
X162150746Y-121156880D01*
X161523349Y-120810779D01*
X160939605Y-120405251D01*
X160403665Y-119944930D01*
X159919681Y-119434447D01*
X159491804Y-118878438D01*
X159124187Y-118281534D01*
X158820981Y-117648370D01*
X158701652Y-117310287D01*
X160282805Y-117310287D01*
X160343803Y-117539740D01*
X160460873Y-117803929D01*
X160797502Y-118377841D01*
X161198245Y-118898631D01*
X161658238Y-119362271D01*
X162172613Y-119764733D01*
X162736505Y-120101986D01*
X163345048Y-120370004D01*
X163703000Y-120488197D01*
X164220039Y-120605687D01*
X164777949Y-120671728D01*
X165349098Y-120684628D01*
X165905853Y-120642697D01*
X166003444Y-120629039D01*
X166644844Y-120490400D01*
X167258263Y-120274407D01*
X167837517Y-119985515D01*
X168376422Y-119628184D01*
X168868793Y-119206870D01*
X169308447Y-118726031D01*
X169689198Y-118190126D01*
X169898531Y-117821429D01*
X170014075Y-117576143D01*
X170078359Y-117380559D01*
X170094340Y-117219348D01*
X170064977Y-117077181D01*
X170049393Y-117039488D01*
X169957677Y-116924116D01*
X169817589Y-116836257D01*
X169665245Y-116797934D01*
X169652783Y-116797667D01*
X169525904Y-116812384D01*
X169416138Y-116863707D01*
X169312214Y-116962395D01*
X169202859Y-117119203D01*
X169076803Y-117344890D01*
X169074204Y-117349855D01*
X168753663Y-117877107D01*
X168378111Y-118344381D01*
X167953770Y-118749096D01*
X167486861Y-119088671D01*
X166983607Y-119360525D01*
X166450230Y-119562075D01*
X165892952Y-119690743D01*
X165317995Y-119743945D01*
X164731580Y-119719102D01*
X164139930Y-119613632D01*
X163830000Y-119525335D01*
X163265027Y-119300558D01*
X162749112Y-119006986D01*
X162283457Y-118645668D01*
X161869261Y-118217653D01*
X161507727Y-117723990D01*
X161253475Y-117275055D01*
X161110349Y-117034004D01*
X160963255Y-116875834D01*
X160808828Y-116798765D01*
X160643704Y-116801014D01*
X160485222Y-116868163D01*
X160353369Y-116980063D01*
X160285945Y-117125583D01*
X160282805Y-117310287D01*
X158701652Y-117310287D01*
X158586337Y-116983578D01*
X158469396Y-116483988D01*
X162560158Y-116483988D01*
X162591643Y-116652991D01*
X162679262Y-116858166D01*
X162812231Y-117083815D01*
X162979770Y-117314240D01*
X163171094Y-117533743D01*
X163375421Y-117726624D01*
X163459936Y-117793979D01*
X163697760Y-117962158D01*
X163913278Y-118086719D01*
X164142019Y-118185880D01*
X164380333Y-118265943D01*
X164649260Y-118324111D01*
X164967290Y-118354493D01*
X165306051Y-118357488D01*
X165637169Y-118333490D01*
X165932270Y-118282899D01*
X166073667Y-118242252D01*
X166448957Y-118078965D01*
X166810092Y-117860730D01*
X167125095Y-117607374D01*
X167174333Y-117559667D01*
X167353653Y-117359140D01*
X167517138Y-117137136D01*
X167653068Y-116913033D01*
X167749721Y-116706210D01*
X167795375Y-116536045D01*
X167795775Y-116532303D01*
X167780598Y-116330593D01*
X167694969Y-116169203D01*
X167545337Y-116058235D01*
X167476826Y-116032510D01*
X167287890Y-116011022D01*
X167120981Y-116068126D01*
X166973111Y-116205562D01*
X166856833Y-116393404D01*
X166647868Y-116718961D01*
X166382947Y-116989310D01*
X166073318Y-117199629D01*
X165730227Y-117345094D01*
X165364921Y-117420884D01*
X164988646Y-117422175D01*
X164628209Y-117349057D01*
X164294782Y-117211686D01*
X164005822Y-117017062D01*
X163751637Y-116756831D01*
X163522539Y-116422638D01*
X163491690Y-116369074D01*
X163397999Y-116215992D01*
X163317823Y-116121608D01*
X163232478Y-116066312D01*
X163186336Y-116048601D01*
X162991724Y-116022313D01*
X162816118Y-116067561D01*
X162675335Y-116173348D01*
X162585193Y-116328676D01*
X162560158Y-116483988D01*
X158469396Y-116483988D01*
X158424407Y-116291792D01*
X158339344Y-115577644D01*
X158326828Y-115178417D01*
X158326667Y-114638667D01*
X161096530Y-114638667D01*
X163866394Y-114638666D01*
X163960301Y-114826699D01*
X164134014Y-115081923D01*
X164379080Y-115300673D01*
X164592000Y-115429561D01*
X164718688Y-115489020D01*
X164832712Y-115524857D01*
X164963586Y-115542807D01*
X165140827Y-115548606D01*
X165205833Y-115548833D01*
X165402151Y-115545521D01*
X165543433Y-115531759D01*
X165659179Y-115501804D01*
X165778889Y-115449918D01*
X165819667Y-115429381D01*
X166054284Y-115289252D01*
X166232397Y-115130573D01*
X166381813Y-114927050D01*
X166420890Y-114860917D01*
X166547415Y-114638666D01*
X169216126Y-114638667D01*
G36*
X165424021Y-108316060D02*
G01*
X165680234Y-108320908D01*
X165885481Y-108329980D01*
X166056600Y-108344466D01*
X166210430Y-108365556D01*
X166363812Y-108394440D01*
X166426744Y-108407985D01*
X167175665Y-108614282D01*
X167883917Y-108891957D01*
X168547684Y-109238032D01*
X169163147Y-109649532D01*
X169726488Y-110123480D01*
X170233890Y-110656900D01*
X170681533Y-111246817D01*
X171065600Y-111890253D01*
X171175963Y-112110119D01*
X171306664Y-112399451D01*
X171430741Y-112705279D01*
X171540072Y-113005217D01*
X171626531Y-113276876D01*
X171681994Y-113497869D01*
X171684722Y-113512014D01*
X171713422Y-113665000D01*
X165650333Y-113665000D01*
X165650333Y-114001306D01*
X165646919Y-114179582D01*
X165633259Y-114297312D01*
X165604227Y-114378462D01*
X165555083Y-114446552D01*
X165402246Y-114560847D01*
X165216407Y-114605249D01*
X165070913Y-114588865D01*
X164929827Y-114527932D01*
X164835566Y-114425646D01*
X164781701Y-114269737D01*
X164761804Y-114047935D01*
X164761333Y-113997957D01*
X164761333Y-113665000D01*
X158459773Y-113665000D01*
X158559144Y-113293684D01*
X158792220Y-112583087D01*
X159099048Y-111909829D01*
X159475271Y-111278574D01*
X159916533Y-110693987D01*
X160418479Y-110160731D01*
X160976752Y-109683470D01*
X161586996Y-109266868D01*
X162244855Y-108915590D01*
X162894288Y-108652062D01*
X163225312Y-108541996D01*
X163519309Y-108457814D01*
X163796944Y-108396353D01*
X164078880Y-108354447D01*
X164385780Y-108328931D01*
X164738308Y-108316641D01*
X165100000Y-108314248D01*
X165424021Y-108316060D01*
G37*
X165424021Y-108316060D02*
X165680234Y-108320908D01*
X165885481Y-108329980D01*
X166056600Y-108344466D01*
X166210430Y-108365556D01*
X166363812Y-108394440D01*
X166426744Y-108407985D01*
X167175665Y-108614282D01*
X167883917Y-108891957D01*
X168547684Y-109238032D01*
X169163147Y-109649532D01*
X169726488Y-110123480D01*
X170233890Y-110656900D01*
X170681533Y-111246817D01*
X171065600Y-111890253D01*
X171175963Y-112110119D01*
X171306664Y-112399451D01*
X171430741Y-112705279D01*
X171540072Y-113005217D01*
X171626531Y-113276876D01*
X171681994Y-113497869D01*
X171684722Y-113512014D01*
X171713422Y-113665000D01*
X165650333Y-113665000D01*
X165650333Y-114001306D01*
X165646919Y-114179582D01*
X165633259Y-114297312D01*
X165604227Y-114378462D01*
X165555083Y-114446552D01*
X165402246Y-114560847D01*
X165216407Y-114605249D01*
X165070913Y-114588865D01*
X164929827Y-114527932D01*
X164835566Y-114425646D01*
X164781701Y-114269737D01*
X164761804Y-114047935D01*
X164761333Y-113997957D01*
X164761333Y-113665000D01*
X158459773Y-113665000D01*
X158559144Y-113293684D01*
X158792220Y-112583087D01*
X159099048Y-111909829D01*
X159475271Y-111278574D01*
X159916533Y-110693987D01*
X160418479Y-110160731D01*
X160976752Y-109683470D01*
X161586996Y-109266868D01*
X162244855Y-108915590D01*
X162894288Y-108652062D01*
X163225312Y-108541996D01*
X163519309Y-108457814D01*
X163796944Y-108396353D01*
X164078880Y-108354447D01*
X164385780Y-108328931D01*
X164738308Y-108316641D01*
X165100000Y-108314248D01*
X165424021Y-108316060D01*
D15*
%TO.C,J1*%
X120710000Y-86300000D02*
X118050000Y-86300000D01*
X120710000Y-88900000D02*
X120710000Y-86300000D01*
X118050000Y-88900000D02*
X118050000Y-86300000D01*
X120710000Y-88900000D02*
X118050000Y-88900000D01*
X120710000Y-90170000D02*
X120710000Y-91500000D01*
X120710000Y-91500000D02*
X119380000Y-91500000D01*
%TO.C,U2*%
X112522000Y-120120000D02*
X112522000Y-98320000D01*
X112522000Y-98320000D02*
X103422000Y-98320000D01*
X112522000Y-120120000D02*
X103422000Y-120120000D01*
X103422000Y-120120000D02*
X103422000Y-98320000D01*
X112268000Y-119634000D02*
G75*
G03*
X112268000Y-119634000I-254000J0D01*
G01*
%TO.C,C1*%
X152562779Y-78230000D02*
X152237221Y-78230000D01*
X152562779Y-79250000D02*
X152237221Y-79250000D01*
%TO.C,C2*%
X152562779Y-81790000D02*
X152237221Y-81790000D01*
X152562779Y-80770000D02*
X152237221Y-80770000D01*
%TO.C,C3*%
X152237221Y-97030000D02*
X152562779Y-97030000D01*
X152237221Y-96010000D02*
X152562779Y-96010000D01*
%TO.C,C4*%
X152237221Y-98550000D02*
X152562779Y-98550000D01*
X152237221Y-99570000D02*
X152562779Y-99570000D01*
D14*
%TO.C,CON1*%
X101571000Y-62980000D02*
X104681000Y-62980000D01*
X101571000Y-73030000D02*
X104681000Y-73030000D01*
X112081000Y-62980000D02*
X115531000Y-62980000D01*
X115531000Y-63030000D02*
X115531000Y-63880000D01*
X115531000Y-73030000D02*
X112081000Y-73030000D01*
X101571000Y-62980000D02*
X101565000Y-73030000D01*
X115531000Y-63880000D02*
X115531000Y-66080000D01*
X115531000Y-71080000D02*
X115531000Y-73030000D01*
D15*
%TO.C,D1*%
X121301000Y-62809000D02*
X123986000Y-62809000D01*
X123986000Y-62809000D02*
X123986000Y-60889000D01*
X123986000Y-60889000D02*
X121301000Y-60889000D01*
%TO.C,J2*%
X146110000Y-105470000D02*
X144780000Y-105470000D01*
X146110000Y-104140000D02*
X146110000Y-105470000D01*
X143510000Y-105470000D02*
X140910000Y-105470000D01*
X143510000Y-102870000D02*
X143510000Y-105470000D01*
X146110000Y-102870000D02*
X143510000Y-102870000D01*
X140910000Y-105470000D02*
X140910000Y-100270000D01*
X146110000Y-102870000D02*
X146110000Y-100270000D01*
X146110000Y-100270000D02*
X140910000Y-100270000D01*
%TO.C,J3*%
X140910000Y-77530000D02*
X146110000Y-77530000D01*
X140910000Y-74930000D02*
X140910000Y-77530000D01*
X146110000Y-72330000D02*
X146110000Y-77530000D01*
X140910000Y-74930000D02*
X143510000Y-74930000D01*
X143510000Y-74930000D02*
X143510000Y-72330000D01*
X143510000Y-72330000D02*
X146110000Y-72330000D01*
X140910000Y-73660000D02*
X140910000Y-72330000D01*
X140910000Y-72330000D02*
X142240000Y-72330000D01*
%TO.C,J4*%
X160214000Y-91500000D02*
X162874000Y-91500000D01*
X160214000Y-88900000D02*
X160214000Y-91500000D01*
X162874000Y-88900000D02*
X162874000Y-91500000D01*
X160214000Y-88900000D02*
X162874000Y-88900000D01*
X160214000Y-87630000D02*
X160214000Y-86300000D01*
X160214000Y-86300000D02*
X161544000Y-86300000D01*
%TO.C,R1*%
X122265221Y-63498000D02*
X122590779Y-63498000D01*
X122265221Y-64518000D02*
X122590779Y-64518000D01*
%TO.C,R2*%
X145540000Y-68417221D02*
X145540000Y-68742779D01*
X146560000Y-68417221D02*
X146560000Y-68742779D01*
%TO.C,R3*%
X140460000Y-110652779D02*
X140460000Y-110327221D01*
X141480000Y-110652779D02*
X141480000Y-110327221D01*
%TO.C,R4*%
X140460000Y-68417221D02*
X140460000Y-68742779D01*
X141480000Y-68417221D02*
X141480000Y-68742779D01*
%TO.C,R5*%
X145540000Y-110652779D02*
X145540000Y-110327221D01*
X146560000Y-110652779D02*
X146560000Y-110327221D01*
%TO.C,R6*%
X128432779Y-94490000D02*
X128107221Y-94490000D01*
X128432779Y-93470000D02*
X128107221Y-93470000D01*
%TO.C,R7*%
X128432779Y-91950000D02*
X128107221Y-91950000D01*
X128432779Y-90930000D02*
X128107221Y-90930000D01*
%TO.C,R8*%
X128432779Y-89410000D02*
X128107221Y-89410000D01*
X128432779Y-88390000D02*
X128107221Y-88390000D01*
%TO.C,R9*%
X128432779Y-85850000D02*
X128107221Y-85850000D01*
X128432779Y-86870000D02*
X128107221Y-86870000D01*
%TO.C,R10*%
X128432779Y-84330000D02*
X128107221Y-84330000D01*
X128432779Y-83310000D02*
X128107221Y-83310000D01*
D18*
%TO.C,SW1*%
X134700000Y-83900000D02*
X144700000Y-83900000D01*
X144700000Y-83900000D02*
X144700000Y-93900000D01*
X144700000Y-93900000D02*
X134700000Y-93900000D01*
X134700000Y-93900000D02*
X134700000Y-83900000D01*
D19*
X134250000Y-84800000D02*
G75*
G03*
X134250000Y-84800000I-100000J0D01*
G01*
D15*
%TO.C,U1*%
X149840000Y-88900000D02*
X149840000Y-92350000D01*
X149840000Y-88900000D02*
X149840000Y-86950000D01*
X154960000Y-88900000D02*
X154960000Y-90850000D01*
X154960000Y-88900000D02*
X154960000Y-86950000D01*
%TO.C,J5*%
X120202000Y-106620000D02*
X117542000Y-106620000D01*
X120202000Y-114300000D02*
X120202000Y-106620000D01*
X117542000Y-114300000D02*
X117542000Y-106620000D01*
X120202000Y-114300000D02*
X117542000Y-114300000D01*
X120202000Y-115570000D02*
X120202000Y-116900000D01*
X120202000Y-116900000D02*
X118872000Y-116900000D01*
%TO.C,U2*%
D14*
X107188095Y-96988380D02*
X107188095Y-97797904D01*
X107235714Y-97893142D01*
X107283333Y-97940761D01*
X107378571Y-97988380D01*
X107569047Y-97988380D01*
X107664285Y-97940761D01*
X107711904Y-97893142D01*
X107759523Y-97797904D01*
X107759523Y-96988380D01*
X108188095Y-97083619D02*
X108235714Y-97036000D01*
X108330952Y-96988380D01*
X108569047Y-96988380D01*
X108664285Y-97036000D01*
X108711904Y-97083619D01*
X108759523Y-97178857D01*
X108759523Y-97274095D01*
X108711904Y-97416952D01*
X108140476Y-97988380D01*
X108759523Y-97988380D01*
%TO.C,C1*%
X154773333Y-79097142D02*
X154725714Y-79144761D01*
X154582857Y-79192380D01*
X154487619Y-79192380D01*
X154344761Y-79144761D01*
X154249523Y-79049523D01*
X154201904Y-78954285D01*
X154154285Y-78763809D01*
X154154285Y-78620952D01*
X154201904Y-78430476D01*
X154249523Y-78335238D01*
X154344761Y-78240000D01*
X154487619Y-78192380D01*
X154582857Y-78192380D01*
X154725714Y-78240000D01*
X154773333Y-78287619D01*
X155725714Y-79192380D02*
X155154285Y-79192380D01*
X155440000Y-79192380D02*
X155440000Y-78192380D01*
X155344761Y-78335238D01*
X155249523Y-78430476D01*
X155154285Y-78478095D01*
%TO.C,C2*%
X154773333Y-81637142D02*
X154725714Y-81684761D01*
X154582857Y-81732380D01*
X154487619Y-81732380D01*
X154344761Y-81684761D01*
X154249523Y-81589523D01*
X154201904Y-81494285D01*
X154154285Y-81303809D01*
X154154285Y-81160952D01*
X154201904Y-80970476D01*
X154249523Y-80875238D01*
X154344761Y-80780000D01*
X154487619Y-80732380D01*
X154582857Y-80732380D01*
X154725714Y-80780000D01*
X154773333Y-80827619D01*
X155154285Y-80827619D02*
X155201904Y-80780000D01*
X155297142Y-80732380D01*
X155535238Y-80732380D01*
X155630476Y-80780000D01*
X155678095Y-80827619D01*
X155725714Y-80922857D01*
X155725714Y-81018095D01*
X155678095Y-81160952D01*
X155106666Y-81732380D01*
X155725714Y-81732380D01*
%TO.C,C3*%
X154773333Y-96877142D02*
X154725714Y-96924761D01*
X154582857Y-96972380D01*
X154487619Y-96972380D01*
X154344761Y-96924761D01*
X154249523Y-96829523D01*
X154201904Y-96734285D01*
X154154285Y-96543809D01*
X154154285Y-96400952D01*
X154201904Y-96210476D01*
X154249523Y-96115238D01*
X154344761Y-96020000D01*
X154487619Y-95972380D01*
X154582857Y-95972380D01*
X154725714Y-96020000D01*
X154773333Y-96067619D01*
X155106666Y-95972380D02*
X155725714Y-95972380D01*
X155392380Y-96353333D01*
X155535238Y-96353333D01*
X155630476Y-96400952D01*
X155678095Y-96448571D01*
X155725714Y-96543809D01*
X155725714Y-96781904D01*
X155678095Y-96877142D01*
X155630476Y-96924761D01*
X155535238Y-96972380D01*
X155249523Y-96972380D01*
X155154285Y-96924761D01*
X155106666Y-96877142D01*
%TO.C,C4*%
X154773333Y-99417142D02*
X154725714Y-99464761D01*
X154582857Y-99512380D01*
X154487619Y-99512380D01*
X154344761Y-99464761D01*
X154249523Y-99369523D01*
X154201904Y-99274285D01*
X154154285Y-99083809D01*
X154154285Y-98940952D01*
X154201904Y-98750476D01*
X154249523Y-98655238D01*
X154344761Y-98560000D01*
X154487619Y-98512380D01*
X154582857Y-98512380D01*
X154725714Y-98560000D01*
X154773333Y-98607619D01*
X155630476Y-98845714D02*
X155630476Y-99512380D01*
X155392380Y-98464761D02*
X155154285Y-99179047D01*
X155773333Y-99179047D01*
%TO.C,CON1*%
X107116714Y-68937142D02*
X107069095Y-68984761D01*
X106926238Y-69032380D01*
X106831000Y-69032380D01*
X106688142Y-68984761D01*
X106592904Y-68889523D01*
X106545285Y-68794285D01*
X106497666Y-68603809D01*
X106497666Y-68460952D01*
X106545285Y-68270476D01*
X106592904Y-68175238D01*
X106688142Y-68080000D01*
X106831000Y-68032380D01*
X106926238Y-68032380D01*
X107069095Y-68080000D01*
X107116714Y-68127619D01*
X107735761Y-68032380D02*
X107926238Y-68032380D01*
X108021476Y-68080000D01*
X108116714Y-68175238D01*
X108164333Y-68365714D01*
X108164333Y-68699047D01*
X108116714Y-68889523D01*
X108021476Y-68984761D01*
X107926238Y-69032380D01*
X107735761Y-69032380D01*
X107640523Y-68984761D01*
X107545285Y-68889523D01*
X107497666Y-68699047D01*
X107497666Y-68365714D01*
X107545285Y-68175238D01*
X107640523Y-68080000D01*
X107735761Y-68032380D01*
X108592904Y-69032380D02*
X108592904Y-68032380D01*
X109164333Y-69032380D01*
X109164333Y-68032380D01*
X110164333Y-69032380D02*
X109592904Y-69032380D01*
X109878619Y-69032380D02*
X109878619Y-68032380D01*
X109783380Y-68175238D01*
X109688142Y-68270476D01*
X109592904Y-68318095D01*
%TO.C,D1*%
X124356904Y-62301380D02*
X124356904Y-61301380D01*
X124595000Y-61301380D01*
X124737857Y-61349000D01*
X124833095Y-61444238D01*
X124880714Y-61539476D01*
X124928333Y-61729952D01*
X124928333Y-61872809D01*
X124880714Y-62063285D01*
X124833095Y-62158523D01*
X124737857Y-62253761D01*
X124595000Y-62301380D01*
X124356904Y-62301380D01*
X125880714Y-62301380D02*
X125309285Y-62301380D01*
X125595000Y-62301380D02*
X125595000Y-61301380D01*
X125499761Y-61444238D01*
X125404523Y-61539476D01*
X125309285Y-61587095D01*
%TO.C,R1*%
X124928333Y-64460380D02*
X124595000Y-63984190D01*
X124356904Y-64460380D02*
X124356904Y-63460380D01*
X124737857Y-63460380D01*
X124833095Y-63508000D01*
X124880714Y-63555619D01*
X124928333Y-63650857D01*
X124928333Y-63793714D01*
X124880714Y-63888952D01*
X124833095Y-63936571D01*
X124737857Y-63984190D01*
X124356904Y-63984190D01*
X125880714Y-64460380D02*
X125309285Y-64460380D01*
X125595000Y-64460380D02*
X125595000Y-63460380D01*
X125499761Y-63603238D01*
X125404523Y-63698476D01*
X125309285Y-63746095D01*
%TO.C,R2*%
X145883333Y-66492380D02*
X145550000Y-66016190D01*
X145311904Y-66492380D02*
X145311904Y-65492380D01*
X145692857Y-65492380D01*
X145788095Y-65540000D01*
X145835714Y-65587619D01*
X145883333Y-65682857D01*
X145883333Y-65825714D01*
X145835714Y-65920952D01*
X145788095Y-65968571D01*
X145692857Y-66016190D01*
X145311904Y-66016190D01*
X146264285Y-65587619D02*
X146311904Y-65540000D01*
X146407142Y-65492380D01*
X146645238Y-65492380D01*
X146740476Y-65540000D01*
X146788095Y-65587619D01*
X146835714Y-65682857D01*
X146835714Y-65778095D01*
X146788095Y-65920952D01*
X146216666Y-66492380D01*
X146835714Y-66492380D01*
%TO.C,R3*%
X140803333Y-113482380D02*
X140470000Y-113006190D01*
X140231904Y-113482380D02*
X140231904Y-112482380D01*
X140612857Y-112482380D01*
X140708095Y-112530000D01*
X140755714Y-112577619D01*
X140803333Y-112672857D01*
X140803333Y-112815714D01*
X140755714Y-112910952D01*
X140708095Y-112958571D01*
X140612857Y-113006190D01*
X140231904Y-113006190D01*
X141136666Y-112482380D02*
X141755714Y-112482380D01*
X141422380Y-112863333D01*
X141565238Y-112863333D01*
X141660476Y-112910952D01*
X141708095Y-112958571D01*
X141755714Y-113053809D01*
X141755714Y-113291904D01*
X141708095Y-113387142D01*
X141660476Y-113434761D01*
X141565238Y-113482380D01*
X141279523Y-113482380D01*
X141184285Y-113434761D01*
X141136666Y-113387142D01*
%TO.C,R4*%
X140803333Y-66492380D02*
X140470000Y-66016190D01*
X140231904Y-66492380D02*
X140231904Y-65492380D01*
X140612857Y-65492380D01*
X140708095Y-65540000D01*
X140755714Y-65587619D01*
X140803333Y-65682857D01*
X140803333Y-65825714D01*
X140755714Y-65920952D01*
X140708095Y-65968571D01*
X140612857Y-66016190D01*
X140231904Y-66016190D01*
X141660476Y-65825714D02*
X141660476Y-66492380D01*
X141422380Y-65444761D02*
X141184285Y-66159047D01*
X141803333Y-66159047D01*
%TO.C,R5*%
X145883333Y-113482380D02*
X145550000Y-113006190D01*
X145311904Y-113482380D02*
X145311904Y-112482380D01*
X145692857Y-112482380D01*
X145788095Y-112530000D01*
X145835714Y-112577619D01*
X145883333Y-112672857D01*
X145883333Y-112815714D01*
X145835714Y-112910952D01*
X145788095Y-112958571D01*
X145692857Y-113006190D01*
X145311904Y-113006190D01*
X146788095Y-112482380D02*
X146311904Y-112482380D01*
X146264285Y-112958571D01*
X146311904Y-112910952D01*
X146407142Y-112863333D01*
X146645238Y-112863333D01*
X146740476Y-112910952D01*
X146788095Y-112958571D01*
X146835714Y-113053809D01*
X146835714Y-113291904D01*
X146788095Y-113387142D01*
X146740476Y-113434761D01*
X146645238Y-113482380D01*
X146407142Y-113482380D01*
X146311904Y-113434761D01*
X146264285Y-113387142D01*
%TO.C,R6*%
X125563333Y-94432380D02*
X125230000Y-93956190D01*
X124991904Y-94432380D02*
X124991904Y-93432380D01*
X125372857Y-93432380D01*
X125468095Y-93480000D01*
X125515714Y-93527619D01*
X125563333Y-93622857D01*
X125563333Y-93765714D01*
X125515714Y-93860952D01*
X125468095Y-93908571D01*
X125372857Y-93956190D01*
X124991904Y-93956190D01*
X126420476Y-93432380D02*
X126230000Y-93432380D01*
X126134761Y-93480000D01*
X126087142Y-93527619D01*
X125991904Y-93670476D01*
X125944285Y-93860952D01*
X125944285Y-94241904D01*
X125991904Y-94337142D01*
X126039523Y-94384761D01*
X126134761Y-94432380D01*
X126325238Y-94432380D01*
X126420476Y-94384761D01*
X126468095Y-94337142D01*
X126515714Y-94241904D01*
X126515714Y-94003809D01*
X126468095Y-93908571D01*
X126420476Y-93860952D01*
X126325238Y-93813333D01*
X126134761Y-93813333D01*
X126039523Y-93860952D01*
X125991904Y-93908571D01*
X125944285Y-94003809D01*
%TO.C,R7*%
X125563333Y-92019380D02*
X125230000Y-91543190D01*
X124991904Y-92019380D02*
X124991904Y-91019380D01*
X125372857Y-91019380D01*
X125468095Y-91067000D01*
X125515714Y-91114619D01*
X125563333Y-91209857D01*
X125563333Y-91352714D01*
X125515714Y-91447952D01*
X125468095Y-91495571D01*
X125372857Y-91543190D01*
X124991904Y-91543190D01*
X125896666Y-91019380D02*
X126563333Y-91019380D01*
X126134761Y-92019380D01*
%TO.C,R8*%
X125563333Y-89352380D02*
X125230000Y-88876190D01*
X124991904Y-89352380D02*
X124991904Y-88352380D01*
X125372857Y-88352380D01*
X125468095Y-88400000D01*
X125515714Y-88447619D01*
X125563333Y-88542857D01*
X125563333Y-88685714D01*
X125515714Y-88780952D01*
X125468095Y-88828571D01*
X125372857Y-88876190D01*
X124991904Y-88876190D01*
X126134761Y-88780952D02*
X126039523Y-88733333D01*
X125991904Y-88685714D01*
X125944285Y-88590476D01*
X125944285Y-88542857D01*
X125991904Y-88447619D01*
X126039523Y-88400000D01*
X126134761Y-88352380D01*
X126325238Y-88352380D01*
X126420476Y-88400000D01*
X126468095Y-88447619D01*
X126515714Y-88542857D01*
X126515714Y-88590476D01*
X126468095Y-88685714D01*
X126420476Y-88733333D01*
X126325238Y-88780952D01*
X126134761Y-88780952D01*
X126039523Y-88828571D01*
X125991904Y-88876190D01*
X125944285Y-88971428D01*
X125944285Y-89161904D01*
X125991904Y-89257142D01*
X126039523Y-89304761D01*
X126134761Y-89352380D01*
X126325238Y-89352380D01*
X126420476Y-89304761D01*
X126468095Y-89257142D01*
X126515714Y-89161904D01*
X126515714Y-88971428D01*
X126468095Y-88876190D01*
X126420476Y-88828571D01*
X126325238Y-88780952D01*
%TO.C,R9*%
X125563333Y-86812380D02*
X125230000Y-86336190D01*
X124991904Y-86812380D02*
X124991904Y-85812380D01*
X125372857Y-85812380D01*
X125468095Y-85860000D01*
X125515714Y-85907619D01*
X125563333Y-86002857D01*
X125563333Y-86145714D01*
X125515714Y-86240952D01*
X125468095Y-86288571D01*
X125372857Y-86336190D01*
X124991904Y-86336190D01*
X126039523Y-86812380D02*
X126230000Y-86812380D01*
X126325238Y-86764761D01*
X126372857Y-86717142D01*
X126468095Y-86574285D01*
X126515714Y-86383809D01*
X126515714Y-86002857D01*
X126468095Y-85907619D01*
X126420476Y-85860000D01*
X126325238Y-85812380D01*
X126134761Y-85812380D01*
X126039523Y-85860000D01*
X125991904Y-85907619D01*
X125944285Y-86002857D01*
X125944285Y-86240952D01*
X125991904Y-86336190D01*
X126039523Y-86383809D01*
X126134761Y-86431428D01*
X126325238Y-86431428D01*
X126420476Y-86383809D01*
X126468095Y-86336190D01*
X126515714Y-86240952D01*
%TO.C,R10*%
X124579142Y-84272380D02*
X124245809Y-83796190D01*
X124007714Y-84272380D02*
X124007714Y-83272380D01*
X124388666Y-83272380D01*
X124483904Y-83320000D01*
X124531523Y-83367619D01*
X124579142Y-83462857D01*
X124579142Y-83605714D01*
X124531523Y-83700952D01*
X124483904Y-83748571D01*
X124388666Y-83796190D01*
X124007714Y-83796190D01*
X125531523Y-84272380D02*
X124960095Y-84272380D01*
X125245809Y-84272380D02*
X125245809Y-83272380D01*
X125150571Y-83415238D01*
X125055333Y-83510476D01*
X124960095Y-83558095D01*
X126150571Y-83272380D02*
X126245809Y-83272380D01*
X126341047Y-83320000D01*
X126388666Y-83367619D01*
X126436285Y-83462857D01*
X126483904Y-83653333D01*
X126483904Y-83891428D01*
X126436285Y-84081904D01*
X126388666Y-84177142D01*
X126341047Y-84224761D01*
X126245809Y-84272380D01*
X126150571Y-84272380D01*
X126055333Y-84224761D01*
X126007714Y-84177142D01*
X125960095Y-84081904D01*
X125912476Y-83891428D01*
X125912476Y-83653333D01*
X125960095Y-83462857D01*
X126007714Y-83367619D01*
X126055333Y-83320000D01*
X126150571Y-83272380D01*
%TO.C,SW1*%
D18*
X138366666Y-95781761D02*
X138509523Y-95829380D01*
X138747619Y-95829380D01*
X138842857Y-95781761D01*
X138890476Y-95734142D01*
X138938095Y-95638904D01*
X138938095Y-95543666D01*
X138890476Y-95448428D01*
X138842857Y-95400809D01*
X138747619Y-95353190D01*
X138557142Y-95305571D01*
X138461904Y-95257952D01*
X138414285Y-95210333D01*
X138366666Y-95115095D01*
X138366666Y-95019857D01*
X138414285Y-94924619D01*
X138461904Y-94877000D01*
X138557142Y-94829380D01*
X138795238Y-94829380D01*
X138938095Y-94877000D01*
X139271428Y-94829380D02*
X139509523Y-95829380D01*
X139700000Y-95115095D01*
X139890476Y-95829380D01*
X140128571Y-94829380D01*
X141033333Y-95829380D02*
X140461904Y-95829380D01*
X140747619Y-95829380D02*
X140747619Y-94829380D01*
X140652380Y-94972238D01*
X140557142Y-95067476D01*
X140461904Y-95115095D01*
%TO.C,U1*%
D14*
X151638095Y-88352380D02*
X151638095Y-89161904D01*
X151685714Y-89257142D01*
X151733333Y-89304761D01*
X151828571Y-89352380D01*
X152019047Y-89352380D01*
X152114285Y-89304761D01*
X152161904Y-89257142D01*
X152209523Y-89161904D01*
X152209523Y-88352380D01*
X153209523Y-89352380D02*
X152638095Y-89352380D01*
X152923809Y-89352380D02*
X152923809Y-88352380D01*
X152828571Y-88495238D01*
X152733333Y-88590476D01*
X152638095Y-88638095D01*
%TD*%
D20*
X210058000Y-99441000D02*
X200660000Y-99441000D01*
X200660000Y-96393000D01*
X210058000Y-96393000D01*
X210058000Y-99441000D01*
D21*
G36*
X210058000Y-99441000D02*
G01*
X200660000Y-99441000D01*
X200660000Y-96393000D01*
X210058000Y-96393000D01*
X210058000Y-99441000D01*
G37*
D20*
X210058000Y-103251000D02*
X200660000Y-103251000D01*
X200660000Y-100203000D01*
X210058000Y-100203000D01*
X210058000Y-103251000D01*
D21*
G36*
X210058000Y-103251000D02*
G01*
X200660000Y-103251000D01*
X200660000Y-100203000D01*
X210058000Y-100203000D01*
X210058000Y-103251000D01*
G37*
D20*
X210058000Y-107061000D02*
X200660000Y-107061000D01*
X200660000Y-104013000D01*
X210058000Y-104013000D01*
X210058000Y-107061000D01*
D21*
G36*
X210058000Y-107061000D02*
G01*
X200660000Y-107061000D01*
X200660000Y-104013000D01*
X210058000Y-104013000D01*
X210058000Y-107061000D01*
G37*
D20*
X210058000Y-110871000D02*
X200660000Y-110871000D01*
X200660000Y-107823000D01*
X210058000Y-107823000D01*
X210058000Y-110871000D01*
D21*
G36*
X210058000Y-110871000D02*
G01*
X200660000Y-110871000D01*
X200660000Y-107823000D01*
X210058000Y-107823000D01*
X210058000Y-110871000D01*
G37*
D20*
X210058000Y-114681000D02*
X200660000Y-114681000D01*
X200660000Y-111633000D01*
X210058000Y-111633000D01*
X210058000Y-114681000D01*
D21*
G36*
X210058000Y-114681000D02*
G01*
X200660000Y-114681000D01*
X200660000Y-111633000D01*
X210058000Y-111633000D01*
X210058000Y-114681000D01*
G37*
M02*
