%TF.GenerationSoftware,KiCad,Pcbnew,(5.1.7)-1*%
%TF.CreationDate,2021-04-21T22:03:08-05:00*%
%TF.ProjectId,instrumentation_amplifier,696e7374-7275-46d6-956e-746174696f6e,1.0*%
%TF.SameCoordinates,Original*%
%TF.FileFunction,Paste,Top*%
%TF.FilePolarity,Positive*%
%FSLAX46Y46*%
G04 Gerber Fmt 4.6, Leading zero omitted, Abs format (unit mm)*
G04 Created by KiCad (PCBNEW (5.1.7)-1) date 2021-04-21 22:03:08*
%MOMM*%
%LPD*%
G01*
G04 APERTURE LIST*
%ADD10R,4.060000X3.300000*%
%ADD11R,5.760000X3.810000*%
%ADD12R,6.350000X3.810000*%
G04 APERTURE END LIST*
%TO.C,C1*%
G36*
G01*
X153625000Y-78483750D02*
X153625000Y-78996250D01*
G75*
G02*
X153406250Y-79215000I-218750J0D01*
G01*
X152968750Y-79215000D01*
G75*
G02*
X152750000Y-78996250I0J218750D01*
G01*
X152750000Y-78483750D01*
G75*
G02*
X152968750Y-78265000I218750J0D01*
G01*
X153406250Y-78265000D01*
G75*
G02*
X153625000Y-78483750I0J-218750D01*
G01*
G37*
G36*
G01*
X152050000Y-78483750D02*
X152050000Y-78996250D01*
G75*
G02*
X151831250Y-79215000I-218750J0D01*
G01*
X151393750Y-79215000D01*
G75*
G02*
X151175000Y-78996250I0J218750D01*
G01*
X151175000Y-78483750D01*
G75*
G02*
X151393750Y-78265000I218750J0D01*
G01*
X151831250Y-78265000D01*
G75*
G02*
X152050000Y-78483750I0J-218750D01*
G01*
G37*
%TD*%
%TO.C,C2*%
G36*
G01*
X153625000Y-81023750D02*
X153625000Y-81536250D01*
G75*
G02*
X153406250Y-81755000I-218750J0D01*
G01*
X152968750Y-81755000D01*
G75*
G02*
X152750000Y-81536250I0J218750D01*
G01*
X152750000Y-81023750D01*
G75*
G02*
X152968750Y-80805000I218750J0D01*
G01*
X153406250Y-80805000D01*
G75*
G02*
X153625000Y-81023750I0J-218750D01*
G01*
G37*
G36*
G01*
X152050000Y-81023750D02*
X152050000Y-81536250D01*
G75*
G02*
X151831250Y-81755000I-218750J0D01*
G01*
X151393750Y-81755000D01*
G75*
G02*
X151175000Y-81536250I0J218750D01*
G01*
X151175000Y-81023750D01*
G75*
G02*
X151393750Y-80805000I218750J0D01*
G01*
X151831250Y-80805000D01*
G75*
G02*
X152050000Y-81023750I0J-218750D01*
G01*
G37*
%TD*%
%TO.C,C3*%
G36*
G01*
X152750000Y-96776250D02*
X152750000Y-96263750D01*
G75*
G02*
X152968750Y-96045000I218750J0D01*
G01*
X153406250Y-96045000D01*
G75*
G02*
X153625000Y-96263750I0J-218750D01*
G01*
X153625000Y-96776250D01*
G75*
G02*
X153406250Y-96995000I-218750J0D01*
G01*
X152968750Y-96995000D01*
G75*
G02*
X152750000Y-96776250I0J218750D01*
G01*
G37*
G36*
G01*
X151175000Y-96776250D02*
X151175000Y-96263750D01*
G75*
G02*
X151393750Y-96045000I218750J0D01*
G01*
X151831250Y-96045000D01*
G75*
G02*
X152050000Y-96263750I0J-218750D01*
G01*
X152050000Y-96776250D01*
G75*
G02*
X151831250Y-96995000I-218750J0D01*
G01*
X151393750Y-96995000D01*
G75*
G02*
X151175000Y-96776250I0J218750D01*
G01*
G37*
%TD*%
%TO.C,C4*%
G36*
G01*
X152750000Y-99316250D02*
X152750000Y-98803750D01*
G75*
G02*
X152968750Y-98585000I218750J0D01*
G01*
X153406250Y-98585000D01*
G75*
G02*
X153625000Y-98803750I0J-218750D01*
G01*
X153625000Y-99316250D01*
G75*
G02*
X153406250Y-99535000I-218750J0D01*
G01*
X152968750Y-99535000D01*
G75*
G02*
X152750000Y-99316250I0J218750D01*
G01*
G37*
G36*
G01*
X151175000Y-99316250D02*
X151175000Y-98803750D01*
G75*
G02*
X151393750Y-98585000I218750J0D01*
G01*
X151831250Y-98585000D01*
G75*
G02*
X152050000Y-98803750I0J-218750D01*
G01*
X152050000Y-99316250D01*
G75*
G02*
X151831250Y-99535000I-218750J0D01*
G01*
X151393750Y-99535000D01*
G75*
G02*
X151175000Y-99316250I0J218750D01*
G01*
G37*
%TD*%
D10*
%TO.C,CON1*%
X117471000Y-68580000D03*
D11*
X108331000Y-61390000D03*
D12*
X108331000Y-74680000D03*
%TD*%
%TO.C,D1*%
G36*
G01*
X123726000Y-61392750D02*
X123726000Y-62305250D01*
G75*
G02*
X123482250Y-62549000I-243750J0D01*
G01*
X122994750Y-62549000D01*
G75*
G02*
X122751000Y-62305250I0J243750D01*
G01*
X122751000Y-61392750D01*
G75*
G02*
X122994750Y-61149000I243750J0D01*
G01*
X123482250Y-61149000D01*
G75*
G02*
X123726000Y-61392750I0J-243750D01*
G01*
G37*
G36*
G01*
X121851000Y-61392750D02*
X121851000Y-62305250D01*
G75*
G02*
X121607250Y-62549000I-243750J0D01*
G01*
X121119750Y-62549000D01*
G75*
G02*
X120876000Y-62305250I0J243750D01*
G01*
X120876000Y-61392750D01*
G75*
G02*
X121119750Y-61149000I243750J0D01*
G01*
X121607250Y-61149000D01*
G75*
G02*
X121851000Y-61392750I0J-243750D01*
G01*
G37*
%TD*%
%TO.C,R1*%
G36*
G01*
X121203000Y-64264250D02*
X121203000Y-63751750D01*
G75*
G02*
X121421750Y-63533000I218750J0D01*
G01*
X121859250Y-63533000D01*
G75*
G02*
X122078000Y-63751750I0J-218750D01*
G01*
X122078000Y-64264250D01*
G75*
G02*
X121859250Y-64483000I-218750J0D01*
G01*
X121421750Y-64483000D01*
G75*
G02*
X121203000Y-64264250I0J218750D01*
G01*
G37*
G36*
G01*
X122778000Y-64264250D02*
X122778000Y-63751750D01*
G75*
G02*
X122996750Y-63533000I218750J0D01*
G01*
X123434250Y-63533000D01*
G75*
G02*
X123653000Y-63751750I0J-218750D01*
G01*
X123653000Y-64264250D01*
G75*
G02*
X123434250Y-64483000I-218750J0D01*
G01*
X122996750Y-64483000D01*
G75*
G02*
X122778000Y-64264250I0J218750D01*
G01*
G37*
%TD*%
%TO.C,R2*%
G36*
G01*
X145793750Y-68930000D02*
X146306250Y-68930000D01*
G75*
G02*
X146525000Y-69148750I0J-218750D01*
G01*
X146525000Y-69586250D01*
G75*
G02*
X146306250Y-69805000I-218750J0D01*
G01*
X145793750Y-69805000D01*
G75*
G02*
X145575000Y-69586250I0J218750D01*
G01*
X145575000Y-69148750D01*
G75*
G02*
X145793750Y-68930000I218750J0D01*
G01*
G37*
G36*
G01*
X145793750Y-67355000D02*
X146306250Y-67355000D01*
G75*
G02*
X146525000Y-67573750I0J-218750D01*
G01*
X146525000Y-68011250D01*
G75*
G02*
X146306250Y-68230000I-218750J0D01*
G01*
X145793750Y-68230000D01*
G75*
G02*
X145575000Y-68011250I0J218750D01*
G01*
X145575000Y-67573750D01*
G75*
G02*
X145793750Y-67355000I218750J0D01*
G01*
G37*
%TD*%
%TO.C,R3*%
G36*
G01*
X146306250Y-111715000D02*
X145793750Y-111715000D01*
G75*
G02*
X145575000Y-111496250I0J218750D01*
G01*
X145575000Y-111058750D01*
G75*
G02*
X145793750Y-110840000I218750J0D01*
G01*
X146306250Y-110840000D01*
G75*
G02*
X146525000Y-111058750I0J-218750D01*
G01*
X146525000Y-111496250D01*
G75*
G02*
X146306250Y-111715000I-218750J0D01*
G01*
G37*
G36*
G01*
X146306250Y-110140000D02*
X145793750Y-110140000D01*
G75*
G02*
X145575000Y-109921250I0J218750D01*
G01*
X145575000Y-109483750D01*
G75*
G02*
X145793750Y-109265000I218750J0D01*
G01*
X146306250Y-109265000D01*
G75*
G02*
X146525000Y-109483750I0J-218750D01*
G01*
X146525000Y-109921250D01*
G75*
G02*
X146306250Y-110140000I-218750J0D01*
G01*
G37*
%TD*%
%TO.C,R4*%
G36*
G01*
X140713750Y-68930000D02*
X141226250Y-68930000D01*
G75*
G02*
X141445000Y-69148750I0J-218750D01*
G01*
X141445000Y-69586250D01*
G75*
G02*
X141226250Y-69805000I-218750J0D01*
G01*
X140713750Y-69805000D01*
G75*
G02*
X140495000Y-69586250I0J218750D01*
G01*
X140495000Y-69148750D01*
G75*
G02*
X140713750Y-68930000I218750J0D01*
G01*
G37*
G36*
G01*
X140713750Y-67355000D02*
X141226250Y-67355000D01*
G75*
G02*
X141445000Y-67573750I0J-218750D01*
G01*
X141445000Y-68011250D01*
G75*
G02*
X141226250Y-68230000I-218750J0D01*
G01*
X140713750Y-68230000D01*
G75*
G02*
X140495000Y-68011250I0J218750D01*
G01*
X140495000Y-67573750D01*
G75*
G02*
X140713750Y-67355000I218750J0D01*
G01*
G37*
%TD*%
%TO.C,R5*%
G36*
G01*
X141226250Y-111715000D02*
X140713750Y-111715000D01*
G75*
G02*
X140495000Y-111496250I0J218750D01*
G01*
X140495000Y-111058750D01*
G75*
G02*
X140713750Y-110840000I218750J0D01*
G01*
X141226250Y-110840000D01*
G75*
G02*
X141445000Y-111058750I0J-218750D01*
G01*
X141445000Y-111496250D01*
G75*
G02*
X141226250Y-111715000I-218750J0D01*
G01*
G37*
G36*
G01*
X141226250Y-110140000D02*
X140713750Y-110140000D01*
G75*
G02*
X140495000Y-109921250I0J218750D01*
G01*
X140495000Y-109483750D01*
G75*
G02*
X140713750Y-109265000I218750J0D01*
G01*
X141226250Y-109265000D01*
G75*
G02*
X141445000Y-109483750I0J-218750D01*
G01*
X141445000Y-109921250D01*
G75*
G02*
X141226250Y-110140000I-218750J0D01*
G01*
G37*
%TD*%
%TO.C,R6*%
G36*
G01*
X129495000Y-93723750D02*
X129495000Y-94236250D01*
G75*
G02*
X129276250Y-94455000I-218750J0D01*
G01*
X128838750Y-94455000D01*
G75*
G02*
X128620000Y-94236250I0J218750D01*
G01*
X128620000Y-93723750D01*
G75*
G02*
X128838750Y-93505000I218750J0D01*
G01*
X129276250Y-93505000D01*
G75*
G02*
X129495000Y-93723750I0J-218750D01*
G01*
G37*
G36*
G01*
X127920000Y-93723750D02*
X127920000Y-94236250D01*
G75*
G02*
X127701250Y-94455000I-218750J0D01*
G01*
X127263750Y-94455000D01*
G75*
G02*
X127045000Y-94236250I0J218750D01*
G01*
X127045000Y-93723750D01*
G75*
G02*
X127263750Y-93505000I218750J0D01*
G01*
X127701250Y-93505000D01*
G75*
G02*
X127920000Y-93723750I0J-218750D01*
G01*
G37*
%TD*%
%TO.C,R7*%
G36*
G01*
X129495000Y-91183750D02*
X129495000Y-91696250D01*
G75*
G02*
X129276250Y-91915000I-218750J0D01*
G01*
X128838750Y-91915000D01*
G75*
G02*
X128620000Y-91696250I0J218750D01*
G01*
X128620000Y-91183750D01*
G75*
G02*
X128838750Y-90965000I218750J0D01*
G01*
X129276250Y-90965000D01*
G75*
G02*
X129495000Y-91183750I0J-218750D01*
G01*
G37*
G36*
G01*
X127920000Y-91183750D02*
X127920000Y-91696250D01*
G75*
G02*
X127701250Y-91915000I-218750J0D01*
G01*
X127263750Y-91915000D01*
G75*
G02*
X127045000Y-91696250I0J218750D01*
G01*
X127045000Y-91183750D01*
G75*
G02*
X127263750Y-90965000I218750J0D01*
G01*
X127701250Y-90965000D01*
G75*
G02*
X127920000Y-91183750I0J-218750D01*
G01*
G37*
%TD*%
%TO.C,R8*%
G36*
G01*
X129495000Y-88643750D02*
X129495000Y-89156250D01*
G75*
G02*
X129276250Y-89375000I-218750J0D01*
G01*
X128838750Y-89375000D01*
G75*
G02*
X128620000Y-89156250I0J218750D01*
G01*
X128620000Y-88643750D01*
G75*
G02*
X128838750Y-88425000I218750J0D01*
G01*
X129276250Y-88425000D01*
G75*
G02*
X129495000Y-88643750I0J-218750D01*
G01*
G37*
G36*
G01*
X127920000Y-88643750D02*
X127920000Y-89156250D01*
G75*
G02*
X127701250Y-89375000I-218750J0D01*
G01*
X127263750Y-89375000D01*
G75*
G02*
X127045000Y-89156250I0J218750D01*
G01*
X127045000Y-88643750D01*
G75*
G02*
X127263750Y-88425000I218750J0D01*
G01*
X127701250Y-88425000D01*
G75*
G02*
X127920000Y-88643750I0J-218750D01*
G01*
G37*
%TD*%
%TO.C,R9*%
G36*
G01*
X129495000Y-86103750D02*
X129495000Y-86616250D01*
G75*
G02*
X129276250Y-86835000I-218750J0D01*
G01*
X128838750Y-86835000D01*
G75*
G02*
X128620000Y-86616250I0J218750D01*
G01*
X128620000Y-86103750D01*
G75*
G02*
X128838750Y-85885000I218750J0D01*
G01*
X129276250Y-85885000D01*
G75*
G02*
X129495000Y-86103750I0J-218750D01*
G01*
G37*
G36*
G01*
X127920000Y-86103750D02*
X127920000Y-86616250D01*
G75*
G02*
X127701250Y-86835000I-218750J0D01*
G01*
X127263750Y-86835000D01*
G75*
G02*
X127045000Y-86616250I0J218750D01*
G01*
X127045000Y-86103750D01*
G75*
G02*
X127263750Y-85885000I218750J0D01*
G01*
X127701250Y-85885000D01*
G75*
G02*
X127920000Y-86103750I0J-218750D01*
G01*
G37*
%TD*%
%TO.C,R10*%
G36*
G01*
X129495000Y-83563750D02*
X129495000Y-84076250D01*
G75*
G02*
X129276250Y-84295000I-218750J0D01*
G01*
X128838750Y-84295000D01*
G75*
G02*
X128620000Y-84076250I0J218750D01*
G01*
X128620000Y-83563750D01*
G75*
G02*
X128838750Y-83345000I218750J0D01*
G01*
X129276250Y-83345000D01*
G75*
G02*
X129495000Y-83563750I0J-218750D01*
G01*
G37*
G36*
G01*
X127920000Y-83563750D02*
X127920000Y-84076250D01*
G75*
G02*
X127701250Y-84295000I-218750J0D01*
G01*
X127263750Y-84295000D01*
G75*
G02*
X127045000Y-84076250I0J218750D01*
G01*
X127045000Y-83563750D01*
G75*
G02*
X127263750Y-83345000I218750J0D01*
G01*
X127701250Y-83345000D01*
G75*
G02*
X127920000Y-83563750I0J-218750D01*
G01*
G37*
%TD*%
%TO.C,U1*%
G36*
G01*
X150645000Y-87400000D02*
X150345000Y-87400000D01*
G75*
G02*
X150195000Y-87250000I0J150000D01*
G01*
X150195000Y-85600000D01*
G75*
G02*
X150345000Y-85450000I150000J0D01*
G01*
X150645000Y-85450000D01*
G75*
G02*
X150795000Y-85600000I0J-150000D01*
G01*
X150795000Y-87250000D01*
G75*
G02*
X150645000Y-87400000I-150000J0D01*
G01*
G37*
G36*
G01*
X151915000Y-87400000D02*
X151615000Y-87400000D01*
G75*
G02*
X151465000Y-87250000I0J150000D01*
G01*
X151465000Y-85600000D01*
G75*
G02*
X151615000Y-85450000I150000J0D01*
G01*
X151915000Y-85450000D01*
G75*
G02*
X152065000Y-85600000I0J-150000D01*
G01*
X152065000Y-87250000D01*
G75*
G02*
X151915000Y-87400000I-150000J0D01*
G01*
G37*
G36*
G01*
X153185000Y-87400000D02*
X152885000Y-87400000D01*
G75*
G02*
X152735000Y-87250000I0J150000D01*
G01*
X152735000Y-85600000D01*
G75*
G02*
X152885000Y-85450000I150000J0D01*
G01*
X153185000Y-85450000D01*
G75*
G02*
X153335000Y-85600000I0J-150000D01*
G01*
X153335000Y-87250000D01*
G75*
G02*
X153185000Y-87400000I-150000J0D01*
G01*
G37*
G36*
G01*
X154455000Y-87400000D02*
X154155000Y-87400000D01*
G75*
G02*
X154005000Y-87250000I0J150000D01*
G01*
X154005000Y-85600000D01*
G75*
G02*
X154155000Y-85450000I150000J0D01*
G01*
X154455000Y-85450000D01*
G75*
G02*
X154605000Y-85600000I0J-150000D01*
G01*
X154605000Y-87250000D01*
G75*
G02*
X154455000Y-87400000I-150000J0D01*
G01*
G37*
G36*
G01*
X154455000Y-92350000D02*
X154155000Y-92350000D01*
G75*
G02*
X154005000Y-92200000I0J150000D01*
G01*
X154005000Y-90550000D01*
G75*
G02*
X154155000Y-90400000I150000J0D01*
G01*
X154455000Y-90400000D01*
G75*
G02*
X154605000Y-90550000I0J-150000D01*
G01*
X154605000Y-92200000D01*
G75*
G02*
X154455000Y-92350000I-150000J0D01*
G01*
G37*
G36*
G01*
X153185000Y-92350000D02*
X152885000Y-92350000D01*
G75*
G02*
X152735000Y-92200000I0J150000D01*
G01*
X152735000Y-90550000D01*
G75*
G02*
X152885000Y-90400000I150000J0D01*
G01*
X153185000Y-90400000D01*
G75*
G02*
X153335000Y-90550000I0J-150000D01*
G01*
X153335000Y-92200000D01*
G75*
G02*
X153185000Y-92350000I-150000J0D01*
G01*
G37*
G36*
G01*
X151915000Y-92350000D02*
X151615000Y-92350000D01*
G75*
G02*
X151465000Y-92200000I0J150000D01*
G01*
X151465000Y-90550000D01*
G75*
G02*
X151615000Y-90400000I150000J0D01*
G01*
X151915000Y-90400000D01*
G75*
G02*
X152065000Y-90550000I0J-150000D01*
G01*
X152065000Y-92200000D01*
G75*
G02*
X151915000Y-92350000I-150000J0D01*
G01*
G37*
G36*
G01*
X150645000Y-92350000D02*
X150345000Y-92350000D01*
G75*
G02*
X150195000Y-92200000I0J150000D01*
G01*
X150195000Y-90550000D01*
G75*
G02*
X150345000Y-90400000I150000J0D01*
G01*
X150645000Y-90400000D01*
G75*
G02*
X150795000Y-90550000I0J-150000D01*
G01*
X150795000Y-92200000D01*
G75*
G02*
X150645000Y-92350000I-150000J0D01*
G01*
G37*
%TD*%
M02*
