%TF.GenerationSoftware,KiCad,Pcbnew,(5.1.7)-1*%
%TF.CreationDate,2021-04-21T22:03:08-05:00*%
%TF.ProjectId,instrumentation_amplifier,696e7374-7275-46d6-956e-746174696f6e,1.0*%
%TF.SameCoordinates,Original*%
%TF.FileFunction,Legend,Bot*%
%TF.FilePolarity,Positive*%
%FSLAX46Y46*%
G04 Gerber Fmt 4.6, Leading zero omitted, Abs format (unit mm)*
G04 Created by KiCad (PCBNEW (5.1.7)-1) date 2021-04-21 22:03:08*
%MOMM*%
%LPD*%
G01*
G04 APERTURE LIST*
%ADD10C,0.300000*%
G04 APERTURE END LIST*
D10*
X221058571Y-52386571D02*
X220130000Y-52386571D01*
X220630000Y-52958000D01*
X220415714Y-52958000D01*
X220272857Y-53029428D01*
X220201428Y-53100857D01*
X220130000Y-53243714D01*
X220130000Y-53600857D01*
X220201428Y-53743714D01*
X220272857Y-53815142D01*
X220415714Y-53886571D01*
X220844285Y-53886571D01*
X220987142Y-53815142D01*
X221058571Y-53743714D01*
X219487142Y-53315142D02*
X218344285Y-53315142D01*
X217344285Y-52386571D02*
X217201428Y-52386571D01*
X217058571Y-52458000D01*
X216987142Y-52529428D01*
X216915714Y-52672285D01*
X216844285Y-52958000D01*
X216844285Y-53315142D01*
X216915714Y-53600857D01*
X216987142Y-53743714D01*
X217058571Y-53815142D01*
X217201428Y-53886571D01*
X217344285Y-53886571D01*
X217487142Y-53815142D01*
X217558571Y-53743714D01*
X217630000Y-53600857D01*
X217701428Y-53315142D01*
X217701428Y-52958000D01*
X217630000Y-52672285D01*
X217558571Y-52529428D01*
X217487142Y-52458000D01*
X217344285Y-52386571D01*
X215915714Y-52386571D02*
X215772857Y-52386571D01*
X215630000Y-52458000D01*
X215558571Y-52529428D01*
X215487142Y-52672285D01*
X215415714Y-52958000D01*
X215415714Y-53315142D01*
X215487142Y-53600857D01*
X215558571Y-53743714D01*
X215630000Y-53815142D01*
X215772857Y-53886571D01*
X215915714Y-53886571D01*
X216058571Y-53815142D01*
X216130000Y-53743714D01*
X216201428Y-53600857D01*
X216272857Y-53315142D01*
X216272857Y-52958000D01*
X216201428Y-52672285D01*
X216130000Y-52529428D01*
X216058571Y-52458000D01*
X215915714Y-52386571D01*
X214487142Y-52386571D02*
X214344285Y-52386571D01*
X214201428Y-52458000D01*
X214130000Y-52529428D01*
X214058571Y-52672285D01*
X213987142Y-52958000D01*
X213987142Y-53315142D01*
X214058571Y-53600857D01*
X214130000Y-53743714D01*
X214201428Y-53815142D01*
X214344285Y-53886571D01*
X214487142Y-53886571D01*
X214630000Y-53815142D01*
X214701428Y-53743714D01*
X214772857Y-53600857D01*
X214844285Y-53315142D01*
X214844285Y-52958000D01*
X214772857Y-52672285D01*
X214701428Y-52529428D01*
X214630000Y-52458000D01*
X214487142Y-52386571D01*
X213058571Y-52386571D02*
X212915714Y-52386571D01*
X212772857Y-52458000D01*
X212701428Y-52529428D01*
X212630000Y-52672285D01*
X212558571Y-52958000D01*
X212558571Y-53315142D01*
X212630000Y-53600857D01*
X212701428Y-53743714D01*
X212772857Y-53815142D01*
X212915714Y-53886571D01*
X213058571Y-53886571D01*
X213201428Y-53815142D01*
X213272857Y-53743714D01*
X213344285Y-53600857D01*
X213415714Y-53315142D01*
X213415714Y-52958000D01*
X213344285Y-52672285D01*
X213272857Y-52529428D01*
X213201428Y-52458000D01*
X213058571Y-52386571D01*
X211630000Y-52386571D02*
X211487142Y-52386571D01*
X211344285Y-52458000D01*
X211272857Y-52529428D01*
X211201428Y-52672285D01*
X211130000Y-52958000D01*
X211130000Y-53315142D01*
X211201428Y-53600857D01*
X211272857Y-53743714D01*
X211344285Y-53815142D01*
X211487142Y-53886571D01*
X211630000Y-53886571D01*
X211772857Y-53815142D01*
X211844285Y-53743714D01*
X211915714Y-53600857D01*
X211987142Y-53315142D01*
X211987142Y-52958000D01*
X211915714Y-52672285D01*
X211844285Y-52529428D01*
X211772857Y-52458000D01*
X211630000Y-52386571D01*
X210272857Y-53029428D02*
X210415714Y-52958000D01*
X210487142Y-52886571D01*
X210558571Y-52743714D01*
X210558571Y-52672285D01*
X210487142Y-52529428D01*
X210415714Y-52458000D01*
X210272857Y-52386571D01*
X209987142Y-52386571D01*
X209844285Y-52458000D01*
X209772857Y-52529428D01*
X209701428Y-52672285D01*
X209701428Y-52743714D01*
X209772857Y-52886571D01*
X209844285Y-52958000D01*
X209987142Y-53029428D01*
X210272857Y-53029428D01*
X210415714Y-53100857D01*
X210487142Y-53172285D01*
X210558571Y-53315142D01*
X210558571Y-53600857D01*
X210487142Y-53743714D01*
X210415714Y-53815142D01*
X210272857Y-53886571D01*
X209987142Y-53886571D01*
X209844285Y-53815142D01*
X209772857Y-53743714D01*
X209701428Y-53600857D01*
X209701428Y-53315142D01*
X209772857Y-53172285D01*
X209844285Y-53100857D01*
X209987142Y-53029428D01*
X209130000Y-52529428D02*
X209058571Y-52458000D01*
X208915714Y-52386571D01*
X208558571Y-52386571D01*
X208415714Y-52458000D01*
X208344285Y-52529428D01*
X208272857Y-52672285D01*
X208272857Y-52815142D01*
X208344285Y-53029428D01*
X209201428Y-53886571D01*
X208272857Y-53886571D01*
X221058571Y-54936571D02*
X220058571Y-54936571D01*
X220701428Y-56436571D01*
X219487142Y-55865142D02*
X218344285Y-55865142D01*
X217344285Y-54936571D02*
X217201428Y-54936571D01*
X217058571Y-55008000D01*
X216987142Y-55079428D01*
X216915714Y-55222285D01*
X216844285Y-55508000D01*
X216844285Y-55865142D01*
X216915714Y-56150857D01*
X216987142Y-56293714D01*
X217058571Y-56365142D01*
X217201428Y-56436571D01*
X217344285Y-56436571D01*
X217487142Y-56365142D01*
X217558571Y-56293714D01*
X217630000Y-56150857D01*
X217701428Y-55865142D01*
X217701428Y-55508000D01*
X217630000Y-55222285D01*
X217558571Y-55079428D01*
X217487142Y-55008000D01*
X217344285Y-54936571D01*
X215915714Y-54936571D02*
X215772857Y-54936571D01*
X215630000Y-55008000D01*
X215558571Y-55079428D01*
X215487142Y-55222285D01*
X215415714Y-55508000D01*
X215415714Y-55865142D01*
X215487142Y-56150857D01*
X215558571Y-56293714D01*
X215630000Y-56365142D01*
X215772857Y-56436571D01*
X215915714Y-56436571D01*
X216058571Y-56365142D01*
X216130000Y-56293714D01*
X216201428Y-56150857D01*
X216272857Y-55865142D01*
X216272857Y-55508000D01*
X216201428Y-55222285D01*
X216130000Y-55079428D01*
X216058571Y-55008000D01*
X215915714Y-54936571D01*
X214487142Y-54936571D02*
X214344285Y-54936571D01*
X214201428Y-55008000D01*
X214130000Y-55079428D01*
X214058571Y-55222285D01*
X213987142Y-55508000D01*
X213987142Y-55865142D01*
X214058571Y-56150857D01*
X214130000Y-56293714D01*
X214201428Y-56365142D01*
X214344285Y-56436571D01*
X214487142Y-56436571D01*
X214630000Y-56365142D01*
X214701428Y-56293714D01*
X214772857Y-56150857D01*
X214844285Y-55865142D01*
X214844285Y-55508000D01*
X214772857Y-55222285D01*
X214701428Y-55079428D01*
X214630000Y-55008000D01*
X214487142Y-54936571D01*
X213058571Y-54936571D02*
X212915714Y-54936571D01*
X212772857Y-55008000D01*
X212701428Y-55079428D01*
X212630000Y-55222285D01*
X212558571Y-55508000D01*
X212558571Y-55865142D01*
X212630000Y-56150857D01*
X212701428Y-56293714D01*
X212772857Y-56365142D01*
X212915714Y-56436571D01*
X213058571Y-56436571D01*
X213201428Y-56365142D01*
X213272857Y-56293714D01*
X213344285Y-56150857D01*
X213415714Y-55865142D01*
X213415714Y-55508000D01*
X213344285Y-55222285D01*
X213272857Y-55079428D01*
X213201428Y-55008000D01*
X213058571Y-54936571D01*
X211630000Y-54936571D02*
X211487142Y-54936571D01*
X211344285Y-55008000D01*
X211272857Y-55079428D01*
X211201428Y-55222285D01*
X211130000Y-55508000D01*
X211130000Y-55865142D01*
X211201428Y-56150857D01*
X211272857Y-56293714D01*
X211344285Y-56365142D01*
X211487142Y-56436571D01*
X211630000Y-56436571D01*
X211772857Y-56365142D01*
X211844285Y-56293714D01*
X211915714Y-56150857D01*
X211987142Y-55865142D01*
X211987142Y-55508000D01*
X211915714Y-55222285D01*
X211844285Y-55079428D01*
X211772857Y-55008000D01*
X211630000Y-54936571D01*
X210630000Y-54936571D02*
X209701428Y-54936571D01*
X210201428Y-55508000D01*
X209987142Y-55508000D01*
X209844285Y-55579428D01*
X209772857Y-55650857D01*
X209701428Y-55793714D01*
X209701428Y-56150857D01*
X209772857Y-56293714D01*
X209844285Y-56365142D01*
X209987142Y-56436571D01*
X210415714Y-56436571D01*
X210558571Y-56365142D01*
X210630000Y-56293714D01*
X208844285Y-55579428D02*
X208987142Y-55508000D01*
X209058571Y-55436571D01*
X209130000Y-55293714D01*
X209130000Y-55222285D01*
X209058571Y-55079428D01*
X208987142Y-55008000D01*
X208844285Y-54936571D01*
X208558571Y-54936571D01*
X208415714Y-55008000D01*
X208344285Y-55079428D01*
X208272857Y-55222285D01*
X208272857Y-55293714D01*
X208344285Y-55436571D01*
X208415714Y-55508000D01*
X208558571Y-55579428D01*
X208844285Y-55579428D01*
X208987142Y-55650857D01*
X209058571Y-55722285D01*
X209130000Y-55865142D01*
X209130000Y-56150857D01*
X209058571Y-56293714D01*
X208987142Y-56365142D01*
X208844285Y-56436571D01*
X208558571Y-56436571D01*
X208415714Y-56365142D01*
X208344285Y-56293714D01*
X208272857Y-56150857D01*
X208272857Y-55865142D01*
X208344285Y-55722285D01*
X208415714Y-55650857D01*
X208558571Y-55579428D01*
M02*
