M48
; DRILL file {KiCad (5.1.7)-1} date 04/21/21 22:03:10
; FORMAT={-:-/ absolute / inch / decimal}
; #@! TF.CreationDate,2021-04-21T22:03:10-05:00
; #@! TF.GenerationSoftware,Kicad,Pcbnew,(5.1.7)-1
; #@! TF.FileFunction,Plated,1,2,PTH
FMAT,2
INCH
T1C0.0100
T2C0.0315
T3C0.0319
T4C0.0394
%
G90
G05
T1
X4.9Y-2.435
X4.9Y-2.52
X5.64Y-3.495
X5.91Y-3.95
X5.95Y-3.05
X5.995Y-4.03
X6.025Y-3.675
T2
X5.35Y-3.35
X5.35Y-3.65
X5.45Y-3.35
X5.45Y-3.65
X5.55Y-3.35
X5.55Y-3.65
X5.65Y-3.35
X5.65Y-3.65
T3
X4.202Y-3.939
X4.202Y-4.039
X4.202Y-4.139
X4.202Y-4.239
X4.202Y-4.439
X4.202Y-4.539
X4.202Y-4.639
T4
X6.36Y-3.45
X6.36Y-3.55
X5.6Y-2.9
X5.6Y-3.0
X5.7Y-2.9
X5.7Y-3.0
X4.68Y-4.25
X4.68Y-4.35
X4.68Y-4.45
X4.68Y-4.55
X5.6Y-4.0
X5.6Y-4.1
X5.7Y-4.0
X5.7Y-4.1
X4.7Y-3.45
X4.7Y-3.55
T0
M30
