%TF.GenerationSoftware,KiCad,Pcbnew,(5.1.7)-1*%
%TF.CreationDate,2021-04-21T22:03:08-05:00*%
%TF.ProjectId,instrumentation_amplifier,696e7374-7275-46d6-956e-746174696f6e,1.0*%
%TF.SameCoordinates,Original*%
%TF.FileFunction,Copper,L2,Bot*%
%TF.FilePolarity,Positive*%
%FSLAX46Y46*%
G04 Gerber Fmt 4.6, Leading zero omitted, Abs format (unit mm)*
G04 Created by KiCad (PCBNEW (5.1.7)-1) date 2021-04-21 22:03:08*
%MOMM*%
%LPD*%
G01*
G04 APERTURE LIST*
%TA.AperFunction,ComponentPad*%
%ADD10O,1.700000X1.700000*%
%TD*%
%TA.AperFunction,ComponentPad*%
%ADD11R,1.700000X1.700000*%
%TD*%
%TA.AperFunction,ComponentPad*%
%ADD12C,1.509000*%
%TD*%
%TA.AperFunction,ComponentPad*%
%ADD13C,1.308000*%
%TD*%
%TA.AperFunction,ComponentPad*%
%ADD14R,1.308000X1.308000*%
%TD*%
%TA.AperFunction,ViaPad*%
%ADD15C,0.508000*%
%TD*%
%TA.AperFunction,Conductor*%
%ADD16C,0.304800*%
%TD*%
%TA.AperFunction,Conductor*%
%ADD17C,0.254000*%
%TD*%
%TA.AperFunction,Conductor*%
%ADD18C,0.100000*%
%TD*%
G04 APERTURE END LIST*
D10*
%TO.P,J1,2*%
%TO.N,Net-(J1-Pad2)*%
X119380000Y-87630000D03*
D11*
%TO.P,J1,1*%
%TO.N,Net-(J1-Pad1)*%
X119380000Y-90170000D03*
%TD*%
D12*
%TO.P,U2,1*%
%TO.N,Net-(CON1-Pad2)*%
X106730000Y-117830000D03*
%TO.P,U2,2*%
%TO.N,Net-(CON1-Pad1)*%
X106730000Y-115290000D03*
%TO.P,U2,3*%
%TO.N,N/C*%
X106730000Y-112750000D03*
%TO.P,U2,5*%
X106730000Y-107670000D03*
%TO.P,U2,6*%
%TO.N,+5V*%
X106730000Y-105130000D03*
%TO.P,U2,7*%
%TO.N,GND*%
X106730000Y-102590000D03*
%TO.P,U2,8*%
%TO.N,-5V*%
X106730000Y-100050000D03*
%TD*%
D10*
%TO.P,J2,4*%
%TO.N,Net-(J1-Pad1)*%
X142240000Y-101600000D03*
%TO.P,J2,3*%
%TO.N,Net-(J2-Pad3)*%
X144780000Y-101600000D03*
%TO.P,J2,2*%
%TO.N,Net-(J2-Pad2)*%
X142240000Y-104140000D03*
D11*
%TO.P,J2,1*%
%TO.N,Net-(J2-Pad1)*%
X144780000Y-104140000D03*
%TD*%
%TO.P,J3,1*%
%TO.N,Net-(J3-Pad1)*%
X142240000Y-73660000D03*
D10*
%TO.P,J3,2*%
%TO.N,Net-(J3-Pad2)*%
X144780000Y-73660000D03*
%TO.P,J3,3*%
%TO.N,Net-(J1-Pad2)*%
X142240000Y-76200000D03*
%TO.P,J3,4*%
X144780000Y-76200000D03*
%TD*%
D11*
%TO.P,J4,1*%
%TO.N,Net-(J4-Pad1)*%
X161544000Y-87630000D03*
D10*
%TO.P,J4,2*%
%TO.N,GND*%
X161544000Y-90170000D03*
%TD*%
D13*
%TO.P,SW1,3*%
%TO.N,Net-(R8-Pad1)*%
X143510000Y-85090000D03*
%TO.P,SW1,2*%
%TO.N,Net-(R9-Pad1)*%
X140970000Y-85090000D03*
%TO.P,SW1,C*%
%TO.N,Net-(SW1-PadC)*%
X138430000Y-85090000D03*
D14*
%TO.P,SW1,1*%
%TO.N,Net-(R10-Pad1)*%
X135890000Y-85090000D03*
D13*
%TO.P,SW1,NC*%
%TO.N,N/C*%
X143510000Y-92710000D03*
%TO.P,SW1,C1*%
X140970000Y-92710000D03*
%TO.P,SW1,5*%
%TO.N,Net-(R6-Pad1)*%
X138430000Y-92710000D03*
%TO.P,SW1,4*%
%TO.N,Net-(R7-Pad1)*%
X135890000Y-92710000D03*
%TD*%
D11*
%TO.P,J5,1*%
%TO.N,+5V*%
X118872000Y-115570000D03*
D10*
%TO.P,J5,2*%
%TO.N,GND*%
X118872000Y-113030000D03*
%TO.P,J5,3*%
X118872000Y-110490000D03*
%TO.P,J5,4*%
%TO.N,-5V*%
X118872000Y-107950000D03*
%TD*%
D15*
%TO.N,+5V*%
X151130000Y-77470000D03*
X124460000Y-64008000D03*
%TO.N,GND*%
X150114000Y-100330000D03*
X152273000Y-102362000D03*
X124460000Y-61849000D03*
%TO.N,Net-(J1-Pad2)*%
X153035000Y-93345000D03*
%TO.N,Net-(R8-Pad1)*%
X143256000Y-88773000D03*
%TD*%
D16*
%TO.N,GND*%
X150241000Y-100330000D02*
X152273000Y-102362000D01*
X150114000Y-100330000D02*
X150241000Y-100330000D01*
%TO.N,Net-(J1-Pad2)*%
X142240000Y-76200000D02*
X144780000Y-76200000D01*
X153035000Y-84455000D02*
X144780000Y-76200000D01*
X153035000Y-93345000D02*
X153035000Y-84455000D01*
%TO.N,Net-(R8-Pad1)*%
X143510000Y-88519000D02*
X143510000Y-85090000D01*
X143256000Y-88773000D02*
X143510000Y-88519000D01*
%TD*%
D17*
%TO.N,+5V*%
X226424545Y-51498909D02*
X226775208Y-51604780D01*
X227098625Y-51776744D01*
X227382484Y-52008254D01*
X227615965Y-52290486D01*
X227790183Y-52612695D01*
X227898502Y-52962614D01*
X227940001Y-53357452D01*
X227940000Y-124427721D01*
X227901091Y-124824545D01*
X227795220Y-125175206D01*
X227623257Y-125498623D01*
X227391748Y-125782482D01*
X227109514Y-126015965D01*
X226787304Y-126190184D01*
X226437385Y-126298502D01*
X226042557Y-126340000D01*
X104172279Y-126340000D01*
X103775455Y-126301091D01*
X103424794Y-126195220D01*
X103101377Y-126023257D01*
X102817518Y-125791748D01*
X102584035Y-125509514D01*
X102409816Y-125187304D01*
X102301498Y-124837385D01*
X102260000Y-124442557D01*
X102260000Y-123604872D01*
X102540000Y-123604872D01*
X102540000Y-124045128D01*
X102625890Y-124476925D01*
X102794369Y-124883669D01*
X103038962Y-125249729D01*
X103350271Y-125561038D01*
X103716331Y-125805631D01*
X104123075Y-125974110D01*
X104554872Y-126060000D01*
X104995128Y-126060000D01*
X105426925Y-125974110D01*
X105833669Y-125805631D01*
X106199729Y-125561038D01*
X106511038Y-125249729D01*
X106755631Y-124883669D01*
X106924110Y-124476925D01*
X107010000Y-124045128D01*
X107010000Y-123604872D01*
X223190000Y-123604872D01*
X223190000Y-124045128D01*
X223275890Y-124476925D01*
X223444369Y-124883669D01*
X223688962Y-125249729D01*
X224000271Y-125561038D01*
X224366331Y-125805631D01*
X224773075Y-125974110D01*
X225204872Y-126060000D01*
X225645128Y-126060000D01*
X226076925Y-125974110D01*
X226483669Y-125805631D01*
X226849729Y-125561038D01*
X227161038Y-125249729D01*
X227405631Y-124883669D01*
X227574110Y-124476925D01*
X227660000Y-124045128D01*
X227660000Y-123604872D01*
X227574110Y-123173075D01*
X227405631Y-122766331D01*
X227161038Y-122400271D01*
X226849729Y-122088962D01*
X226483669Y-121844369D01*
X226076925Y-121675890D01*
X225645128Y-121590000D01*
X225204872Y-121590000D01*
X224773075Y-121675890D01*
X224366331Y-121844369D01*
X224000271Y-122088962D01*
X223688962Y-122400271D01*
X223444369Y-122766331D01*
X223275890Y-123173075D01*
X223190000Y-123604872D01*
X107010000Y-123604872D01*
X106924110Y-123173075D01*
X106755631Y-122766331D01*
X106511038Y-122400271D01*
X106199729Y-122088962D01*
X105833669Y-121844369D01*
X105426925Y-121675890D01*
X104995128Y-121590000D01*
X104554872Y-121590000D01*
X104123075Y-121675890D01*
X103716331Y-121844369D01*
X103350271Y-122088962D01*
X103038962Y-122400271D01*
X102794369Y-122766331D01*
X102625890Y-123173075D01*
X102540000Y-123604872D01*
X102260000Y-123604872D01*
X102260000Y-112613146D01*
X105340500Y-112613146D01*
X105340500Y-112886854D01*
X105393898Y-113155302D01*
X105498641Y-113408175D01*
X105650705Y-113635754D01*
X105844246Y-113829295D01*
X106071825Y-113981359D01*
X106165113Y-114020000D01*
X106071825Y-114058641D01*
X105844246Y-114210705D01*
X105650705Y-114404246D01*
X105498641Y-114631825D01*
X105393898Y-114884698D01*
X105340500Y-115153146D01*
X105340500Y-115426854D01*
X105393898Y-115695302D01*
X105498641Y-115948175D01*
X105650705Y-116175754D01*
X105844246Y-116369295D01*
X106071825Y-116521359D01*
X106165113Y-116560000D01*
X106071825Y-116598641D01*
X105844246Y-116750705D01*
X105650705Y-116944246D01*
X105498641Y-117171825D01*
X105393898Y-117424698D01*
X105340500Y-117693146D01*
X105340500Y-117966854D01*
X105393898Y-118235302D01*
X105498641Y-118488175D01*
X105650705Y-118715754D01*
X105844246Y-118909295D01*
X106071825Y-119061359D01*
X106324698Y-119166102D01*
X106593146Y-119219500D01*
X106866854Y-119219500D01*
X107135302Y-119166102D01*
X107388175Y-119061359D01*
X107615754Y-118909295D01*
X107809295Y-118715754D01*
X107961359Y-118488175D01*
X108066102Y-118235302D01*
X108119500Y-117966854D01*
X108119500Y-117693146D01*
X108066102Y-117424698D01*
X107961359Y-117171825D01*
X107809295Y-116944246D01*
X107615754Y-116750705D01*
X107388175Y-116598641D01*
X107294887Y-116560000D01*
X107388175Y-116521359D01*
X107539868Y-116420000D01*
X117383928Y-116420000D01*
X117396188Y-116544482D01*
X117432498Y-116664180D01*
X117491463Y-116774494D01*
X117570815Y-116871185D01*
X117667506Y-116950537D01*
X117777820Y-117009502D01*
X117897518Y-117045812D01*
X118022000Y-117058072D01*
X118586250Y-117055000D01*
X118745000Y-116896250D01*
X118745000Y-115697000D01*
X118999000Y-115697000D01*
X118999000Y-116896250D01*
X119157750Y-117055000D01*
X119722000Y-117058072D01*
X119846482Y-117045812D01*
X119966180Y-117009502D01*
X120076494Y-116950537D01*
X120173185Y-116871185D01*
X120252537Y-116774494D01*
X120311502Y-116664180D01*
X120347812Y-116544482D01*
X120360072Y-116420000D01*
X120357000Y-115855750D01*
X120198250Y-115697000D01*
X118999000Y-115697000D01*
X118745000Y-115697000D01*
X117545750Y-115697000D01*
X117387000Y-115855750D01*
X117383928Y-116420000D01*
X107539868Y-116420000D01*
X107615754Y-116369295D01*
X107809295Y-116175754D01*
X107961359Y-115948175D01*
X108066102Y-115695302D01*
X108119500Y-115426854D01*
X108119500Y-115153146D01*
X108066102Y-114884698D01*
X107997883Y-114720000D01*
X117383928Y-114720000D01*
X117387000Y-115284250D01*
X117545750Y-115443000D01*
X118745000Y-115443000D01*
X118745000Y-115423000D01*
X118999000Y-115423000D01*
X118999000Y-115443000D01*
X120198250Y-115443000D01*
X120357000Y-115284250D01*
X120360072Y-114720000D01*
X120347812Y-114595518D01*
X120311502Y-114475820D01*
X120252537Y-114365506D01*
X120173185Y-114268815D01*
X120076494Y-114189463D01*
X119966180Y-114130498D01*
X119893620Y-114108487D01*
X120025475Y-113976632D01*
X120187990Y-113733411D01*
X120299932Y-113463158D01*
X120357000Y-113176260D01*
X120357000Y-112883740D01*
X120299932Y-112596842D01*
X120187990Y-112326589D01*
X120025475Y-112083368D01*
X119818632Y-111876525D01*
X119644240Y-111760000D01*
X119818632Y-111643475D01*
X120025475Y-111436632D01*
X120187990Y-111193411D01*
X120299932Y-110923158D01*
X120357000Y-110636260D01*
X120357000Y-110343740D01*
X120299932Y-110056842D01*
X120187990Y-109786589D01*
X120025475Y-109543368D01*
X119818632Y-109336525D01*
X119644240Y-109220000D01*
X119818632Y-109103475D01*
X120025475Y-108896632D01*
X120187990Y-108653411D01*
X120299932Y-108383158D01*
X120357000Y-108096260D01*
X120357000Y-107803740D01*
X120299932Y-107516842D01*
X120187990Y-107246589D01*
X120025475Y-107003368D01*
X119818632Y-106796525D01*
X119575411Y-106634010D01*
X119305158Y-106522068D01*
X119018260Y-106465000D01*
X118725740Y-106465000D01*
X118438842Y-106522068D01*
X118168589Y-106634010D01*
X117925368Y-106796525D01*
X117718525Y-107003368D01*
X117556010Y-107246589D01*
X117444068Y-107516842D01*
X117387000Y-107803740D01*
X117387000Y-108096260D01*
X117444068Y-108383158D01*
X117556010Y-108653411D01*
X117718525Y-108896632D01*
X117925368Y-109103475D01*
X118099760Y-109220000D01*
X117925368Y-109336525D01*
X117718525Y-109543368D01*
X117556010Y-109786589D01*
X117444068Y-110056842D01*
X117387000Y-110343740D01*
X117387000Y-110636260D01*
X117444068Y-110923158D01*
X117556010Y-111193411D01*
X117718525Y-111436632D01*
X117925368Y-111643475D01*
X118099760Y-111760000D01*
X117925368Y-111876525D01*
X117718525Y-112083368D01*
X117556010Y-112326589D01*
X117444068Y-112596842D01*
X117387000Y-112883740D01*
X117387000Y-113176260D01*
X117444068Y-113463158D01*
X117556010Y-113733411D01*
X117718525Y-113976632D01*
X117850380Y-114108487D01*
X117777820Y-114130498D01*
X117667506Y-114189463D01*
X117570815Y-114268815D01*
X117491463Y-114365506D01*
X117432498Y-114475820D01*
X117396188Y-114595518D01*
X117383928Y-114720000D01*
X107997883Y-114720000D01*
X107961359Y-114631825D01*
X107809295Y-114404246D01*
X107615754Y-114210705D01*
X107388175Y-114058641D01*
X107294887Y-114020000D01*
X107388175Y-113981359D01*
X107615754Y-113829295D01*
X107809295Y-113635754D01*
X107961359Y-113408175D01*
X108066102Y-113155302D01*
X108119500Y-112886854D01*
X108119500Y-112613146D01*
X108066102Y-112344698D01*
X107961359Y-112091825D01*
X107809295Y-111864246D01*
X107615754Y-111670705D01*
X107388175Y-111518641D01*
X107135302Y-111413898D01*
X106866854Y-111360500D01*
X106593146Y-111360500D01*
X106324698Y-111413898D01*
X106071825Y-111518641D01*
X105844246Y-111670705D01*
X105650705Y-111864246D01*
X105498641Y-112091825D01*
X105393898Y-112344698D01*
X105340500Y-112613146D01*
X102260000Y-112613146D01*
X102260000Y-107533146D01*
X105340500Y-107533146D01*
X105340500Y-107806854D01*
X105393898Y-108075302D01*
X105498641Y-108328175D01*
X105650705Y-108555754D01*
X105844246Y-108749295D01*
X106071825Y-108901359D01*
X106324698Y-109006102D01*
X106593146Y-109059500D01*
X106866854Y-109059500D01*
X107135302Y-109006102D01*
X107388175Y-108901359D01*
X107615754Y-108749295D01*
X107809295Y-108555754D01*
X107961359Y-108328175D01*
X108066102Y-108075302D01*
X108119500Y-107806854D01*
X108119500Y-107533146D01*
X108066102Y-107264698D01*
X107961359Y-107011825D01*
X107809295Y-106784246D01*
X107615754Y-106590705D01*
X107388175Y-106438641D01*
X107299215Y-106401793D01*
X107330404Y-106390537D01*
X107444532Y-106329534D01*
X107510603Y-106090208D01*
X106730000Y-105309605D01*
X105949397Y-106090208D01*
X106015468Y-106329534D01*
X106165326Y-106399912D01*
X106071825Y-106438641D01*
X105844246Y-106590705D01*
X105650705Y-106784246D01*
X105498641Y-107011825D01*
X105393898Y-107264698D01*
X105340500Y-107533146D01*
X102260000Y-107533146D01*
X102260000Y-105202314D01*
X105335651Y-105202314D01*
X105376551Y-105472948D01*
X105469463Y-105730404D01*
X105530466Y-105844532D01*
X105769792Y-105910603D01*
X106550395Y-105130000D01*
X106909605Y-105130000D01*
X107690208Y-105910603D01*
X107929534Y-105844532D01*
X108045883Y-105596785D01*
X108111664Y-105331100D01*
X108124349Y-105057686D01*
X108083449Y-104787052D01*
X107990537Y-104529596D01*
X107929534Y-104415468D01*
X107690208Y-104349397D01*
X106909605Y-105130000D01*
X106550395Y-105130000D01*
X105769792Y-104349397D01*
X105530466Y-104415468D01*
X105414117Y-104663215D01*
X105348336Y-104928900D01*
X105335651Y-105202314D01*
X102260000Y-105202314D01*
X102260000Y-99913146D01*
X105340500Y-99913146D01*
X105340500Y-100186854D01*
X105393898Y-100455302D01*
X105498641Y-100708175D01*
X105650705Y-100935754D01*
X105844246Y-101129295D01*
X106071825Y-101281359D01*
X106165113Y-101320000D01*
X106071825Y-101358641D01*
X105844246Y-101510705D01*
X105650705Y-101704246D01*
X105498641Y-101931825D01*
X105393898Y-102184698D01*
X105340500Y-102453146D01*
X105340500Y-102726854D01*
X105393898Y-102995302D01*
X105498641Y-103248175D01*
X105650705Y-103475754D01*
X105844246Y-103669295D01*
X106071825Y-103821359D01*
X106160785Y-103858207D01*
X106129596Y-103869463D01*
X106015468Y-103930466D01*
X105949397Y-104169792D01*
X106730000Y-104950395D01*
X107510603Y-104169792D01*
X107444532Y-103930466D01*
X107294674Y-103860088D01*
X107388175Y-103821359D01*
X107615754Y-103669295D01*
X107809295Y-103475754D01*
X107961359Y-103248175D01*
X108066102Y-102995302D01*
X108119500Y-102726854D01*
X108119500Y-102453146D01*
X108066102Y-102184698D01*
X107961359Y-101931825D01*
X107809295Y-101704246D01*
X107615754Y-101510705D01*
X107530501Y-101453740D01*
X140755000Y-101453740D01*
X140755000Y-101746260D01*
X140812068Y-102033158D01*
X140924010Y-102303411D01*
X141086525Y-102546632D01*
X141293368Y-102753475D01*
X141467760Y-102870000D01*
X141293368Y-102986525D01*
X141086525Y-103193368D01*
X140924010Y-103436589D01*
X140812068Y-103706842D01*
X140755000Y-103993740D01*
X140755000Y-104286260D01*
X140812068Y-104573158D01*
X140924010Y-104843411D01*
X141086525Y-105086632D01*
X141293368Y-105293475D01*
X141536589Y-105455990D01*
X141806842Y-105567932D01*
X142093740Y-105625000D01*
X142386260Y-105625000D01*
X142673158Y-105567932D01*
X142943411Y-105455990D01*
X143186632Y-105293475D01*
X143318487Y-105161620D01*
X143340498Y-105234180D01*
X143399463Y-105344494D01*
X143478815Y-105441185D01*
X143575506Y-105520537D01*
X143685820Y-105579502D01*
X143805518Y-105615812D01*
X143930000Y-105628072D01*
X145630000Y-105628072D01*
X145754482Y-105615812D01*
X145874180Y-105579502D01*
X145984494Y-105520537D01*
X146081185Y-105441185D01*
X146160537Y-105344494D01*
X146219502Y-105234180D01*
X146255812Y-105114482D01*
X146268072Y-104990000D01*
X146268072Y-103290000D01*
X146255812Y-103165518D01*
X146219502Y-103045820D01*
X146160537Y-102935506D01*
X146081185Y-102838815D01*
X145984494Y-102759463D01*
X145874180Y-102700498D01*
X145801620Y-102678487D01*
X145933475Y-102546632D01*
X146095990Y-102303411D01*
X146207932Y-102033158D01*
X146265000Y-101746260D01*
X146265000Y-101453740D01*
X146207932Y-101166842D01*
X146095990Y-100896589D01*
X145933475Y-100653368D01*
X145726632Y-100446525D01*
X145483411Y-100284010D01*
X145383055Y-100242441D01*
X149225000Y-100242441D01*
X149225000Y-100417559D01*
X149259164Y-100589312D01*
X149326179Y-100751099D01*
X149423469Y-100896704D01*
X149547296Y-101020531D01*
X149692901Y-101117821D01*
X149854688Y-101184836D01*
X150013969Y-101216519D01*
X151418016Y-102620567D01*
X151418164Y-102621312D01*
X151485179Y-102783099D01*
X151582469Y-102928704D01*
X151706296Y-103052531D01*
X151851901Y-103149821D01*
X152013688Y-103216836D01*
X152185441Y-103251000D01*
X152360559Y-103251000D01*
X152532312Y-103216836D01*
X152694099Y-103149821D01*
X152839704Y-103052531D01*
X152963531Y-102928704D01*
X153060821Y-102783099D01*
X153127836Y-102621312D01*
X153162000Y-102449559D01*
X153162000Y-102274441D01*
X153127836Y-102102688D01*
X153060821Y-101940901D01*
X152963531Y-101795296D01*
X152839704Y-101671469D01*
X152694099Y-101574179D01*
X152532312Y-101507164D01*
X152531567Y-101507016D01*
X150838129Y-99813579D01*
X150804531Y-99763296D01*
X150680704Y-99639469D01*
X150535099Y-99542179D01*
X150373312Y-99475164D01*
X150201559Y-99441000D01*
X150026441Y-99441000D01*
X149854688Y-99475164D01*
X149692901Y-99542179D01*
X149547296Y-99639469D01*
X149423469Y-99763296D01*
X149326179Y-99908901D01*
X149259164Y-100070688D01*
X149225000Y-100242441D01*
X145383055Y-100242441D01*
X145213158Y-100172068D01*
X144926260Y-100115000D01*
X144633740Y-100115000D01*
X144346842Y-100172068D01*
X144076589Y-100284010D01*
X143833368Y-100446525D01*
X143626525Y-100653368D01*
X143510000Y-100827760D01*
X143393475Y-100653368D01*
X143186632Y-100446525D01*
X142943411Y-100284010D01*
X142673158Y-100172068D01*
X142386260Y-100115000D01*
X142093740Y-100115000D01*
X141806842Y-100172068D01*
X141536589Y-100284010D01*
X141293368Y-100446525D01*
X141086525Y-100653368D01*
X140924010Y-100896589D01*
X140812068Y-101166842D01*
X140755000Y-101453740D01*
X107530501Y-101453740D01*
X107388175Y-101358641D01*
X107294887Y-101320000D01*
X107388175Y-101281359D01*
X107615754Y-101129295D01*
X107809295Y-100935754D01*
X107961359Y-100708175D01*
X108066102Y-100455302D01*
X108119500Y-100186854D01*
X108119500Y-99913146D01*
X108066102Y-99644698D01*
X107961359Y-99391825D01*
X107809295Y-99164246D01*
X107615754Y-98970705D01*
X107388175Y-98818641D01*
X107135302Y-98713898D01*
X106866854Y-98660500D01*
X106593146Y-98660500D01*
X106324698Y-98713898D01*
X106071825Y-98818641D01*
X105844246Y-98970705D01*
X105650705Y-99164246D01*
X105498641Y-99391825D01*
X105393898Y-99644698D01*
X105340500Y-99913146D01*
X102260000Y-99913146D01*
X102260000Y-92583045D01*
X134601000Y-92583045D01*
X134601000Y-92836955D01*
X134650535Y-93085987D01*
X134747703Y-93320570D01*
X134888768Y-93531690D01*
X135068310Y-93711232D01*
X135279430Y-93852297D01*
X135514013Y-93949465D01*
X135763045Y-93999000D01*
X136016955Y-93999000D01*
X136265987Y-93949465D01*
X136500570Y-93852297D01*
X136711690Y-93711232D01*
X136891232Y-93531690D01*
X137032297Y-93320570D01*
X137129465Y-93085987D01*
X137160000Y-92932476D01*
X137190535Y-93085987D01*
X137287703Y-93320570D01*
X137428768Y-93531690D01*
X137608310Y-93711232D01*
X137819430Y-93852297D01*
X138054013Y-93949465D01*
X138303045Y-93999000D01*
X138556955Y-93999000D01*
X138805987Y-93949465D01*
X139040570Y-93852297D01*
X139251690Y-93711232D01*
X139431232Y-93531690D01*
X139572297Y-93320570D01*
X139669465Y-93085987D01*
X139700000Y-92932476D01*
X139730535Y-93085987D01*
X139827703Y-93320570D01*
X139968768Y-93531690D01*
X140148310Y-93711232D01*
X140359430Y-93852297D01*
X140594013Y-93949465D01*
X140843045Y-93999000D01*
X141096955Y-93999000D01*
X141345987Y-93949465D01*
X141580570Y-93852297D01*
X141791690Y-93711232D01*
X141971232Y-93531690D01*
X142112297Y-93320570D01*
X142209465Y-93085987D01*
X142240000Y-92932476D01*
X142270535Y-93085987D01*
X142367703Y-93320570D01*
X142508768Y-93531690D01*
X142688310Y-93711232D01*
X142899430Y-93852297D01*
X143134013Y-93949465D01*
X143383045Y-93999000D01*
X143636955Y-93999000D01*
X143885987Y-93949465D01*
X144120570Y-93852297D01*
X144331690Y-93711232D01*
X144511232Y-93531690D01*
X144652297Y-93320570D01*
X144749465Y-93085987D01*
X144799000Y-92836955D01*
X144799000Y-92583045D01*
X144749465Y-92334013D01*
X144652297Y-92099430D01*
X144511232Y-91888310D01*
X144331690Y-91708768D01*
X144120570Y-91567703D01*
X143885987Y-91470535D01*
X143636955Y-91421000D01*
X143383045Y-91421000D01*
X143134013Y-91470535D01*
X142899430Y-91567703D01*
X142688310Y-91708768D01*
X142508768Y-91888310D01*
X142367703Y-92099430D01*
X142270535Y-92334013D01*
X142240000Y-92487524D01*
X142209465Y-92334013D01*
X142112297Y-92099430D01*
X141971232Y-91888310D01*
X141791690Y-91708768D01*
X141580570Y-91567703D01*
X141345987Y-91470535D01*
X141096955Y-91421000D01*
X140843045Y-91421000D01*
X140594013Y-91470535D01*
X140359430Y-91567703D01*
X140148310Y-91708768D01*
X139968768Y-91888310D01*
X139827703Y-92099430D01*
X139730535Y-92334013D01*
X139700000Y-92487524D01*
X139669465Y-92334013D01*
X139572297Y-92099430D01*
X139431232Y-91888310D01*
X139251690Y-91708768D01*
X139040570Y-91567703D01*
X138805987Y-91470535D01*
X138556955Y-91421000D01*
X138303045Y-91421000D01*
X138054013Y-91470535D01*
X137819430Y-91567703D01*
X137608310Y-91708768D01*
X137428768Y-91888310D01*
X137287703Y-92099430D01*
X137190535Y-92334013D01*
X137160000Y-92487524D01*
X137129465Y-92334013D01*
X137032297Y-92099430D01*
X136891232Y-91888310D01*
X136711690Y-91708768D01*
X136500570Y-91567703D01*
X136265987Y-91470535D01*
X136016955Y-91421000D01*
X135763045Y-91421000D01*
X135514013Y-91470535D01*
X135279430Y-91567703D01*
X135068310Y-91708768D01*
X134888768Y-91888310D01*
X134747703Y-92099430D01*
X134650535Y-92334013D01*
X134601000Y-92583045D01*
X102260000Y-92583045D01*
X102260000Y-89320000D01*
X117891928Y-89320000D01*
X117891928Y-91020000D01*
X117904188Y-91144482D01*
X117940498Y-91264180D01*
X117999463Y-91374494D01*
X118078815Y-91471185D01*
X118175506Y-91550537D01*
X118285820Y-91609502D01*
X118405518Y-91645812D01*
X118530000Y-91658072D01*
X120230000Y-91658072D01*
X120354482Y-91645812D01*
X120474180Y-91609502D01*
X120584494Y-91550537D01*
X120681185Y-91471185D01*
X120760537Y-91374494D01*
X120819502Y-91264180D01*
X120855812Y-91144482D01*
X120868072Y-91020000D01*
X120868072Y-89320000D01*
X120855812Y-89195518D01*
X120819502Y-89075820D01*
X120760537Y-88965506D01*
X120681185Y-88868815D01*
X120584494Y-88789463D01*
X120474180Y-88730498D01*
X120401620Y-88708487D01*
X120533475Y-88576632D01*
X120695990Y-88333411D01*
X120807932Y-88063158D01*
X120865000Y-87776260D01*
X120865000Y-87483740D01*
X120807932Y-87196842D01*
X120695990Y-86926589D01*
X120533475Y-86683368D01*
X120326632Y-86476525D01*
X120083411Y-86314010D01*
X119813158Y-86202068D01*
X119526260Y-86145000D01*
X119233740Y-86145000D01*
X118946842Y-86202068D01*
X118676589Y-86314010D01*
X118433368Y-86476525D01*
X118226525Y-86683368D01*
X118064010Y-86926589D01*
X117952068Y-87196842D01*
X117895000Y-87483740D01*
X117895000Y-87776260D01*
X117952068Y-88063158D01*
X118064010Y-88333411D01*
X118226525Y-88576632D01*
X118358380Y-88708487D01*
X118285820Y-88730498D01*
X118175506Y-88789463D01*
X118078815Y-88868815D01*
X117999463Y-88965506D01*
X117940498Y-89075820D01*
X117904188Y-89195518D01*
X117891928Y-89320000D01*
X102260000Y-89320000D01*
X102260000Y-84436000D01*
X134597928Y-84436000D01*
X134597928Y-85744000D01*
X134610188Y-85868482D01*
X134646498Y-85988180D01*
X134705463Y-86098494D01*
X134784815Y-86195185D01*
X134881506Y-86274537D01*
X134991820Y-86333502D01*
X135111518Y-86369812D01*
X135236000Y-86382072D01*
X136544000Y-86382072D01*
X136668482Y-86369812D01*
X136788180Y-86333502D01*
X136898494Y-86274537D01*
X136995185Y-86195185D01*
X137074537Y-86098494D01*
X137133502Y-85988180D01*
X137169812Y-85868482D01*
X137182072Y-85744000D01*
X137182072Y-85423440D01*
X137190535Y-85465987D01*
X137287703Y-85700570D01*
X137428768Y-85911690D01*
X137608310Y-86091232D01*
X137819430Y-86232297D01*
X138054013Y-86329465D01*
X138303045Y-86379000D01*
X138556955Y-86379000D01*
X138805987Y-86329465D01*
X139040570Y-86232297D01*
X139251690Y-86091232D01*
X139431232Y-85911690D01*
X139572297Y-85700570D01*
X139669465Y-85465987D01*
X139700000Y-85312476D01*
X139730535Y-85465987D01*
X139827703Y-85700570D01*
X139968768Y-85911690D01*
X140148310Y-86091232D01*
X140359430Y-86232297D01*
X140594013Y-86329465D01*
X140843045Y-86379000D01*
X141096955Y-86379000D01*
X141345987Y-86329465D01*
X141580570Y-86232297D01*
X141791690Y-86091232D01*
X141971232Y-85911690D01*
X142112297Y-85700570D01*
X142209465Y-85465987D01*
X142240000Y-85312476D01*
X142270535Y-85465987D01*
X142367703Y-85700570D01*
X142508768Y-85911690D01*
X142688310Y-86091232D01*
X142722601Y-86114144D01*
X142722600Y-88060216D01*
X142689296Y-88082469D01*
X142565469Y-88206296D01*
X142468179Y-88351901D01*
X142401164Y-88513688D01*
X142367000Y-88685441D01*
X142367000Y-88860559D01*
X142401164Y-89032312D01*
X142468179Y-89194099D01*
X142565469Y-89339704D01*
X142689296Y-89463531D01*
X142834901Y-89560821D01*
X142996688Y-89627836D01*
X143168441Y-89662000D01*
X143343559Y-89662000D01*
X143515312Y-89627836D01*
X143677099Y-89560821D01*
X143822704Y-89463531D01*
X143946531Y-89339704D01*
X144043821Y-89194099D01*
X144110836Y-89032312D01*
X144111952Y-89026704D01*
X144167866Y-88958572D01*
X144240982Y-88821783D01*
X144286006Y-88673357D01*
X144297400Y-88557673D01*
X144297400Y-88557664D01*
X144301208Y-88519001D01*
X144297400Y-88480338D01*
X144297400Y-86114144D01*
X144331690Y-86091232D01*
X144511232Y-85911690D01*
X144652297Y-85700570D01*
X144749465Y-85465987D01*
X144799000Y-85216955D01*
X144799000Y-84963045D01*
X144749465Y-84714013D01*
X144652297Y-84479430D01*
X144511232Y-84268310D01*
X144331690Y-84088768D01*
X144120570Y-83947703D01*
X143885987Y-83850535D01*
X143636955Y-83801000D01*
X143383045Y-83801000D01*
X143134013Y-83850535D01*
X142899430Y-83947703D01*
X142688310Y-84088768D01*
X142508768Y-84268310D01*
X142367703Y-84479430D01*
X142270535Y-84714013D01*
X142240000Y-84867524D01*
X142209465Y-84714013D01*
X142112297Y-84479430D01*
X141971232Y-84268310D01*
X141791690Y-84088768D01*
X141580570Y-83947703D01*
X141345987Y-83850535D01*
X141096955Y-83801000D01*
X140843045Y-83801000D01*
X140594013Y-83850535D01*
X140359430Y-83947703D01*
X140148310Y-84088768D01*
X139968768Y-84268310D01*
X139827703Y-84479430D01*
X139730535Y-84714013D01*
X139700000Y-84867524D01*
X139669465Y-84714013D01*
X139572297Y-84479430D01*
X139431232Y-84268310D01*
X139251690Y-84088768D01*
X139040570Y-83947703D01*
X138805987Y-83850535D01*
X138556955Y-83801000D01*
X138303045Y-83801000D01*
X138054013Y-83850535D01*
X137819430Y-83947703D01*
X137608310Y-84088768D01*
X137428768Y-84268310D01*
X137287703Y-84479430D01*
X137190535Y-84714013D01*
X137182072Y-84756560D01*
X137182072Y-84436000D01*
X137169812Y-84311518D01*
X137133502Y-84191820D01*
X137074537Y-84081506D01*
X136995185Y-83984815D01*
X136898494Y-83905463D01*
X136788180Y-83846498D01*
X136668482Y-83810188D01*
X136544000Y-83797928D01*
X135236000Y-83797928D01*
X135111518Y-83810188D01*
X134991820Y-83846498D01*
X134881506Y-83905463D01*
X134784815Y-83984815D01*
X134705463Y-84081506D01*
X134646498Y-84191820D01*
X134610188Y-84311518D01*
X134597928Y-84436000D01*
X102260000Y-84436000D01*
X102260000Y-72810000D01*
X140751928Y-72810000D01*
X140751928Y-74510000D01*
X140764188Y-74634482D01*
X140800498Y-74754180D01*
X140859463Y-74864494D01*
X140938815Y-74961185D01*
X141035506Y-75040537D01*
X141145820Y-75099502D01*
X141218380Y-75121513D01*
X141086525Y-75253368D01*
X140924010Y-75496589D01*
X140812068Y-75766842D01*
X140755000Y-76053740D01*
X140755000Y-76346260D01*
X140812068Y-76633158D01*
X140924010Y-76903411D01*
X141086525Y-77146632D01*
X141293368Y-77353475D01*
X141536589Y-77515990D01*
X141806842Y-77627932D01*
X142093740Y-77685000D01*
X142386260Y-77685000D01*
X142673158Y-77627932D01*
X142943411Y-77515990D01*
X143186632Y-77353475D01*
X143393475Y-77146632D01*
X143499870Y-76987400D01*
X143520130Y-76987400D01*
X143626525Y-77146632D01*
X143833368Y-77353475D01*
X144076589Y-77515990D01*
X144346842Y-77627932D01*
X144633740Y-77685000D01*
X144926260Y-77685000D01*
X145114088Y-77647638D01*
X152247601Y-84781152D01*
X152247600Y-92923271D01*
X152247179Y-92923901D01*
X152180164Y-93085688D01*
X152146000Y-93257441D01*
X152146000Y-93432559D01*
X152180164Y-93604312D01*
X152247179Y-93766099D01*
X152344469Y-93911704D01*
X152468296Y-94035531D01*
X152613901Y-94132821D01*
X152775688Y-94199836D01*
X152947441Y-94234000D01*
X153122559Y-94234000D01*
X153294312Y-94199836D01*
X153456099Y-94132821D01*
X153601704Y-94035531D01*
X153725531Y-93911704D01*
X153822821Y-93766099D01*
X153889836Y-93604312D01*
X153924000Y-93432559D01*
X153924000Y-93257441D01*
X153889836Y-93085688D01*
X153822821Y-92923901D01*
X153822400Y-92923271D01*
X153822400Y-86780000D01*
X160055928Y-86780000D01*
X160055928Y-88480000D01*
X160068188Y-88604482D01*
X160104498Y-88724180D01*
X160163463Y-88834494D01*
X160242815Y-88931185D01*
X160339506Y-89010537D01*
X160449820Y-89069502D01*
X160522380Y-89091513D01*
X160390525Y-89223368D01*
X160228010Y-89466589D01*
X160116068Y-89736842D01*
X160059000Y-90023740D01*
X160059000Y-90316260D01*
X160116068Y-90603158D01*
X160228010Y-90873411D01*
X160390525Y-91116632D01*
X160597368Y-91323475D01*
X160840589Y-91485990D01*
X161110842Y-91597932D01*
X161397740Y-91655000D01*
X161690260Y-91655000D01*
X161977158Y-91597932D01*
X162247411Y-91485990D01*
X162490632Y-91323475D01*
X162697475Y-91116632D01*
X162859990Y-90873411D01*
X162971932Y-90603158D01*
X163029000Y-90316260D01*
X163029000Y-90023740D01*
X162971932Y-89736842D01*
X162859990Y-89466589D01*
X162697475Y-89223368D01*
X162565620Y-89091513D01*
X162638180Y-89069502D01*
X162748494Y-89010537D01*
X162845185Y-88931185D01*
X162924537Y-88834494D01*
X162983502Y-88724180D01*
X163019812Y-88604482D01*
X163032072Y-88480000D01*
X163032072Y-86780000D01*
X163019812Y-86655518D01*
X162983502Y-86535820D01*
X162924537Y-86425506D01*
X162845185Y-86328815D01*
X162748494Y-86249463D01*
X162638180Y-86190498D01*
X162518482Y-86154188D01*
X162394000Y-86141928D01*
X160694000Y-86141928D01*
X160569518Y-86154188D01*
X160449820Y-86190498D01*
X160339506Y-86249463D01*
X160242815Y-86328815D01*
X160163463Y-86425506D01*
X160104498Y-86535820D01*
X160068188Y-86655518D01*
X160055928Y-86780000D01*
X153822400Y-86780000D01*
X153822400Y-84493663D01*
X153826208Y-84455000D01*
X153822400Y-84416337D01*
X153822400Y-84416327D01*
X153811006Y-84300643D01*
X153765982Y-84152217D01*
X153692866Y-84015427D01*
X153619121Y-83925570D01*
X153594469Y-83895531D01*
X153564428Y-83870877D01*
X146227638Y-76534088D01*
X146265000Y-76346260D01*
X146265000Y-76053740D01*
X146207932Y-75766842D01*
X146095990Y-75496589D01*
X145933475Y-75253368D01*
X145726632Y-75046525D01*
X145552240Y-74930000D01*
X145726632Y-74813475D01*
X145933475Y-74606632D01*
X146095990Y-74363411D01*
X146207932Y-74093158D01*
X146265000Y-73806260D01*
X146265000Y-73513740D01*
X146207932Y-73226842D01*
X146095990Y-72956589D01*
X145933475Y-72713368D01*
X145726632Y-72506525D01*
X145483411Y-72344010D01*
X145213158Y-72232068D01*
X144926260Y-72175000D01*
X144633740Y-72175000D01*
X144346842Y-72232068D01*
X144076589Y-72344010D01*
X143833368Y-72506525D01*
X143701513Y-72638380D01*
X143679502Y-72565820D01*
X143620537Y-72455506D01*
X143541185Y-72358815D01*
X143444494Y-72279463D01*
X143334180Y-72220498D01*
X143214482Y-72184188D01*
X143090000Y-72171928D01*
X141390000Y-72171928D01*
X141265518Y-72184188D01*
X141145820Y-72220498D01*
X141035506Y-72279463D01*
X140938815Y-72358815D01*
X140859463Y-72455506D01*
X140800498Y-72565820D01*
X140764188Y-72685518D01*
X140751928Y-72810000D01*
X102260000Y-72810000D01*
X102260000Y-61761441D01*
X123571000Y-61761441D01*
X123571000Y-61936559D01*
X123605164Y-62108312D01*
X123672179Y-62270099D01*
X123769469Y-62415704D01*
X123893296Y-62539531D01*
X124038901Y-62636821D01*
X124200688Y-62703836D01*
X124372441Y-62738000D01*
X124547559Y-62738000D01*
X124719312Y-62703836D01*
X124881099Y-62636821D01*
X125026704Y-62539531D01*
X125150531Y-62415704D01*
X125247821Y-62270099D01*
X125314836Y-62108312D01*
X125349000Y-61936559D01*
X125349000Y-61761441D01*
X125314836Y-61589688D01*
X125247821Y-61427901D01*
X125150531Y-61282296D01*
X125026704Y-61158469D01*
X124881099Y-61061179D01*
X124719312Y-60994164D01*
X124547559Y-60960000D01*
X124372441Y-60960000D01*
X124200688Y-60994164D01*
X124038901Y-61061179D01*
X123893296Y-61158469D01*
X123769469Y-61282296D01*
X123672179Y-61427901D01*
X123605164Y-61589688D01*
X123571000Y-61761441D01*
X102260000Y-61761441D01*
X102260000Y-53754872D01*
X102540000Y-53754872D01*
X102540000Y-54195128D01*
X102625890Y-54626925D01*
X102794369Y-55033669D01*
X103038962Y-55399729D01*
X103350271Y-55711038D01*
X103716331Y-55955631D01*
X104123075Y-56124110D01*
X104554872Y-56210000D01*
X104995128Y-56210000D01*
X105426925Y-56124110D01*
X105833669Y-55955631D01*
X106199729Y-55711038D01*
X106511038Y-55399729D01*
X106755631Y-55033669D01*
X106924110Y-54626925D01*
X107010000Y-54195128D01*
X107010000Y-53754872D01*
X223190000Y-53754872D01*
X223190000Y-54195128D01*
X223275890Y-54626925D01*
X223444369Y-55033669D01*
X223688962Y-55399729D01*
X224000271Y-55711038D01*
X224366331Y-55955631D01*
X224773075Y-56124110D01*
X225204872Y-56210000D01*
X225645128Y-56210000D01*
X226076925Y-56124110D01*
X226483669Y-55955631D01*
X226849729Y-55711038D01*
X227161038Y-55399729D01*
X227405631Y-55033669D01*
X227574110Y-54626925D01*
X227660000Y-54195128D01*
X227660000Y-53754872D01*
X227574110Y-53323075D01*
X227405631Y-52916331D01*
X227161038Y-52550271D01*
X226849729Y-52238962D01*
X226483669Y-51994369D01*
X226076925Y-51825890D01*
X225645128Y-51740000D01*
X225204872Y-51740000D01*
X224773075Y-51825890D01*
X224366331Y-51994369D01*
X224000271Y-52238962D01*
X223688962Y-52550271D01*
X223444369Y-52916331D01*
X223275890Y-53323075D01*
X223190000Y-53754872D01*
X107010000Y-53754872D01*
X106924110Y-53323075D01*
X106755631Y-52916331D01*
X106511038Y-52550271D01*
X106199729Y-52238962D01*
X105833669Y-51994369D01*
X105426925Y-51825890D01*
X104995128Y-51740000D01*
X104554872Y-51740000D01*
X104123075Y-51825890D01*
X103716331Y-51994369D01*
X103350271Y-52238962D01*
X103038962Y-52550271D01*
X102794369Y-52916331D01*
X102625890Y-53323075D01*
X102540000Y-53754872D01*
X102260000Y-53754872D01*
X102260000Y-53372279D01*
X102298909Y-52975455D01*
X102404780Y-52624792D01*
X102576744Y-52301375D01*
X102808254Y-52017516D01*
X103090486Y-51784035D01*
X103412695Y-51609817D01*
X103762614Y-51501498D01*
X104157443Y-51460000D01*
X226027721Y-51460000D01*
X226424545Y-51498909D01*
%TA.AperFunction,Conductor*%
D18*
G36*
X226424545Y-51498909D02*
G01*
X226775208Y-51604780D01*
X227098625Y-51776744D01*
X227382484Y-52008254D01*
X227615965Y-52290486D01*
X227790183Y-52612695D01*
X227898502Y-52962614D01*
X227940001Y-53357452D01*
X227940000Y-124427721D01*
X227901091Y-124824545D01*
X227795220Y-125175206D01*
X227623257Y-125498623D01*
X227391748Y-125782482D01*
X227109514Y-126015965D01*
X226787304Y-126190184D01*
X226437385Y-126298502D01*
X226042557Y-126340000D01*
X104172279Y-126340000D01*
X103775455Y-126301091D01*
X103424794Y-126195220D01*
X103101377Y-126023257D01*
X102817518Y-125791748D01*
X102584035Y-125509514D01*
X102409816Y-125187304D01*
X102301498Y-124837385D01*
X102260000Y-124442557D01*
X102260000Y-123604872D01*
X102540000Y-123604872D01*
X102540000Y-124045128D01*
X102625890Y-124476925D01*
X102794369Y-124883669D01*
X103038962Y-125249729D01*
X103350271Y-125561038D01*
X103716331Y-125805631D01*
X104123075Y-125974110D01*
X104554872Y-126060000D01*
X104995128Y-126060000D01*
X105426925Y-125974110D01*
X105833669Y-125805631D01*
X106199729Y-125561038D01*
X106511038Y-125249729D01*
X106755631Y-124883669D01*
X106924110Y-124476925D01*
X107010000Y-124045128D01*
X107010000Y-123604872D01*
X223190000Y-123604872D01*
X223190000Y-124045128D01*
X223275890Y-124476925D01*
X223444369Y-124883669D01*
X223688962Y-125249729D01*
X224000271Y-125561038D01*
X224366331Y-125805631D01*
X224773075Y-125974110D01*
X225204872Y-126060000D01*
X225645128Y-126060000D01*
X226076925Y-125974110D01*
X226483669Y-125805631D01*
X226849729Y-125561038D01*
X227161038Y-125249729D01*
X227405631Y-124883669D01*
X227574110Y-124476925D01*
X227660000Y-124045128D01*
X227660000Y-123604872D01*
X227574110Y-123173075D01*
X227405631Y-122766331D01*
X227161038Y-122400271D01*
X226849729Y-122088962D01*
X226483669Y-121844369D01*
X226076925Y-121675890D01*
X225645128Y-121590000D01*
X225204872Y-121590000D01*
X224773075Y-121675890D01*
X224366331Y-121844369D01*
X224000271Y-122088962D01*
X223688962Y-122400271D01*
X223444369Y-122766331D01*
X223275890Y-123173075D01*
X223190000Y-123604872D01*
X107010000Y-123604872D01*
X106924110Y-123173075D01*
X106755631Y-122766331D01*
X106511038Y-122400271D01*
X106199729Y-122088962D01*
X105833669Y-121844369D01*
X105426925Y-121675890D01*
X104995128Y-121590000D01*
X104554872Y-121590000D01*
X104123075Y-121675890D01*
X103716331Y-121844369D01*
X103350271Y-122088962D01*
X103038962Y-122400271D01*
X102794369Y-122766331D01*
X102625890Y-123173075D01*
X102540000Y-123604872D01*
X102260000Y-123604872D01*
X102260000Y-112613146D01*
X105340500Y-112613146D01*
X105340500Y-112886854D01*
X105393898Y-113155302D01*
X105498641Y-113408175D01*
X105650705Y-113635754D01*
X105844246Y-113829295D01*
X106071825Y-113981359D01*
X106165113Y-114020000D01*
X106071825Y-114058641D01*
X105844246Y-114210705D01*
X105650705Y-114404246D01*
X105498641Y-114631825D01*
X105393898Y-114884698D01*
X105340500Y-115153146D01*
X105340500Y-115426854D01*
X105393898Y-115695302D01*
X105498641Y-115948175D01*
X105650705Y-116175754D01*
X105844246Y-116369295D01*
X106071825Y-116521359D01*
X106165113Y-116560000D01*
X106071825Y-116598641D01*
X105844246Y-116750705D01*
X105650705Y-116944246D01*
X105498641Y-117171825D01*
X105393898Y-117424698D01*
X105340500Y-117693146D01*
X105340500Y-117966854D01*
X105393898Y-118235302D01*
X105498641Y-118488175D01*
X105650705Y-118715754D01*
X105844246Y-118909295D01*
X106071825Y-119061359D01*
X106324698Y-119166102D01*
X106593146Y-119219500D01*
X106866854Y-119219500D01*
X107135302Y-119166102D01*
X107388175Y-119061359D01*
X107615754Y-118909295D01*
X107809295Y-118715754D01*
X107961359Y-118488175D01*
X108066102Y-118235302D01*
X108119500Y-117966854D01*
X108119500Y-117693146D01*
X108066102Y-117424698D01*
X107961359Y-117171825D01*
X107809295Y-116944246D01*
X107615754Y-116750705D01*
X107388175Y-116598641D01*
X107294887Y-116560000D01*
X107388175Y-116521359D01*
X107539868Y-116420000D01*
X117383928Y-116420000D01*
X117396188Y-116544482D01*
X117432498Y-116664180D01*
X117491463Y-116774494D01*
X117570815Y-116871185D01*
X117667506Y-116950537D01*
X117777820Y-117009502D01*
X117897518Y-117045812D01*
X118022000Y-117058072D01*
X118586250Y-117055000D01*
X118745000Y-116896250D01*
X118745000Y-115697000D01*
X118999000Y-115697000D01*
X118999000Y-116896250D01*
X119157750Y-117055000D01*
X119722000Y-117058072D01*
X119846482Y-117045812D01*
X119966180Y-117009502D01*
X120076494Y-116950537D01*
X120173185Y-116871185D01*
X120252537Y-116774494D01*
X120311502Y-116664180D01*
X120347812Y-116544482D01*
X120360072Y-116420000D01*
X120357000Y-115855750D01*
X120198250Y-115697000D01*
X118999000Y-115697000D01*
X118745000Y-115697000D01*
X117545750Y-115697000D01*
X117387000Y-115855750D01*
X117383928Y-116420000D01*
X107539868Y-116420000D01*
X107615754Y-116369295D01*
X107809295Y-116175754D01*
X107961359Y-115948175D01*
X108066102Y-115695302D01*
X108119500Y-115426854D01*
X108119500Y-115153146D01*
X108066102Y-114884698D01*
X107997883Y-114720000D01*
X117383928Y-114720000D01*
X117387000Y-115284250D01*
X117545750Y-115443000D01*
X118745000Y-115443000D01*
X118745000Y-115423000D01*
X118999000Y-115423000D01*
X118999000Y-115443000D01*
X120198250Y-115443000D01*
X120357000Y-115284250D01*
X120360072Y-114720000D01*
X120347812Y-114595518D01*
X120311502Y-114475820D01*
X120252537Y-114365506D01*
X120173185Y-114268815D01*
X120076494Y-114189463D01*
X119966180Y-114130498D01*
X119893620Y-114108487D01*
X120025475Y-113976632D01*
X120187990Y-113733411D01*
X120299932Y-113463158D01*
X120357000Y-113176260D01*
X120357000Y-112883740D01*
X120299932Y-112596842D01*
X120187990Y-112326589D01*
X120025475Y-112083368D01*
X119818632Y-111876525D01*
X119644240Y-111760000D01*
X119818632Y-111643475D01*
X120025475Y-111436632D01*
X120187990Y-111193411D01*
X120299932Y-110923158D01*
X120357000Y-110636260D01*
X120357000Y-110343740D01*
X120299932Y-110056842D01*
X120187990Y-109786589D01*
X120025475Y-109543368D01*
X119818632Y-109336525D01*
X119644240Y-109220000D01*
X119818632Y-109103475D01*
X120025475Y-108896632D01*
X120187990Y-108653411D01*
X120299932Y-108383158D01*
X120357000Y-108096260D01*
X120357000Y-107803740D01*
X120299932Y-107516842D01*
X120187990Y-107246589D01*
X120025475Y-107003368D01*
X119818632Y-106796525D01*
X119575411Y-106634010D01*
X119305158Y-106522068D01*
X119018260Y-106465000D01*
X118725740Y-106465000D01*
X118438842Y-106522068D01*
X118168589Y-106634010D01*
X117925368Y-106796525D01*
X117718525Y-107003368D01*
X117556010Y-107246589D01*
X117444068Y-107516842D01*
X117387000Y-107803740D01*
X117387000Y-108096260D01*
X117444068Y-108383158D01*
X117556010Y-108653411D01*
X117718525Y-108896632D01*
X117925368Y-109103475D01*
X118099760Y-109220000D01*
X117925368Y-109336525D01*
X117718525Y-109543368D01*
X117556010Y-109786589D01*
X117444068Y-110056842D01*
X117387000Y-110343740D01*
X117387000Y-110636260D01*
X117444068Y-110923158D01*
X117556010Y-111193411D01*
X117718525Y-111436632D01*
X117925368Y-111643475D01*
X118099760Y-111760000D01*
X117925368Y-111876525D01*
X117718525Y-112083368D01*
X117556010Y-112326589D01*
X117444068Y-112596842D01*
X117387000Y-112883740D01*
X117387000Y-113176260D01*
X117444068Y-113463158D01*
X117556010Y-113733411D01*
X117718525Y-113976632D01*
X117850380Y-114108487D01*
X117777820Y-114130498D01*
X117667506Y-114189463D01*
X117570815Y-114268815D01*
X117491463Y-114365506D01*
X117432498Y-114475820D01*
X117396188Y-114595518D01*
X117383928Y-114720000D01*
X107997883Y-114720000D01*
X107961359Y-114631825D01*
X107809295Y-114404246D01*
X107615754Y-114210705D01*
X107388175Y-114058641D01*
X107294887Y-114020000D01*
X107388175Y-113981359D01*
X107615754Y-113829295D01*
X107809295Y-113635754D01*
X107961359Y-113408175D01*
X108066102Y-113155302D01*
X108119500Y-112886854D01*
X108119500Y-112613146D01*
X108066102Y-112344698D01*
X107961359Y-112091825D01*
X107809295Y-111864246D01*
X107615754Y-111670705D01*
X107388175Y-111518641D01*
X107135302Y-111413898D01*
X106866854Y-111360500D01*
X106593146Y-111360500D01*
X106324698Y-111413898D01*
X106071825Y-111518641D01*
X105844246Y-111670705D01*
X105650705Y-111864246D01*
X105498641Y-112091825D01*
X105393898Y-112344698D01*
X105340500Y-112613146D01*
X102260000Y-112613146D01*
X102260000Y-107533146D01*
X105340500Y-107533146D01*
X105340500Y-107806854D01*
X105393898Y-108075302D01*
X105498641Y-108328175D01*
X105650705Y-108555754D01*
X105844246Y-108749295D01*
X106071825Y-108901359D01*
X106324698Y-109006102D01*
X106593146Y-109059500D01*
X106866854Y-109059500D01*
X107135302Y-109006102D01*
X107388175Y-108901359D01*
X107615754Y-108749295D01*
X107809295Y-108555754D01*
X107961359Y-108328175D01*
X108066102Y-108075302D01*
X108119500Y-107806854D01*
X108119500Y-107533146D01*
X108066102Y-107264698D01*
X107961359Y-107011825D01*
X107809295Y-106784246D01*
X107615754Y-106590705D01*
X107388175Y-106438641D01*
X107299215Y-106401793D01*
X107330404Y-106390537D01*
X107444532Y-106329534D01*
X107510603Y-106090208D01*
X106730000Y-105309605D01*
X105949397Y-106090208D01*
X106015468Y-106329534D01*
X106165326Y-106399912D01*
X106071825Y-106438641D01*
X105844246Y-106590705D01*
X105650705Y-106784246D01*
X105498641Y-107011825D01*
X105393898Y-107264698D01*
X105340500Y-107533146D01*
X102260000Y-107533146D01*
X102260000Y-105202314D01*
X105335651Y-105202314D01*
X105376551Y-105472948D01*
X105469463Y-105730404D01*
X105530466Y-105844532D01*
X105769792Y-105910603D01*
X106550395Y-105130000D01*
X106909605Y-105130000D01*
X107690208Y-105910603D01*
X107929534Y-105844532D01*
X108045883Y-105596785D01*
X108111664Y-105331100D01*
X108124349Y-105057686D01*
X108083449Y-104787052D01*
X107990537Y-104529596D01*
X107929534Y-104415468D01*
X107690208Y-104349397D01*
X106909605Y-105130000D01*
X106550395Y-105130000D01*
X105769792Y-104349397D01*
X105530466Y-104415468D01*
X105414117Y-104663215D01*
X105348336Y-104928900D01*
X105335651Y-105202314D01*
X102260000Y-105202314D01*
X102260000Y-99913146D01*
X105340500Y-99913146D01*
X105340500Y-100186854D01*
X105393898Y-100455302D01*
X105498641Y-100708175D01*
X105650705Y-100935754D01*
X105844246Y-101129295D01*
X106071825Y-101281359D01*
X106165113Y-101320000D01*
X106071825Y-101358641D01*
X105844246Y-101510705D01*
X105650705Y-101704246D01*
X105498641Y-101931825D01*
X105393898Y-102184698D01*
X105340500Y-102453146D01*
X105340500Y-102726854D01*
X105393898Y-102995302D01*
X105498641Y-103248175D01*
X105650705Y-103475754D01*
X105844246Y-103669295D01*
X106071825Y-103821359D01*
X106160785Y-103858207D01*
X106129596Y-103869463D01*
X106015468Y-103930466D01*
X105949397Y-104169792D01*
X106730000Y-104950395D01*
X107510603Y-104169792D01*
X107444532Y-103930466D01*
X107294674Y-103860088D01*
X107388175Y-103821359D01*
X107615754Y-103669295D01*
X107809295Y-103475754D01*
X107961359Y-103248175D01*
X108066102Y-102995302D01*
X108119500Y-102726854D01*
X108119500Y-102453146D01*
X108066102Y-102184698D01*
X107961359Y-101931825D01*
X107809295Y-101704246D01*
X107615754Y-101510705D01*
X107530501Y-101453740D01*
X140755000Y-101453740D01*
X140755000Y-101746260D01*
X140812068Y-102033158D01*
X140924010Y-102303411D01*
X141086525Y-102546632D01*
X141293368Y-102753475D01*
X141467760Y-102870000D01*
X141293368Y-102986525D01*
X141086525Y-103193368D01*
X140924010Y-103436589D01*
X140812068Y-103706842D01*
X140755000Y-103993740D01*
X140755000Y-104286260D01*
X140812068Y-104573158D01*
X140924010Y-104843411D01*
X141086525Y-105086632D01*
X141293368Y-105293475D01*
X141536589Y-105455990D01*
X141806842Y-105567932D01*
X142093740Y-105625000D01*
X142386260Y-105625000D01*
X142673158Y-105567932D01*
X142943411Y-105455990D01*
X143186632Y-105293475D01*
X143318487Y-105161620D01*
X143340498Y-105234180D01*
X143399463Y-105344494D01*
X143478815Y-105441185D01*
X143575506Y-105520537D01*
X143685820Y-105579502D01*
X143805518Y-105615812D01*
X143930000Y-105628072D01*
X145630000Y-105628072D01*
X145754482Y-105615812D01*
X145874180Y-105579502D01*
X145984494Y-105520537D01*
X146081185Y-105441185D01*
X146160537Y-105344494D01*
X146219502Y-105234180D01*
X146255812Y-105114482D01*
X146268072Y-104990000D01*
X146268072Y-103290000D01*
X146255812Y-103165518D01*
X146219502Y-103045820D01*
X146160537Y-102935506D01*
X146081185Y-102838815D01*
X145984494Y-102759463D01*
X145874180Y-102700498D01*
X145801620Y-102678487D01*
X145933475Y-102546632D01*
X146095990Y-102303411D01*
X146207932Y-102033158D01*
X146265000Y-101746260D01*
X146265000Y-101453740D01*
X146207932Y-101166842D01*
X146095990Y-100896589D01*
X145933475Y-100653368D01*
X145726632Y-100446525D01*
X145483411Y-100284010D01*
X145383055Y-100242441D01*
X149225000Y-100242441D01*
X149225000Y-100417559D01*
X149259164Y-100589312D01*
X149326179Y-100751099D01*
X149423469Y-100896704D01*
X149547296Y-101020531D01*
X149692901Y-101117821D01*
X149854688Y-101184836D01*
X150013969Y-101216519D01*
X151418016Y-102620567D01*
X151418164Y-102621312D01*
X151485179Y-102783099D01*
X151582469Y-102928704D01*
X151706296Y-103052531D01*
X151851901Y-103149821D01*
X152013688Y-103216836D01*
X152185441Y-103251000D01*
X152360559Y-103251000D01*
X152532312Y-103216836D01*
X152694099Y-103149821D01*
X152839704Y-103052531D01*
X152963531Y-102928704D01*
X153060821Y-102783099D01*
X153127836Y-102621312D01*
X153162000Y-102449559D01*
X153162000Y-102274441D01*
X153127836Y-102102688D01*
X153060821Y-101940901D01*
X152963531Y-101795296D01*
X152839704Y-101671469D01*
X152694099Y-101574179D01*
X152532312Y-101507164D01*
X152531567Y-101507016D01*
X150838129Y-99813579D01*
X150804531Y-99763296D01*
X150680704Y-99639469D01*
X150535099Y-99542179D01*
X150373312Y-99475164D01*
X150201559Y-99441000D01*
X150026441Y-99441000D01*
X149854688Y-99475164D01*
X149692901Y-99542179D01*
X149547296Y-99639469D01*
X149423469Y-99763296D01*
X149326179Y-99908901D01*
X149259164Y-100070688D01*
X149225000Y-100242441D01*
X145383055Y-100242441D01*
X145213158Y-100172068D01*
X144926260Y-100115000D01*
X144633740Y-100115000D01*
X144346842Y-100172068D01*
X144076589Y-100284010D01*
X143833368Y-100446525D01*
X143626525Y-100653368D01*
X143510000Y-100827760D01*
X143393475Y-100653368D01*
X143186632Y-100446525D01*
X142943411Y-100284010D01*
X142673158Y-100172068D01*
X142386260Y-100115000D01*
X142093740Y-100115000D01*
X141806842Y-100172068D01*
X141536589Y-100284010D01*
X141293368Y-100446525D01*
X141086525Y-100653368D01*
X140924010Y-100896589D01*
X140812068Y-101166842D01*
X140755000Y-101453740D01*
X107530501Y-101453740D01*
X107388175Y-101358641D01*
X107294887Y-101320000D01*
X107388175Y-101281359D01*
X107615754Y-101129295D01*
X107809295Y-100935754D01*
X107961359Y-100708175D01*
X108066102Y-100455302D01*
X108119500Y-100186854D01*
X108119500Y-99913146D01*
X108066102Y-99644698D01*
X107961359Y-99391825D01*
X107809295Y-99164246D01*
X107615754Y-98970705D01*
X107388175Y-98818641D01*
X107135302Y-98713898D01*
X106866854Y-98660500D01*
X106593146Y-98660500D01*
X106324698Y-98713898D01*
X106071825Y-98818641D01*
X105844246Y-98970705D01*
X105650705Y-99164246D01*
X105498641Y-99391825D01*
X105393898Y-99644698D01*
X105340500Y-99913146D01*
X102260000Y-99913146D01*
X102260000Y-92583045D01*
X134601000Y-92583045D01*
X134601000Y-92836955D01*
X134650535Y-93085987D01*
X134747703Y-93320570D01*
X134888768Y-93531690D01*
X135068310Y-93711232D01*
X135279430Y-93852297D01*
X135514013Y-93949465D01*
X135763045Y-93999000D01*
X136016955Y-93999000D01*
X136265987Y-93949465D01*
X136500570Y-93852297D01*
X136711690Y-93711232D01*
X136891232Y-93531690D01*
X137032297Y-93320570D01*
X137129465Y-93085987D01*
X137160000Y-92932476D01*
X137190535Y-93085987D01*
X137287703Y-93320570D01*
X137428768Y-93531690D01*
X137608310Y-93711232D01*
X137819430Y-93852297D01*
X138054013Y-93949465D01*
X138303045Y-93999000D01*
X138556955Y-93999000D01*
X138805987Y-93949465D01*
X139040570Y-93852297D01*
X139251690Y-93711232D01*
X139431232Y-93531690D01*
X139572297Y-93320570D01*
X139669465Y-93085987D01*
X139700000Y-92932476D01*
X139730535Y-93085987D01*
X139827703Y-93320570D01*
X139968768Y-93531690D01*
X140148310Y-93711232D01*
X140359430Y-93852297D01*
X140594013Y-93949465D01*
X140843045Y-93999000D01*
X141096955Y-93999000D01*
X141345987Y-93949465D01*
X141580570Y-93852297D01*
X141791690Y-93711232D01*
X141971232Y-93531690D01*
X142112297Y-93320570D01*
X142209465Y-93085987D01*
X142240000Y-92932476D01*
X142270535Y-93085987D01*
X142367703Y-93320570D01*
X142508768Y-93531690D01*
X142688310Y-93711232D01*
X142899430Y-93852297D01*
X143134013Y-93949465D01*
X143383045Y-93999000D01*
X143636955Y-93999000D01*
X143885987Y-93949465D01*
X144120570Y-93852297D01*
X144331690Y-93711232D01*
X144511232Y-93531690D01*
X144652297Y-93320570D01*
X144749465Y-93085987D01*
X144799000Y-92836955D01*
X144799000Y-92583045D01*
X144749465Y-92334013D01*
X144652297Y-92099430D01*
X144511232Y-91888310D01*
X144331690Y-91708768D01*
X144120570Y-91567703D01*
X143885987Y-91470535D01*
X143636955Y-91421000D01*
X143383045Y-91421000D01*
X143134013Y-91470535D01*
X142899430Y-91567703D01*
X142688310Y-91708768D01*
X142508768Y-91888310D01*
X142367703Y-92099430D01*
X142270535Y-92334013D01*
X142240000Y-92487524D01*
X142209465Y-92334013D01*
X142112297Y-92099430D01*
X141971232Y-91888310D01*
X141791690Y-91708768D01*
X141580570Y-91567703D01*
X141345987Y-91470535D01*
X141096955Y-91421000D01*
X140843045Y-91421000D01*
X140594013Y-91470535D01*
X140359430Y-91567703D01*
X140148310Y-91708768D01*
X139968768Y-91888310D01*
X139827703Y-92099430D01*
X139730535Y-92334013D01*
X139700000Y-92487524D01*
X139669465Y-92334013D01*
X139572297Y-92099430D01*
X139431232Y-91888310D01*
X139251690Y-91708768D01*
X139040570Y-91567703D01*
X138805987Y-91470535D01*
X138556955Y-91421000D01*
X138303045Y-91421000D01*
X138054013Y-91470535D01*
X137819430Y-91567703D01*
X137608310Y-91708768D01*
X137428768Y-91888310D01*
X137287703Y-92099430D01*
X137190535Y-92334013D01*
X137160000Y-92487524D01*
X137129465Y-92334013D01*
X137032297Y-92099430D01*
X136891232Y-91888310D01*
X136711690Y-91708768D01*
X136500570Y-91567703D01*
X136265987Y-91470535D01*
X136016955Y-91421000D01*
X135763045Y-91421000D01*
X135514013Y-91470535D01*
X135279430Y-91567703D01*
X135068310Y-91708768D01*
X134888768Y-91888310D01*
X134747703Y-92099430D01*
X134650535Y-92334013D01*
X134601000Y-92583045D01*
X102260000Y-92583045D01*
X102260000Y-89320000D01*
X117891928Y-89320000D01*
X117891928Y-91020000D01*
X117904188Y-91144482D01*
X117940498Y-91264180D01*
X117999463Y-91374494D01*
X118078815Y-91471185D01*
X118175506Y-91550537D01*
X118285820Y-91609502D01*
X118405518Y-91645812D01*
X118530000Y-91658072D01*
X120230000Y-91658072D01*
X120354482Y-91645812D01*
X120474180Y-91609502D01*
X120584494Y-91550537D01*
X120681185Y-91471185D01*
X120760537Y-91374494D01*
X120819502Y-91264180D01*
X120855812Y-91144482D01*
X120868072Y-91020000D01*
X120868072Y-89320000D01*
X120855812Y-89195518D01*
X120819502Y-89075820D01*
X120760537Y-88965506D01*
X120681185Y-88868815D01*
X120584494Y-88789463D01*
X120474180Y-88730498D01*
X120401620Y-88708487D01*
X120533475Y-88576632D01*
X120695990Y-88333411D01*
X120807932Y-88063158D01*
X120865000Y-87776260D01*
X120865000Y-87483740D01*
X120807932Y-87196842D01*
X120695990Y-86926589D01*
X120533475Y-86683368D01*
X120326632Y-86476525D01*
X120083411Y-86314010D01*
X119813158Y-86202068D01*
X119526260Y-86145000D01*
X119233740Y-86145000D01*
X118946842Y-86202068D01*
X118676589Y-86314010D01*
X118433368Y-86476525D01*
X118226525Y-86683368D01*
X118064010Y-86926589D01*
X117952068Y-87196842D01*
X117895000Y-87483740D01*
X117895000Y-87776260D01*
X117952068Y-88063158D01*
X118064010Y-88333411D01*
X118226525Y-88576632D01*
X118358380Y-88708487D01*
X118285820Y-88730498D01*
X118175506Y-88789463D01*
X118078815Y-88868815D01*
X117999463Y-88965506D01*
X117940498Y-89075820D01*
X117904188Y-89195518D01*
X117891928Y-89320000D01*
X102260000Y-89320000D01*
X102260000Y-84436000D01*
X134597928Y-84436000D01*
X134597928Y-85744000D01*
X134610188Y-85868482D01*
X134646498Y-85988180D01*
X134705463Y-86098494D01*
X134784815Y-86195185D01*
X134881506Y-86274537D01*
X134991820Y-86333502D01*
X135111518Y-86369812D01*
X135236000Y-86382072D01*
X136544000Y-86382072D01*
X136668482Y-86369812D01*
X136788180Y-86333502D01*
X136898494Y-86274537D01*
X136995185Y-86195185D01*
X137074537Y-86098494D01*
X137133502Y-85988180D01*
X137169812Y-85868482D01*
X137182072Y-85744000D01*
X137182072Y-85423440D01*
X137190535Y-85465987D01*
X137287703Y-85700570D01*
X137428768Y-85911690D01*
X137608310Y-86091232D01*
X137819430Y-86232297D01*
X138054013Y-86329465D01*
X138303045Y-86379000D01*
X138556955Y-86379000D01*
X138805987Y-86329465D01*
X139040570Y-86232297D01*
X139251690Y-86091232D01*
X139431232Y-85911690D01*
X139572297Y-85700570D01*
X139669465Y-85465987D01*
X139700000Y-85312476D01*
X139730535Y-85465987D01*
X139827703Y-85700570D01*
X139968768Y-85911690D01*
X140148310Y-86091232D01*
X140359430Y-86232297D01*
X140594013Y-86329465D01*
X140843045Y-86379000D01*
X141096955Y-86379000D01*
X141345987Y-86329465D01*
X141580570Y-86232297D01*
X141791690Y-86091232D01*
X141971232Y-85911690D01*
X142112297Y-85700570D01*
X142209465Y-85465987D01*
X142240000Y-85312476D01*
X142270535Y-85465987D01*
X142367703Y-85700570D01*
X142508768Y-85911690D01*
X142688310Y-86091232D01*
X142722601Y-86114144D01*
X142722600Y-88060216D01*
X142689296Y-88082469D01*
X142565469Y-88206296D01*
X142468179Y-88351901D01*
X142401164Y-88513688D01*
X142367000Y-88685441D01*
X142367000Y-88860559D01*
X142401164Y-89032312D01*
X142468179Y-89194099D01*
X142565469Y-89339704D01*
X142689296Y-89463531D01*
X142834901Y-89560821D01*
X142996688Y-89627836D01*
X143168441Y-89662000D01*
X143343559Y-89662000D01*
X143515312Y-89627836D01*
X143677099Y-89560821D01*
X143822704Y-89463531D01*
X143946531Y-89339704D01*
X144043821Y-89194099D01*
X144110836Y-89032312D01*
X144111952Y-89026704D01*
X144167866Y-88958572D01*
X144240982Y-88821783D01*
X144286006Y-88673357D01*
X144297400Y-88557673D01*
X144297400Y-88557664D01*
X144301208Y-88519001D01*
X144297400Y-88480338D01*
X144297400Y-86114144D01*
X144331690Y-86091232D01*
X144511232Y-85911690D01*
X144652297Y-85700570D01*
X144749465Y-85465987D01*
X144799000Y-85216955D01*
X144799000Y-84963045D01*
X144749465Y-84714013D01*
X144652297Y-84479430D01*
X144511232Y-84268310D01*
X144331690Y-84088768D01*
X144120570Y-83947703D01*
X143885987Y-83850535D01*
X143636955Y-83801000D01*
X143383045Y-83801000D01*
X143134013Y-83850535D01*
X142899430Y-83947703D01*
X142688310Y-84088768D01*
X142508768Y-84268310D01*
X142367703Y-84479430D01*
X142270535Y-84714013D01*
X142240000Y-84867524D01*
X142209465Y-84714013D01*
X142112297Y-84479430D01*
X141971232Y-84268310D01*
X141791690Y-84088768D01*
X141580570Y-83947703D01*
X141345987Y-83850535D01*
X141096955Y-83801000D01*
X140843045Y-83801000D01*
X140594013Y-83850535D01*
X140359430Y-83947703D01*
X140148310Y-84088768D01*
X139968768Y-84268310D01*
X139827703Y-84479430D01*
X139730535Y-84714013D01*
X139700000Y-84867524D01*
X139669465Y-84714013D01*
X139572297Y-84479430D01*
X139431232Y-84268310D01*
X139251690Y-84088768D01*
X139040570Y-83947703D01*
X138805987Y-83850535D01*
X138556955Y-83801000D01*
X138303045Y-83801000D01*
X138054013Y-83850535D01*
X137819430Y-83947703D01*
X137608310Y-84088768D01*
X137428768Y-84268310D01*
X137287703Y-84479430D01*
X137190535Y-84714013D01*
X137182072Y-84756560D01*
X137182072Y-84436000D01*
X137169812Y-84311518D01*
X137133502Y-84191820D01*
X137074537Y-84081506D01*
X136995185Y-83984815D01*
X136898494Y-83905463D01*
X136788180Y-83846498D01*
X136668482Y-83810188D01*
X136544000Y-83797928D01*
X135236000Y-83797928D01*
X135111518Y-83810188D01*
X134991820Y-83846498D01*
X134881506Y-83905463D01*
X134784815Y-83984815D01*
X134705463Y-84081506D01*
X134646498Y-84191820D01*
X134610188Y-84311518D01*
X134597928Y-84436000D01*
X102260000Y-84436000D01*
X102260000Y-72810000D01*
X140751928Y-72810000D01*
X140751928Y-74510000D01*
X140764188Y-74634482D01*
X140800498Y-74754180D01*
X140859463Y-74864494D01*
X140938815Y-74961185D01*
X141035506Y-75040537D01*
X141145820Y-75099502D01*
X141218380Y-75121513D01*
X141086525Y-75253368D01*
X140924010Y-75496589D01*
X140812068Y-75766842D01*
X140755000Y-76053740D01*
X140755000Y-76346260D01*
X140812068Y-76633158D01*
X140924010Y-76903411D01*
X141086525Y-77146632D01*
X141293368Y-77353475D01*
X141536589Y-77515990D01*
X141806842Y-77627932D01*
X142093740Y-77685000D01*
X142386260Y-77685000D01*
X142673158Y-77627932D01*
X142943411Y-77515990D01*
X143186632Y-77353475D01*
X143393475Y-77146632D01*
X143499870Y-76987400D01*
X143520130Y-76987400D01*
X143626525Y-77146632D01*
X143833368Y-77353475D01*
X144076589Y-77515990D01*
X144346842Y-77627932D01*
X144633740Y-77685000D01*
X144926260Y-77685000D01*
X145114088Y-77647638D01*
X152247601Y-84781152D01*
X152247600Y-92923271D01*
X152247179Y-92923901D01*
X152180164Y-93085688D01*
X152146000Y-93257441D01*
X152146000Y-93432559D01*
X152180164Y-93604312D01*
X152247179Y-93766099D01*
X152344469Y-93911704D01*
X152468296Y-94035531D01*
X152613901Y-94132821D01*
X152775688Y-94199836D01*
X152947441Y-94234000D01*
X153122559Y-94234000D01*
X153294312Y-94199836D01*
X153456099Y-94132821D01*
X153601704Y-94035531D01*
X153725531Y-93911704D01*
X153822821Y-93766099D01*
X153889836Y-93604312D01*
X153924000Y-93432559D01*
X153924000Y-93257441D01*
X153889836Y-93085688D01*
X153822821Y-92923901D01*
X153822400Y-92923271D01*
X153822400Y-86780000D01*
X160055928Y-86780000D01*
X160055928Y-88480000D01*
X160068188Y-88604482D01*
X160104498Y-88724180D01*
X160163463Y-88834494D01*
X160242815Y-88931185D01*
X160339506Y-89010537D01*
X160449820Y-89069502D01*
X160522380Y-89091513D01*
X160390525Y-89223368D01*
X160228010Y-89466589D01*
X160116068Y-89736842D01*
X160059000Y-90023740D01*
X160059000Y-90316260D01*
X160116068Y-90603158D01*
X160228010Y-90873411D01*
X160390525Y-91116632D01*
X160597368Y-91323475D01*
X160840589Y-91485990D01*
X161110842Y-91597932D01*
X161397740Y-91655000D01*
X161690260Y-91655000D01*
X161977158Y-91597932D01*
X162247411Y-91485990D01*
X162490632Y-91323475D01*
X162697475Y-91116632D01*
X162859990Y-90873411D01*
X162971932Y-90603158D01*
X163029000Y-90316260D01*
X163029000Y-90023740D01*
X162971932Y-89736842D01*
X162859990Y-89466589D01*
X162697475Y-89223368D01*
X162565620Y-89091513D01*
X162638180Y-89069502D01*
X162748494Y-89010537D01*
X162845185Y-88931185D01*
X162924537Y-88834494D01*
X162983502Y-88724180D01*
X163019812Y-88604482D01*
X163032072Y-88480000D01*
X163032072Y-86780000D01*
X163019812Y-86655518D01*
X162983502Y-86535820D01*
X162924537Y-86425506D01*
X162845185Y-86328815D01*
X162748494Y-86249463D01*
X162638180Y-86190498D01*
X162518482Y-86154188D01*
X162394000Y-86141928D01*
X160694000Y-86141928D01*
X160569518Y-86154188D01*
X160449820Y-86190498D01*
X160339506Y-86249463D01*
X160242815Y-86328815D01*
X160163463Y-86425506D01*
X160104498Y-86535820D01*
X160068188Y-86655518D01*
X160055928Y-86780000D01*
X153822400Y-86780000D01*
X153822400Y-84493663D01*
X153826208Y-84455000D01*
X153822400Y-84416337D01*
X153822400Y-84416327D01*
X153811006Y-84300643D01*
X153765982Y-84152217D01*
X153692866Y-84015427D01*
X153619121Y-83925570D01*
X153594469Y-83895531D01*
X153564428Y-83870877D01*
X146227638Y-76534088D01*
X146265000Y-76346260D01*
X146265000Y-76053740D01*
X146207932Y-75766842D01*
X146095990Y-75496589D01*
X145933475Y-75253368D01*
X145726632Y-75046525D01*
X145552240Y-74930000D01*
X145726632Y-74813475D01*
X145933475Y-74606632D01*
X146095990Y-74363411D01*
X146207932Y-74093158D01*
X146265000Y-73806260D01*
X146265000Y-73513740D01*
X146207932Y-73226842D01*
X146095990Y-72956589D01*
X145933475Y-72713368D01*
X145726632Y-72506525D01*
X145483411Y-72344010D01*
X145213158Y-72232068D01*
X144926260Y-72175000D01*
X144633740Y-72175000D01*
X144346842Y-72232068D01*
X144076589Y-72344010D01*
X143833368Y-72506525D01*
X143701513Y-72638380D01*
X143679502Y-72565820D01*
X143620537Y-72455506D01*
X143541185Y-72358815D01*
X143444494Y-72279463D01*
X143334180Y-72220498D01*
X143214482Y-72184188D01*
X143090000Y-72171928D01*
X141390000Y-72171928D01*
X141265518Y-72184188D01*
X141145820Y-72220498D01*
X141035506Y-72279463D01*
X140938815Y-72358815D01*
X140859463Y-72455506D01*
X140800498Y-72565820D01*
X140764188Y-72685518D01*
X140751928Y-72810000D01*
X102260000Y-72810000D01*
X102260000Y-61761441D01*
X123571000Y-61761441D01*
X123571000Y-61936559D01*
X123605164Y-62108312D01*
X123672179Y-62270099D01*
X123769469Y-62415704D01*
X123893296Y-62539531D01*
X124038901Y-62636821D01*
X124200688Y-62703836D01*
X124372441Y-62738000D01*
X124547559Y-62738000D01*
X124719312Y-62703836D01*
X124881099Y-62636821D01*
X125026704Y-62539531D01*
X125150531Y-62415704D01*
X125247821Y-62270099D01*
X125314836Y-62108312D01*
X125349000Y-61936559D01*
X125349000Y-61761441D01*
X125314836Y-61589688D01*
X125247821Y-61427901D01*
X125150531Y-61282296D01*
X125026704Y-61158469D01*
X124881099Y-61061179D01*
X124719312Y-60994164D01*
X124547559Y-60960000D01*
X124372441Y-60960000D01*
X124200688Y-60994164D01*
X124038901Y-61061179D01*
X123893296Y-61158469D01*
X123769469Y-61282296D01*
X123672179Y-61427901D01*
X123605164Y-61589688D01*
X123571000Y-61761441D01*
X102260000Y-61761441D01*
X102260000Y-53754872D01*
X102540000Y-53754872D01*
X102540000Y-54195128D01*
X102625890Y-54626925D01*
X102794369Y-55033669D01*
X103038962Y-55399729D01*
X103350271Y-55711038D01*
X103716331Y-55955631D01*
X104123075Y-56124110D01*
X104554872Y-56210000D01*
X104995128Y-56210000D01*
X105426925Y-56124110D01*
X105833669Y-55955631D01*
X106199729Y-55711038D01*
X106511038Y-55399729D01*
X106755631Y-55033669D01*
X106924110Y-54626925D01*
X107010000Y-54195128D01*
X107010000Y-53754872D01*
X223190000Y-53754872D01*
X223190000Y-54195128D01*
X223275890Y-54626925D01*
X223444369Y-55033669D01*
X223688962Y-55399729D01*
X224000271Y-55711038D01*
X224366331Y-55955631D01*
X224773075Y-56124110D01*
X225204872Y-56210000D01*
X225645128Y-56210000D01*
X226076925Y-56124110D01*
X226483669Y-55955631D01*
X226849729Y-55711038D01*
X227161038Y-55399729D01*
X227405631Y-55033669D01*
X227574110Y-54626925D01*
X227660000Y-54195128D01*
X227660000Y-53754872D01*
X227574110Y-53323075D01*
X227405631Y-52916331D01*
X227161038Y-52550271D01*
X226849729Y-52238962D01*
X226483669Y-51994369D01*
X226076925Y-51825890D01*
X225645128Y-51740000D01*
X225204872Y-51740000D01*
X224773075Y-51825890D01*
X224366331Y-51994369D01*
X224000271Y-52238962D01*
X223688962Y-52550271D01*
X223444369Y-52916331D01*
X223275890Y-53323075D01*
X223190000Y-53754872D01*
X107010000Y-53754872D01*
X106924110Y-53323075D01*
X106755631Y-52916331D01*
X106511038Y-52550271D01*
X106199729Y-52238962D01*
X105833669Y-51994369D01*
X105426925Y-51825890D01*
X104995128Y-51740000D01*
X104554872Y-51740000D01*
X104123075Y-51825890D01*
X103716331Y-51994369D01*
X103350271Y-52238962D01*
X103038962Y-52550271D01*
X102794369Y-52916331D01*
X102625890Y-53323075D01*
X102540000Y-53754872D01*
X102260000Y-53754872D01*
X102260000Y-53372279D01*
X102298909Y-52975455D01*
X102404780Y-52624792D01*
X102576744Y-52301375D01*
X102808254Y-52017516D01*
X103090486Y-51784035D01*
X103412695Y-51609817D01*
X103762614Y-51501498D01*
X104157443Y-51460000D01*
X226027721Y-51460000D01*
X226424545Y-51498909D01*
G37*
%TD.AperFunction*%
%TD*%
M02*
