%TF.GenerationSoftware,KiCad,Pcbnew,(5.1.7)-1*%
%TF.CreationDate,2021-04-21T22:03:08-05:00*%
%TF.ProjectId,instrumentation_amplifier,696e7374-7275-46d6-956e-746174696f6e,1.0*%
%TF.SameCoordinates,Original*%
%TF.FileFunction,Legend,Top*%
%TF.FilePolarity,Positive*%
%FSLAX46Y46*%
G04 Gerber Fmt 4.6, Leading zero omitted, Abs format (unit mm)*
G04 Created by KiCad (PCBNEW (5.1.7)-1) date 2021-04-21 22:03:08*
%MOMM*%
%LPD*%
G01*
G04 APERTURE LIST*
%ADD10C,0.300000*%
%ADD11C,0.177800*%
%ADD12C,0.228600*%
%ADD13C,0.539750*%
%ADD14C,0.150000*%
%ADD15C,0.120000*%
%ADD16C,0.762000*%
%ADD17C,0.010000*%
%ADD18C,0.200000*%
%ADD19C,0.127000*%
%ADD20C,0.254000*%
%ADD21C,0.100000*%
G04 APERTURE END LIST*
D10*
X121523285Y-115677142D02*
X122666142Y-115677142D01*
X122094714Y-116248571D02*
X122094714Y-115105714D01*
X124094714Y-114748571D02*
X123380428Y-114748571D01*
X123309000Y-115462857D01*
X123380428Y-115391428D01*
X123523285Y-115320000D01*
X123880428Y-115320000D01*
X124023285Y-115391428D01*
X124094714Y-115462857D01*
X124166142Y-115605714D01*
X124166142Y-115962857D01*
X124094714Y-116105714D01*
X124023285Y-116177142D01*
X123880428Y-116248571D01*
X123523285Y-116248571D01*
X123380428Y-116177142D01*
X123309000Y-116105714D01*
X122301142Y-112280000D02*
X122158285Y-112208571D01*
X121944000Y-112208571D01*
X121729714Y-112280000D01*
X121586857Y-112422857D01*
X121515428Y-112565714D01*
X121444000Y-112851428D01*
X121444000Y-113065714D01*
X121515428Y-113351428D01*
X121586857Y-113494285D01*
X121729714Y-113637142D01*
X121944000Y-113708571D01*
X122086857Y-113708571D01*
X122301142Y-113637142D01*
X122372571Y-113565714D01*
X122372571Y-113065714D01*
X122086857Y-113065714D01*
X123015428Y-113708571D02*
X123015428Y-112208571D01*
X123872571Y-113708571D01*
X123872571Y-112208571D01*
X124586857Y-113708571D02*
X124586857Y-112208571D01*
X124944000Y-112208571D01*
X125158285Y-112280000D01*
X125301142Y-112422857D01*
X125372571Y-112565714D01*
X125444000Y-112851428D01*
X125444000Y-113065714D01*
X125372571Y-113351428D01*
X125301142Y-113494285D01*
X125158285Y-113637142D01*
X124944000Y-113708571D01*
X124586857Y-113708571D01*
X122301142Y-109740000D02*
X122158285Y-109668571D01*
X121944000Y-109668571D01*
X121729714Y-109740000D01*
X121586857Y-109882857D01*
X121515428Y-110025714D01*
X121444000Y-110311428D01*
X121444000Y-110525714D01*
X121515428Y-110811428D01*
X121586857Y-110954285D01*
X121729714Y-111097142D01*
X121944000Y-111168571D01*
X122086857Y-111168571D01*
X122301142Y-111097142D01*
X122372571Y-111025714D01*
X122372571Y-110525714D01*
X122086857Y-110525714D01*
X123015428Y-111168571D02*
X123015428Y-109668571D01*
X123872571Y-111168571D01*
X123872571Y-109668571D01*
X124586857Y-111168571D02*
X124586857Y-109668571D01*
X124944000Y-109668571D01*
X125158285Y-109740000D01*
X125301142Y-109882857D01*
X125372571Y-110025714D01*
X125444000Y-110311428D01*
X125444000Y-110525714D01*
X125372571Y-110811428D01*
X125301142Y-110954285D01*
X125158285Y-111097142D01*
X124944000Y-111168571D01*
X124586857Y-111168571D01*
X121523285Y-108057142D02*
X122666142Y-108057142D01*
X124094714Y-107128571D02*
X123380428Y-107128571D01*
X123309000Y-107842857D01*
X123380428Y-107771428D01*
X123523285Y-107700000D01*
X123880428Y-107700000D01*
X124023285Y-107771428D01*
X124094714Y-107842857D01*
X124166142Y-107985714D01*
X124166142Y-108342857D01*
X124094714Y-108485714D01*
X124023285Y-108557142D01*
X123880428Y-108628571D01*
X123523285Y-108628571D01*
X123380428Y-108557142D01*
X123309000Y-108485714D01*
X119336714Y-60114571D02*
X119336714Y-58614571D01*
X119908142Y-58614571D01*
X120051000Y-58686000D01*
X120122428Y-58757428D01*
X120193857Y-58900285D01*
X120193857Y-59114571D01*
X120122428Y-59257428D01*
X120051000Y-59328857D01*
X119908142Y-59400285D01*
X119336714Y-59400285D01*
X121051000Y-60114571D02*
X120908142Y-60043142D01*
X120836714Y-59971714D01*
X120765285Y-59828857D01*
X120765285Y-59400285D01*
X120836714Y-59257428D01*
X120908142Y-59186000D01*
X121051000Y-59114571D01*
X121265285Y-59114571D01*
X121408142Y-59186000D01*
X121479571Y-59257428D01*
X121551000Y-59400285D01*
X121551000Y-59828857D01*
X121479571Y-59971714D01*
X121408142Y-60043142D01*
X121265285Y-60114571D01*
X121051000Y-60114571D01*
X122051000Y-59114571D02*
X122336714Y-60114571D01*
X122622428Y-59400285D01*
X122908142Y-60114571D01*
X123193857Y-59114571D01*
X124336714Y-60043142D02*
X124193857Y-60114571D01*
X123908142Y-60114571D01*
X123765285Y-60043142D01*
X123693857Y-59900285D01*
X123693857Y-59328857D01*
X123765285Y-59186000D01*
X123908142Y-59114571D01*
X124193857Y-59114571D01*
X124336714Y-59186000D01*
X124408142Y-59328857D01*
X124408142Y-59471714D01*
X123693857Y-59614571D01*
X125051000Y-60114571D02*
X125051000Y-59114571D01*
X125051000Y-59400285D02*
X125122428Y-59257428D01*
X125193857Y-59186000D01*
X125336714Y-59114571D01*
X125479571Y-59114571D01*
D11*
X147546785Y-102625071D02*
X147546785Y-103387071D01*
X147274642Y-102189642D02*
X147002500Y-103006071D01*
X147710071Y-103006071D01*
X148036642Y-102244071D02*
X148798642Y-102244071D01*
X148308785Y-103387071D01*
X149234071Y-103387071D02*
X149234071Y-102244071D01*
X149342928Y-102951642D02*
X149669500Y-103387071D01*
X149669500Y-102625071D02*
X149234071Y-103060500D01*
X138130642Y-103387071D02*
X137477500Y-103387071D01*
X137804071Y-103387071D02*
X137804071Y-102244071D01*
X137695214Y-102407357D01*
X137586357Y-102516214D01*
X137477500Y-102570642D01*
X138838214Y-102244071D02*
X138947071Y-102244071D01*
X139055928Y-102298500D01*
X139110357Y-102352928D01*
X139164785Y-102461785D01*
X139219214Y-102679500D01*
X139219214Y-102951642D01*
X139164785Y-103169357D01*
X139110357Y-103278214D01*
X139055928Y-103332642D01*
X138947071Y-103387071D01*
X138838214Y-103387071D01*
X138729357Y-103332642D01*
X138674928Y-103278214D01*
X138620500Y-103169357D01*
X138566071Y-102951642D01*
X138566071Y-102679500D01*
X138620500Y-102461785D01*
X138674928Y-102352928D01*
X138729357Y-102298500D01*
X138838214Y-102244071D01*
X139709071Y-103387071D02*
X139709071Y-102244071D01*
X139817928Y-102951642D02*
X140144500Y-103387071D01*
X140144500Y-102625071D02*
X139709071Y-103060500D01*
X137767785Y-74685071D02*
X137767785Y-75447071D01*
X137495642Y-74249642D02*
X137223500Y-75066071D01*
X137931071Y-75066071D01*
X138257642Y-74304071D02*
X139019642Y-74304071D01*
X138529785Y-75447071D01*
X139455071Y-75447071D02*
X139455071Y-74304071D01*
X139563928Y-75011642D02*
X139890500Y-75447071D01*
X139890500Y-74685071D02*
X139455071Y-75120500D01*
X147782642Y-75447071D02*
X147129500Y-75447071D01*
X147456071Y-75447071D02*
X147456071Y-74304071D01*
X147347214Y-74467357D01*
X147238357Y-74576214D01*
X147129500Y-74630642D01*
X148490214Y-74304071D02*
X148599071Y-74304071D01*
X148707928Y-74358500D01*
X148762357Y-74412928D01*
X148816785Y-74521785D01*
X148871214Y-74739500D01*
X148871214Y-75011642D01*
X148816785Y-75229357D01*
X148762357Y-75338214D01*
X148707928Y-75392642D01*
X148599071Y-75447071D01*
X148490214Y-75447071D01*
X148381357Y-75392642D01*
X148326928Y-75338214D01*
X148272500Y-75229357D01*
X148218071Y-75011642D01*
X148218071Y-74739500D01*
X148272500Y-74521785D01*
X148326928Y-74412928D01*
X148381357Y-74358500D01*
X148490214Y-74304071D01*
X149361071Y-75447071D02*
X149361071Y-74304071D01*
X149469928Y-75011642D02*
X149796500Y-75447071D01*
X149796500Y-74685071D02*
X149361071Y-75120500D01*
D10*
X108176714Y-90721571D02*
X108176714Y-89221571D01*
X108891000Y-89721571D02*
X108891000Y-90721571D01*
X108891000Y-89864428D02*
X108962428Y-89793000D01*
X109105285Y-89721571D01*
X109319571Y-89721571D01*
X109462428Y-89793000D01*
X109533857Y-89935857D01*
X109533857Y-90721571D01*
X110248142Y-89721571D02*
X110248142Y-91221571D01*
X110248142Y-89793000D02*
X110391000Y-89721571D01*
X110676714Y-89721571D01*
X110819571Y-89793000D01*
X110891000Y-89864428D01*
X110962428Y-90007285D01*
X110962428Y-90435857D01*
X110891000Y-90578714D01*
X110819571Y-90650142D01*
X110676714Y-90721571D01*
X110391000Y-90721571D01*
X110248142Y-90650142D01*
X112248142Y-89721571D02*
X112248142Y-90721571D01*
X111605285Y-89721571D02*
X111605285Y-90507285D01*
X111676714Y-90650142D01*
X111819571Y-90721571D01*
X112033857Y-90721571D01*
X112176714Y-90650142D01*
X112248142Y-90578714D01*
X112748142Y-89721571D02*
X113319571Y-89721571D01*
X112962428Y-89221571D02*
X112962428Y-90507285D01*
X113033857Y-90650142D01*
X113176714Y-90721571D01*
X113319571Y-90721571D01*
X114962428Y-90150142D02*
X116105285Y-90150142D01*
X108176714Y-88181571D02*
X108176714Y-86681571D01*
X108891000Y-87181571D02*
X108891000Y-88181571D01*
X108891000Y-87324428D02*
X108962428Y-87253000D01*
X109105285Y-87181571D01*
X109319571Y-87181571D01*
X109462428Y-87253000D01*
X109533857Y-87395857D01*
X109533857Y-88181571D01*
X110248142Y-87181571D02*
X110248142Y-88681571D01*
X110248142Y-87253000D02*
X110391000Y-87181571D01*
X110676714Y-87181571D01*
X110819571Y-87253000D01*
X110891000Y-87324428D01*
X110962428Y-87467285D01*
X110962428Y-87895857D01*
X110891000Y-88038714D01*
X110819571Y-88110142D01*
X110676714Y-88181571D01*
X110391000Y-88181571D01*
X110248142Y-88110142D01*
X112248142Y-87181571D02*
X112248142Y-88181571D01*
X111605285Y-87181571D02*
X111605285Y-87967285D01*
X111676714Y-88110142D01*
X111819571Y-88181571D01*
X112033857Y-88181571D01*
X112176714Y-88110142D01*
X112248142Y-88038714D01*
X112748142Y-87181571D02*
X113319571Y-87181571D01*
X112962428Y-86681571D02*
X112962428Y-87967285D01*
X113033857Y-88110142D01*
X113176714Y-88181571D01*
X113319571Y-88181571D01*
X114962428Y-87610142D02*
X116105285Y-87610142D01*
X115533857Y-88181571D02*
X115533857Y-87038714D01*
X164604285Y-86808571D02*
X164890000Y-86808571D01*
X165032857Y-86880000D01*
X165175714Y-87022857D01*
X165247142Y-87308571D01*
X165247142Y-87808571D01*
X165175714Y-88094285D01*
X165032857Y-88237142D01*
X164890000Y-88308571D01*
X164604285Y-88308571D01*
X164461428Y-88237142D01*
X164318571Y-88094285D01*
X164247142Y-87808571D01*
X164247142Y-87308571D01*
X164318571Y-87022857D01*
X164461428Y-86880000D01*
X164604285Y-86808571D01*
X166532857Y-87308571D02*
X166532857Y-88308571D01*
X165890000Y-87308571D02*
X165890000Y-88094285D01*
X165961428Y-88237142D01*
X166104285Y-88308571D01*
X166318571Y-88308571D01*
X166461428Y-88237142D01*
X166532857Y-88165714D01*
X167032857Y-87308571D02*
X167604285Y-87308571D01*
X167247142Y-86808571D02*
X167247142Y-88094285D01*
X167318571Y-88237142D01*
X167461428Y-88308571D01*
X167604285Y-88308571D01*
X168104285Y-87308571D02*
X168104285Y-88808571D01*
X168104285Y-87380000D02*
X168247142Y-87308571D01*
X168532857Y-87308571D01*
X168675714Y-87380000D01*
X168747142Y-87451428D01*
X168818571Y-87594285D01*
X168818571Y-88022857D01*
X168747142Y-88165714D01*
X168675714Y-88237142D01*
X168532857Y-88308571D01*
X168247142Y-88308571D01*
X168104285Y-88237142D01*
X170104285Y-87308571D02*
X170104285Y-88308571D01*
X169461428Y-87308571D02*
X169461428Y-88094285D01*
X169532857Y-88237142D01*
X169675714Y-88308571D01*
X169890000Y-88308571D01*
X170032857Y-88237142D01*
X170104285Y-88165714D01*
X170604285Y-87308571D02*
X171175714Y-87308571D01*
X170818571Y-86808571D02*
X170818571Y-88094285D01*
X170890000Y-88237142D01*
X171032857Y-88308571D01*
X171175714Y-88308571D01*
X165100142Y-89674000D02*
X164957285Y-89602571D01*
X164743000Y-89602571D01*
X164528714Y-89674000D01*
X164385857Y-89816857D01*
X164314428Y-89959714D01*
X164243000Y-90245428D01*
X164243000Y-90459714D01*
X164314428Y-90745428D01*
X164385857Y-90888285D01*
X164528714Y-91031142D01*
X164743000Y-91102571D01*
X164885857Y-91102571D01*
X165100142Y-91031142D01*
X165171571Y-90959714D01*
X165171571Y-90459714D01*
X164885857Y-90459714D01*
X165814428Y-91102571D02*
X165814428Y-89602571D01*
X166671571Y-91102571D01*
X166671571Y-89602571D01*
X167385857Y-91102571D02*
X167385857Y-89602571D01*
X167743000Y-89602571D01*
X167957285Y-89674000D01*
X168100142Y-89816857D01*
X168171571Y-89959714D01*
X168243000Y-90245428D01*
X168243000Y-90459714D01*
X168171571Y-90745428D01*
X168100142Y-90888285D01*
X167957285Y-91031142D01*
X167743000Y-91102571D01*
X167385857Y-91102571D01*
D12*
X104400047Y-77887285D02*
X104400047Y-78564619D01*
X104158142Y-77500238D02*
X103916238Y-78225952D01*
X104545190Y-78225952D01*
X104932238Y-78467857D02*
X104980619Y-78516238D01*
X104932238Y-78564619D01*
X104883857Y-78516238D01*
X104932238Y-78467857D01*
X104932238Y-78564619D01*
X105899857Y-77548619D02*
X105416047Y-77548619D01*
X105367666Y-78032428D01*
X105416047Y-77984047D01*
X105512809Y-77935666D01*
X105754714Y-77935666D01*
X105851476Y-77984047D01*
X105899857Y-78032428D01*
X105948238Y-78129190D01*
X105948238Y-78371095D01*
X105899857Y-78467857D01*
X105851476Y-78516238D01*
X105754714Y-78564619D01*
X105512809Y-78564619D01*
X105416047Y-78516238D01*
X105367666Y-78467857D01*
X106383666Y-78177571D02*
X107157761Y-78177571D01*
X108173761Y-78564619D02*
X107593190Y-78564619D01*
X107883476Y-78564619D02*
X107883476Y-77548619D01*
X107786714Y-77693761D01*
X107689952Y-77790523D01*
X107593190Y-77838904D01*
X108512428Y-77548619D02*
X109141380Y-77548619D01*
X108802714Y-77935666D01*
X108947857Y-77935666D01*
X109044619Y-77984047D01*
X109093000Y-78032428D01*
X109141380Y-78129190D01*
X109141380Y-78371095D01*
X109093000Y-78467857D01*
X109044619Y-78516238D01*
X108947857Y-78564619D01*
X108657571Y-78564619D01*
X108560809Y-78516238D01*
X108512428Y-78467857D01*
X109576809Y-78467857D02*
X109625190Y-78516238D01*
X109576809Y-78564619D01*
X109528428Y-78516238D01*
X109576809Y-78467857D01*
X109576809Y-78564619D01*
X110012238Y-77645380D02*
X110060619Y-77597000D01*
X110157380Y-77548619D01*
X110399285Y-77548619D01*
X110496047Y-77597000D01*
X110544428Y-77645380D01*
X110592809Y-77742142D01*
X110592809Y-77838904D01*
X110544428Y-77984047D01*
X109963857Y-78564619D01*
X110592809Y-78564619D01*
X111657190Y-77548619D02*
X111995857Y-78564619D01*
X112334523Y-77548619D01*
X112673190Y-78564619D02*
X112673190Y-77548619D01*
X112915095Y-77548619D01*
X113060238Y-77597000D01*
X113157000Y-77693761D01*
X113205380Y-77790523D01*
X113253761Y-77984047D01*
X113253761Y-78129190D01*
X113205380Y-78322714D01*
X113157000Y-78419476D01*
X113060238Y-78516238D01*
X112915095Y-78564619D01*
X112673190Y-78564619D01*
X114269761Y-78467857D02*
X114221380Y-78516238D01*
X114076238Y-78564619D01*
X113979476Y-78564619D01*
X113834333Y-78516238D01*
X113737571Y-78419476D01*
X113689190Y-78322714D01*
X113640809Y-78129190D01*
X113640809Y-77984047D01*
X113689190Y-77790523D01*
X113737571Y-77693761D01*
X113834333Y-77597000D01*
X113979476Y-77548619D01*
X114076238Y-77548619D01*
X114221380Y-77597000D01*
X114269761Y-77645380D01*
D13*
X146440071Y-125309690D02*
X145411976Y-125309690D01*
X145411976Y-123150690D01*
X147982214Y-125206880D02*
X147776595Y-125309690D01*
X147365357Y-125309690D01*
X147159738Y-125206880D01*
X147056928Y-125001261D01*
X147056928Y-124178785D01*
X147159738Y-123973166D01*
X147365357Y-123870357D01*
X147776595Y-123870357D01*
X147982214Y-123973166D01*
X148085023Y-124178785D01*
X148085023Y-124384404D01*
X147056928Y-124590023D01*
X149832785Y-125206880D02*
X149627166Y-125309690D01*
X149215928Y-125309690D01*
X149010309Y-125206880D01*
X148907500Y-125001261D01*
X148907500Y-124178785D01*
X149010309Y-123973166D01*
X149215928Y-123870357D01*
X149627166Y-123870357D01*
X149832785Y-123973166D01*
X149935595Y-124178785D01*
X149935595Y-124384404D01*
X148907500Y-124590023D01*
X150860880Y-125309690D02*
X150860880Y-123870357D01*
X150860880Y-124075976D02*
X150963690Y-123973166D01*
X151169309Y-123870357D01*
X151477738Y-123870357D01*
X151683357Y-123973166D01*
X151786166Y-124178785D01*
X151786166Y-125309690D01*
X151786166Y-124178785D02*
X151888976Y-123973166D01*
X152094595Y-123870357D01*
X152403023Y-123870357D01*
X152608642Y-123973166D01*
X152711452Y-124178785D01*
X152711452Y-125309690D01*
X154664833Y-125309690D02*
X154664833Y-124178785D01*
X154562023Y-123973166D01*
X154356404Y-123870357D01*
X153945166Y-123870357D01*
X153739547Y-123973166D01*
X154664833Y-125206880D02*
X154459214Y-125309690D01*
X153945166Y-125309690D01*
X153739547Y-125206880D01*
X153636738Y-125001261D01*
X153636738Y-124795642D01*
X153739547Y-124590023D01*
X153945166Y-124487214D01*
X154459214Y-124487214D01*
X154664833Y-124384404D01*
X155692928Y-123870357D02*
X155692928Y-125309690D01*
X155692928Y-124075976D02*
X155795738Y-123973166D01*
X156001357Y-123870357D01*
X156309785Y-123870357D01*
X156515404Y-123973166D01*
X156618214Y-124178785D01*
X156618214Y-125309690D01*
X160422166Y-123253500D02*
X160216547Y-123150690D01*
X159908119Y-123150690D01*
X159599690Y-123253500D01*
X159394071Y-123459119D01*
X159291261Y-123664738D01*
X159188452Y-124075976D01*
X159188452Y-124384404D01*
X159291261Y-124795642D01*
X159394071Y-125001261D01*
X159599690Y-125206880D01*
X159908119Y-125309690D01*
X160113738Y-125309690D01*
X160422166Y-125206880D01*
X160524976Y-125104071D01*
X160524976Y-124384404D01*
X160113738Y-124384404D01*
X162272738Y-125206880D02*
X162067119Y-125309690D01*
X161655880Y-125309690D01*
X161450261Y-125206880D01*
X161347452Y-125001261D01*
X161347452Y-124178785D01*
X161450261Y-123973166D01*
X161655880Y-123870357D01*
X162067119Y-123870357D01*
X162272738Y-123973166D01*
X162375547Y-124178785D01*
X162375547Y-124384404D01*
X161347452Y-124590023D01*
X163609261Y-125309690D02*
X163403642Y-125206880D01*
X163300833Y-125104071D01*
X163198023Y-124898452D01*
X163198023Y-124281595D01*
X163300833Y-124075976D01*
X163403642Y-123973166D01*
X163609261Y-123870357D01*
X163917690Y-123870357D01*
X164123309Y-123973166D01*
X164226119Y-124075976D01*
X164328928Y-124281595D01*
X164328928Y-124898452D01*
X164226119Y-125104071D01*
X164123309Y-125206880D01*
X163917690Y-125309690D01*
X163609261Y-125309690D01*
X165254214Y-123870357D02*
X165254214Y-126029357D01*
X165254214Y-123973166D02*
X165459833Y-123870357D01*
X165871071Y-123870357D01*
X166076690Y-123973166D01*
X166179500Y-124075976D01*
X166282309Y-124281595D01*
X166282309Y-124898452D01*
X166179500Y-125104071D01*
X166076690Y-125206880D01*
X165871071Y-125309690D01*
X165459833Y-125309690D01*
X165254214Y-125206880D01*
X167207595Y-125309690D02*
X167207595Y-123150690D01*
X168132880Y-125309690D02*
X168132880Y-124178785D01*
X168030071Y-123973166D01*
X167824452Y-123870357D01*
X167516023Y-123870357D01*
X167310404Y-123973166D01*
X167207595Y-124075976D01*
X168955357Y-123870357D02*
X169469404Y-125309690D01*
X169983452Y-123870357D02*
X169469404Y-125309690D01*
X169263785Y-125823738D01*
X169160976Y-125926547D01*
X168955357Y-126029357D01*
X170703119Y-125206880D02*
X170908738Y-125309690D01*
X171319976Y-125309690D01*
X171525595Y-125206880D01*
X171628404Y-125001261D01*
X171628404Y-124898452D01*
X171525595Y-124692833D01*
X171319976Y-124590023D01*
X171011547Y-124590023D01*
X170805928Y-124487214D01*
X170703119Y-124281595D01*
X170703119Y-124178785D01*
X170805928Y-123973166D01*
X171011547Y-123870357D01*
X171319976Y-123870357D01*
X171525595Y-123973166D01*
X172553690Y-125309690D02*
X172553690Y-123870357D01*
X172553690Y-123150690D02*
X172450880Y-123253500D01*
X172553690Y-123356309D01*
X172656500Y-123253500D01*
X172553690Y-123150690D01*
X172553690Y-123356309D01*
X174507071Y-125206880D02*
X174301452Y-125309690D01*
X173890214Y-125309690D01*
X173684595Y-125206880D01*
X173581785Y-125104071D01*
X173478976Y-124898452D01*
X173478976Y-124281595D01*
X173581785Y-124075976D01*
X173684595Y-123973166D01*
X173890214Y-123870357D01*
X174301452Y-123870357D01*
X174507071Y-123973166D01*
X176357642Y-125309690D02*
X176357642Y-124178785D01*
X176254833Y-123973166D01*
X176049214Y-123870357D01*
X175637976Y-123870357D01*
X175432357Y-123973166D01*
X176357642Y-125206880D02*
X176152023Y-125309690D01*
X175637976Y-125309690D01*
X175432357Y-125206880D01*
X175329547Y-125001261D01*
X175329547Y-124795642D01*
X175432357Y-124590023D01*
X175637976Y-124487214D01*
X176152023Y-124487214D01*
X176357642Y-124384404D01*
X177694166Y-125309690D02*
X177488547Y-125206880D01*
X177385738Y-125001261D01*
X177385738Y-123150690D01*
X181189690Y-125309690D02*
X180161595Y-125309690D01*
X180161595Y-123150690D01*
X182937452Y-125309690D02*
X181909357Y-125309690D01*
X181909357Y-123150690D01*
X184890833Y-125104071D02*
X184788023Y-125206880D01*
X184479595Y-125309690D01*
X184273976Y-125309690D01*
X183965547Y-125206880D01*
X183759928Y-125001261D01*
X183657119Y-124795642D01*
X183554309Y-124384404D01*
X183554309Y-124075976D01*
X183657119Y-123664738D01*
X183759928Y-123459119D01*
X183965547Y-123253500D01*
X184273976Y-123150690D01*
X184479595Y-123150690D01*
X184788023Y-123253500D01*
X184890833Y-123356309D01*
D11*
X196741142Y-112404071D02*
X196196857Y-112404071D01*
X196142428Y-112948357D01*
X196196857Y-112893928D01*
X196305714Y-112839500D01*
X196577857Y-112839500D01*
X196686714Y-112893928D01*
X196741142Y-112948357D01*
X196795571Y-113057214D01*
X196795571Y-113329357D01*
X196741142Y-113438214D01*
X196686714Y-113492642D01*
X196577857Y-113547071D01*
X196305714Y-113547071D01*
X196196857Y-113492642D01*
X196142428Y-113438214D01*
X196686714Y-108975071D02*
X196686714Y-109737071D01*
X196414571Y-108539642D02*
X196142428Y-109356071D01*
X196850000Y-109356071D01*
X196142428Y-101082928D02*
X196196857Y-101028500D01*
X196305714Y-100974071D01*
X196577857Y-100974071D01*
X196686714Y-101028500D01*
X196741142Y-101082928D01*
X196795571Y-101191785D01*
X196795571Y-101300642D01*
X196741142Y-101463928D01*
X196088000Y-102117071D01*
X196795571Y-102117071D01*
X196088000Y-104784071D02*
X196795571Y-104784071D01*
X196414571Y-105219500D01*
X196577857Y-105219500D01*
X196686714Y-105273928D01*
X196741142Y-105328357D01*
X196795571Y-105437214D01*
X196795571Y-105709357D01*
X196741142Y-105818214D01*
X196686714Y-105872642D01*
X196577857Y-105927071D01*
X196251285Y-105927071D01*
X196142428Y-105872642D01*
X196088000Y-105818214D01*
X196795571Y-98307071D02*
X196142428Y-98307071D01*
X196469000Y-98307071D02*
X196469000Y-97164071D01*
X196360142Y-97327357D01*
X196251285Y-97436214D01*
X196142428Y-97490642D01*
D14*
X193302333Y-95194380D02*
X193302333Y-94194380D01*
X193683285Y-94194380D01*
X193778523Y-94242000D01*
X193826142Y-94289619D01*
X193873761Y-94384857D01*
X193873761Y-94527714D01*
X193826142Y-94622952D01*
X193778523Y-94670571D01*
X193683285Y-94718190D01*
X193302333Y-94718190D01*
X194492809Y-94194380D02*
X194683285Y-94194380D01*
X194778523Y-94242000D01*
X194873761Y-94337238D01*
X194921380Y-94527714D01*
X194921380Y-94861047D01*
X194873761Y-95051523D01*
X194778523Y-95146761D01*
X194683285Y-95194380D01*
X194492809Y-95194380D01*
X194397571Y-95146761D01*
X194302333Y-95051523D01*
X194254714Y-94861047D01*
X194254714Y-94527714D01*
X194302333Y-94337238D01*
X194397571Y-94242000D01*
X194492809Y-94194380D01*
X195302333Y-95146761D02*
X195445190Y-95194380D01*
X195683285Y-95194380D01*
X195778523Y-95146761D01*
X195826142Y-95099142D01*
X195873761Y-95003904D01*
X195873761Y-94908666D01*
X195826142Y-94813428D01*
X195778523Y-94765809D01*
X195683285Y-94718190D01*
X195492809Y-94670571D01*
X195397571Y-94622952D01*
X195349952Y-94575333D01*
X195302333Y-94480095D01*
X195302333Y-94384857D01*
X195349952Y-94289619D01*
X195397571Y-94242000D01*
X195492809Y-94194380D01*
X195730904Y-94194380D01*
X195873761Y-94242000D01*
X196302333Y-95194380D02*
X196302333Y-94194380D01*
X196635666Y-94194380D02*
X197207095Y-94194380D01*
X196921380Y-95194380D02*
X196921380Y-94194380D01*
X197540428Y-95194380D02*
X197540428Y-94194380D01*
X198207095Y-94194380D02*
X198397571Y-94194380D01*
X198492809Y-94242000D01*
X198588047Y-94337238D01*
X198635666Y-94527714D01*
X198635666Y-94861047D01*
X198588047Y-95051523D01*
X198492809Y-95146761D01*
X198397571Y-95194380D01*
X198207095Y-95194380D01*
X198111857Y-95146761D01*
X198016619Y-95051523D01*
X197969000Y-94861047D01*
X197969000Y-94527714D01*
X198016619Y-94337238D01*
X198111857Y-94242000D01*
X198207095Y-94194380D01*
X199064238Y-95194380D02*
X199064238Y-94194380D01*
X199635666Y-95194380D01*
X199635666Y-94194380D01*
X204430428Y-94242000D02*
X204335190Y-94194380D01*
X204192333Y-94194380D01*
X204049476Y-94242000D01*
X203954238Y-94337238D01*
X203906619Y-94432476D01*
X203859000Y-94622952D01*
X203859000Y-94765809D01*
X203906619Y-94956285D01*
X203954238Y-95051523D01*
X204049476Y-95146761D01*
X204192333Y-95194380D01*
X204287571Y-95194380D01*
X204430428Y-95146761D01*
X204478047Y-95099142D01*
X204478047Y-94765809D01*
X204287571Y-94765809D01*
X204859000Y-94908666D02*
X205335190Y-94908666D01*
X204763761Y-95194380D02*
X205097095Y-94194380D01*
X205430428Y-95194380D01*
X205763761Y-95194380D02*
X205763761Y-94194380D01*
X206239952Y-95194380D02*
X206239952Y-94194380D01*
X206811380Y-95194380D01*
X206811380Y-94194380D01*
D15*
X210439000Y-115062000D02*
X192659000Y-115062000D01*
X192659000Y-113792000D02*
X192659000Y-115062000D01*
X210439000Y-113792000D02*
X210439000Y-115062000D01*
X200279000Y-113792000D02*
X200279000Y-115062000D01*
X192659000Y-111252000D02*
X210439000Y-111252000D01*
X192659000Y-107442000D02*
X210439000Y-107442000D01*
X192659000Y-103632000D02*
X210439000Y-103632000D01*
X192659000Y-99822000D02*
X210439000Y-99822000D01*
X192659000Y-96012000D02*
X210439000Y-96012000D01*
X210439000Y-93472000D02*
X210439000Y-113792000D01*
X207899000Y-93472000D02*
X210439000Y-93472000D01*
X192659000Y-93472000D02*
X192659000Y-113792000D01*
X200279000Y-93472000D02*
X200279000Y-113792000D01*
X192659000Y-93472000D02*
X207899000Y-93472000D01*
X198120000Y-57150000D02*
X132080000Y-57150000D01*
D16*
X131995333Y-56218666D02*
X131995333Y-52662666D01*
X133688666Y-53848000D02*
X133688666Y-56218666D01*
X133688666Y-54186666D02*
X133857999Y-54017333D01*
X134196666Y-53848000D01*
X134704666Y-53848000D01*
X135043333Y-54017333D01*
X135212666Y-54356000D01*
X135212666Y-56218666D01*
X136736666Y-56049333D02*
X137075333Y-56218666D01*
X137752666Y-56218666D01*
X138091333Y-56049333D01*
X138260666Y-55710666D01*
X138260666Y-55541333D01*
X138091333Y-55202666D01*
X137752666Y-55033333D01*
X137244666Y-55033333D01*
X136906000Y-54864000D01*
X136736666Y-54525333D01*
X136736666Y-54356000D01*
X136906000Y-54017333D01*
X137244666Y-53848000D01*
X137752666Y-53848000D01*
X138091333Y-54017333D01*
X139276666Y-53848000D02*
X140631333Y-53848000D01*
X139784666Y-52662666D02*
X139784666Y-55710666D01*
X139954000Y-56049333D01*
X140292666Y-56218666D01*
X140631333Y-56218666D01*
X141816666Y-56218666D02*
X141816666Y-53848000D01*
X141816666Y-54525333D02*
X141986000Y-54186666D01*
X142155333Y-54017333D01*
X142494000Y-53848000D01*
X142832666Y-53848000D01*
X145542000Y-53848000D02*
X145542000Y-56218666D01*
X144018000Y-53848000D02*
X144018000Y-55710666D01*
X144187333Y-56049333D01*
X144526000Y-56218666D01*
X145034000Y-56218666D01*
X145372666Y-56049333D01*
X145542000Y-55880000D01*
X147235333Y-56218666D02*
X147235333Y-53848000D01*
X147235333Y-54186666D02*
X147404666Y-54017333D01*
X147743333Y-53848000D01*
X148251333Y-53848000D01*
X148590000Y-54017333D01*
X148759333Y-54356000D01*
X148759333Y-56218666D01*
X148759333Y-54356000D02*
X148928666Y-54017333D01*
X149267333Y-53848000D01*
X149775333Y-53848000D01*
X150114000Y-54017333D01*
X150283333Y-54356000D01*
X150283333Y-56218666D01*
X153331333Y-56049333D02*
X152992666Y-56218666D01*
X152315333Y-56218666D01*
X151976666Y-56049333D01*
X151807333Y-55710666D01*
X151807333Y-54356000D01*
X151976666Y-54017333D01*
X152315333Y-53848000D01*
X152992666Y-53848000D01*
X153331333Y-54017333D01*
X153500666Y-54356000D01*
X153500666Y-54694666D01*
X151807333Y-55033333D01*
X155024666Y-53848000D02*
X155024666Y-56218666D01*
X155024666Y-54186666D02*
X155194000Y-54017333D01*
X155532666Y-53848000D01*
X156040666Y-53848000D01*
X156379333Y-54017333D01*
X156548666Y-54356000D01*
X156548666Y-56218666D01*
X157734000Y-53848000D02*
X159088666Y-53848000D01*
X158242000Y-52662666D02*
X158242000Y-55710666D01*
X158411333Y-56049333D01*
X158750000Y-56218666D01*
X159088666Y-56218666D01*
X161798000Y-56218666D02*
X161798000Y-54356000D01*
X161628666Y-54017333D01*
X161290000Y-53848000D01*
X160612666Y-53848000D01*
X160274000Y-54017333D01*
X161798000Y-56049333D02*
X161459333Y-56218666D01*
X160612666Y-56218666D01*
X160274000Y-56049333D01*
X160104666Y-55710666D01*
X160104666Y-55372000D01*
X160274000Y-55033333D01*
X160612666Y-54864000D01*
X161459333Y-54864000D01*
X161798000Y-54694666D01*
X162983333Y-53848000D02*
X164338000Y-53848000D01*
X163491333Y-52662666D02*
X163491333Y-55710666D01*
X163660666Y-56049333D01*
X163999333Y-56218666D01*
X164338000Y-56218666D01*
X165523333Y-56218666D02*
X165523333Y-53848000D01*
X165523333Y-52662666D02*
X165354000Y-52832000D01*
X165523333Y-53001333D01*
X165692666Y-52832000D01*
X165523333Y-52662666D01*
X165523333Y-53001333D01*
X167724666Y-56218666D02*
X167386000Y-56049333D01*
X167216666Y-55880000D01*
X167047333Y-55541333D01*
X167047333Y-54525333D01*
X167216666Y-54186666D01*
X167386000Y-54017333D01*
X167724666Y-53848000D01*
X168232666Y-53848000D01*
X168571333Y-54017333D01*
X168740666Y-54186666D01*
X168910000Y-54525333D01*
X168910000Y-55541333D01*
X168740666Y-55880000D01*
X168571333Y-56049333D01*
X168232666Y-56218666D01*
X167724666Y-56218666D01*
X170434000Y-53848000D02*
X170434000Y-56218666D01*
X170434000Y-54186666D02*
X170603333Y-54017333D01*
X170942000Y-53848000D01*
X171450000Y-53848000D01*
X171788666Y-54017333D01*
X171958000Y-54356000D01*
X171958000Y-56218666D01*
X176191333Y-55202666D02*
X177884666Y-55202666D01*
X175852666Y-56218666D02*
X177038000Y-52662666D01*
X178223333Y-56218666D01*
X179408666Y-56218666D02*
X179408666Y-53848000D01*
X179408666Y-54186666D02*
X179578000Y-54017333D01*
X179916666Y-53848000D01*
X180424666Y-53848000D01*
X180763333Y-54017333D01*
X180932666Y-54356000D01*
X180932666Y-56218666D01*
X180932666Y-54356000D02*
X181102000Y-54017333D01*
X181440666Y-53848000D01*
X181948666Y-53848000D01*
X182287333Y-54017333D01*
X182456666Y-54356000D01*
X182456666Y-56218666D01*
X184150000Y-53848000D02*
X184150000Y-57404000D01*
X184150000Y-54017333D02*
X184488666Y-53848000D01*
X185166000Y-53848000D01*
X185504666Y-54017333D01*
X185674000Y-54186666D01*
X185843333Y-54525333D01*
X185843333Y-55541333D01*
X185674000Y-55880000D01*
X185504666Y-56049333D01*
X185166000Y-56218666D01*
X184488666Y-56218666D01*
X184150000Y-56049333D01*
X187875333Y-56218666D02*
X187536666Y-56049333D01*
X187367333Y-55710666D01*
X187367333Y-52662666D01*
X189230000Y-56218666D02*
X189230000Y-53848000D01*
X189230000Y-52662666D02*
X189060666Y-52832000D01*
X189230000Y-53001333D01*
X189399333Y-52832000D01*
X189230000Y-52662666D01*
X189230000Y-53001333D01*
X190415333Y-53848000D02*
X191770000Y-53848000D01*
X190923333Y-56218666D02*
X190923333Y-53170666D01*
X191092666Y-52832000D01*
X191431333Y-52662666D01*
X191770000Y-52662666D01*
X192955333Y-56218666D02*
X192955333Y-53848000D01*
X192955333Y-52662666D02*
X192786000Y-52832000D01*
X192955333Y-53001333D01*
X193124666Y-52832000D01*
X192955333Y-52662666D01*
X192955333Y-53001333D01*
X196003333Y-56049333D02*
X195664666Y-56218666D01*
X194987333Y-56218666D01*
X194648666Y-56049333D01*
X194479333Y-55710666D01*
X194479333Y-54356000D01*
X194648666Y-54017333D01*
X194987333Y-53848000D01*
X195664666Y-53848000D01*
X196003333Y-54017333D01*
X196172666Y-54356000D01*
X196172666Y-54694666D01*
X194479333Y-55033333D01*
X197696666Y-56218666D02*
X197696666Y-53848000D01*
X197696666Y-54525333D02*
X197866000Y-54186666D01*
X198035333Y-54017333D01*
X198374000Y-53848000D01*
X198712666Y-53848000D01*
D17*
%TO.C,G\u002A\u002A\u002A*%
G36*
X202731688Y-63044397D02*
G01*
X202754792Y-63054748D01*
X202773848Y-63082468D01*
X202789329Y-63137155D01*
X202801707Y-63228410D01*
X202811455Y-63365833D01*
X202819047Y-63559021D01*
X202824954Y-63817576D01*
X202829649Y-64151097D01*
X202833606Y-64569183D01*
X202837298Y-65081434D01*
X202838104Y-65205074D01*
X202851916Y-67347927D01*
X207177270Y-69517068D01*
X211502625Y-71686209D01*
X216582625Y-71712667D01*
X217437264Y-71717265D01*
X218192093Y-71721699D01*
X218853133Y-71726096D01*
X219426408Y-71730579D01*
X219917938Y-71735276D01*
X220333748Y-71740310D01*
X220679858Y-71745809D01*
X220962292Y-71751897D01*
X221187071Y-71758699D01*
X221360218Y-71766341D01*
X221487756Y-71774949D01*
X221575706Y-71784649D01*
X221630091Y-71795564D01*
X221656934Y-71807822D01*
X221662625Y-71818500D01*
X221653225Y-71831936D01*
X221621000Y-71843924D01*
X221559912Y-71854590D01*
X221463923Y-71864062D01*
X221326995Y-71872465D01*
X221143091Y-71879925D01*
X220906173Y-71886570D01*
X220610202Y-71892526D01*
X220249141Y-71897918D01*
X219816952Y-71902875D01*
X219307598Y-71907521D01*
X218715040Y-71911984D01*
X218033240Y-71916390D01*
X217256161Y-71920865D01*
X216609084Y-71924334D01*
X211555542Y-71950792D01*
X208658354Y-73405774D01*
X205761167Y-74860756D01*
X205761167Y-81872667D01*
X206445961Y-81872667D01*
X206770580Y-81877343D01*
X207002062Y-81891114D01*
X207135661Y-81913592D01*
X207167061Y-81931413D01*
X207141564Y-81982662D01*
X207053142Y-82093570D01*
X206915135Y-82250418D01*
X206740887Y-82439489D01*
X206543736Y-82647062D01*
X206337026Y-82859421D01*
X206134096Y-83062847D01*
X205948288Y-83243621D01*
X205792943Y-83388026D01*
X205681403Y-83482343D01*
X205628875Y-83513084D01*
X205569576Y-83477139D01*
X205454165Y-83378451D01*
X205295983Y-83230738D01*
X205108371Y-83047718D01*
X204904672Y-82843110D01*
X204698225Y-82630632D01*
X204502373Y-82424001D01*
X204330455Y-82236938D01*
X204196843Y-82084334D01*
X204466513Y-82084334D01*
X205046792Y-82666417D01*
X205247694Y-82866213D01*
X205422144Y-83036429D01*
X205556724Y-83164231D01*
X205638016Y-83236785D01*
X205655334Y-83248500D01*
X205700464Y-83212961D01*
X205806487Y-83114898D01*
X205959986Y-82967147D01*
X206147542Y-82782541D01*
X206263875Y-82666417D01*
X206844154Y-82084334D01*
X204466513Y-82084334D01*
X204196843Y-82084334D01*
X204195814Y-82083159D01*
X204111791Y-81976383D01*
X204090689Y-81931413D01*
X204162213Y-81904076D01*
X204335407Y-81885058D01*
X204606412Y-81874660D01*
X204838248Y-81872667D01*
X205549500Y-81872667D01*
X205549500Y-78433084D01*
X205549098Y-77840456D01*
X205547938Y-77280135D01*
X205546089Y-76760906D01*
X205543619Y-76291558D01*
X205540597Y-75880877D01*
X205537092Y-75537651D01*
X205533171Y-75270667D01*
X205528905Y-75088712D01*
X205524361Y-75000574D01*
X205522635Y-74993500D01*
X205470172Y-75016258D01*
X205335444Y-75080510D01*
X205130750Y-75180226D01*
X204868388Y-75309377D01*
X204560655Y-75461932D01*
X204219850Y-75631861D01*
X204173853Y-75654865D01*
X202851937Y-76316230D01*
X202838115Y-78472678D01*
X202834251Y-79013066D01*
X202829983Y-79456790D01*
X202824914Y-79813021D01*
X202818649Y-80090926D01*
X202810789Y-80299677D01*
X202800940Y-80448443D01*
X202788705Y-80546393D01*
X202773688Y-80602697D01*
X202755492Y-80626524D01*
X202744917Y-80629125D01*
X202724725Y-80618204D01*
X202707993Y-80579253D01*
X202694310Y-80502991D01*
X202683262Y-80380138D01*
X202674441Y-80201412D01*
X202667434Y-79957532D01*
X202661829Y-79639218D01*
X202657216Y-79237189D01*
X202653184Y-78742163D01*
X202651706Y-78525893D01*
X202637869Y-76422661D01*
X199828217Y-77827684D01*
X199262100Y-78109566D01*
X198740989Y-78366617D01*
X198271460Y-78595714D01*
X197860086Y-78793734D01*
X197513440Y-78957552D01*
X197238098Y-79084046D01*
X197040633Y-79170091D01*
X196927619Y-79212564D01*
X196905178Y-79216541D01*
X196859868Y-79205015D01*
X196828073Y-79174347D01*
X196806898Y-79107718D01*
X196793444Y-78988309D01*
X196784815Y-78799300D01*
X196778114Y-78523874D01*
X196777069Y-78472771D01*
X196762347Y-77745167D01*
X184753250Y-77745167D01*
X184753250Y-80338084D01*
X185307013Y-80338084D01*
X185558329Y-80340045D01*
X185724462Y-80348243D01*
X185826027Y-80366142D01*
X185883637Y-80397212D01*
X185915555Y-80440438D01*
X185925168Y-80510018D01*
X185934025Y-80673572D01*
X185942081Y-80919243D01*
X185949291Y-81235175D01*
X185955608Y-81609511D01*
X185960990Y-82030393D01*
X185965389Y-82485966D01*
X185968762Y-82964372D01*
X185971063Y-83453754D01*
X185972246Y-83942256D01*
X185972267Y-84418020D01*
X185971081Y-84869191D01*
X185968642Y-85283911D01*
X185964905Y-85650323D01*
X185959826Y-85956571D01*
X185953358Y-86190797D01*
X185945458Y-86341145D01*
X185938214Y-86392714D01*
X185906646Y-86430572D01*
X185834553Y-86455342D01*
X185703774Y-86469522D01*
X185496151Y-86475610D01*
X185329672Y-86476417D01*
X184753250Y-86476417D01*
X184753250Y-89122250D01*
X185438044Y-89122250D01*
X185762663Y-89126926D01*
X185994145Y-89140697D01*
X186127744Y-89163176D01*
X186159145Y-89180996D01*
X186133647Y-89232246D01*
X186045225Y-89343154D01*
X185907219Y-89500002D01*
X185732970Y-89689072D01*
X185535820Y-89896645D01*
X185329109Y-90109004D01*
X185126179Y-90312430D01*
X184940371Y-90493205D01*
X184785027Y-90637609D01*
X184673486Y-90731926D01*
X184620959Y-90762667D01*
X184561659Y-90726722D01*
X184446248Y-90628034D01*
X184288066Y-90480321D01*
X184100455Y-90297302D01*
X183896755Y-90092693D01*
X183690309Y-89880215D01*
X183494456Y-89673585D01*
X183322538Y-89486521D01*
X183188926Y-89333917D01*
X183458597Y-89333917D01*
X184038875Y-89916000D01*
X184237691Y-90115324D01*
X184407392Y-90285250D01*
X184535241Y-90413039D01*
X184608501Y-90485955D01*
X184620959Y-90498084D01*
X184656833Y-90462718D01*
X184754663Y-90365112D01*
X184901712Y-90218003D01*
X185085242Y-90034129D01*
X185203042Y-89916000D01*
X185783320Y-89333917D01*
X183458597Y-89333917D01*
X183188926Y-89333917D01*
X183187897Y-89332742D01*
X183103874Y-89225966D01*
X183082772Y-89180996D01*
X183154340Y-89153396D01*
X183326685Y-89134268D01*
X183595062Y-89123999D01*
X183803873Y-89122250D01*
X184488667Y-89122250D01*
X184488667Y-86476417D01*
X183912245Y-86476417D01*
X183650584Y-86473942D01*
X183476516Y-86464854D01*
X183371882Y-86446654D01*
X183318522Y-86416844D01*
X183303703Y-86392714D01*
X183297693Y-86325400D01*
X183292049Y-86162155D01*
X183286876Y-85912879D01*
X183282282Y-85587475D01*
X183278370Y-85195843D01*
X183275248Y-84747884D01*
X183273021Y-84253501D01*
X183271795Y-83722594D01*
X183271584Y-83387047D01*
X183272170Y-82714450D01*
X183274016Y-82141516D01*
X183277254Y-81662082D01*
X183282013Y-81269984D01*
X183288426Y-80959058D01*
X183296623Y-80723141D01*
X183297509Y-80708500D01*
X183642000Y-80708500D01*
X183642000Y-86158917D01*
X185599917Y-86158917D01*
X185599917Y-80708500D01*
X183642000Y-80708500D01*
X183297509Y-80708500D01*
X183306736Y-80556068D01*
X183318896Y-80451676D01*
X183333233Y-80403801D01*
X183335084Y-80401583D01*
X183425946Y-80368091D01*
X183615527Y-80346742D01*
X183897336Y-80338216D01*
X183943625Y-80338084D01*
X184488667Y-80338084D01*
X184488667Y-77745167D01*
X180175959Y-77747457D01*
X180096584Y-77918291D01*
X179986609Y-78066772D01*
X179846375Y-78168500D01*
X179675541Y-78247875D01*
X179674395Y-79292979D01*
X179673250Y-80338084D01*
X180218292Y-80338084D01*
X180512454Y-80344767D01*
X180715295Y-80364367D01*
X180820323Y-80396206D01*
X180826833Y-80401583D01*
X180841438Y-80443166D01*
X180853848Y-80540536D01*
X180864197Y-80699855D01*
X180872615Y-80927288D01*
X180879232Y-81228999D01*
X180884181Y-81611151D01*
X180887592Y-82079908D01*
X180889597Y-82641435D01*
X180890326Y-83301894D01*
X180890334Y-83387047D01*
X180889766Y-83935280D01*
X180888133Y-84452993D01*
X180885541Y-84930286D01*
X180882096Y-85357256D01*
X180877903Y-85724004D01*
X180873068Y-86020626D01*
X180867697Y-86237223D01*
X180861896Y-86363892D01*
X180858214Y-86392714D01*
X180826646Y-86430572D01*
X180754553Y-86455342D01*
X180623774Y-86469522D01*
X180416151Y-86475610D01*
X180249672Y-86476417D01*
X179673250Y-86476417D01*
X179673250Y-89122250D01*
X180358044Y-89122250D01*
X180682663Y-89126926D01*
X180914145Y-89140697D01*
X181047744Y-89163176D01*
X181079145Y-89180996D01*
X181053647Y-89232246D01*
X180965225Y-89343154D01*
X180827219Y-89500002D01*
X180652970Y-89689072D01*
X180455820Y-89896645D01*
X180249109Y-90109004D01*
X180046179Y-90312430D01*
X179860371Y-90493205D01*
X179705027Y-90637609D01*
X179593486Y-90731926D01*
X179540959Y-90762667D01*
X179488716Y-90726793D01*
X179374342Y-90626674D01*
X179209869Y-90473563D01*
X179007334Y-90278711D01*
X178778770Y-90053372D01*
X178726569Y-90001205D01*
X178482167Y-89751855D01*
X178278753Y-89535314D01*
X178125110Y-89361533D01*
X178103420Y-89333917D01*
X178378597Y-89333917D01*
X178958875Y-89916000D01*
X179157691Y-90115324D01*
X179327392Y-90285250D01*
X179455241Y-90413039D01*
X179528501Y-90485955D01*
X179540959Y-90498084D01*
X179576833Y-90462718D01*
X179674663Y-90365112D01*
X179821712Y-90218003D01*
X180005242Y-90034129D01*
X180123042Y-89916000D01*
X180703320Y-89333917D01*
X178378597Y-89333917D01*
X178103420Y-89333917D01*
X178030017Y-89240463D01*
X178002258Y-89182057D01*
X178002772Y-89180996D01*
X178074340Y-89153396D01*
X178246685Y-89134268D01*
X178515062Y-89123999D01*
X178723873Y-89122250D01*
X179408667Y-89122250D01*
X179408667Y-86476417D01*
X178832245Y-86476417D01*
X178570584Y-86473942D01*
X178396516Y-86464854D01*
X178291882Y-86446654D01*
X178238522Y-86416844D01*
X178223703Y-86392714D01*
X178214645Y-86316605D01*
X178207055Y-86147299D01*
X178200888Y-85896654D01*
X178196100Y-85576527D01*
X178192645Y-85198774D01*
X178190478Y-84775252D01*
X178189554Y-84317818D01*
X178189828Y-83838328D01*
X178191255Y-83348640D01*
X178193788Y-82860611D01*
X178197385Y-82386096D01*
X178201998Y-81936954D01*
X178207584Y-81525040D01*
X178214097Y-81162212D01*
X178221491Y-80860327D01*
X178226946Y-80708500D01*
X178562000Y-80708500D01*
X178562000Y-86158917D01*
X180519917Y-86158917D01*
X180519917Y-80708500D01*
X178562000Y-80708500D01*
X178226946Y-80708500D01*
X178229722Y-80631240D01*
X178238745Y-80486810D01*
X178246362Y-80440438D01*
X178281733Y-80394180D01*
X178342081Y-80364284D01*
X178448023Y-80347282D01*
X178620170Y-80339707D01*
X178854904Y-80338084D01*
X179408667Y-80338084D01*
X179408667Y-78284787D01*
X179221286Y-78174230D01*
X179073891Y-78060461D01*
X178955977Y-77925078D01*
X178943473Y-77904754D01*
X178853042Y-77745836D01*
X177020667Y-77745501D01*
X176512295Y-77744666D01*
X176100348Y-77742126D01*
X175775428Y-77737529D01*
X175528136Y-77730519D01*
X175349072Y-77720742D01*
X175228837Y-77707843D01*
X175158032Y-77691468D01*
X175129355Y-77674152D01*
X175095787Y-77596991D01*
X175105237Y-77568319D01*
X175164462Y-77560228D01*
X175317285Y-77552803D01*
X175551468Y-77546268D01*
X175854776Y-77540847D01*
X176214975Y-77536765D01*
X176619827Y-77534246D01*
X177004041Y-77533500D01*
X178868027Y-77533500D01*
X178899750Y-77407104D01*
X178986668Y-77244084D01*
X179142326Y-77095594D01*
X179330415Y-76989043D01*
X179503112Y-76951615D01*
X179743678Y-76998014D01*
X179955505Y-77122886D01*
X180106053Y-77305477D01*
X180126936Y-77349451D01*
X180203837Y-77533500D01*
X184488667Y-77533500D01*
X184753250Y-77533500D01*
X196765334Y-77533500D01*
X196765334Y-74834750D01*
X194175489Y-74834750D01*
X194145959Y-76237042D01*
X189595125Y-76237042D01*
X189580315Y-75562354D01*
X189565505Y-74887667D01*
X188990664Y-74887667D01*
X188729393Y-74885181D01*
X188555693Y-74876051D01*
X188451380Y-74857770D01*
X188398273Y-74827830D01*
X188383703Y-74803964D01*
X188377059Y-74734681D01*
X188371202Y-74571401D01*
X188366131Y-74325958D01*
X188361848Y-74010185D01*
X188358351Y-73635917D01*
X188355641Y-73214987D01*
X188353719Y-72759228D01*
X188352583Y-72280475D01*
X188352234Y-71790560D01*
X188352673Y-71301318D01*
X188353898Y-70824583D01*
X188355910Y-70372187D01*
X188358709Y-69955965D01*
X188362295Y-69587751D01*
X188366668Y-69279377D01*
X188371301Y-69066834D01*
X188722000Y-69066834D01*
X188722000Y-74570167D01*
X190679917Y-74570167D01*
X190679917Y-69066834D01*
X188722000Y-69066834D01*
X188371301Y-69066834D01*
X188371828Y-69042678D01*
X188377775Y-68889487D01*
X188383703Y-68833036D01*
X188415322Y-68795132D01*
X188487532Y-68770349D01*
X188618516Y-68756181D01*
X188826455Y-68750121D01*
X188990664Y-68749334D01*
X189565505Y-68749334D01*
X189580315Y-68074646D01*
X189591059Y-67585167D01*
X189833250Y-67585167D01*
X189833250Y-68749334D01*
X190387013Y-68749334D01*
X190638329Y-68751295D01*
X190804462Y-68759493D01*
X190906027Y-68777392D01*
X190963637Y-68808462D01*
X190995555Y-68851688D01*
X191007641Y-68926541D01*
X191018277Y-69095243D01*
X191027464Y-69345822D01*
X191035201Y-69666302D01*
X191041489Y-70044711D01*
X191046328Y-70469075D01*
X191049716Y-70927419D01*
X191051656Y-71407770D01*
X191052146Y-71898155D01*
X191051186Y-72386599D01*
X191048777Y-72861129D01*
X191044918Y-73309771D01*
X191039610Y-73720551D01*
X191032852Y-74081496D01*
X191024645Y-74380631D01*
X191014989Y-74605984D01*
X191003882Y-74745579D01*
X190995555Y-74785312D01*
X190960184Y-74831570D01*
X190899836Y-74861466D01*
X190793894Y-74878468D01*
X190621747Y-74886043D01*
X190387013Y-74887667D01*
X189833250Y-74887667D01*
X189833250Y-76051834D01*
X193904762Y-76051834D01*
X193934292Y-74649542D01*
X195349813Y-74635448D01*
X196765334Y-74621355D01*
X196765334Y-71818500D01*
X197135750Y-71818500D01*
X197135948Y-72665802D01*
X197136524Y-73483395D01*
X197137456Y-74265090D01*
X197138720Y-75004697D01*
X197140293Y-75696027D01*
X197142151Y-76332889D01*
X197144269Y-76909094D01*
X197146626Y-77418452D01*
X197149197Y-77854774D01*
X197151959Y-78211869D01*
X197154888Y-78483547D01*
X197157960Y-78663619D01*
X197161153Y-78745896D01*
X197162126Y-78750584D01*
X197212206Y-78727442D01*
X197350358Y-78660192D01*
X197570014Y-78552098D01*
X197864605Y-78406425D01*
X198227565Y-78226436D01*
X198652326Y-78015394D01*
X199132319Y-77776565D01*
X199660977Y-77513211D01*
X200231732Y-77228597D01*
X200838016Y-76925987D01*
X201473262Y-76608645D01*
X201660906Y-76514854D01*
X206133311Y-74279125D01*
X205431302Y-74252667D01*
X204729292Y-74226209D01*
X204713015Y-73940255D01*
X204720332Y-73787000D01*
X204967417Y-73787000D01*
X204967417Y-74041000D01*
X205510049Y-74041000D01*
X205484084Y-73770776D01*
X205447406Y-73570266D01*
X205376228Y-73455872D01*
X205256923Y-73409957D01*
X205202896Y-73406810D01*
X205073289Y-73438877D01*
X204997378Y-73544900D01*
X204968241Y-73736056D01*
X204967417Y-73787000D01*
X204720332Y-73787000D01*
X204727606Y-73634673D01*
X204809550Y-73407520D01*
X204957342Y-73260950D01*
X205169481Y-73197114D01*
X205233796Y-73194334D01*
X205402991Y-73227275D01*
X205549447Y-73310999D01*
X205640587Y-73422854D01*
X205655334Y-73487437D01*
X205664283Y-73544592D01*
X205702374Y-73554916D01*
X205786466Y-73512832D01*
X205933421Y-73412767D01*
X205978316Y-73380655D01*
X206144717Y-73279057D01*
X206275377Y-73232761D01*
X206354482Y-73243720D01*
X206366218Y-73313890D01*
X206359734Y-73333537D01*
X206303196Y-73400522D01*
X206183022Y-73502673D01*
X206024828Y-73618284D01*
X206019117Y-73622172D01*
X205826963Y-73768797D01*
X205724438Y-73885582D01*
X205708250Y-73937139D01*
X205720494Y-73995444D01*
X205773354Y-74026824D01*
X205891024Y-74039272D01*
X206022627Y-74041000D01*
X206195785Y-74049068D01*
X206322788Y-74069979D01*
X206368934Y-74092663D01*
X206419476Y-74078074D01*
X206553380Y-74021275D01*
X206759521Y-73927730D01*
X207026772Y-73802903D01*
X207344009Y-73652256D01*
X207700104Y-73481252D01*
X208083932Y-73295355D01*
X208484368Y-73100028D01*
X208890285Y-72900734D01*
X209290557Y-72702936D01*
X209674059Y-72512098D01*
X210029664Y-72333682D01*
X210346248Y-72173152D01*
X210612683Y-72035972D01*
X210817844Y-71927603D01*
X210950606Y-71853510D01*
X210999842Y-71819156D01*
X210999917Y-71818689D01*
X210953635Y-71792934D01*
X210819054Y-71723124D01*
X210602569Y-71612463D01*
X210310578Y-71464155D01*
X209949474Y-71281405D01*
X209525656Y-71067416D01*
X209045519Y-70825393D01*
X208515458Y-70558541D01*
X207941871Y-70270062D01*
X207331153Y-69963163D01*
X206689700Y-69641046D01*
X206023908Y-69306916D01*
X205340174Y-68963977D01*
X204644893Y-68615434D01*
X203944461Y-68264491D01*
X203245275Y-67914351D01*
X202553731Y-67568220D01*
X201876224Y-67229300D01*
X201219151Y-66900798D01*
X200588908Y-66585916D01*
X199991890Y-66287860D01*
X199434495Y-66009833D01*
X198923118Y-65755039D01*
X198464154Y-65526683D01*
X198064001Y-65327968D01*
X197729054Y-65162100D01*
X197465710Y-65032283D01*
X197280364Y-64941720D01*
X197179412Y-64893616D01*
X197162155Y-64886417D01*
X197158927Y-64938302D01*
X197155813Y-65089830D01*
X197152836Y-65334813D01*
X197150018Y-65667059D01*
X197147385Y-66080379D01*
X197144959Y-66568584D01*
X197142764Y-67125483D01*
X197140824Y-67744888D01*
X197139162Y-68420607D01*
X197137802Y-69146452D01*
X197136767Y-69916232D01*
X197136081Y-70723757D01*
X197135768Y-71562839D01*
X197135750Y-71818500D01*
X196765334Y-71818500D01*
X196765334Y-69015645D01*
X193934292Y-68987459D01*
X193904762Y-67585167D01*
X189833250Y-67585167D01*
X189591059Y-67585167D01*
X189595125Y-67399959D01*
X194145959Y-67399959D01*
X194160724Y-68101104D01*
X194175489Y-68802250D01*
X196765334Y-68802250D01*
X196765334Y-66156417D01*
X191010646Y-66156751D01*
X185255959Y-66157086D01*
X185164918Y-66317065D01*
X185050733Y-66459674D01*
X184913898Y-66568085D01*
X184753919Y-66659125D01*
X184753585Y-72096313D01*
X184753250Y-77533500D01*
X184488667Y-77533500D01*
X184487522Y-72096313D01*
X184486376Y-66659125D01*
X184315542Y-66579750D01*
X184168372Y-66477861D01*
X184044345Y-66338978D01*
X184038875Y-66330434D01*
X183933042Y-66160494D01*
X179560667Y-66158455D01*
X178755278Y-66157813D01*
X178049630Y-66156619D01*
X177437632Y-66154775D01*
X176913190Y-66152181D01*
X176470215Y-66148738D01*
X176102614Y-66144347D01*
X175804296Y-66138909D01*
X175569168Y-66132325D01*
X175391140Y-66124495D01*
X175264120Y-66115322D01*
X175182016Y-66104704D01*
X175138737Y-66092544D01*
X175130155Y-66086366D01*
X175104534Y-66052432D01*
X175091833Y-66022689D01*
X175098357Y-65996864D01*
X175130412Y-65974678D01*
X175194303Y-65955855D01*
X175296337Y-65940121D01*
X175442818Y-65927198D01*
X175640053Y-65916810D01*
X175894346Y-65908682D01*
X176212005Y-65902536D01*
X176599333Y-65898097D01*
X177062636Y-65895089D01*
X177608221Y-65893235D01*
X178242393Y-65892259D01*
X178971457Y-65891885D01*
X179571580Y-65891833D01*
X183946660Y-65891834D01*
X184015009Y-65726825D01*
X184145647Y-65542471D01*
X184348747Y-65416951D01*
X184601140Y-65363769D01*
X184639479Y-65362865D01*
X184804266Y-65377717D01*
X184931345Y-65437871D01*
X185049584Y-65542584D01*
X185156303Y-65665917D01*
X185220796Y-65772501D01*
X185229500Y-65807167D01*
X185236224Y-65820520D01*
X185260234Y-65832404D01*
X185307285Y-65842903D01*
X185383133Y-65852102D01*
X185493534Y-65860085D01*
X185644245Y-65866937D01*
X185841020Y-65872741D01*
X186089616Y-65877584D01*
X186395789Y-65881548D01*
X186765295Y-65884720D01*
X187203889Y-65887182D01*
X187717327Y-65889020D01*
X188311366Y-65890319D01*
X188991761Y-65891162D01*
X189764269Y-65891634D01*
X190634644Y-65891820D01*
X190995924Y-65891834D01*
X196762347Y-65891834D01*
X196777069Y-65164887D01*
X196784516Y-64870603D01*
X196794405Y-64665923D01*
X196808988Y-64534619D01*
X196830518Y-64460461D01*
X196861247Y-64427221D01*
X196880329Y-64420956D01*
X196942496Y-64441006D01*
X197090566Y-64504699D01*
X197315991Y-64607939D01*
X197610224Y-64746626D01*
X197964714Y-64916663D01*
X198370913Y-65113950D01*
X198820274Y-65334391D01*
X199304246Y-65573885D01*
X199776388Y-65809362D01*
X200282988Y-66062729D01*
X200761125Y-66301422D01*
X201202471Y-66521314D01*
X201598700Y-66718276D01*
X201941484Y-66888181D01*
X202222497Y-67026901D01*
X202433410Y-67130307D01*
X202565898Y-67194273D01*
X202611497Y-67214750D01*
X202617544Y-67163711D01*
X202623134Y-67018100D01*
X202628117Y-66789180D01*
X202632346Y-66488213D01*
X202635671Y-66126460D01*
X202637944Y-65715182D01*
X202639018Y-65265643D01*
X202639084Y-65120662D01*
X202639318Y-64594355D01*
X202640304Y-64164327D01*
X202642470Y-63821023D01*
X202646240Y-63554887D01*
X202652041Y-63356366D01*
X202660299Y-63215904D01*
X202671440Y-63123948D01*
X202685890Y-63070941D01*
X202704076Y-63047331D01*
X202726424Y-63043561D01*
X202731688Y-63044397D01*
G37*
X202731688Y-63044397D02*
X202754792Y-63054748D01*
X202773848Y-63082468D01*
X202789329Y-63137155D01*
X202801707Y-63228410D01*
X202811455Y-63365833D01*
X202819047Y-63559021D01*
X202824954Y-63817576D01*
X202829649Y-64151097D01*
X202833606Y-64569183D01*
X202837298Y-65081434D01*
X202838104Y-65205074D01*
X202851916Y-67347927D01*
X207177270Y-69517068D01*
X211502625Y-71686209D01*
X216582625Y-71712667D01*
X217437264Y-71717265D01*
X218192093Y-71721699D01*
X218853133Y-71726096D01*
X219426408Y-71730579D01*
X219917938Y-71735276D01*
X220333748Y-71740310D01*
X220679858Y-71745809D01*
X220962292Y-71751897D01*
X221187071Y-71758699D01*
X221360218Y-71766341D01*
X221487756Y-71774949D01*
X221575706Y-71784649D01*
X221630091Y-71795564D01*
X221656934Y-71807822D01*
X221662625Y-71818500D01*
X221653225Y-71831936D01*
X221621000Y-71843924D01*
X221559912Y-71854590D01*
X221463923Y-71864062D01*
X221326995Y-71872465D01*
X221143091Y-71879925D01*
X220906173Y-71886570D01*
X220610202Y-71892526D01*
X220249141Y-71897918D01*
X219816952Y-71902875D01*
X219307598Y-71907521D01*
X218715040Y-71911984D01*
X218033240Y-71916390D01*
X217256161Y-71920865D01*
X216609084Y-71924334D01*
X211555542Y-71950792D01*
X208658354Y-73405774D01*
X205761167Y-74860756D01*
X205761167Y-81872667D01*
X206445961Y-81872667D01*
X206770580Y-81877343D01*
X207002062Y-81891114D01*
X207135661Y-81913592D01*
X207167061Y-81931413D01*
X207141564Y-81982662D01*
X207053142Y-82093570D01*
X206915135Y-82250418D01*
X206740887Y-82439489D01*
X206543736Y-82647062D01*
X206337026Y-82859421D01*
X206134096Y-83062847D01*
X205948288Y-83243621D01*
X205792943Y-83388026D01*
X205681403Y-83482343D01*
X205628875Y-83513084D01*
X205569576Y-83477139D01*
X205454165Y-83378451D01*
X205295983Y-83230738D01*
X205108371Y-83047718D01*
X204904672Y-82843110D01*
X204698225Y-82630632D01*
X204502373Y-82424001D01*
X204330455Y-82236938D01*
X204196843Y-82084334D01*
X204466513Y-82084334D01*
X205046792Y-82666417D01*
X205247694Y-82866213D01*
X205422144Y-83036429D01*
X205556724Y-83164231D01*
X205638016Y-83236785D01*
X205655334Y-83248500D01*
X205700464Y-83212961D01*
X205806487Y-83114898D01*
X205959986Y-82967147D01*
X206147542Y-82782541D01*
X206263875Y-82666417D01*
X206844154Y-82084334D01*
X204466513Y-82084334D01*
X204196843Y-82084334D01*
X204195814Y-82083159D01*
X204111791Y-81976383D01*
X204090689Y-81931413D01*
X204162213Y-81904076D01*
X204335407Y-81885058D01*
X204606412Y-81874660D01*
X204838248Y-81872667D01*
X205549500Y-81872667D01*
X205549500Y-78433084D01*
X205549098Y-77840456D01*
X205547938Y-77280135D01*
X205546089Y-76760906D01*
X205543619Y-76291558D01*
X205540597Y-75880877D01*
X205537092Y-75537651D01*
X205533171Y-75270667D01*
X205528905Y-75088712D01*
X205524361Y-75000574D01*
X205522635Y-74993500D01*
X205470172Y-75016258D01*
X205335444Y-75080510D01*
X205130750Y-75180226D01*
X204868388Y-75309377D01*
X204560655Y-75461932D01*
X204219850Y-75631861D01*
X204173853Y-75654865D01*
X202851937Y-76316230D01*
X202838115Y-78472678D01*
X202834251Y-79013066D01*
X202829983Y-79456790D01*
X202824914Y-79813021D01*
X202818649Y-80090926D01*
X202810789Y-80299677D01*
X202800940Y-80448443D01*
X202788705Y-80546393D01*
X202773688Y-80602697D01*
X202755492Y-80626524D01*
X202744917Y-80629125D01*
X202724725Y-80618204D01*
X202707993Y-80579253D01*
X202694310Y-80502991D01*
X202683262Y-80380138D01*
X202674441Y-80201412D01*
X202667434Y-79957532D01*
X202661829Y-79639218D01*
X202657216Y-79237189D01*
X202653184Y-78742163D01*
X202651706Y-78525893D01*
X202637869Y-76422661D01*
X199828217Y-77827684D01*
X199262100Y-78109566D01*
X198740989Y-78366617D01*
X198271460Y-78595714D01*
X197860086Y-78793734D01*
X197513440Y-78957552D01*
X197238098Y-79084046D01*
X197040633Y-79170091D01*
X196927619Y-79212564D01*
X196905178Y-79216541D01*
X196859868Y-79205015D01*
X196828073Y-79174347D01*
X196806898Y-79107718D01*
X196793444Y-78988309D01*
X196784815Y-78799300D01*
X196778114Y-78523874D01*
X196777069Y-78472771D01*
X196762347Y-77745167D01*
X184753250Y-77745167D01*
X184753250Y-80338084D01*
X185307013Y-80338084D01*
X185558329Y-80340045D01*
X185724462Y-80348243D01*
X185826027Y-80366142D01*
X185883637Y-80397212D01*
X185915555Y-80440438D01*
X185925168Y-80510018D01*
X185934025Y-80673572D01*
X185942081Y-80919243D01*
X185949291Y-81235175D01*
X185955608Y-81609511D01*
X185960990Y-82030393D01*
X185965389Y-82485966D01*
X185968762Y-82964372D01*
X185971063Y-83453754D01*
X185972246Y-83942256D01*
X185972267Y-84418020D01*
X185971081Y-84869191D01*
X185968642Y-85283911D01*
X185964905Y-85650323D01*
X185959826Y-85956571D01*
X185953358Y-86190797D01*
X185945458Y-86341145D01*
X185938214Y-86392714D01*
X185906646Y-86430572D01*
X185834553Y-86455342D01*
X185703774Y-86469522D01*
X185496151Y-86475610D01*
X185329672Y-86476417D01*
X184753250Y-86476417D01*
X184753250Y-89122250D01*
X185438044Y-89122250D01*
X185762663Y-89126926D01*
X185994145Y-89140697D01*
X186127744Y-89163176D01*
X186159145Y-89180996D01*
X186133647Y-89232246D01*
X186045225Y-89343154D01*
X185907219Y-89500002D01*
X185732970Y-89689072D01*
X185535820Y-89896645D01*
X185329109Y-90109004D01*
X185126179Y-90312430D01*
X184940371Y-90493205D01*
X184785027Y-90637609D01*
X184673486Y-90731926D01*
X184620959Y-90762667D01*
X184561659Y-90726722D01*
X184446248Y-90628034D01*
X184288066Y-90480321D01*
X184100455Y-90297302D01*
X183896755Y-90092693D01*
X183690309Y-89880215D01*
X183494456Y-89673585D01*
X183322538Y-89486521D01*
X183188926Y-89333917D01*
X183458597Y-89333917D01*
X184038875Y-89916000D01*
X184237691Y-90115324D01*
X184407392Y-90285250D01*
X184535241Y-90413039D01*
X184608501Y-90485955D01*
X184620959Y-90498084D01*
X184656833Y-90462718D01*
X184754663Y-90365112D01*
X184901712Y-90218003D01*
X185085242Y-90034129D01*
X185203042Y-89916000D01*
X185783320Y-89333917D01*
X183458597Y-89333917D01*
X183188926Y-89333917D01*
X183187897Y-89332742D01*
X183103874Y-89225966D01*
X183082772Y-89180996D01*
X183154340Y-89153396D01*
X183326685Y-89134268D01*
X183595062Y-89123999D01*
X183803873Y-89122250D01*
X184488667Y-89122250D01*
X184488667Y-86476417D01*
X183912245Y-86476417D01*
X183650584Y-86473942D01*
X183476516Y-86464854D01*
X183371882Y-86446654D01*
X183318522Y-86416844D01*
X183303703Y-86392714D01*
X183297693Y-86325400D01*
X183292049Y-86162155D01*
X183286876Y-85912879D01*
X183282282Y-85587475D01*
X183278370Y-85195843D01*
X183275248Y-84747884D01*
X183273021Y-84253501D01*
X183271795Y-83722594D01*
X183271584Y-83387047D01*
X183272170Y-82714450D01*
X183274016Y-82141516D01*
X183277254Y-81662082D01*
X183282013Y-81269984D01*
X183288426Y-80959058D01*
X183296623Y-80723141D01*
X183297509Y-80708500D01*
X183642000Y-80708500D01*
X183642000Y-86158917D01*
X185599917Y-86158917D01*
X185599917Y-80708500D01*
X183642000Y-80708500D01*
X183297509Y-80708500D01*
X183306736Y-80556068D01*
X183318896Y-80451676D01*
X183333233Y-80403801D01*
X183335084Y-80401583D01*
X183425946Y-80368091D01*
X183615527Y-80346742D01*
X183897336Y-80338216D01*
X183943625Y-80338084D01*
X184488667Y-80338084D01*
X184488667Y-77745167D01*
X180175959Y-77747457D01*
X180096584Y-77918291D01*
X179986609Y-78066772D01*
X179846375Y-78168500D01*
X179675541Y-78247875D01*
X179674395Y-79292979D01*
X179673250Y-80338084D01*
X180218292Y-80338084D01*
X180512454Y-80344767D01*
X180715295Y-80364367D01*
X180820323Y-80396206D01*
X180826833Y-80401583D01*
X180841438Y-80443166D01*
X180853848Y-80540536D01*
X180864197Y-80699855D01*
X180872615Y-80927288D01*
X180879232Y-81228999D01*
X180884181Y-81611151D01*
X180887592Y-82079908D01*
X180889597Y-82641435D01*
X180890326Y-83301894D01*
X180890334Y-83387047D01*
X180889766Y-83935280D01*
X180888133Y-84452993D01*
X180885541Y-84930286D01*
X180882096Y-85357256D01*
X180877903Y-85724004D01*
X180873068Y-86020626D01*
X180867697Y-86237223D01*
X180861896Y-86363892D01*
X180858214Y-86392714D01*
X180826646Y-86430572D01*
X180754553Y-86455342D01*
X180623774Y-86469522D01*
X180416151Y-86475610D01*
X180249672Y-86476417D01*
X179673250Y-86476417D01*
X179673250Y-89122250D01*
X180358044Y-89122250D01*
X180682663Y-89126926D01*
X180914145Y-89140697D01*
X181047744Y-89163176D01*
X181079145Y-89180996D01*
X181053647Y-89232246D01*
X180965225Y-89343154D01*
X180827219Y-89500002D01*
X180652970Y-89689072D01*
X180455820Y-89896645D01*
X180249109Y-90109004D01*
X180046179Y-90312430D01*
X179860371Y-90493205D01*
X179705027Y-90637609D01*
X179593486Y-90731926D01*
X179540959Y-90762667D01*
X179488716Y-90726793D01*
X179374342Y-90626674D01*
X179209869Y-90473563D01*
X179007334Y-90278711D01*
X178778770Y-90053372D01*
X178726569Y-90001205D01*
X178482167Y-89751855D01*
X178278753Y-89535314D01*
X178125110Y-89361533D01*
X178103420Y-89333917D01*
X178378597Y-89333917D01*
X178958875Y-89916000D01*
X179157691Y-90115324D01*
X179327392Y-90285250D01*
X179455241Y-90413039D01*
X179528501Y-90485955D01*
X179540959Y-90498084D01*
X179576833Y-90462718D01*
X179674663Y-90365112D01*
X179821712Y-90218003D01*
X180005242Y-90034129D01*
X180123042Y-89916000D01*
X180703320Y-89333917D01*
X178378597Y-89333917D01*
X178103420Y-89333917D01*
X178030017Y-89240463D01*
X178002258Y-89182057D01*
X178002772Y-89180996D01*
X178074340Y-89153396D01*
X178246685Y-89134268D01*
X178515062Y-89123999D01*
X178723873Y-89122250D01*
X179408667Y-89122250D01*
X179408667Y-86476417D01*
X178832245Y-86476417D01*
X178570584Y-86473942D01*
X178396516Y-86464854D01*
X178291882Y-86446654D01*
X178238522Y-86416844D01*
X178223703Y-86392714D01*
X178214645Y-86316605D01*
X178207055Y-86147299D01*
X178200888Y-85896654D01*
X178196100Y-85576527D01*
X178192645Y-85198774D01*
X178190478Y-84775252D01*
X178189554Y-84317818D01*
X178189828Y-83838328D01*
X178191255Y-83348640D01*
X178193788Y-82860611D01*
X178197385Y-82386096D01*
X178201998Y-81936954D01*
X178207584Y-81525040D01*
X178214097Y-81162212D01*
X178221491Y-80860327D01*
X178226946Y-80708500D01*
X178562000Y-80708500D01*
X178562000Y-86158917D01*
X180519917Y-86158917D01*
X180519917Y-80708500D01*
X178562000Y-80708500D01*
X178226946Y-80708500D01*
X178229722Y-80631240D01*
X178238745Y-80486810D01*
X178246362Y-80440438D01*
X178281733Y-80394180D01*
X178342081Y-80364284D01*
X178448023Y-80347282D01*
X178620170Y-80339707D01*
X178854904Y-80338084D01*
X179408667Y-80338084D01*
X179408667Y-78284787D01*
X179221286Y-78174230D01*
X179073891Y-78060461D01*
X178955977Y-77925078D01*
X178943473Y-77904754D01*
X178853042Y-77745836D01*
X177020667Y-77745501D01*
X176512295Y-77744666D01*
X176100348Y-77742126D01*
X175775428Y-77737529D01*
X175528136Y-77730519D01*
X175349072Y-77720742D01*
X175228837Y-77707843D01*
X175158032Y-77691468D01*
X175129355Y-77674152D01*
X175095787Y-77596991D01*
X175105237Y-77568319D01*
X175164462Y-77560228D01*
X175317285Y-77552803D01*
X175551468Y-77546268D01*
X175854776Y-77540847D01*
X176214975Y-77536765D01*
X176619827Y-77534246D01*
X177004041Y-77533500D01*
X178868027Y-77533500D01*
X178899750Y-77407104D01*
X178986668Y-77244084D01*
X179142326Y-77095594D01*
X179330415Y-76989043D01*
X179503112Y-76951615D01*
X179743678Y-76998014D01*
X179955505Y-77122886D01*
X180106053Y-77305477D01*
X180126936Y-77349451D01*
X180203837Y-77533500D01*
X184488667Y-77533500D01*
X184753250Y-77533500D01*
X196765334Y-77533500D01*
X196765334Y-74834750D01*
X194175489Y-74834750D01*
X194145959Y-76237042D01*
X189595125Y-76237042D01*
X189580315Y-75562354D01*
X189565505Y-74887667D01*
X188990664Y-74887667D01*
X188729393Y-74885181D01*
X188555693Y-74876051D01*
X188451380Y-74857770D01*
X188398273Y-74827830D01*
X188383703Y-74803964D01*
X188377059Y-74734681D01*
X188371202Y-74571401D01*
X188366131Y-74325958D01*
X188361848Y-74010185D01*
X188358351Y-73635917D01*
X188355641Y-73214987D01*
X188353719Y-72759228D01*
X188352583Y-72280475D01*
X188352234Y-71790560D01*
X188352673Y-71301318D01*
X188353898Y-70824583D01*
X188355910Y-70372187D01*
X188358709Y-69955965D01*
X188362295Y-69587751D01*
X188366668Y-69279377D01*
X188371301Y-69066834D01*
X188722000Y-69066834D01*
X188722000Y-74570167D01*
X190679917Y-74570167D01*
X190679917Y-69066834D01*
X188722000Y-69066834D01*
X188371301Y-69066834D01*
X188371828Y-69042678D01*
X188377775Y-68889487D01*
X188383703Y-68833036D01*
X188415322Y-68795132D01*
X188487532Y-68770349D01*
X188618516Y-68756181D01*
X188826455Y-68750121D01*
X188990664Y-68749334D01*
X189565505Y-68749334D01*
X189580315Y-68074646D01*
X189591059Y-67585167D01*
X189833250Y-67585167D01*
X189833250Y-68749334D01*
X190387013Y-68749334D01*
X190638329Y-68751295D01*
X190804462Y-68759493D01*
X190906027Y-68777392D01*
X190963637Y-68808462D01*
X190995555Y-68851688D01*
X191007641Y-68926541D01*
X191018277Y-69095243D01*
X191027464Y-69345822D01*
X191035201Y-69666302D01*
X191041489Y-70044711D01*
X191046328Y-70469075D01*
X191049716Y-70927419D01*
X191051656Y-71407770D01*
X191052146Y-71898155D01*
X191051186Y-72386599D01*
X191048777Y-72861129D01*
X191044918Y-73309771D01*
X191039610Y-73720551D01*
X191032852Y-74081496D01*
X191024645Y-74380631D01*
X191014989Y-74605984D01*
X191003882Y-74745579D01*
X190995555Y-74785312D01*
X190960184Y-74831570D01*
X190899836Y-74861466D01*
X190793894Y-74878468D01*
X190621747Y-74886043D01*
X190387013Y-74887667D01*
X189833250Y-74887667D01*
X189833250Y-76051834D01*
X193904762Y-76051834D01*
X193934292Y-74649542D01*
X195349813Y-74635448D01*
X196765334Y-74621355D01*
X196765334Y-71818500D01*
X197135750Y-71818500D01*
X197135948Y-72665802D01*
X197136524Y-73483395D01*
X197137456Y-74265090D01*
X197138720Y-75004697D01*
X197140293Y-75696027D01*
X197142151Y-76332889D01*
X197144269Y-76909094D01*
X197146626Y-77418452D01*
X197149197Y-77854774D01*
X197151959Y-78211869D01*
X197154888Y-78483547D01*
X197157960Y-78663619D01*
X197161153Y-78745896D01*
X197162126Y-78750584D01*
X197212206Y-78727442D01*
X197350358Y-78660192D01*
X197570014Y-78552098D01*
X197864605Y-78406425D01*
X198227565Y-78226436D01*
X198652326Y-78015394D01*
X199132319Y-77776565D01*
X199660977Y-77513211D01*
X200231732Y-77228597D01*
X200838016Y-76925987D01*
X201473262Y-76608645D01*
X201660906Y-76514854D01*
X206133311Y-74279125D01*
X205431302Y-74252667D01*
X204729292Y-74226209D01*
X204713015Y-73940255D01*
X204720332Y-73787000D01*
X204967417Y-73787000D01*
X204967417Y-74041000D01*
X205510049Y-74041000D01*
X205484084Y-73770776D01*
X205447406Y-73570266D01*
X205376228Y-73455872D01*
X205256923Y-73409957D01*
X205202896Y-73406810D01*
X205073289Y-73438877D01*
X204997378Y-73544900D01*
X204968241Y-73736056D01*
X204967417Y-73787000D01*
X204720332Y-73787000D01*
X204727606Y-73634673D01*
X204809550Y-73407520D01*
X204957342Y-73260950D01*
X205169481Y-73197114D01*
X205233796Y-73194334D01*
X205402991Y-73227275D01*
X205549447Y-73310999D01*
X205640587Y-73422854D01*
X205655334Y-73487437D01*
X205664283Y-73544592D01*
X205702374Y-73554916D01*
X205786466Y-73512832D01*
X205933421Y-73412767D01*
X205978316Y-73380655D01*
X206144717Y-73279057D01*
X206275377Y-73232761D01*
X206354482Y-73243720D01*
X206366218Y-73313890D01*
X206359734Y-73333537D01*
X206303196Y-73400522D01*
X206183022Y-73502673D01*
X206024828Y-73618284D01*
X206019117Y-73622172D01*
X205826963Y-73768797D01*
X205724438Y-73885582D01*
X205708250Y-73937139D01*
X205720494Y-73995444D01*
X205773354Y-74026824D01*
X205891024Y-74039272D01*
X206022627Y-74041000D01*
X206195785Y-74049068D01*
X206322788Y-74069979D01*
X206368934Y-74092663D01*
X206419476Y-74078074D01*
X206553380Y-74021275D01*
X206759521Y-73927730D01*
X207026772Y-73802903D01*
X207344009Y-73652256D01*
X207700104Y-73481252D01*
X208083932Y-73295355D01*
X208484368Y-73100028D01*
X208890285Y-72900734D01*
X209290557Y-72702936D01*
X209674059Y-72512098D01*
X210029664Y-72333682D01*
X210346248Y-72173152D01*
X210612683Y-72035972D01*
X210817844Y-71927603D01*
X210950606Y-71853510D01*
X210999842Y-71819156D01*
X210999917Y-71818689D01*
X210953635Y-71792934D01*
X210819054Y-71723124D01*
X210602569Y-71612463D01*
X210310578Y-71464155D01*
X209949474Y-71281405D01*
X209525656Y-71067416D01*
X209045519Y-70825393D01*
X208515458Y-70558541D01*
X207941871Y-70270062D01*
X207331153Y-69963163D01*
X206689700Y-69641046D01*
X206023908Y-69306916D01*
X205340174Y-68963977D01*
X204644893Y-68615434D01*
X203944461Y-68264491D01*
X203245275Y-67914351D01*
X202553731Y-67568220D01*
X201876224Y-67229300D01*
X201219151Y-66900798D01*
X200588908Y-66585916D01*
X199991890Y-66287860D01*
X199434495Y-66009833D01*
X198923118Y-65755039D01*
X198464154Y-65526683D01*
X198064001Y-65327968D01*
X197729054Y-65162100D01*
X197465710Y-65032283D01*
X197280364Y-64941720D01*
X197179412Y-64893616D01*
X197162155Y-64886417D01*
X197158927Y-64938302D01*
X197155813Y-65089830D01*
X197152836Y-65334813D01*
X197150018Y-65667059D01*
X197147385Y-66080379D01*
X197144959Y-66568584D01*
X197142764Y-67125483D01*
X197140824Y-67744888D01*
X197139162Y-68420607D01*
X197137802Y-69146452D01*
X197136767Y-69916232D01*
X197136081Y-70723757D01*
X197135768Y-71562839D01*
X197135750Y-71818500D01*
X196765334Y-71818500D01*
X196765334Y-69015645D01*
X193934292Y-68987459D01*
X193904762Y-67585167D01*
X189833250Y-67585167D01*
X189591059Y-67585167D01*
X189595125Y-67399959D01*
X194145959Y-67399959D01*
X194160724Y-68101104D01*
X194175489Y-68802250D01*
X196765334Y-68802250D01*
X196765334Y-66156417D01*
X191010646Y-66156751D01*
X185255959Y-66157086D01*
X185164918Y-66317065D01*
X185050733Y-66459674D01*
X184913898Y-66568085D01*
X184753919Y-66659125D01*
X184753585Y-72096313D01*
X184753250Y-77533500D01*
X184488667Y-77533500D01*
X184487522Y-72096313D01*
X184486376Y-66659125D01*
X184315542Y-66579750D01*
X184168372Y-66477861D01*
X184044345Y-66338978D01*
X184038875Y-66330434D01*
X183933042Y-66160494D01*
X179560667Y-66158455D01*
X178755278Y-66157813D01*
X178049630Y-66156619D01*
X177437632Y-66154775D01*
X176913190Y-66152181D01*
X176470215Y-66148738D01*
X176102614Y-66144347D01*
X175804296Y-66138909D01*
X175569168Y-66132325D01*
X175391140Y-66124495D01*
X175264120Y-66115322D01*
X175182016Y-66104704D01*
X175138737Y-66092544D01*
X175130155Y-66086366D01*
X175104534Y-66052432D01*
X175091833Y-66022689D01*
X175098357Y-65996864D01*
X175130412Y-65974678D01*
X175194303Y-65955855D01*
X175296337Y-65940121D01*
X175442818Y-65927198D01*
X175640053Y-65916810D01*
X175894346Y-65908682D01*
X176212005Y-65902536D01*
X176599333Y-65898097D01*
X177062636Y-65895089D01*
X177608221Y-65893235D01*
X178242393Y-65892259D01*
X178971457Y-65891885D01*
X179571580Y-65891833D01*
X183946660Y-65891834D01*
X184015009Y-65726825D01*
X184145647Y-65542471D01*
X184348747Y-65416951D01*
X184601140Y-65363769D01*
X184639479Y-65362865D01*
X184804266Y-65377717D01*
X184931345Y-65437871D01*
X185049584Y-65542584D01*
X185156303Y-65665917D01*
X185220796Y-65772501D01*
X185229500Y-65807167D01*
X185236224Y-65820520D01*
X185260234Y-65832404D01*
X185307285Y-65842903D01*
X185383133Y-65852102D01*
X185493534Y-65860085D01*
X185644245Y-65866937D01*
X185841020Y-65872741D01*
X186089616Y-65877584D01*
X186395789Y-65881548D01*
X186765295Y-65884720D01*
X187203889Y-65887182D01*
X187717327Y-65889020D01*
X188311366Y-65890319D01*
X188991761Y-65891162D01*
X189764269Y-65891634D01*
X190634644Y-65891820D01*
X190995924Y-65891834D01*
X196762347Y-65891834D01*
X196777069Y-65164887D01*
X196784516Y-64870603D01*
X196794405Y-64665923D01*
X196808988Y-64534619D01*
X196830518Y-64460461D01*
X196861247Y-64427221D01*
X196880329Y-64420956D01*
X196942496Y-64441006D01*
X197090566Y-64504699D01*
X197315991Y-64607939D01*
X197610224Y-64746626D01*
X197964714Y-64916663D01*
X198370913Y-65113950D01*
X198820274Y-65334391D01*
X199304246Y-65573885D01*
X199776388Y-65809362D01*
X200282988Y-66062729D01*
X200761125Y-66301422D01*
X201202471Y-66521314D01*
X201598700Y-66718276D01*
X201941484Y-66888181D01*
X202222497Y-67026901D01*
X202433410Y-67130307D01*
X202565898Y-67194273D01*
X202611497Y-67214750D01*
X202617544Y-67163711D01*
X202623134Y-67018100D01*
X202628117Y-66789180D01*
X202632346Y-66488213D01*
X202635671Y-66126460D01*
X202637944Y-65715182D01*
X202639018Y-65265643D01*
X202639084Y-65120662D01*
X202639318Y-64594355D01*
X202640304Y-64164327D01*
X202642470Y-63821023D01*
X202646240Y-63554887D01*
X202652041Y-63356366D01*
X202660299Y-63215904D01*
X202671440Y-63123948D01*
X202685890Y-63070941D01*
X202704076Y-63047331D01*
X202726424Y-63043561D01*
X202731688Y-63044397D01*
G36*
X201892287Y-82259499D02*
G01*
X201926665Y-82393279D01*
X201941636Y-82620499D01*
X201939785Y-82911562D01*
X201930319Y-83172565D01*
X201916380Y-83344939D01*
X201895138Y-83445873D01*
X201863764Y-83492559D01*
X201842753Y-83501056D01*
X201748669Y-83494442D01*
X201723691Y-83479635D01*
X201708494Y-83414434D01*
X201696309Y-83266984D01*
X201688583Y-83060859D01*
X201686584Y-82875743D01*
X201691001Y-82593947D01*
X201705330Y-82403662D01*
X201731186Y-82290892D01*
X201758938Y-82248910D01*
X201836909Y-82213321D01*
X201892287Y-82259499D01*
G37*
X201892287Y-82259499D02*
X201926665Y-82393279D01*
X201941636Y-82620499D01*
X201939785Y-82911562D01*
X201930319Y-83172565D01*
X201916380Y-83344939D01*
X201895138Y-83445873D01*
X201863764Y-83492559D01*
X201842753Y-83501056D01*
X201748669Y-83494442D01*
X201723691Y-83479635D01*
X201708494Y-83414434D01*
X201696309Y-83266984D01*
X201688583Y-83060859D01*
X201686584Y-82875743D01*
X201691001Y-82593947D01*
X201705330Y-82403662D01*
X201731186Y-82290892D01*
X201758938Y-82248910D01*
X201836909Y-82213321D01*
X201892287Y-82259499D01*
G36*
X202113743Y-80770721D02*
G01*
X202225465Y-80810943D01*
X202323028Y-80900547D01*
X202343338Y-80924227D01*
X202456354Y-81131606D01*
X202484259Y-81362402D01*
X202426698Y-81583842D01*
X202351723Y-81697737D01*
X202254622Y-81791616D01*
X202187610Y-81803827D01*
X202160391Y-81784522D01*
X202128519Y-81714995D01*
X202172199Y-81616799D01*
X202183168Y-81600769D01*
X202251155Y-81439029D01*
X202263357Y-81257643D01*
X202219579Y-81101981D01*
X202185512Y-81056238D01*
X202050862Y-80987070D01*
X201879972Y-80978649D01*
X201721894Y-81029073D01*
X201662262Y-81076556D01*
X201608999Y-81163163D01*
X201592427Y-81280466D01*
X201612556Y-81452056D01*
X201662519Y-81674229D01*
X201678019Y-81777096D01*
X201633623Y-81812124D01*
X201547232Y-81812680D01*
X201399880Y-81800816D01*
X201211557Y-81779507D01*
X201144428Y-81770586D01*
X200984049Y-81738761D01*
X200866308Y-81698398D01*
X200837675Y-81679925D01*
X200811103Y-81599814D01*
X200796979Y-81441654D01*
X200797739Y-81232754D01*
X200797748Y-81232539D01*
X200808692Y-81030747D01*
X200825923Y-80912860D01*
X200856244Y-80856949D01*
X200906459Y-80841088D01*
X200919292Y-80840792D01*
X200976386Y-80852354D01*
X201010564Y-80902256D01*
X201029589Y-81013323D01*
X201040772Y-81197979D01*
X201050790Y-81387040D01*
X201067529Y-81493852D01*
X201102297Y-81541901D01*
X201166402Y-81554671D01*
X201212751Y-81555167D01*
X201308314Y-81548246D01*
X201353968Y-81508502D01*
X201368094Y-81407457D01*
X201369084Y-81312971D01*
X201384666Y-81134641D01*
X201445628Y-81004661D01*
X201523763Y-80916096D01*
X201641965Y-80817649D01*
X201767457Y-80772172D01*
X201942392Y-80761417D01*
X202113743Y-80770721D01*
G37*
X202113743Y-80770721D02*
X202225465Y-80810943D01*
X202323028Y-80900547D01*
X202343338Y-80924227D01*
X202456354Y-81131606D01*
X202484259Y-81362402D01*
X202426698Y-81583842D01*
X202351723Y-81697737D01*
X202254622Y-81791616D01*
X202187610Y-81803827D01*
X202160391Y-81784522D01*
X202128519Y-81714995D01*
X202172199Y-81616799D01*
X202183168Y-81600769D01*
X202251155Y-81439029D01*
X202263357Y-81257643D01*
X202219579Y-81101981D01*
X202185512Y-81056238D01*
X202050862Y-80987070D01*
X201879972Y-80978649D01*
X201721894Y-81029073D01*
X201662262Y-81076556D01*
X201608999Y-81163163D01*
X201592427Y-81280466D01*
X201612556Y-81452056D01*
X201662519Y-81674229D01*
X201678019Y-81777096D01*
X201633623Y-81812124D01*
X201547232Y-81812680D01*
X201399880Y-81800816D01*
X201211557Y-81779507D01*
X201144428Y-81770586D01*
X200984049Y-81738761D01*
X200866308Y-81698398D01*
X200837675Y-81679925D01*
X200811103Y-81599814D01*
X200796979Y-81441654D01*
X200797739Y-81232754D01*
X200797748Y-81232539D01*
X200808692Y-81030747D01*
X200825923Y-80912860D01*
X200856244Y-80856949D01*
X200906459Y-80841088D01*
X200919292Y-80840792D01*
X200976386Y-80852354D01*
X201010564Y-80902256D01*
X201029589Y-81013323D01*
X201040772Y-81197979D01*
X201050790Y-81387040D01*
X201067529Y-81493852D01*
X201102297Y-81541901D01*
X201166402Y-81554671D01*
X201212751Y-81555167D01*
X201308314Y-81548246D01*
X201353968Y-81508502D01*
X201368094Y-81407457D01*
X201369084Y-81312971D01*
X201384666Y-81134641D01*
X201445628Y-81004661D01*
X201523763Y-80916096D01*
X201641965Y-80817649D01*
X201767457Y-80772172D01*
X201942392Y-80761417D01*
X202113743Y-80770721D01*
G36*
X201978429Y-77821114D02*
G01*
X201988025Y-77848224D01*
X202037689Y-77921330D01*
X202154234Y-77958790D01*
X202234425Y-77967286D01*
X202397490Y-77999367D01*
X202462542Y-78052631D01*
X202429866Y-78109037D01*
X202299743Y-78150541D01*
X202231429Y-78158194D01*
X202008982Y-78174346D01*
X201993304Y-78501621D01*
X201976418Y-78696463D01*
X201945939Y-78803215D01*
X201898250Y-78839110D01*
X201816640Y-78826979D01*
X201661100Y-78786066D01*
X201457244Y-78723527D01*
X201316167Y-78676462D01*
X201039282Y-78572477D01*
X200866380Y-78486670D01*
X200797206Y-78418914D01*
X200796349Y-78415425D01*
X200806128Y-78352861D01*
X200874834Y-78331280D01*
X201013331Y-78351470D01*
X201232482Y-78414222D01*
X201359815Y-78456389D01*
X201739500Y-78585529D01*
X201739500Y-78380209D01*
X201732832Y-78246688D01*
X201692807Y-78185392D01*
X201589398Y-78162767D01*
X201541063Y-78158465D01*
X201391473Y-78123843D01*
X201336375Y-78066671D01*
X201376368Y-78008168D01*
X201512056Y-77969552D01*
X201535642Y-77967192D01*
X201683925Y-77934359D01*
X201751694Y-77860841D01*
X201755584Y-77848129D01*
X201816975Y-77762715D01*
X201906335Y-77753716D01*
X201978429Y-77821114D01*
G37*
X201978429Y-77821114D02*
X201988025Y-77848224D01*
X202037689Y-77921330D01*
X202154234Y-77958790D01*
X202234425Y-77967286D01*
X202397490Y-77999367D01*
X202462542Y-78052631D01*
X202429866Y-78109037D01*
X202299743Y-78150541D01*
X202231429Y-78158194D01*
X202008982Y-78174346D01*
X201993304Y-78501621D01*
X201976418Y-78696463D01*
X201945939Y-78803215D01*
X201898250Y-78839110D01*
X201816640Y-78826979D01*
X201661100Y-78786066D01*
X201457244Y-78723527D01*
X201316167Y-78676462D01*
X201039282Y-78572477D01*
X200866380Y-78486670D01*
X200797206Y-78418914D01*
X200796349Y-78415425D01*
X200806128Y-78352861D01*
X200874834Y-78331280D01*
X201013331Y-78351470D01*
X201232482Y-78414222D01*
X201359815Y-78456389D01*
X201739500Y-78585529D01*
X201739500Y-78380209D01*
X201732832Y-78246688D01*
X201692807Y-78185392D01*
X201589398Y-78162767D01*
X201541063Y-78158465D01*
X201391473Y-78123843D01*
X201336375Y-78066671D01*
X201376368Y-78008168D01*
X201512056Y-77969552D01*
X201535642Y-77967192D01*
X201683925Y-77934359D01*
X201751694Y-77860841D01*
X201755584Y-77848129D01*
X201816975Y-77762715D01*
X201906335Y-77753716D01*
X201978429Y-77821114D01*
G36*
X205073195Y-77127115D02*
G01*
X205210834Y-77237167D01*
X205353720Y-77443867D01*
X205393519Y-77672631D01*
X205329641Y-77919153D01*
X205310016Y-77959461D01*
X205226575Y-78075254D01*
X205147838Y-78118879D01*
X205096142Y-78089223D01*
X205093828Y-77985172D01*
X205097315Y-77970063D01*
X205149341Y-77735728D01*
X205165313Y-77577829D01*
X205145372Y-77473349D01*
X205100718Y-77409777D01*
X204984302Y-77349203D01*
X204822069Y-77323828D01*
X204662169Y-77335808D01*
X204554667Y-77385334D01*
X204512800Y-77477173D01*
X204493711Y-77616890D01*
X204498366Y-77759586D01*
X204527729Y-77860362D01*
X204544084Y-77877459D01*
X204588537Y-77952096D01*
X204597000Y-78012873D01*
X204576512Y-78070822D01*
X204505392Y-78102421D01*
X204369152Y-78108927D01*
X204153307Y-78091595D01*
X203962000Y-78067948D01*
X203723875Y-78036209D01*
X203723875Y-77612875D01*
X203727614Y-77395666D01*
X203741179Y-77265311D01*
X203768093Y-77203018D01*
X203803250Y-77189542D01*
X203850469Y-77216762D01*
X203879900Y-77310617D01*
X203896806Y-77489397D01*
X203898379Y-77520271D01*
X203911558Y-77703787D01*
X203934265Y-77804517D01*
X203974489Y-77845494D01*
X204013114Y-77851000D01*
X204145757Y-77868257D01*
X204195797Y-77883120D01*
X204245249Y-77885326D01*
X204270668Y-77829136D01*
X204279177Y-77693836D01*
X204279500Y-77639767D01*
X204288485Y-77462866D01*
X204327228Y-77344957D01*
X204413407Y-77239890D01*
X204443846Y-77210773D01*
X204648148Y-77079344D01*
X204861431Y-77051579D01*
X205073195Y-77127115D01*
G37*
X205073195Y-77127115D02*
X205210834Y-77237167D01*
X205353720Y-77443867D01*
X205393519Y-77672631D01*
X205329641Y-77919153D01*
X205310016Y-77959461D01*
X205226575Y-78075254D01*
X205147838Y-78118879D01*
X205096142Y-78089223D01*
X205093828Y-77985172D01*
X205097315Y-77970063D01*
X205149341Y-77735728D01*
X205165313Y-77577829D01*
X205145372Y-77473349D01*
X205100718Y-77409777D01*
X204984302Y-77349203D01*
X204822069Y-77323828D01*
X204662169Y-77335808D01*
X204554667Y-77385334D01*
X204512800Y-77477173D01*
X204493711Y-77616890D01*
X204498366Y-77759586D01*
X204527729Y-77860362D01*
X204544084Y-77877459D01*
X204588537Y-77952096D01*
X204597000Y-78012873D01*
X204576512Y-78070822D01*
X204505392Y-78102421D01*
X204369152Y-78108927D01*
X204153307Y-78091595D01*
X203962000Y-78067948D01*
X203723875Y-78036209D01*
X203723875Y-77612875D01*
X203727614Y-77395666D01*
X203741179Y-77265311D01*
X203768093Y-77203018D01*
X203803250Y-77189542D01*
X203850469Y-77216762D01*
X203879900Y-77310617D01*
X203896806Y-77489397D01*
X203898379Y-77520271D01*
X203911558Y-77703787D01*
X203934265Y-77804517D01*
X203974489Y-77845494D01*
X204013114Y-77851000D01*
X204145757Y-77868257D01*
X204195797Y-77883120D01*
X204245249Y-77885326D01*
X204270668Y-77829136D01*
X204279177Y-77693836D01*
X204279500Y-77639767D01*
X204288485Y-77462866D01*
X204327228Y-77344957D01*
X204413407Y-77239890D01*
X204443846Y-77210773D01*
X204648148Y-77079344D01*
X204861431Y-77051579D01*
X205073195Y-77127115D01*
G36*
X171448947Y-75722110D02*
G01*
X171470763Y-75774503D01*
X171485112Y-75879586D01*
X171493408Y-76051893D01*
X171497066Y-76305955D01*
X171497625Y-76523674D01*
X171495166Y-76859029D01*
X171487212Y-77099608D01*
X171472898Y-77256368D01*
X171451361Y-77340265D01*
X171431507Y-77361512D01*
X171357261Y-77341196D01*
X171337384Y-77310571D01*
X171328350Y-77233638D01*
X171322613Y-77071981D01*
X171320506Y-76846665D01*
X171322363Y-76578758D01*
X171324127Y-76472733D01*
X171331628Y-76167640D01*
X171341631Y-75953596D01*
X171355957Y-75815820D01*
X171376423Y-75739530D01*
X171404849Y-75709946D01*
X171418250Y-75707875D01*
X171448947Y-75722110D01*
G37*
X171448947Y-75722110D02*
X171470763Y-75774503D01*
X171485112Y-75879586D01*
X171493408Y-76051893D01*
X171497066Y-76305955D01*
X171497625Y-76523674D01*
X171495166Y-76859029D01*
X171487212Y-77099608D01*
X171472898Y-77256368D01*
X171451361Y-77340265D01*
X171431507Y-77361512D01*
X171357261Y-77341196D01*
X171337384Y-77310571D01*
X171328350Y-77233638D01*
X171322613Y-77071981D01*
X171320506Y-76846665D01*
X171322363Y-76578758D01*
X171324127Y-76472733D01*
X171331628Y-76167640D01*
X171341631Y-75953596D01*
X171355957Y-75815820D01*
X171376423Y-75739530D01*
X171404849Y-75709946D01*
X171418250Y-75707875D01*
X171448947Y-75722110D01*
G36*
X172984340Y-75723227D02*
G01*
X173007426Y-75779005D01*
X173023831Y-75889795D01*
X173035290Y-76070182D01*
X173043543Y-76334750D01*
X173046905Y-76497512D01*
X173051376Y-76861783D01*
X173045692Y-77122896D01*
X173024471Y-77283422D01*
X172982333Y-77345928D01*
X172913896Y-77312983D01*
X172813780Y-77187156D01*
X172676602Y-76971016D01*
X172539458Y-76739750D01*
X172213931Y-76184125D01*
X172212966Y-76749856D01*
X172207557Y-77038866D01*
X172191042Y-77230154D01*
X172161240Y-77331458D01*
X172115972Y-77350513D01*
X172057756Y-77300805D01*
X172030396Y-77211896D01*
X172014221Y-77023293D01*
X172009117Y-76732929D01*
X172012073Y-76467950D01*
X172019593Y-76163929D01*
X172029648Y-75950918D01*
X172044073Y-75814097D01*
X172064703Y-75738645D01*
X172093372Y-75709740D01*
X172106167Y-75707875D01*
X172163424Y-75751302D01*
X172259611Y-75870304D01*
X172382222Y-76047964D01*
X172514313Y-76259909D01*
X172843085Y-76811943D01*
X172858272Y-76259909D01*
X172867941Y-76005829D01*
X172882123Y-75840813D01*
X172903690Y-75748104D01*
X172935511Y-75710947D01*
X172952834Y-75707875D01*
X172984340Y-75723227D01*
G37*
X172984340Y-75723227D02*
X173007426Y-75779005D01*
X173023831Y-75889795D01*
X173035290Y-76070182D01*
X173043543Y-76334750D01*
X173046905Y-76497512D01*
X173051376Y-76861783D01*
X173045692Y-77122896D01*
X173024471Y-77283422D01*
X172982333Y-77345928D01*
X172913896Y-77312983D01*
X172813780Y-77187156D01*
X172676602Y-76971016D01*
X172539458Y-76739750D01*
X172213931Y-76184125D01*
X172212966Y-76749856D01*
X172207557Y-77038866D01*
X172191042Y-77230154D01*
X172161240Y-77331458D01*
X172115972Y-77350513D01*
X172057756Y-77300805D01*
X172030396Y-77211896D01*
X172014221Y-77023293D01*
X172009117Y-76732929D01*
X172012073Y-76467950D01*
X172019593Y-76163929D01*
X172029648Y-75950918D01*
X172044073Y-75814097D01*
X172064703Y-75738645D01*
X172093372Y-75709740D01*
X172106167Y-75707875D01*
X172163424Y-75751302D01*
X172259611Y-75870304D01*
X172382222Y-76047964D01*
X172514313Y-76259909D01*
X172843085Y-76811943D01*
X172858272Y-76259909D01*
X172867941Y-76005829D01*
X172882123Y-75840813D01*
X172903690Y-75748104D01*
X172935511Y-75710947D01*
X172952834Y-75707875D01*
X172984340Y-75723227D01*
G36*
X174227294Y-76592414D02*
G01*
X174494553Y-76601391D01*
X174672216Y-76614199D01*
X174776510Y-76633375D01*
X174823666Y-76661457D01*
X174831375Y-76686834D01*
X174813948Y-76722029D01*
X174750934Y-76746791D01*
X174626235Y-76763576D01*
X174423753Y-76774840D01*
X174213743Y-76781081D01*
X173896299Y-76783405D01*
X173683152Y-76772533D01*
X173573586Y-76748417D01*
X173559541Y-76736783D01*
X173543688Y-76671765D01*
X173596084Y-76626931D01*
X173726142Y-76600246D01*
X173943273Y-76589675D01*
X174227294Y-76592414D01*
G37*
X174227294Y-76592414D02*
X174494553Y-76601391D01*
X174672216Y-76614199D01*
X174776510Y-76633375D01*
X174823666Y-76661457D01*
X174831375Y-76686834D01*
X174813948Y-76722029D01*
X174750934Y-76746791D01*
X174626235Y-76763576D01*
X174423753Y-76774840D01*
X174213743Y-76781081D01*
X173896299Y-76783405D01*
X173683152Y-76772533D01*
X173573586Y-76748417D01*
X173559541Y-76736783D01*
X173543688Y-76671765D01*
X173596084Y-76626931D01*
X173726142Y-76600246D01*
X173943273Y-76589675D01*
X174227294Y-76592414D01*
G36*
X213214678Y-69930634D02*
G01*
X213239346Y-70017442D01*
X213176447Y-70087193D01*
X213044245Y-70123324D01*
X213000167Y-70125167D01*
X212860196Y-70160531D01*
X212731079Y-70247072D01*
X212650608Y-70355465D01*
X212640334Y-70404378D01*
X212681346Y-70448383D01*
X212810730Y-70455064D01*
X212851757Y-70451759D01*
X212993506Y-70449834D01*
X213101708Y-70489773D01*
X213221728Y-70590469D01*
X213248632Y-70617049D01*
X213369822Y-70758253D01*
X213423463Y-70888014D01*
X213432323Y-71006229D01*
X213384519Y-71222874D01*
X213260857Y-71396282D01*
X213084912Y-71512519D01*
X212880254Y-71557648D01*
X212670455Y-71517732D01*
X212614530Y-71489725D01*
X212459641Y-71376848D01*
X212370892Y-71241915D01*
X212335424Y-71056127D01*
X212335656Y-70986574D01*
X212587417Y-70986574D01*
X212601314Y-71142833D01*
X212636086Y-71257580D01*
X212650917Y-71278750D01*
X212760673Y-71329318D01*
X212911821Y-71338838D01*
X213051819Y-71308670D01*
X213113338Y-71266786D01*
X213148832Y-71169389D01*
X213161605Y-71017437D01*
X213159505Y-70963497D01*
X213138150Y-70812402D01*
X213088833Y-70730773D01*
X212999653Y-70685538D01*
X212809221Y-70668456D01*
X212721841Y-70696650D01*
X212634810Y-70753617D01*
X212595837Y-70843111D01*
X212587417Y-70986574D01*
X212335656Y-70986574D01*
X212336059Y-70866000D01*
X212382326Y-70539703D01*
X212482686Y-70260687D01*
X212627981Y-70049166D01*
X212749560Y-69953188D01*
X212942688Y-69876009D01*
X213107557Y-69870147D01*
X213214678Y-69930634D01*
G37*
X213214678Y-69930634D02*
X213239346Y-70017442D01*
X213176447Y-70087193D01*
X213044245Y-70123324D01*
X213000167Y-70125167D01*
X212860196Y-70160531D01*
X212731079Y-70247072D01*
X212650608Y-70355465D01*
X212640334Y-70404378D01*
X212681346Y-70448383D01*
X212810730Y-70455064D01*
X212851757Y-70451759D01*
X212993506Y-70449834D01*
X213101708Y-70489773D01*
X213221728Y-70590469D01*
X213248632Y-70617049D01*
X213369822Y-70758253D01*
X213423463Y-70888014D01*
X213432323Y-71006229D01*
X213384519Y-71222874D01*
X213260857Y-71396282D01*
X213084912Y-71512519D01*
X212880254Y-71557648D01*
X212670455Y-71517732D01*
X212614530Y-71489725D01*
X212459641Y-71376848D01*
X212370892Y-71241915D01*
X212335424Y-71056127D01*
X212335656Y-70986574D01*
X212587417Y-70986574D01*
X212601314Y-71142833D01*
X212636086Y-71257580D01*
X212650917Y-71278750D01*
X212760673Y-71329318D01*
X212911821Y-71338838D01*
X213051819Y-71308670D01*
X213113338Y-71266786D01*
X213148832Y-71169389D01*
X213161605Y-71017437D01*
X213159505Y-70963497D01*
X213138150Y-70812402D01*
X213088833Y-70730773D01*
X212999653Y-70685538D01*
X212809221Y-70668456D01*
X212721841Y-70696650D01*
X212634810Y-70753617D01*
X212595837Y-70843111D01*
X212587417Y-70986574D01*
X212335656Y-70986574D01*
X212336059Y-70866000D01*
X212382326Y-70539703D01*
X212482686Y-70260687D01*
X212627981Y-70049166D01*
X212749560Y-69953188D01*
X212942688Y-69876009D01*
X213107557Y-69870147D01*
X213214678Y-69930634D01*
G36*
X222534828Y-69882495D02*
G01*
X222730716Y-69979646D01*
X222874223Y-70113463D01*
X222963169Y-70292084D01*
X223003064Y-70533484D01*
X222999415Y-70855638D01*
X222999367Y-70856396D01*
X222982220Y-71066371D01*
X222956379Y-71202416D01*
X222910652Y-71296403D01*
X222833849Y-71380206D01*
X222806829Y-71404778D01*
X222598227Y-71524617D01*
X222359317Y-71553934D01*
X222120028Y-71489225D01*
X222113460Y-71485948D01*
X221987197Y-71390071D01*
X221905194Y-71243015D01*
X221861117Y-71027192D01*
X221848614Y-70750383D01*
X221848764Y-70745483D01*
X222059500Y-70745483D01*
X222065095Y-70961556D01*
X222086051Y-71101222D01*
X222128629Y-71193515D01*
X222165334Y-71236417D01*
X222320007Y-71323418D01*
X222504838Y-71333855D01*
X222671157Y-71267141D01*
X222721997Y-71215543D01*
X222752957Y-71135887D01*
X222768661Y-71004174D01*
X222773728Y-70796402D01*
X222773875Y-70733709D01*
X222765066Y-70468889D01*
X222731749Y-70292290D01*
X222663589Y-70187253D01*
X222550251Y-70137120D01*
X222396345Y-70125167D01*
X222245817Y-70151828D01*
X222144186Y-70240052D01*
X222084742Y-70402194D01*
X222060776Y-70650613D01*
X222059500Y-70745483D01*
X221848764Y-70745483D01*
X221857367Y-70464753D01*
X221890194Y-70261188D01*
X221955021Y-70117156D01*
X222059773Y-70010126D01*
X222124327Y-69966639D01*
X222337325Y-69875586D01*
X222534828Y-69882495D01*
G37*
X222534828Y-69882495D02*
X222730716Y-69979646D01*
X222874223Y-70113463D01*
X222963169Y-70292084D01*
X223003064Y-70533484D01*
X222999415Y-70855638D01*
X222999367Y-70856396D01*
X222982220Y-71066371D01*
X222956379Y-71202416D01*
X222910652Y-71296403D01*
X222833849Y-71380206D01*
X222806829Y-71404778D01*
X222598227Y-71524617D01*
X222359317Y-71553934D01*
X222120028Y-71489225D01*
X222113460Y-71485948D01*
X221987197Y-71390071D01*
X221905194Y-71243015D01*
X221861117Y-71027192D01*
X221848614Y-70750383D01*
X221848764Y-70745483D01*
X222059500Y-70745483D01*
X222065095Y-70961556D01*
X222086051Y-71101222D01*
X222128629Y-71193515D01*
X222165334Y-71236417D01*
X222320007Y-71323418D01*
X222504838Y-71333855D01*
X222671157Y-71267141D01*
X222721997Y-71215543D01*
X222752957Y-71135887D01*
X222768661Y-71004174D01*
X222773728Y-70796402D01*
X222773875Y-70733709D01*
X222765066Y-70468889D01*
X222731749Y-70292290D01*
X222663589Y-70187253D01*
X222550251Y-70137120D01*
X222396345Y-70125167D01*
X222245817Y-70151828D01*
X222144186Y-70240052D01*
X222084742Y-70402194D01*
X222060776Y-70650613D01*
X222059500Y-70745483D01*
X221848764Y-70745483D01*
X221857367Y-70464753D01*
X221890194Y-70261188D01*
X221955021Y-70117156D01*
X222059773Y-70010126D01*
X222124327Y-69966639D01*
X222337325Y-69875586D01*
X222534828Y-69882495D01*
G36*
X224405931Y-69896320D02*
G01*
X224419009Y-69959572D01*
X224429846Y-70107545D01*
X224437416Y-70319131D01*
X224440692Y-70573225D01*
X224440750Y-70612642D01*
X224439740Y-70893807D01*
X224434524Y-71089619D01*
X224421824Y-71220552D01*
X224398364Y-71307082D01*
X224360864Y-71369684D01*
X224310864Y-71424030D01*
X224137246Y-71529375D01*
X223926327Y-71561651D01*
X223717289Y-71520938D01*
X223563678Y-71422489D01*
X223510541Y-71365206D01*
X223474549Y-71305297D01*
X223452900Y-71222739D01*
X223442790Y-71097510D01*
X223441417Y-70909585D01*
X223445978Y-70638944D01*
X223447021Y-70589051D01*
X223454978Y-70298281D01*
X223465865Y-70098028D01*
X223481733Y-69972979D01*
X223504637Y-69907821D01*
X223536631Y-69887243D01*
X223541167Y-69887042D01*
X223575357Y-69904559D01*
X223600703Y-69967333D01*
X223619602Y-70090697D01*
X223634451Y-70289983D01*
X223647000Y-70563813D01*
X223661231Y-70865351D01*
X223680772Y-71076933D01*
X223712156Y-71214432D01*
X223761918Y-71293717D01*
X223836593Y-71330660D01*
X223942713Y-71341132D01*
X223967146Y-71341440D01*
X224071207Y-71331993D01*
X224143698Y-71291682D01*
X224190167Y-71204743D01*
X224216163Y-71055415D01*
X224227236Y-70827932D01*
X224229084Y-70597313D01*
X224233019Y-70302115D01*
X224245748Y-70099305D01*
X224268654Y-69975699D01*
X224300098Y-69920439D01*
X224377259Y-69886870D01*
X224405931Y-69896320D01*
G37*
X224405931Y-69896320D02*
X224419009Y-69959572D01*
X224429846Y-70107545D01*
X224437416Y-70319131D01*
X224440692Y-70573225D01*
X224440750Y-70612642D01*
X224439740Y-70893807D01*
X224434524Y-71089619D01*
X224421824Y-71220552D01*
X224398364Y-71307082D01*
X224360864Y-71369684D01*
X224310864Y-71424030D01*
X224137246Y-71529375D01*
X223926327Y-71561651D01*
X223717289Y-71520938D01*
X223563678Y-71422489D01*
X223510541Y-71365206D01*
X223474549Y-71305297D01*
X223452900Y-71222739D01*
X223442790Y-71097510D01*
X223441417Y-70909585D01*
X223445978Y-70638944D01*
X223447021Y-70589051D01*
X223454978Y-70298281D01*
X223465865Y-70098028D01*
X223481733Y-69972979D01*
X223504637Y-69907821D01*
X223536631Y-69887243D01*
X223541167Y-69887042D01*
X223575357Y-69904559D01*
X223600703Y-69967333D01*
X223619602Y-70090697D01*
X223634451Y-70289983D01*
X223647000Y-70563813D01*
X223661231Y-70865351D01*
X223680772Y-71076933D01*
X223712156Y-71214432D01*
X223761918Y-71293717D01*
X223836593Y-71330660D01*
X223942713Y-71341132D01*
X223967146Y-71341440D01*
X224071207Y-71331993D01*
X224143698Y-71291682D01*
X224190167Y-71204743D01*
X224216163Y-71055415D01*
X224227236Y-70827932D01*
X224229084Y-70597313D01*
X224233019Y-70302115D01*
X224245748Y-70099305D01*
X224268654Y-69975699D01*
X224300098Y-69920439D01*
X224377259Y-69886870D01*
X224405931Y-69896320D01*
G36*
X225419488Y-69863740D02*
G01*
X225600167Y-69880955D01*
X225724288Y-69910457D01*
X225755928Y-69930634D01*
X225781610Y-70017199D01*
X225717671Y-70085390D01*
X225580190Y-70122146D01*
X225516494Y-70125167D01*
X225343405Y-70125167D01*
X225328640Y-70821980D01*
X225317839Y-71140570D01*
X225299737Y-71362271D01*
X225272267Y-71495898D01*
X225233363Y-71550266D01*
X225180957Y-71534190D01*
X225165047Y-71519741D01*
X225151357Y-71455856D01*
X225140020Y-71307356D01*
X225132115Y-71095452D01*
X225128721Y-70841356D01*
X225128667Y-70804264D01*
X225128667Y-70125167D01*
X224976396Y-70125167D01*
X224835443Y-70099937D01*
X224751857Y-70037266D01*
X224745547Y-69956681D01*
X224770093Y-69922824D01*
X224857554Y-69888356D01*
X225016237Y-69867188D01*
X225214196Y-69859067D01*
X225419488Y-69863740D01*
G37*
X225419488Y-69863740D02*
X225600167Y-69880955D01*
X225724288Y-69910457D01*
X225755928Y-69930634D01*
X225781610Y-70017199D01*
X225717671Y-70085390D01*
X225580190Y-70122146D01*
X225516494Y-70125167D01*
X225343405Y-70125167D01*
X225328640Y-70821980D01*
X225317839Y-71140570D01*
X225299737Y-71362271D01*
X225272267Y-71495898D01*
X225233363Y-71550266D01*
X225180957Y-71534190D01*
X225165047Y-71519741D01*
X225151357Y-71455856D01*
X225140020Y-71307356D01*
X225132115Y-71095452D01*
X225128721Y-70841356D01*
X225128667Y-70804264D01*
X225128667Y-70125167D01*
X224976396Y-70125167D01*
X224835443Y-70099937D01*
X224751857Y-70037266D01*
X224745547Y-69956681D01*
X224770093Y-69922824D01*
X224857554Y-69888356D01*
X225016237Y-69867188D01*
X225214196Y-69859067D01*
X225419488Y-69863740D01*
G36*
X200921823Y-64742148D02*
G01*
X201065613Y-64780093D01*
X201263698Y-64846064D01*
X201495253Y-64931728D01*
X201739460Y-65028755D01*
X201975495Y-65128814D01*
X202182538Y-65223572D01*
X202339768Y-65304698D01*
X202426363Y-65363862D01*
X202433834Y-65373050D01*
X202453689Y-65451227D01*
X202383035Y-65474882D01*
X202222050Y-65444044D01*
X201970917Y-65358742D01*
X201714579Y-65255269D01*
X201479009Y-65156295D01*
X201281048Y-65074335D01*
X201139739Y-65017185D01*
X201074128Y-64992641D01*
X201072085Y-64992250D01*
X201062212Y-65040817D01*
X201054944Y-65169129D01*
X201051650Y-65351107D01*
X201051584Y-65382646D01*
X201038581Y-65637225D01*
X201000812Y-65800333D01*
X200940134Y-65867892D01*
X200858404Y-65835821D01*
X200849241Y-65827074D01*
X200817268Y-65742898D01*
X200796333Y-65585312D01*
X200786328Y-65384146D01*
X200787146Y-65169232D01*
X200798680Y-64970400D01*
X200820823Y-64817481D01*
X200853146Y-64740560D01*
X200921823Y-64742148D01*
G37*
X200921823Y-64742148D02*
X201065613Y-64780093D01*
X201263698Y-64846064D01*
X201495253Y-64931728D01*
X201739460Y-65028755D01*
X201975495Y-65128814D01*
X202182538Y-65223572D01*
X202339768Y-65304698D01*
X202426363Y-65363862D01*
X202433834Y-65373050D01*
X202453689Y-65451227D01*
X202383035Y-65474882D01*
X202222050Y-65444044D01*
X201970917Y-65358742D01*
X201714579Y-65255269D01*
X201479009Y-65156295D01*
X201281048Y-65074335D01*
X201139739Y-65017185D01*
X201074128Y-64992641D01*
X201072085Y-64992250D01*
X201062212Y-65040817D01*
X201054944Y-65169129D01*
X201051650Y-65351107D01*
X201051584Y-65382646D01*
X201038581Y-65637225D01*
X201000812Y-65800333D01*
X200940134Y-65867892D01*
X200858404Y-65835821D01*
X200849241Y-65827074D01*
X200817268Y-65742898D01*
X200796333Y-65585312D01*
X200786328Y-65384146D01*
X200787146Y-65169232D01*
X200798680Y-64970400D01*
X200820823Y-64817481D01*
X200853146Y-64740560D01*
X200921823Y-64742148D01*
G36*
X171449448Y-64134316D02*
G01*
X171472382Y-64189523D01*
X171488736Y-64299199D01*
X171500192Y-64477795D01*
X171508433Y-64739764D01*
X171512233Y-64926104D01*
X171516661Y-65237635D01*
X171516007Y-65458372D01*
X171509011Y-65603285D01*
X171494415Y-65687343D01*
X171470963Y-65725518D01*
X171444426Y-65733084D01*
X171356159Y-65695073D01*
X171335652Y-65664389D01*
X171327088Y-65588672D01*
X171321853Y-65428542D01*
X171320252Y-65205380D01*
X171322591Y-64940563D01*
X171324083Y-64857410D01*
X171331782Y-64558302D01*
X171342146Y-64350025D01*
X171357091Y-64217578D01*
X171378529Y-64145962D01*
X171408372Y-64120176D01*
X171418250Y-64119125D01*
X171449448Y-64134316D01*
G37*
X171449448Y-64134316D02*
X171472382Y-64189523D01*
X171488736Y-64299199D01*
X171500192Y-64477795D01*
X171508433Y-64739764D01*
X171512233Y-64926104D01*
X171516661Y-65237635D01*
X171516007Y-65458372D01*
X171509011Y-65603285D01*
X171494415Y-65687343D01*
X171470963Y-65725518D01*
X171444426Y-65733084D01*
X171356159Y-65695073D01*
X171335652Y-65664389D01*
X171327088Y-65588672D01*
X171321853Y-65428542D01*
X171320252Y-65205380D01*
X171322591Y-64940563D01*
X171324083Y-64857410D01*
X171331782Y-64558302D01*
X171342146Y-64350025D01*
X171357091Y-64217578D01*
X171378529Y-64145962D01*
X171408372Y-64120176D01*
X171418250Y-64119125D01*
X171449448Y-64134316D01*
G36*
X172182865Y-64150970D02*
G01*
X172295762Y-64298032D01*
X172446793Y-64540550D01*
X172558410Y-64731925D01*
X172843051Y-65226259D01*
X172858255Y-64672692D01*
X172867911Y-64418214D01*
X172882056Y-64252818D01*
X172903549Y-64159761D01*
X172935250Y-64122306D01*
X172952834Y-64119125D01*
X172983960Y-64134281D01*
X173006862Y-64189363D01*
X173023210Y-64298792D01*
X173034674Y-64476986D01*
X173042928Y-64738366D01*
X173046838Y-64930254D01*
X173051587Y-65239477D01*
X173051870Y-65457948D01*
X173046199Y-65600704D01*
X173033085Y-65682783D01*
X173011043Y-65719226D01*
X172978583Y-65725069D01*
X172968366Y-65723453D01*
X172904352Y-65671860D01*
X172802809Y-65544404D01*
X172676444Y-65358376D01*
X172556861Y-65163463D01*
X172238459Y-64621403D01*
X172223439Y-65177243D01*
X172212537Y-65442967D01*
X172195654Y-65615663D01*
X172170873Y-65708059D01*
X172139654Y-65733084D01*
X172050355Y-65708987D01*
X172035611Y-65697806D01*
X172022986Y-65634886D01*
X172012359Y-65486073D01*
X172004622Y-65271303D01*
X172000663Y-65010511D01*
X172000334Y-64907179D01*
X172004014Y-64551383D01*
X172018678Y-64299570D01*
X172049754Y-64150033D01*
X172102673Y-64101068D01*
X172182865Y-64150970D01*
G37*
X172182865Y-64150970D02*
X172295762Y-64298032D01*
X172446793Y-64540550D01*
X172558410Y-64731925D01*
X172843051Y-65226259D01*
X172858255Y-64672692D01*
X172867911Y-64418214D01*
X172882056Y-64252818D01*
X172903549Y-64159761D01*
X172935250Y-64122306D01*
X172952834Y-64119125D01*
X172983960Y-64134281D01*
X173006862Y-64189363D01*
X173023210Y-64298792D01*
X173034674Y-64476986D01*
X173042928Y-64738366D01*
X173046838Y-64930254D01*
X173051587Y-65239477D01*
X173051870Y-65457948D01*
X173046199Y-65600704D01*
X173033085Y-65682783D01*
X173011043Y-65719226D01*
X172978583Y-65725069D01*
X172968366Y-65723453D01*
X172904352Y-65671860D01*
X172802809Y-65544404D01*
X172676444Y-65358376D01*
X172556861Y-65163463D01*
X172238459Y-64621403D01*
X172223439Y-65177243D01*
X172212537Y-65442967D01*
X172195654Y-65615663D01*
X172170873Y-65708059D01*
X172139654Y-65733084D01*
X172050355Y-65708987D01*
X172035611Y-65697806D01*
X172022986Y-65634886D01*
X172012359Y-65486073D01*
X172004622Y-65271303D01*
X172000663Y-65010511D01*
X172000334Y-64907179D01*
X172004014Y-64551383D01*
X172018678Y-64299570D01*
X172049754Y-64150033D01*
X172102673Y-64101068D01*
X172182865Y-64150970D01*
G36*
X174275085Y-64502438D02*
G01*
X174316861Y-64630482D01*
X174328667Y-64757705D01*
X174328667Y-64986451D01*
X174580021Y-65002580D01*
X174745937Y-65024558D01*
X174822156Y-65066637D01*
X174831375Y-65098084D01*
X174795091Y-65153099D01*
X174676294Y-65184732D01*
X174582807Y-65193473D01*
X174334238Y-65209488D01*
X174318223Y-65457581D01*
X174296400Y-65622070D01*
X174252335Y-65704011D01*
X174209604Y-65723258D01*
X174154108Y-65717970D01*
X174126212Y-65659266D01*
X174117282Y-65524009D01*
X174117000Y-65475146D01*
X174117000Y-65209448D01*
X173839188Y-65193453D01*
X173664652Y-65174203D01*
X173578388Y-65138389D01*
X173561375Y-65098084D01*
X173593582Y-65046362D01*
X173701546Y-65015499D01*
X173839188Y-65002714D01*
X174117000Y-64986719D01*
X174117000Y-64733721D01*
X174123731Y-64577924D01*
X174140810Y-64469948D01*
X174151819Y-64445904D01*
X174215653Y-64433123D01*
X174275085Y-64502438D01*
G37*
X174275085Y-64502438D02*
X174316861Y-64630482D01*
X174328667Y-64757705D01*
X174328667Y-64986451D01*
X174580021Y-65002580D01*
X174745937Y-65024558D01*
X174822156Y-65066637D01*
X174831375Y-65098084D01*
X174795091Y-65153099D01*
X174676294Y-65184732D01*
X174582807Y-65193473D01*
X174334238Y-65209488D01*
X174318223Y-65457581D01*
X174296400Y-65622070D01*
X174252335Y-65704011D01*
X174209604Y-65723258D01*
X174154108Y-65717970D01*
X174126212Y-65659266D01*
X174117282Y-65524009D01*
X174117000Y-65475146D01*
X174117000Y-65209448D01*
X173839188Y-65193453D01*
X173664652Y-65174203D01*
X173578388Y-65138389D01*
X173561375Y-65098084D01*
X173593582Y-65046362D01*
X173701546Y-65015499D01*
X173839188Y-65002714D01*
X174117000Y-64986719D01*
X174117000Y-64733721D01*
X174123731Y-64577924D01*
X174140810Y-64469948D01*
X174151819Y-64445904D01*
X174215653Y-64433123D01*
X174275085Y-64502438D01*
G36*
X195679207Y-64097967D02*
G01*
X195866795Y-64112577D01*
X195978323Y-64134564D01*
X195999274Y-64147578D01*
X195985889Y-64214284D01*
X195914984Y-64326320D01*
X195846231Y-64409454D01*
X195659251Y-64616418D01*
X195841876Y-64799042D01*
X195987837Y-65005962D01*
X196031615Y-65225013D01*
X195972493Y-65444078D01*
X195887505Y-65570273D01*
X195802653Y-65660156D01*
X195716954Y-65709051D01*
X195594713Y-65729257D01*
X195415034Y-65733084D01*
X195183922Y-65720655D01*
X195040633Y-65681346D01*
X194996405Y-65649929D01*
X194928822Y-65550661D01*
X194913250Y-65491179D01*
X194951626Y-65428537D01*
X195031805Y-65420503D01*
X195098459Y-65468500D01*
X195177220Y-65510028D01*
X195318928Y-65525135D01*
X195484701Y-65516231D01*
X195635654Y-65485724D01*
X195732904Y-65436022D01*
X195739171Y-65428813D01*
X195800764Y-65272382D01*
X195782779Y-65104009D01*
X195700066Y-64954843D01*
X195567476Y-64856033D01*
X195455358Y-64833500D01*
X195338828Y-64808454D01*
X195315330Y-64733882D01*
X195384823Y-64610638D01*
X195470996Y-64513828D01*
X195670476Y-64309543D01*
X195305639Y-64293709D01*
X195106149Y-64280245D01*
X194990219Y-64257239D01*
X194935626Y-64218389D01*
X194923146Y-64185271D01*
X194924926Y-64143033D01*
X194961757Y-64115931D01*
X195051762Y-64100689D01*
X195213063Y-64094029D01*
X195435414Y-64092667D01*
X195679207Y-64097967D01*
G37*
X195679207Y-64097967D02*
X195866795Y-64112577D01*
X195978323Y-64134564D01*
X195999274Y-64147578D01*
X195985889Y-64214284D01*
X195914984Y-64326320D01*
X195846231Y-64409454D01*
X195659251Y-64616418D01*
X195841876Y-64799042D01*
X195987837Y-65005962D01*
X196031615Y-65225013D01*
X195972493Y-65444078D01*
X195887505Y-65570273D01*
X195802653Y-65660156D01*
X195716954Y-65709051D01*
X195594713Y-65729257D01*
X195415034Y-65733084D01*
X195183922Y-65720655D01*
X195040633Y-65681346D01*
X194996405Y-65649929D01*
X194928822Y-65550661D01*
X194913250Y-65491179D01*
X194951626Y-65428537D01*
X195031805Y-65420503D01*
X195098459Y-65468500D01*
X195177220Y-65510028D01*
X195318928Y-65525135D01*
X195484701Y-65516231D01*
X195635654Y-65485724D01*
X195732904Y-65436022D01*
X195739171Y-65428813D01*
X195800764Y-65272382D01*
X195782779Y-65104009D01*
X195700066Y-64954843D01*
X195567476Y-64856033D01*
X195455358Y-64833500D01*
X195338828Y-64808454D01*
X195315330Y-64733882D01*
X195384823Y-64610638D01*
X195470996Y-64513828D01*
X195670476Y-64309543D01*
X195305639Y-64293709D01*
X195106149Y-64280245D01*
X194990219Y-64257239D01*
X194935626Y-64218389D01*
X194923146Y-64185271D01*
X194924926Y-64143033D01*
X194961757Y-64115931D01*
X195051762Y-64100689D01*
X195213063Y-64094029D01*
X195435414Y-64092667D01*
X195679207Y-64097967D01*
G36*
X201888926Y-61511593D02*
G01*
X201927957Y-61600607D01*
X201949613Y-61747081D01*
X201951167Y-61798476D01*
X201951167Y-62023118D01*
X202202521Y-62039247D01*
X202368437Y-62061225D01*
X202444656Y-62103304D01*
X202453875Y-62134750D01*
X202417990Y-62189447D01*
X202300227Y-62221073D01*
X202202521Y-62230254D01*
X201951167Y-62246382D01*
X201951167Y-62475129D01*
X201931545Y-62651151D01*
X201879835Y-62761872D01*
X201806775Y-62792288D01*
X201748824Y-62757908D01*
X201709794Y-62668893D01*
X201688138Y-62522420D01*
X201686584Y-62471025D01*
X201686584Y-62246382D01*
X201435229Y-62230254D01*
X201269314Y-62208275D01*
X201193095Y-62166196D01*
X201183875Y-62134750D01*
X201219760Y-62080053D01*
X201337523Y-62048427D01*
X201435229Y-62039247D01*
X201686584Y-62023118D01*
X201686584Y-61794372D01*
X201706206Y-61618349D01*
X201757915Y-61507628D01*
X201830975Y-61477212D01*
X201888926Y-61511593D01*
G37*
X201888926Y-61511593D02*
X201927957Y-61600607D01*
X201949613Y-61747081D01*
X201951167Y-61798476D01*
X201951167Y-62023118D01*
X202202521Y-62039247D01*
X202368437Y-62061225D01*
X202444656Y-62103304D01*
X202453875Y-62134750D01*
X202417990Y-62189447D01*
X202300227Y-62221073D01*
X202202521Y-62230254D01*
X201951167Y-62246382D01*
X201951167Y-62475129D01*
X201931545Y-62651151D01*
X201879835Y-62761872D01*
X201806775Y-62792288D01*
X201748824Y-62757908D01*
X201709794Y-62668893D01*
X201688138Y-62522420D01*
X201686584Y-62471025D01*
X201686584Y-62246382D01*
X201435229Y-62230254D01*
X201269314Y-62208275D01*
X201193095Y-62166196D01*
X201183875Y-62134750D01*
X201219760Y-62080053D01*
X201337523Y-62048427D01*
X201435229Y-62039247D01*
X201686584Y-62023118D01*
X201686584Y-61794372D01*
X201706206Y-61618349D01*
X201757915Y-61507628D01*
X201830975Y-61477212D01*
X201888926Y-61511593D01*
G36*
X202118936Y-60039940D02*
G01*
X202296557Y-60109833D01*
X202417767Y-60226675D01*
X202446427Y-60293777D01*
X202478268Y-60512597D01*
X202462396Y-60719079D01*
X202405966Y-60888750D01*
X202316135Y-60997137D01*
X202233036Y-61023500D01*
X202177194Y-60997703D01*
X202188631Y-60905973D01*
X202189127Y-60904438D01*
X202253060Y-60626567D01*
X202240701Y-60422032D01*
X202152041Y-60290803D01*
X201987068Y-60232853D01*
X201924709Y-60229750D01*
X201739728Y-60270813D01*
X201621737Y-60383971D01*
X201577663Y-60554181D01*
X201614432Y-60766399D01*
X201643887Y-60839591D01*
X201679926Y-60948503D01*
X201653224Y-61010067D01*
X201630658Y-61026479D01*
X201551047Y-61063875D01*
X201527834Y-61065818D01*
X201464472Y-61057509D01*
X201329479Y-61045655D01*
X201211938Y-61037001D01*
X201037550Y-61016078D01*
X200902319Y-60983795D01*
X200854750Y-60960936D01*
X200815117Y-60874815D01*
X200792119Y-60719912D01*
X200785655Y-60531944D01*
X200795627Y-60346630D01*
X200821936Y-60199689D01*
X200857051Y-60131655D01*
X200943042Y-60102651D01*
X201006144Y-60171326D01*
X201043061Y-60331352D01*
X201051584Y-60504917D01*
X201053876Y-60676963D01*
X201069503Y-60768547D01*
X201111588Y-60805040D01*
X201193252Y-60811813D01*
X201210334Y-60811834D01*
X201304924Y-60805873D01*
X201351695Y-60769630D01*
X201367472Y-60675565D01*
X201369084Y-60551954D01*
X201378858Y-60381417D01*
X201420830Y-60269638D01*
X201513969Y-60170376D01*
X201531894Y-60155079D01*
X201708174Y-60058252D01*
X201913331Y-60021309D01*
X202118936Y-60039940D01*
G37*
X202118936Y-60039940D02*
X202296557Y-60109833D01*
X202417767Y-60226675D01*
X202446427Y-60293777D01*
X202478268Y-60512597D01*
X202462396Y-60719079D01*
X202405966Y-60888750D01*
X202316135Y-60997137D01*
X202233036Y-61023500D01*
X202177194Y-60997703D01*
X202188631Y-60905973D01*
X202189127Y-60904438D01*
X202253060Y-60626567D01*
X202240701Y-60422032D01*
X202152041Y-60290803D01*
X201987068Y-60232853D01*
X201924709Y-60229750D01*
X201739728Y-60270813D01*
X201621737Y-60383971D01*
X201577663Y-60554181D01*
X201614432Y-60766399D01*
X201643887Y-60839591D01*
X201679926Y-60948503D01*
X201653224Y-61010067D01*
X201630658Y-61026479D01*
X201551047Y-61063875D01*
X201527834Y-61065818D01*
X201464472Y-61057509D01*
X201329479Y-61045655D01*
X201211938Y-61037001D01*
X201037550Y-61016078D01*
X200902319Y-60983795D01*
X200854750Y-60960936D01*
X200815117Y-60874815D01*
X200792119Y-60719912D01*
X200785655Y-60531944D01*
X200795627Y-60346630D01*
X200821936Y-60199689D01*
X200857051Y-60131655D01*
X200943042Y-60102651D01*
X201006144Y-60171326D01*
X201043061Y-60331352D01*
X201051584Y-60504917D01*
X201053876Y-60676963D01*
X201069503Y-60768547D01*
X201111588Y-60805040D01*
X201193252Y-60811813D01*
X201210334Y-60811834D01*
X201304924Y-60805873D01*
X201351695Y-60769630D01*
X201367472Y-60675565D01*
X201369084Y-60551954D01*
X201378858Y-60381417D01*
X201420830Y-60269638D01*
X201513969Y-60170376D01*
X201531894Y-60155079D01*
X201708174Y-60058252D01*
X201913331Y-60021309D01*
X202118936Y-60039940D01*
G36*
X198332267Y-77614442D02*
G01*
X198514649Y-77620821D01*
X198626657Y-77634532D01*
X198686005Y-77658093D01*
X198710411Y-77694022D01*
X198713176Y-77705479D01*
X198711954Y-77743824D01*
X198679945Y-77769895D01*
X198600785Y-77786019D01*
X198458107Y-77794522D01*
X198235547Y-77797731D01*
X198061792Y-77798084D01*
X197784917Y-77796893D01*
X197597499Y-77791769D01*
X197483170Y-77780385D01*
X197425566Y-77760415D01*
X197408322Y-77729532D01*
X197410407Y-77705479D01*
X197428731Y-77665989D01*
X197477476Y-77639510D01*
X197574356Y-77623524D01*
X197737090Y-77615513D01*
X197983392Y-77612957D01*
X198061792Y-77612875D01*
X198332267Y-77614442D01*
G37*
X198332267Y-77614442D02*
X198514649Y-77620821D01*
X198626657Y-77634532D01*
X198686005Y-77658093D01*
X198710411Y-77694022D01*
X198713176Y-77705479D01*
X198711954Y-77743824D01*
X198679945Y-77769895D01*
X198600785Y-77786019D01*
X198458107Y-77794522D01*
X198235547Y-77797731D01*
X198061792Y-77798084D01*
X197784917Y-77796893D01*
X197597499Y-77791769D01*
X197483170Y-77780385D01*
X197425566Y-77760415D01*
X197408322Y-77729532D01*
X197410407Y-77705479D01*
X197428731Y-77665989D01*
X197477476Y-77639510D01*
X197574356Y-77623524D01*
X197737090Y-77615513D01*
X197983392Y-77612957D01*
X198061792Y-77612875D01*
X198332267Y-77614442D01*
G36*
X199675750Y-74983600D02*
G01*
X199675053Y-75262433D01*
X199670465Y-75456124D01*
X199658243Y-75585361D01*
X199634643Y-75670834D01*
X199595921Y-75733234D01*
X199538333Y-75793251D01*
X199527334Y-75803808D01*
X199342582Y-75913745D01*
X199122444Y-75946776D01*
X198948146Y-75910954D01*
X198892776Y-75842217D01*
X198882000Y-75782215D01*
X198895897Y-75717886D01*
X198956633Y-75698382D01*
X199084577Y-75712560D01*
X199249147Y-75720387D01*
X199357300Y-75673260D01*
X199375619Y-75656488D01*
X199453376Y-75554803D01*
X199436081Y-75494707D01*
X199320787Y-75470738D01*
X199274805Y-75469750D01*
X199098262Y-75437079D01*
X198941044Y-75325129D01*
X198930846Y-75315071D01*
X198837188Y-75205183D01*
X198790979Y-75090920D01*
X198776612Y-74927627D01*
X198776290Y-74887667D01*
X198987834Y-74887667D01*
X199023177Y-75090382D01*
X199128262Y-75214381D01*
X199301671Y-75258031D01*
X199309113Y-75258084D01*
X199464084Y-75258084D01*
X199464084Y-74517250D01*
X199309113Y-74517250D01*
X199133289Y-74557999D01*
X199025738Y-74679155D01*
X198987879Y-74879086D01*
X198987834Y-74887667D01*
X198776290Y-74887667D01*
X198776167Y-74872495D01*
X198785570Y-74686549D01*
X198823081Y-74562743D01*
X198902650Y-74458334D01*
X198915674Y-74445091D01*
X199014372Y-74363033D01*
X199124646Y-74320901D01*
X199286124Y-74306404D01*
X199365466Y-74305584D01*
X199675750Y-74305584D01*
X199675750Y-74983600D01*
G37*
X199675750Y-74983600D02*
X199675053Y-75262433D01*
X199670465Y-75456124D01*
X199658243Y-75585361D01*
X199634643Y-75670834D01*
X199595921Y-75733234D01*
X199538333Y-75793251D01*
X199527334Y-75803808D01*
X199342582Y-75913745D01*
X199122444Y-75946776D01*
X198948146Y-75910954D01*
X198892776Y-75842217D01*
X198882000Y-75782215D01*
X198895897Y-75717886D01*
X198956633Y-75698382D01*
X199084577Y-75712560D01*
X199249147Y-75720387D01*
X199357300Y-75673260D01*
X199375619Y-75656488D01*
X199453376Y-75554803D01*
X199436081Y-75494707D01*
X199320787Y-75470738D01*
X199274805Y-75469750D01*
X199098262Y-75437079D01*
X198941044Y-75325129D01*
X198930846Y-75315071D01*
X198837188Y-75205183D01*
X198790979Y-75090920D01*
X198776612Y-74927627D01*
X198776290Y-74887667D01*
X198987834Y-74887667D01*
X199023177Y-75090382D01*
X199128262Y-75214381D01*
X199301671Y-75258031D01*
X199309113Y-75258084D01*
X199464084Y-75258084D01*
X199464084Y-74517250D01*
X199309113Y-74517250D01*
X199133289Y-74557999D01*
X199025738Y-74679155D01*
X198987879Y-74879086D01*
X198987834Y-74887667D01*
X198776290Y-74887667D01*
X198776167Y-74872495D01*
X198785570Y-74686549D01*
X198823081Y-74562743D01*
X198902650Y-74458334D01*
X198915674Y-74445091D01*
X199014372Y-74363033D01*
X199124646Y-74320901D01*
X199286124Y-74306404D01*
X199365466Y-74305584D01*
X199675750Y-74305584D01*
X199675750Y-74983600D01*
G36*
X201984767Y-74741086D02*
G01*
X202135598Y-74774389D01*
X202360603Y-74840182D01*
X202672046Y-74940366D01*
X202691922Y-74946910D01*
X203018169Y-75058607D01*
X203250570Y-75149026D01*
X203397854Y-75222940D01*
X203468753Y-75285124D01*
X203471995Y-75340352D01*
X203454155Y-75363762D01*
X203391089Y-75395356D01*
X203249711Y-75451975D01*
X203052318Y-75525808D01*
X202821209Y-75609042D01*
X202578681Y-75693866D01*
X202347033Y-75772469D01*
X202148562Y-75837038D01*
X202005566Y-75879761D01*
X201943264Y-75893084D01*
X201882665Y-75855175D01*
X201871792Y-75840167D01*
X201855253Y-75785645D01*
X201887180Y-75734452D01*
X201980869Y-75678742D01*
X202149612Y-75610668D01*
X202406705Y-75522385D01*
X202414724Y-75519738D01*
X202635576Y-75445718D01*
X202819714Y-75381856D01*
X202943252Y-75336557D01*
X202980399Y-75320678D01*
X202953760Y-75293922D01*
X202843900Y-75242688D01*
X202668510Y-75174403D01*
X202451233Y-75098478D01*
X202160147Y-74994898D01*
X201967907Y-74910776D01*
X201869775Y-74843876D01*
X201854683Y-74817103D01*
X201856574Y-74764344D01*
X201895848Y-74738372D01*
X201984767Y-74741086D01*
G37*
X201984767Y-74741086D02*
X202135598Y-74774389D01*
X202360603Y-74840182D01*
X202672046Y-74940366D01*
X202691922Y-74946910D01*
X203018169Y-75058607D01*
X203250570Y-75149026D01*
X203397854Y-75222940D01*
X203468753Y-75285124D01*
X203471995Y-75340352D01*
X203454155Y-75363762D01*
X203391089Y-75395356D01*
X203249711Y-75451975D01*
X203052318Y-75525808D01*
X202821209Y-75609042D01*
X202578681Y-75693866D01*
X202347033Y-75772469D01*
X202148562Y-75837038D01*
X202005566Y-75879761D01*
X201943264Y-75893084D01*
X201882665Y-75855175D01*
X201871792Y-75840167D01*
X201855253Y-75785645D01*
X201887180Y-75734452D01*
X201980869Y-75678742D01*
X202149612Y-75610668D01*
X202406705Y-75522385D01*
X202414724Y-75519738D01*
X202635576Y-75445718D01*
X202819714Y-75381856D01*
X202943252Y-75336557D01*
X202980399Y-75320678D01*
X202953760Y-75293922D01*
X202843900Y-75242688D01*
X202668510Y-75174403D01*
X202451233Y-75098478D01*
X202160147Y-74994898D01*
X201967907Y-74910776D01*
X201869775Y-74843876D01*
X201854683Y-74817103D01*
X201856574Y-74764344D01*
X201895848Y-74738372D01*
X201984767Y-74741086D01*
G36*
X198008395Y-73804210D02*
G01*
X198233829Y-73893448D01*
X198385583Y-74047143D01*
X198455102Y-74259041D01*
X198458667Y-74327395D01*
X198426138Y-74455084D01*
X198346672Y-74589154D01*
X198247450Y-74692596D01*
X198163784Y-74728917D01*
X198107949Y-74738292D01*
X198097269Y-74778250D01*
X198136575Y-74866536D01*
X198230699Y-75020898D01*
X198252607Y-75055155D01*
X198346073Y-75225114D01*
X198386932Y-75354586D01*
X198383796Y-75397720D01*
X198351038Y-75454578D01*
X198300545Y-75436729D01*
X198252918Y-75395731D01*
X198169661Y-75303741D01*
X198057852Y-75159646D01*
X197976209Y-75044672D01*
X197838764Y-74865389D01*
X197735901Y-74785443D01*
X197664110Y-74805429D01*
X197619875Y-74925944D01*
X197601296Y-75108363D01*
X197579671Y-75296764D01*
X197540709Y-75423822D01*
X197492205Y-75476373D01*
X197441953Y-75441254D01*
X197425301Y-75405571D01*
X197416267Y-75328638D01*
X197410530Y-75166981D01*
X197408423Y-74941665D01*
X197410279Y-74673758D01*
X197412044Y-74567733D01*
X197422200Y-74041000D01*
X197612000Y-74041000D01*
X197612000Y-74570167D01*
X197811893Y-74570167D01*
X197978471Y-74548282D01*
X198118532Y-74494881D01*
X198129393Y-74487791D01*
X198234108Y-74371601D01*
X198246265Y-74251365D01*
X198176930Y-74144549D01*
X198037168Y-74068620D01*
X197846345Y-74041000D01*
X197612000Y-74041000D01*
X197422200Y-74041000D01*
X197426792Y-73802875D01*
X197717834Y-73785686D01*
X198008395Y-73804210D01*
G37*
X198008395Y-73804210D02*
X198233829Y-73893448D01*
X198385583Y-74047143D01*
X198455102Y-74259041D01*
X198458667Y-74327395D01*
X198426138Y-74455084D01*
X198346672Y-74589154D01*
X198247450Y-74692596D01*
X198163784Y-74728917D01*
X198107949Y-74738292D01*
X198097269Y-74778250D01*
X198136575Y-74866536D01*
X198230699Y-75020898D01*
X198252607Y-75055155D01*
X198346073Y-75225114D01*
X198386932Y-75354586D01*
X198383796Y-75397720D01*
X198351038Y-75454578D01*
X198300545Y-75436729D01*
X198252918Y-75395731D01*
X198169661Y-75303741D01*
X198057852Y-75159646D01*
X197976209Y-75044672D01*
X197838764Y-74865389D01*
X197735901Y-74785443D01*
X197664110Y-74805429D01*
X197619875Y-74925944D01*
X197601296Y-75108363D01*
X197579671Y-75296764D01*
X197540709Y-75423822D01*
X197492205Y-75476373D01*
X197441953Y-75441254D01*
X197425301Y-75405571D01*
X197416267Y-75328638D01*
X197410530Y-75166981D01*
X197408423Y-74941665D01*
X197410279Y-74673758D01*
X197412044Y-74567733D01*
X197422200Y-74041000D01*
X197612000Y-74041000D01*
X197612000Y-74570167D01*
X197811893Y-74570167D01*
X197978471Y-74548282D01*
X198118532Y-74494881D01*
X198129393Y-74487791D01*
X198234108Y-74371601D01*
X198246265Y-74251365D01*
X198176930Y-74144549D01*
X198037168Y-74068620D01*
X197846345Y-74041000D01*
X197612000Y-74041000D01*
X197422200Y-74041000D01*
X197426792Y-73802875D01*
X197717834Y-73785686D01*
X198008395Y-73804210D01*
G36*
X202870652Y-73175104D02*
G01*
X202901894Y-73208905D01*
X202921753Y-73287450D01*
X202933962Y-73428912D01*
X202942257Y-73651463D01*
X202945014Y-73755331D01*
X202948693Y-74032048D01*
X202942147Y-74220189D01*
X202923836Y-74336656D01*
X202892219Y-74398350D01*
X202885889Y-74404213D01*
X202807207Y-74435660D01*
X202750091Y-74391193D01*
X202718448Y-74291532D01*
X202702513Y-74088566D01*
X202702384Y-73783666D01*
X202703382Y-73742311D01*
X202711382Y-73489330D01*
X202722061Y-73323807D01*
X202739286Y-73227376D01*
X202766923Y-73181669D01*
X202808838Y-73168317D01*
X202824292Y-73167875D01*
X202870652Y-73175104D01*
G37*
X202870652Y-73175104D02*
X202901894Y-73208905D01*
X202921753Y-73287450D01*
X202933962Y-73428912D01*
X202942257Y-73651463D01*
X202945014Y-73755331D01*
X202948693Y-74032048D01*
X202942147Y-74220189D01*
X202923836Y-74336656D01*
X202892219Y-74398350D01*
X202885889Y-74404213D01*
X202807207Y-74435660D01*
X202750091Y-74391193D01*
X202718448Y-74291532D01*
X202702513Y-74088566D01*
X202702384Y-73783666D01*
X202703382Y-73742311D01*
X202711382Y-73489330D01*
X202722061Y-73323807D01*
X202739286Y-73227376D01*
X202766923Y-73181669D01*
X202808838Y-73168317D01*
X202824292Y-73167875D01*
X202870652Y-73175104D01*
G36*
X205742897Y-72017325D02*
G01*
X205808107Y-72202740D01*
X205837494Y-72364052D01*
X205864452Y-72516165D01*
X205899859Y-72588436D01*
X205962822Y-72606317D01*
X206016237Y-72602177D01*
X206100513Y-72583983D01*
X206142468Y-72535588D01*
X206156714Y-72428036D01*
X206158042Y-72321209D01*
X206164997Y-72160424D01*
X206190098Y-72084908D01*
X206236916Y-72074097D01*
X206338720Y-72144252D01*
X206393119Y-72278543D01*
X206398754Y-72445817D01*
X206354266Y-72614917D01*
X206266280Y-72746947D01*
X206171251Y-72823755D01*
X206059886Y-72862051D01*
X205893423Y-72872998D01*
X205829718Y-72872656D01*
X205648069Y-72865663D01*
X205502796Y-72852036D01*
X205443667Y-72840110D01*
X205315189Y-72746097D01*
X205246429Y-72573290D01*
X205234891Y-72430165D01*
X205443667Y-72430165D01*
X205455699Y-72556141D01*
X205503117Y-72606465D01*
X205551898Y-72612250D01*
X205620409Y-72600035D01*
X205641032Y-72543922D01*
X205624415Y-72414708D01*
X205624253Y-72413813D01*
X205594575Y-72265618D01*
X205567817Y-72200393D01*
X205530610Y-72196533D01*
X205500104Y-72213199D01*
X205461900Y-72285169D01*
X205443877Y-72414311D01*
X205443667Y-72430165D01*
X205234891Y-72430165D01*
X205232000Y-72394310D01*
X205243324Y-72224177D01*
X205288460Y-72115217D01*
X205371428Y-72034008D01*
X205530182Y-71936942D01*
X205652130Y-71930053D01*
X205742897Y-72017325D01*
G37*
X205742897Y-72017325D02*
X205808107Y-72202740D01*
X205837494Y-72364052D01*
X205864452Y-72516165D01*
X205899859Y-72588436D01*
X205962822Y-72606317D01*
X206016237Y-72602177D01*
X206100513Y-72583983D01*
X206142468Y-72535588D01*
X206156714Y-72428036D01*
X206158042Y-72321209D01*
X206164997Y-72160424D01*
X206190098Y-72084908D01*
X206236916Y-72074097D01*
X206338720Y-72144252D01*
X206393119Y-72278543D01*
X206398754Y-72445817D01*
X206354266Y-72614917D01*
X206266280Y-72746947D01*
X206171251Y-72823755D01*
X206059886Y-72862051D01*
X205893423Y-72872998D01*
X205829718Y-72872656D01*
X205648069Y-72865663D01*
X205502796Y-72852036D01*
X205443667Y-72840110D01*
X205315189Y-72746097D01*
X205246429Y-72573290D01*
X205234891Y-72430165D01*
X205443667Y-72430165D01*
X205455699Y-72556141D01*
X205503117Y-72606465D01*
X205551898Y-72612250D01*
X205620409Y-72600035D01*
X205641032Y-72543922D01*
X205624415Y-72414708D01*
X205624253Y-72413813D01*
X205594575Y-72265618D01*
X205567817Y-72200393D01*
X205530610Y-72196533D01*
X205500104Y-72213199D01*
X205461900Y-72285169D01*
X205443877Y-72414311D01*
X205443667Y-72430165D01*
X205234891Y-72430165D01*
X205232000Y-72394310D01*
X205243324Y-72224177D01*
X205288460Y-72115217D01*
X205371428Y-72034008D01*
X205530182Y-71936942D01*
X205652130Y-71930053D01*
X205742897Y-72017325D01*
G36*
X205401184Y-71044249D02*
G01*
X205433640Y-71168258D01*
X205450072Y-71338223D01*
X205909890Y-71353466D01*
X206139238Y-71364688D01*
X206280503Y-71382267D01*
X206351399Y-71409848D01*
X206369709Y-71448084D01*
X206348670Y-71488466D01*
X206273729Y-71515360D01*
X206127142Y-71532432D01*
X205912342Y-71542665D01*
X205688451Y-71552749D01*
X205548807Y-71568368D01*
X205471826Y-71594826D01*
X205435923Y-71637428D01*
X205427817Y-71661728D01*
X205372435Y-71751803D01*
X205300461Y-71749420D01*
X205247333Y-71659750D01*
X205176467Y-71570158D01*
X205109661Y-71553917D01*
X204993706Y-71515219D01*
X204864042Y-71420573D01*
X204755682Y-71302153D01*
X204703637Y-71192131D01*
X204702834Y-71180079D01*
X204740843Y-71069870D01*
X204775188Y-71030577D01*
X204860921Y-71008580D01*
X204933485Y-71080441D01*
X204975492Y-71209959D01*
X205039058Y-71303580D01*
X205109886Y-71332231D01*
X205191318Y-71325568D01*
X205229864Y-71256165D01*
X205241637Y-71173481D01*
X205279314Y-71038346D01*
X205340872Y-70995041D01*
X205401184Y-71044249D01*
G37*
X205401184Y-71044249D02*
X205433640Y-71168258D01*
X205450072Y-71338223D01*
X205909890Y-71353466D01*
X206139238Y-71364688D01*
X206280503Y-71382267D01*
X206351399Y-71409848D01*
X206369709Y-71448084D01*
X206348670Y-71488466D01*
X206273729Y-71515360D01*
X206127142Y-71532432D01*
X205912342Y-71542665D01*
X205688451Y-71552749D01*
X205548807Y-71568368D01*
X205471826Y-71594826D01*
X205435923Y-71637428D01*
X205427817Y-71661728D01*
X205372435Y-71751803D01*
X205300461Y-71749420D01*
X205247333Y-71659750D01*
X205176467Y-71570158D01*
X205109661Y-71553917D01*
X204993706Y-71515219D01*
X204864042Y-71420573D01*
X204755682Y-71302153D01*
X204703637Y-71192131D01*
X204702834Y-71180079D01*
X204740843Y-71069870D01*
X204775188Y-71030577D01*
X204860921Y-71008580D01*
X204933485Y-71080441D01*
X204975492Y-71209959D01*
X205039058Y-71303580D01*
X205109886Y-71332231D01*
X205191318Y-71325568D01*
X205229864Y-71256165D01*
X205241637Y-71173481D01*
X205279314Y-71038346D01*
X205340872Y-70995041D01*
X205401184Y-71044249D01*
G36*
X202002526Y-69558361D02*
G01*
X202159492Y-69594995D01*
X202390433Y-69663644D01*
X202691922Y-69761077D01*
X203022620Y-69874641D01*
X203258079Y-69967035D01*
X203405853Y-70042291D01*
X203473492Y-70104441D01*
X203468546Y-70157520D01*
X203457024Y-70169692D01*
X203392788Y-70201085D01*
X203250549Y-70258147D01*
X203052647Y-70332912D01*
X202821425Y-70417411D01*
X202579224Y-70503676D01*
X202348385Y-70583738D01*
X202151250Y-70649631D01*
X202010161Y-70693384D01*
X201949774Y-70707250D01*
X201882644Y-70669009D01*
X201871792Y-70654334D01*
X201855274Y-70598807D01*
X201888698Y-70546627D01*
X201985445Y-70489654D01*
X202158895Y-70419750D01*
X202388266Y-70340182D01*
X202658232Y-70248405D01*
X202834727Y-70181663D01*
X202924903Y-70132208D01*
X202935917Y-70092291D01*
X202874923Y-70054163D01*
X202749075Y-70010075D01*
X202705703Y-69996394D01*
X202349466Y-69879545D01*
X202091739Y-69782678D01*
X201927544Y-69703607D01*
X201851907Y-69640148D01*
X201845334Y-69618656D01*
X201858461Y-69572381D01*
X201906521Y-69551553D01*
X202002526Y-69558361D01*
G37*
X202002526Y-69558361D02*
X202159492Y-69594995D01*
X202390433Y-69663644D01*
X202691922Y-69761077D01*
X203022620Y-69874641D01*
X203258079Y-69967035D01*
X203405853Y-70042291D01*
X203473492Y-70104441D01*
X203468546Y-70157520D01*
X203457024Y-70169692D01*
X203392788Y-70201085D01*
X203250549Y-70258147D01*
X203052647Y-70332912D01*
X202821425Y-70417411D01*
X202579224Y-70503676D01*
X202348385Y-70583738D01*
X202151250Y-70649631D01*
X202010161Y-70693384D01*
X201949774Y-70707250D01*
X201882644Y-70669009D01*
X201871792Y-70654334D01*
X201855274Y-70598807D01*
X201888698Y-70546627D01*
X201985445Y-70489654D01*
X202158895Y-70419750D01*
X202388266Y-70340182D01*
X202658232Y-70248405D01*
X202834727Y-70181663D01*
X202924903Y-70132208D01*
X202935917Y-70092291D01*
X202874923Y-70054163D01*
X202749075Y-70010075D01*
X202705703Y-69996394D01*
X202349466Y-69879545D01*
X202091739Y-69782678D01*
X201927544Y-69703607D01*
X201851907Y-69640148D01*
X201845334Y-69618656D01*
X201858461Y-69572381D01*
X201906521Y-69551553D01*
X202002526Y-69558361D01*
G36*
X199370218Y-68495170D02*
G01*
X199649292Y-68511209D01*
X199678968Y-69868033D01*
X199513013Y-70023058D01*
X199325170Y-70146291D01*
X199138591Y-70172813D01*
X198968871Y-70101479D01*
X198928671Y-70066004D01*
X198862699Y-69967479D01*
X198891616Y-69906043D01*
X199009461Y-69886691D01*
X199128365Y-69898630D01*
X199298105Y-69894441D01*
X199418626Y-69830670D01*
X199464084Y-69721812D01*
X199419532Y-69669420D01*
X199281309Y-69649298D01*
X199250012Y-69648917D01*
X199029722Y-69612339D01*
X198879657Y-69500068D01*
X198796579Y-69308295D01*
X198776167Y-69091627D01*
X198777833Y-69052055D01*
X198987834Y-69052055D01*
X199011702Y-69260542D01*
X199088983Y-69384385D01*
X199228185Y-69434777D01*
X199280737Y-69437250D01*
X199464084Y-69437250D01*
X199464084Y-69066834D01*
X199462378Y-68873392D01*
X199451387Y-68762692D01*
X199422299Y-68711646D01*
X199366303Y-68697163D01*
X199322729Y-68696417D01*
X199145636Y-68741514D01*
X199029085Y-68866352D01*
X198987834Y-69052055D01*
X198777833Y-69052055D01*
X198783931Y-68907212D01*
X198817219Y-68784782D01*
X198891027Y-68681011D01*
X198933655Y-68636621D01*
X199040507Y-68542836D01*
X199143517Y-68499288D01*
X199287652Y-68491408D01*
X199370218Y-68495170D01*
G37*
X199370218Y-68495170D02*
X199649292Y-68511209D01*
X199678968Y-69868033D01*
X199513013Y-70023058D01*
X199325170Y-70146291D01*
X199138591Y-70172813D01*
X198968871Y-70101479D01*
X198928671Y-70066004D01*
X198862699Y-69967479D01*
X198891616Y-69906043D01*
X199009461Y-69886691D01*
X199128365Y-69898630D01*
X199298105Y-69894441D01*
X199418626Y-69830670D01*
X199464084Y-69721812D01*
X199419532Y-69669420D01*
X199281309Y-69649298D01*
X199250012Y-69648917D01*
X199029722Y-69612339D01*
X198879657Y-69500068D01*
X198796579Y-69308295D01*
X198776167Y-69091627D01*
X198777833Y-69052055D01*
X198987834Y-69052055D01*
X199011702Y-69260542D01*
X199088983Y-69384385D01*
X199228185Y-69434777D01*
X199280737Y-69437250D01*
X199464084Y-69437250D01*
X199464084Y-69066834D01*
X199462378Y-68873392D01*
X199451387Y-68762692D01*
X199422299Y-68711646D01*
X199366303Y-68697163D01*
X199322729Y-68696417D01*
X199145636Y-68741514D01*
X199029085Y-68866352D01*
X198987834Y-69052055D01*
X198777833Y-69052055D01*
X198783931Y-68907212D01*
X198817219Y-68784782D01*
X198891027Y-68681011D01*
X198933655Y-68636621D01*
X199040507Y-68542836D01*
X199143517Y-68499288D01*
X199287652Y-68491408D01*
X199370218Y-68495170D01*
G36*
X198117989Y-68036680D02*
G01*
X198221636Y-68085332D01*
X198261568Y-68114435D01*
X198382125Y-68262594D01*
X198438142Y-68445700D01*
X198431147Y-68633536D01*
X198362665Y-68795887D01*
X198234224Y-68902535D01*
X198221491Y-68907723D01*
X198123318Y-68955294D01*
X198088250Y-68989844D01*
X198115870Y-69047668D01*
X198186727Y-69162069D01*
X198247000Y-69252042D01*
X198337525Y-69398545D01*
X198395007Y-69520270D01*
X198405750Y-69565847D01*
X198381349Y-69643732D01*
X198312826Y-69633779D01*
X198207202Y-69540803D01*
X198071498Y-69369623D01*
X198027921Y-69306634D01*
X197875983Y-69098114D01*
X197762808Y-68985751D01*
X197683351Y-68969365D01*
X197632568Y-69048773D01*
X197605414Y-69223792D01*
X197601296Y-69291198D01*
X197586543Y-69479788D01*
X197560084Y-69585817D01*
X197514610Y-69632463D01*
X197491537Y-69639306D01*
X197455819Y-69639144D01*
X197430992Y-69612742D01*
X197415548Y-69545041D01*
X197407982Y-69420982D01*
X197406785Y-69225506D01*
X197410452Y-68943553D01*
X197412162Y-68846087D01*
X197423451Y-68220167D01*
X197612000Y-68220167D01*
X197612000Y-68749334D01*
X197846345Y-68749334D01*
X198033425Y-68728287D01*
X198157968Y-68671685D01*
X198163845Y-68666179D01*
X198239777Y-68536394D01*
X198223605Y-68410651D01*
X198128324Y-68305422D01*
X197966933Y-68237176D01*
X197811893Y-68220167D01*
X197612000Y-68220167D01*
X197423451Y-68220167D01*
X197426792Y-68034959D01*
X197774057Y-68019538D01*
X197980634Y-68017053D01*
X198117989Y-68036680D01*
G37*
X198117989Y-68036680D02*
X198221636Y-68085332D01*
X198261568Y-68114435D01*
X198382125Y-68262594D01*
X198438142Y-68445700D01*
X198431147Y-68633536D01*
X198362665Y-68795887D01*
X198234224Y-68902535D01*
X198221491Y-68907723D01*
X198123318Y-68955294D01*
X198088250Y-68989844D01*
X198115870Y-69047668D01*
X198186727Y-69162069D01*
X198247000Y-69252042D01*
X198337525Y-69398545D01*
X198395007Y-69520270D01*
X198405750Y-69565847D01*
X198381349Y-69643732D01*
X198312826Y-69633779D01*
X198207202Y-69540803D01*
X198071498Y-69369623D01*
X198027921Y-69306634D01*
X197875983Y-69098114D01*
X197762808Y-68985751D01*
X197683351Y-68969365D01*
X197632568Y-69048773D01*
X197605414Y-69223792D01*
X197601296Y-69291198D01*
X197586543Y-69479788D01*
X197560084Y-69585817D01*
X197514610Y-69632463D01*
X197491537Y-69639306D01*
X197455819Y-69639144D01*
X197430992Y-69612742D01*
X197415548Y-69545041D01*
X197407982Y-69420982D01*
X197406785Y-69225506D01*
X197410452Y-68943553D01*
X197412162Y-68846087D01*
X197423451Y-68220167D01*
X197612000Y-68220167D01*
X197612000Y-68749334D01*
X197846345Y-68749334D01*
X198033425Y-68728287D01*
X198157968Y-68671685D01*
X198163845Y-68666179D01*
X198239777Y-68536394D01*
X198223605Y-68410651D01*
X198128324Y-68305422D01*
X197966933Y-68237176D01*
X197811893Y-68220167D01*
X197612000Y-68220167D01*
X197423451Y-68220167D01*
X197426792Y-68034959D01*
X197774057Y-68019538D01*
X197980634Y-68017053D01*
X198117989Y-68036680D01*
G36*
X202901349Y-67927693D02*
G01*
X202933413Y-67996401D01*
X202953341Y-68133226D01*
X202956584Y-68223290D01*
X202956584Y-68484750D01*
X203225047Y-68484750D01*
X203384270Y-68490165D01*
X203461045Y-68512090D01*
X203478453Y-68559046D01*
X203475925Y-68577354D01*
X203434515Y-68639537D01*
X203325247Y-68674110D01*
X203207462Y-68686087D01*
X202956584Y-68702216D01*
X202956584Y-68930962D01*
X202936961Y-69106984D01*
X202885252Y-69217706D01*
X202812192Y-69248121D01*
X202754241Y-69213741D01*
X202715210Y-69124726D01*
X202693554Y-68978253D01*
X202692000Y-68926858D01*
X202692000Y-68702216D01*
X202440646Y-68686087D01*
X202274730Y-68664109D01*
X202198511Y-68622030D01*
X202189292Y-68590584D01*
X202225177Y-68535886D01*
X202342940Y-68504261D01*
X202440646Y-68495080D01*
X202692000Y-68478951D01*
X202692000Y-68250205D01*
X202714031Y-68076320D01*
X202771486Y-67957100D01*
X202851408Y-67912505D01*
X202901349Y-67927693D01*
G37*
X202901349Y-67927693D02*
X202933413Y-67996401D01*
X202953341Y-68133226D01*
X202956584Y-68223290D01*
X202956584Y-68484750D01*
X203225047Y-68484750D01*
X203384270Y-68490165D01*
X203461045Y-68512090D01*
X203478453Y-68559046D01*
X203475925Y-68577354D01*
X203434515Y-68639537D01*
X203325247Y-68674110D01*
X203207462Y-68686087D01*
X202956584Y-68702216D01*
X202956584Y-68930962D01*
X202936961Y-69106984D01*
X202885252Y-69217706D01*
X202812192Y-69248121D01*
X202754241Y-69213741D01*
X202715210Y-69124726D01*
X202693554Y-68978253D01*
X202692000Y-68926858D01*
X202692000Y-68702216D01*
X202440646Y-68686087D01*
X202274730Y-68664109D01*
X202198511Y-68622030D01*
X202189292Y-68590584D01*
X202225177Y-68535886D01*
X202342940Y-68504261D01*
X202440646Y-68495080D01*
X202692000Y-68478951D01*
X202692000Y-68250205D01*
X202714031Y-68076320D01*
X202771486Y-67957100D01*
X202851408Y-67912505D01*
X202901349Y-67927693D01*
G36*
X198104059Y-65483614D02*
G01*
X198131955Y-65542317D01*
X198140885Y-65677574D01*
X198141167Y-65726438D01*
X198141167Y-65992136D01*
X198418979Y-66008131D01*
X198593515Y-66027381D01*
X198679779Y-66063195D01*
X198696792Y-66103500D01*
X198664585Y-66155222D01*
X198556621Y-66186085D01*
X198418979Y-66198870D01*
X198141167Y-66214864D01*
X198141167Y-66473559D01*
X198128048Y-66667038D01*
X198088166Y-66759240D01*
X198020736Y-66751484D01*
X197990888Y-66725804D01*
X197952405Y-66637377D01*
X197931041Y-66491281D01*
X197929500Y-66439775D01*
X197929500Y-66215132D01*
X197678146Y-66199004D01*
X197512230Y-66177025D01*
X197436011Y-66134946D01*
X197426792Y-66103500D01*
X197463076Y-66048485D01*
X197581873Y-66016851D01*
X197675360Y-66008110D01*
X197923929Y-65992096D01*
X197939944Y-65744003D01*
X197961767Y-65579514D01*
X198005832Y-65497573D01*
X198048563Y-65478325D01*
X198104059Y-65483614D01*
G37*
X198104059Y-65483614D02*
X198131955Y-65542317D01*
X198140885Y-65677574D01*
X198141167Y-65726438D01*
X198141167Y-65992136D01*
X198418979Y-66008131D01*
X198593515Y-66027381D01*
X198679779Y-66063195D01*
X198696792Y-66103500D01*
X198664585Y-66155222D01*
X198556621Y-66186085D01*
X198418979Y-66198870D01*
X198141167Y-66214864D01*
X198141167Y-66473559D01*
X198128048Y-66667038D01*
X198088166Y-66759240D01*
X198020736Y-66751484D01*
X197990888Y-66725804D01*
X197952405Y-66637377D01*
X197931041Y-66491281D01*
X197929500Y-66439775D01*
X197929500Y-66215132D01*
X197678146Y-66199004D01*
X197512230Y-66177025D01*
X197436011Y-66134946D01*
X197426792Y-66103500D01*
X197463076Y-66048485D01*
X197581873Y-66016851D01*
X197675360Y-66008110D01*
X197923929Y-65992096D01*
X197939944Y-65744003D01*
X197961767Y-65579514D01*
X198005832Y-65497573D01*
X198048563Y-65478325D01*
X198104059Y-65483614D01*
G36*
X195613103Y-75700069D02*
G01*
X195744719Y-75771016D01*
X195844584Y-75861333D01*
X195951376Y-75985281D01*
X196015853Y-76093215D01*
X196024500Y-76128545D01*
X195981546Y-76296051D01*
X195858589Y-76506883D01*
X195664488Y-76746880D01*
X195584108Y-76832354D01*
X195313740Y-77110167D01*
X195605620Y-77110167D01*
X195822168Y-77126123D01*
X195954231Y-77171356D01*
X195994525Y-77241907D01*
X195963845Y-77304699D01*
X195883750Y-77343801D01*
X195716616Y-77366760D01*
X195453761Y-77374724D01*
X195434277Y-77374750D01*
X195199566Y-77371245D01*
X195050699Y-77358525D01*
X194967849Y-77333286D01*
X194931190Y-77292221D01*
X194930624Y-77290784D01*
X194947952Y-77213132D01*
X195041321Y-77079940D01*
X195213808Y-76887094D01*
X195296815Y-76801305D01*
X195517937Y-76569850D01*
X195668107Y-76395073D01*
X195756039Y-76263979D01*
X195790445Y-76163573D01*
X195780038Y-76080859D01*
X195779960Y-76080655D01*
X195700953Y-75985586D01*
X195570224Y-75918384D01*
X195425454Y-75888754D01*
X195304322Y-75906403D01*
X195257209Y-75946000D01*
X195190525Y-75985128D01*
X195087494Y-75997745D01*
X194996920Y-75983206D01*
X194966167Y-75949841D01*
X195012896Y-75861810D01*
X195130916Y-75775562D01*
X195286977Y-75709364D01*
X195447826Y-75681478D01*
X195454845Y-75681417D01*
X195613103Y-75700069D01*
G37*
X195613103Y-75700069D02*
X195744719Y-75771016D01*
X195844584Y-75861333D01*
X195951376Y-75985281D01*
X196015853Y-76093215D01*
X196024500Y-76128545D01*
X195981546Y-76296051D01*
X195858589Y-76506883D01*
X195664488Y-76746880D01*
X195584108Y-76832354D01*
X195313740Y-77110167D01*
X195605620Y-77110167D01*
X195822168Y-77126123D01*
X195954231Y-77171356D01*
X195994525Y-77241907D01*
X195963845Y-77304699D01*
X195883750Y-77343801D01*
X195716616Y-77366760D01*
X195453761Y-77374724D01*
X195434277Y-77374750D01*
X195199566Y-77371245D01*
X195050699Y-77358525D01*
X194967849Y-77333286D01*
X194931190Y-77292221D01*
X194930624Y-77290784D01*
X194947952Y-77213132D01*
X195041321Y-77079940D01*
X195213808Y-76887094D01*
X195296815Y-76801305D01*
X195517937Y-76569850D01*
X195668107Y-76395073D01*
X195756039Y-76263979D01*
X195790445Y-76163573D01*
X195780038Y-76080859D01*
X195779960Y-76080655D01*
X195700953Y-75985586D01*
X195570224Y-75918384D01*
X195425454Y-75888754D01*
X195304322Y-75906403D01*
X195257209Y-75946000D01*
X195190525Y-75985128D01*
X195087494Y-75997745D01*
X194996920Y-75983206D01*
X194966167Y-75949841D01*
X195012896Y-75861810D01*
X195130916Y-75775562D01*
X195286977Y-75709364D01*
X195447826Y-75681478D01*
X195454845Y-75681417D01*
X195613103Y-75700069D01*
G36*
X186538160Y-71896004D02*
G01*
X186699726Y-71963346D01*
X186820691Y-72062573D01*
X186869876Y-72167870D01*
X186869917Y-72170660D01*
X186878729Y-72224446D01*
X186917363Y-72231871D01*
X187004112Y-72187430D01*
X187157272Y-72085619D01*
X187160959Y-72083084D01*
X187307462Y-71992559D01*
X187429187Y-71935076D01*
X187474764Y-71924334D01*
X187552431Y-71949629D01*
X187544655Y-72019419D01*
X187457222Y-72124558D01*
X187295922Y-72255898D01*
X187240334Y-72294750D01*
X187036897Y-72446643D01*
X186931455Y-72561997D01*
X186924120Y-72644522D01*
X187015006Y-72697928D01*
X187204225Y-72725926D01*
X187253563Y-72728788D01*
X187444904Y-72744435D01*
X187548907Y-72771914D01*
X187583865Y-72816487D01*
X187584292Y-72823917D01*
X187568750Y-72855805D01*
X187512288Y-72879063D01*
X187400152Y-72895494D01*
X187217589Y-72906902D01*
X186949846Y-72915091D01*
X186815701Y-72917867D01*
X186477342Y-72921084D01*
X186234259Y-72915554D01*
X186076204Y-72900659D01*
X185992933Y-72875780D01*
X185982263Y-72867596D01*
X185938498Y-72766246D01*
X185919548Y-72600919D01*
X185921419Y-72529396D01*
X186129084Y-72529396D01*
X186129084Y-72718084D01*
X186658250Y-72718084D01*
X186658250Y-72136000D01*
X186448445Y-72136000D01*
X186279639Y-72161616D01*
X186178976Y-72248473D01*
X186134267Y-72411589D01*
X186129084Y-72529396D01*
X185921419Y-72529396D01*
X185924536Y-72410304D01*
X185952584Y-72233092D01*
X185999371Y-72113031D01*
X186146031Y-71973519D01*
X186340988Y-71895222D01*
X186538160Y-71896004D01*
G37*
X186538160Y-71896004D02*
X186699726Y-71963346D01*
X186820691Y-72062573D01*
X186869876Y-72167870D01*
X186869917Y-72170660D01*
X186878729Y-72224446D01*
X186917363Y-72231871D01*
X187004112Y-72187430D01*
X187157272Y-72085619D01*
X187160959Y-72083084D01*
X187307462Y-71992559D01*
X187429187Y-71935076D01*
X187474764Y-71924334D01*
X187552431Y-71949629D01*
X187544655Y-72019419D01*
X187457222Y-72124558D01*
X187295922Y-72255898D01*
X187240334Y-72294750D01*
X187036897Y-72446643D01*
X186931455Y-72561997D01*
X186924120Y-72644522D01*
X187015006Y-72697928D01*
X187204225Y-72725926D01*
X187253563Y-72728788D01*
X187444904Y-72744435D01*
X187548907Y-72771914D01*
X187583865Y-72816487D01*
X187584292Y-72823917D01*
X187568750Y-72855805D01*
X187512288Y-72879063D01*
X187400152Y-72895494D01*
X187217589Y-72906902D01*
X186949846Y-72915091D01*
X186815701Y-72917867D01*
X186477342Y-72921084D01*
X186234259Y-72915554D01*
X186076204Y-72900659D01*
X185992933Y-72875780D01*
X185982263Y-72867596D01*
X185938498Y-72766246D01*
X185919548Y-72600919D01*
X185921419Y-72529396D01*
X186129084Y-72529396D01*
X186129084Y-72718084D01*
X186658250Y-72718084D01*
X186658250Y-72136000D01*
X186448445Y-72136000D01*
X186279639Y-72161616D01*
X186178976Y-72248473D01*
X186134267Y-72411589D01*
X186129084Y-72529396D01*
X185921419Y-72529396D01*
X185924536Y-72410304D01*
X185952584Y-72233092D01*
X185999371Y-72113031D01*
X186146031Y-71973519D01*
X186340988Y-71895222D01*
X186538160Y-71896004D01*
G36*
X187403433Y-70655031D02*
G01*
X187597124Y-70659618D01*
X187726361Y-70671840D01*
X187811834Y-70695441D01*
X187874234Y-70734163D01*
X187934251Y-70791751D01*
X187944808Y-70802750D01*
X188037293Y-70946695D01*
X188078304Y-71111341D01*
X188070064Y-71268417D01*
X188014798Y-71389654D01*
X187914731Y-71446780D01*
X187894041Y-71448084D01*
X187840925Y-71426862D01*
X187832618Y-71345969D01*
X187845245Y-71263617D01*
X187851047Y-71091533D01*
X187809336Y-70951257D01*
X187731550Y-70873104D01*
X187695231Y-70866000D01*
X187641216Y-70915384D01*
X187600940Y-71049586D01*
X187594560Y-71090600D01*
X187522660Y-71315713D01*
X187376628Y-71466068D01*
X187155218Y-71542638D01*
X187001668Y-71553654D01*
X186812310Y-71540007D01*
X186678833Y-71488242D01*
X186591564Y-71419484D01*
X186507939Y-71327956D01*
X186464230Y-71227621D01*
X186448130Y-71080298D01*
X186446584Y-70969692D01*
X186446584Y-70866000D01*
X186658250Y-70866000D01*
X186658250Y-71048579D01*
X186688314Y-71212528D01*
X186750854Y-71285095D01*
X186906695Y-71332894D01*
X187090733Y-71333046D01*
X187251522Y-71288386D01*
X187302313Y-71254674D01*
X187375052Y-71137320D01*
X187399084Y-71016549D01*
X187399084Y-70866000D01*
X186658250Y-70866000D01*
X186446584Y-70866000D01*
X186446584Y-70654334D01*
X187124600Y-70654334D01*
X187403433Y-70655031D01*
G37*
X187403433Y-70655031D02*
X187597124Y-70659618D01*
X187726361Y-70671840D01*
X187811834Y-70695441D01*
X187874234Y-70734163D01*
X187934251Y-70791751D01*
X187944808Y-70802750D01*
X188037293Y-70946695D01*
X188078304Y-71111341D01*
X188070064Y-71268417D01*
X188014798Y-71389654D01*
X187914731Y-71446780D01*
X187894041Y-71448084D01*
X187840925Y-71426862D01*
X187832618Y-71345969D01*
X187845245Y-71263617D01*
X187851047Y-71091533D01*
X187809336Y-70951257D01*
X187731550Y-70873104D01*
X187695231Y-70866000D01*
X187641216Y-70915384D01*
X187600940Y-71049586D01*
X187594560Y-71090600D01*
X187522660Y-71315713D01*
X187376628Y-71466068D01*
X187155218Y-71542638D01*
X187001668Y-71553654D01*
X186812310Y-71540007D01*
X186678833Y-71488242D01*
X186591564Y-71419484D01*
X186507939Y-71327956D01*
X186464230Y-71227621D01*
X186448130Y-71080298D01*
X186446584Y-70969692D01*
X186446584Y-70866000D01*
X186658250Y-70866000D01*
X186658250Y-71048579D01*
X186688314Y-71212528D01*
X186750854Y-71285095D01*
X186906695Y-71332894D01*
X187090733Y-71333046D01*
X187251522Y-71288386D01*
X187302313Y-71254674D01*
X187375052Y-71137320D01*
X187399084Y-71016549D01*
X187399084Y-70866000D01*
X186658250Y-70866000D01*
X186446584Y-70866000D01*
X186446584Y-70654334D01*
X187124600Y-70654334D01*
X187403433Y-70655031D01*
G36*
X195562897Y-67067737D02*
G01*
X195583484Y-67172911D01*
X195595731Y-67354479D01*
X195600841Y-67624965D01*
X195601167Y-67739062D01*
X195601167Y-68425445D01*
X195799604Y-68441868D01*
X195947966Y-68473353D01*
X195998021Y-68535996D01*
X195998042Y-68537667D01*
X195978715Y-68575729D01*
X195909342Y-68601716D01*
X195772831Y-68618733D01*
X195552094Y-68629887D01*
X195477845Y-68632239D01*
X195239663Y-68637632D01*
X195088793Y-68635050D01*
X195006836Y-68621584D01*
X194975392Y-68594326D01*
X194975577Y-68552864D01*
X195029724Y-68479892D01*
X195167395Y-68444157D01*
X195191503Y-68441868D01*
X195389500Y-68425445D01*
X195389500Y-67420416D01*
X195271893Y-67502791D01*
X195147725Y-67565183D01*
X195036342Y-67583150D01*
X194971567Y-67553532D01*
X194966167Y-67531360D01*
X195003371Y-67459743D01*
X195097828Y-67352556D01*
X195223806Y-67232731D01*
X195355569Y-67123199D01*
X195467386Y-67046893D01*
X195532770Y-67026432D01*
X195562897Y-67067737D01*
G37*
X195562897Y-67067737D02*
X195583484Y-67172911D01*
X195595731Y-67354479D01*
X195600841Y-67624965D01*
X195601167Y-67739062D01*
X195601167Y-68425445D01*
X195799604Y-68441868D01*
X195947966Y-68473353D01*
X195998021Y-68535996D01*
X195998042Y-68537667D01*
X195978715Y-68575729D01*
X195909342Y-68601716D01*
X195772831Y-68618733D01*
X195552094Y-68629887D01*
X195477845Y-68632239D01*
X195239663Y-68637632D01*
X195088793Y-68635050D01*
X195006836Y-68621584D01*
X194975392Y-68594326D01*
X194975577Y-68552864D01*
X195029724Y-68479892D01*
X195167395Y-68444157D01*
X195191503Y-68441868D01*
X195389500Y-68425445D01*
X195389500Y-67420416D01*
X195271893Y-67502791D01*
X195147725Y-67565183D01*
X195036342Y-67583150D01*
X194971567Y-67553532D01*
X194966167Y-67531360D01*
X195003371Y-67459743D01*
X195097828Y-67352556D01*
X195223806Y-67232731D01*
X195355569Y-67123199D01*
X195467386Y-67046893D01*
X195532770Y-67026432D01*
X195562897Y-67067737D01*
G36*
X195742297Y-72857752D02*
G01*
X195805945Y-72905616D01*
X195953148Y-73061574D01*
X196001959Y-73206119D01*
X195956637Y-73353612D01*
X195944482Y-73373098D01*
X195890882Y-73473599D01*
X195894719Y-73560660D01*
X195941681Y-73663924D01*
X196015202Y-73899619D01*
X195993295Y-74114215D01*
X195885161Y-74290097D01*
X195700001Y-74409650D01*
X195530975Y-74450222D01*
X195369987Y-74459134D01*
X195261036Y-74428480D01*
X195152747Y-74341206D01*
X195127443Y-74316251D01*
X195004872Y-74130132D01*
X194966903Y-73942407D01*
X195177740Y-73942407D01*
X195220591Y-74098847D01*
X195318882Y-74208108D01*
X195452992Y-74254694D01*
X195603300Y-74223109D01*
X195707000Y-74146834D01*
X195800100Y-74005733D01*
X195793658Y-73853727D01*
X195758055Y-73772938D01*
X195673343Y-73705018D01*
X195535606Y-73669662D01*
X195384980Y-73668236D01*
X195261601Y-73702107D01*
X195209953Y-73754286D01*
X195177740Y-73942407D01*
X194966903Y-73942407D01*
X194961682Y-73916594D01*
X195002167Y-73710371D01*
X195043456Y-73636703D01*
X195092987Y-73540778D01*
X195068807Y-73459751D01*
X195045139Y-73426491D01*
X194972856Y-73258061D01*
X194980320Y-73218410D01*
X195177834Y-73218410D01*
X195222574Y-73315813D01*
X195333728Y-73377123D01*
X195476693Y-73397817D01*
X195616870Y-73373373D01*
X195719656Y-73299270D01*
X195725875Y-73290035D01*
X195737358Y-73186668D01*
X195675918Y-73079737D01*
X195568015Y-73002061D01*
X195478070Y-72982667D01*
X195358101Y-73017277D01*
X195245123Y-73099080D01*
X195181218Y-73195035D01*
X195177834Y-73218410D01*
X194980320Y-73218410D01*
X195005284Y-73085798D01*
X195130513Y-72924523D01*
X195329226Y-72797557D01*
X195536002Y-72775220D01*
X195742297Y-72857752D01*
G37*
X195742297Y-72857752D02*
X195805945Y-72905616D01*
X195953148Y-73061574D01*
X196001959Y-73206119D01*
X195956637Y-73353612D01*
X195944482Y-73373098D01*
X195890882Y-73473599D01*
X195894719Y-73560660D01*
X195941681Y-73663924D01*
X196015202Y-73899619D01*
X195993295Y-74114215D01*
X195885161Y-74290097D01*
X195700001Y-74409650D01*
X195530975Y-74450222D01*
X195369987Y-74459134D01*
X195261036Y-74428480D01*
X195152747Y-74341206D01*
X195127443Y-74316251D01*
X195004872Y-74130132D01*
X194966903Y-73942407D01*
X195177740Y-73942407D01*
X195220591Y-74098847D01*
X195318882Y-74208108D01*
X195452992Y-74254694D01*
X195603300Y-74223109D01*
X195707000Y-74146834D01*
X195800100Y-74005733D01*
X195793658Y-73853727D01*
X195758055Y-73772938D01*
X195673343Y-73705018D01*
X195535606Y-73669662D01*
X195384980Y-73668236D01*
X195261601Y-73702107D01*
X195209953Y-73754286D01*
X195177740Y-73942407D01*
X194966903Y-73942407D01*
X194961682Y-73916594D01*
X195002167Y-73710371D01*
X195043456Y-73636703D01*
X195092987Y-73540778D01*
X195068807Y-73459751D01*
X195045139Y-73426491D01*
X194972856Y-73258061D01*
X194980320Y-73218410D01*
X195177834Y-73218410D01*
X195222574Y-73315813D01*
X195333728Y-73377123D01*
X195476693Y-73397817D01*
X195616870Y-73373373D01*
X195719656Y-73299270D01*
X195725875Y-73290035D01*
X195737358Y-73186668D01*
X195675918Y-73079737D01*
X195568015Y-73002061D01*
X195478070Y-72982667D01*
X195358101Y-73017277D01*
X195245123Y-73099080D01*
X195181218Y-73195035D01*
X195177834Y-73218410D01*
X194980320Y-73218410D01*
X195005284Y-73085798D01*
X195130513Y-72924523D01*
X195329226Y-72797557D01*
X195536002Y-72775220D01*
X195742297Y-72857752D01*
G36*
X165424021Y-108316060D02*
G01*
X165680234Y-108320908D01*
X165885481Y-108329980D01*
X166056600Y-108344466D01*
X166210430Y-108365556D01*
X166363812Y-108394440D01*
X166426744Y-108407985D01*
X167175665Y-108614282D01*
X167883917Y-108891957D01*
X168547684Y-109238032D01*
X169163147Y-109649532D01*
X169726488Y-110123480D01*
X170233890Y-110656900D01*
X170681533Y-111246817D01*
X171065600Y-111890253D01*
X171175963Y-112110119D01*
X171306664Y-112399451D01*
X171430741Y-112705279D01*
X171540072Y-113005217D01*
X171626531Y-113276876D01*
X171681994Y-113497869D01*
X171684722Y-113512014D01*
X171713422Y-113665000D01*
X165650333Y-113665000D01*
X165650333Y-114001306D01*
X165646919Y-114179582D01*
X165633259Y-114297312D01*
X165604227Y-114378462D01*
X165555083Y-114446552D01*
X165402246Y-114560847D01*
X165216407Y-114605249D01*
X165070913Y-114588865D01*
X164929827Y-114527932D01*
X164835566Y-114425646D01*
X164781701Y-114269737D01*
X164761804Y-114047935D01*
X164761333Y-113997957D01*
X164761333Y-113665000D01*
X158459773Y-113665000D01*
X158559144Y-113293684D01*
X158792220Y-112583087D01*
X159099048Y-111909829D01*
X159475271Y-111278574D01*
X159916533Y-110693987D01*
X160418479Y-110160731D01*
X160976752Y-109683470D01*
X161586996Y-109266868D01*
X162244855Y-108915590D01*
X162894288Y-108652062D01*
X163225312Y-108541996D01*
X163519309Y-108457814D01*
X163796944Y-108396353D01*
X164078880Y-108354447D01*
X164385780Y-108328931D01*
X164738308Y-108316641D01*
X165100000Y-108314248D01*
X165424021Y-108316060D01*
G37*
X165424021Y-108316060D02*
X165680234Y-108320908D01*
X165885481Y-108329980D01*
X166056600Y-108344466D01*
X166210430Y-108365556D01*
X166363812Y-108394440D01*
X166426744Y-108407985D01*
X167175665Y-108614282D01*
X167883917Y-108891957D01*
X168547684Y-109238032D01*
X169163147Y-109649532D01*
X169726488Y-110123480D01*
X170233890Y-110656900D01*
X170681533Y-111246817D01*
X171065600Y-111890253D01*
X171175963Y-112110119D01*
X171306664Y-112399451D01*
X171430741Y-112705279D01*
X171540072Y-113005217D01*
X171626531Y-113276876D01*
X171681994Y-113497869D01*
X171684722Y-113512014D01*
X171713422Y-113665000D01*
X165650333Y-113665000D01*
X165650333Y-114001306D01*
X165646919Y-114179582D01*
X165633259Y-114297312D01*
X165604227Y-114378462D01*
X165555083Y-114446552D01*
X165402246Y-114560847D01*
X165216407Y-114605249D01*
X165070913Y-114588865D01*
X164929827Y-114527932D01*
X164835566Y-114425646D01*
X164781701Y-114269737D01*
X164761804Y-114047935D01*
X164761333Y-113997957D01*
X164761333Y-113665000D01*
X158459773Y-113665000D01*
X158559144Y-113293684D01*
X158792220Y-112583087D01*
X159099048Y-111909829D01*
X159475271Y-111278574D01*
X159916533Y-110693987D01*
X160418479Y-110160731D01*
X160976752Y-109683470D01*
X161586996Y-109266868D01*
X162244855Y-108915590D01*
X162894288Y-108652062D01*
X163225312Y-108541996D01*
X163519309Y-108457814D01*
X163796944Y-108396353D01*
X164078880Y-108354447D01*
X164385780Y-108328931D01*
X164738308Y-108316641D01*
X165100000Y-108314248D01*
X165424021Y-108316060D01*
G36*
X169216126Y-114638667D02*
G01*
X171884837Y-114638667D01*
X171861839Y-115263083D01*
X171835037Y-115723479D01*
X171787786Y-116131280D01*
X171714912Y-116517170D01*
X171611244Y-116911831D01*
X171550841Y-117107738D01*
X171283079Y-117807902D01*
X170944104Y-118467158D01*
X170538930Y-119081089D01*
X170072571Y-119645278D01*
X169550042Y-120155309D01*
X168976357Y-120606765D01*
X168356530Y-120995231D01*
X167695576Y-121316290D01*
X166998508Y-121565525D01*
X166299071Y-121733292D01*
X166089747Y-121762546D01*
X165820916Y-121786418D01*
X165514539Y-121804272D01*
X165192577Y-121815477D01*
X164876988Y-121819399D01*
X164589734Y-121815404D01*
X164352773Y-121802859D01*
X164253333Y-121792290D01*
X163519889Y-121652269D01*
X162817643Y-121438921D01*
X162150746Y-121156880D01*
X161523349Y-120810779D01*
X160939605Y-120405251D01*
X160403665Y-119944930D01*
X159919681Y-119434447D01*
X159491804Y-118878438D01*
X159124187Y-118281534D01*
X158820981Y-117648370D01*
X158701652Y-117310287D01*
X160282805Y-117310287D01*
X160343803Y-117539740D01*
X160460873Y-117803929D01*
X160797502Y-118377841D01*
X161198245Y-118898631D01*
X161658238Y-119362271D01*
X162172613Y-119764733D01*
X162736505Y-120101986D01*
X163345048Y-120370004D01*
X163703000Y-120488197D01*
X164220039Y-120605687D01*
X164777949Y-120671728D01*
X165349098Y-120684628D01*
X165905853Y-120642697D01*
X166003444Y-120629039D01*
X166644844Y-120490400D01*
X167258263Y-120274407D01*
X167837517Y-119985515D01*
X168376422Y-119628184D01*
X168868793Y-119206870D01*
X169308447Y-118726031D01*
X169689198Y-118190126D01*
X169898531Y-117821429D01*
X170014075Y-117576143D01*
X170078359Y-117380559D01*
X170094340Y-117219348D01*
X170064977Y-117077181D01*
X170049393Y-117039488D01*
X169957677Y-116924116D01*
X169817589Y-116836257D01*
X169665245Y-116797934D01*
X169652783Y-116797667D01*
X169525904Y-116812384D01*
X169416138Y-116863707D01*
X169312214Y-116962395D01*
X169202859Y-117119203D01*
X169076803Y-117344890D01*
X169074204Y-117349855D01*
X168753663Y-117877107D01*
X168378111Y-118344381D01*
X167953770Y-118749096D01*
X167486861Y-119088671D01*
X166983607Y-119360525D01*
X166450230Y-119562075D01*
X165892952Y-119690743D01*
X165317995Y-119743945D01*
X164731580Y-119719102D01*
X164139930Y-119613632D01*
X163830000Y-119525335D01*
X163265027Y-119300558D01*
X162749112Y-119006986D01*
X162283457Y-118645668D01*
X161869261Y-118217653D01*
X161507727Y-117723990D01*
X161253475Y-117275055D01*
X161110349Y-117034004D01*
X160963255Y-116875834D01*
X160808828Y-116798765D01*
X160643704Y-116801014D01*
X160485222Y-116868163D01*
X160353369Y-116980063D01*
X160285945Y-117125583D01*
X160282805Y-117310287D01*
X158701652Y-117310287D01*
X158586337Y-116983578D01*
X158469396Y-116483988D01*
X162560158Y-116483988D01*
X162591643Y-116652991D01*
X162679262Y-116858166D01*
X162812231Y-117083815D01*
X162979770Y-117314240D01*
X163171094Y-117533743D01*
X163375421Y-117726624D01*
X163459936Y-117793979D01*
X163697760Y-117962158D01*
X163913278Y-118086719D01*
X164142019Y-118185880D01*
X164380333Y-118265943D01*
X164649260Y-118324111D01*
X164967290Y-118354493D01*
X165306051Y-118357488D01*
X165637169Y-118333490D01*
X165932270Y-118282899D01*
X166073667Y-118242252D01*
X166448957Y-118078965D01*
X166810092Y-117860730D01*
X167125095Y-117607374D01*
X167174333Y-117559667D01*
X167353653Y-117359140D01*
X167517138Y-117137136D01*
X167653068Y-116913033D01*
X167749721Y-116706210D01*
X167795375Y-116536045D01*
X167795775Y-116532303D01*
X167780598Y-116330593D01*
X167694969Y-116169203D01*
X167545337Y-116058235D01*
X167476826Y-116032510D01*
X167287890Y-116011022D01*
X167120981Y-116068126D01*
X166973111Y-116205562D01*
X166856833Y-116393404D01*
X166647868Y-116718961D01*
X166382947Y-116989310D01*
X166073318Y-117199629D01*
X165730227Y-117345094D01*
X165364921Y-117420884D01*
X164988646Y-117422175D01*
X164628209Y-117349057D01*
X164294782Y-117211686D01*
X164005822Y-117017062D01*
X163751637Y-116756831D01*
X163522539Y-116422638D01*
X163491690Y-116369074D01*
X163397999Y-116215992D01*
X163317823Y-116121608D01*
X163232478Y-116066312D01*
X163186336Y-116048601D01*
X162991724Y-116022313D01*
X162816118Y-116067561D01*
X162675335Y-116173348D01*
X162585193Y-116328676D01*
X162560158Y-116483988D01*
X158469396Y-116483988D01*
X158424407Y-116291792D01*
X158339344Y-115577644D01*
X158326828Y-115178417D01*
X158326667Y-114638667D01*
X161096530Y-114638667D01*
X163866394Y-114638666D01*
X163960301Y-114826699D01*
X164134014Y-115081923D01*
X164379080Y-115300673D01*
X164592000Y-115429561D01*
X164718688Y-115489020D01*
X164832712Y-115524857D01*
X164963586Y-115542807D01*
X165140827Y-115548606D01*
X165205833Y-115548833D01*
X165402151Y-115545521D01*
X165543433Y-115531759D01*
X165659179Y-115501804D01*
X165778889Y-115449918D01*
X165819667Y-115429381D01*
X166054284Y-115289252D01*
X166232397Y-115130573D01*
X166381813Y-114927050D01*
X166420890Y-114860917D01*
X166547415Y-114638666D01*
X169216126Y-114638667D01*
G37*
X169216126Y-114638667D02*
X171884837Y-114638667D01*
X171861839Y-115263083D01*
X171835037Y-115723479D01*
X171787786Y-116131280D01*
X171714912Y-116517170D01*
X171611244Y-116911831D01*
X171550841Y-117107738D01*
X171283079Y-117807902D01*
X170944104Y-118467158D01*
X170538930Y-119081089D01*
X170072571Y-119645278D01*
X169550042Y-120155309D01*
X168976357Y-120606765D01*
X168356530Y-120995231D01*
X167695576Y-121316290D01*
X166998508Y-121565525D01*
X166299071Y-121733292D01*
X166089747Y-121762546D01*
X165820916Y-121786418D01*
X165514539Y-121804272D01*
X165192577Y-121815477D01*
X164876988Y-121819399D01*
X164589734Y-121815404D01*
X164352773Y-121802859D01*
X164253333Y-121792290D01*
X163519889Y-121652269D01*
X162817643Y-121438921D01*
X162150746Y-121156880D01*
X161523349Y-120810779D01*
X160939605Y-120405251D01*
X160403665Y-119944930D01*
X159919681Y-119434447D01*
X159491804Y-118878438D01*
X159124187Y-118281534D01*
X158820981Y-117648370D01*
X158701652Y-117310287D01*
X160282805Y-117310287D01*
X160343803Y-117539740D01*
X160460873Y-117803929D01*
X160797502Y-118377841D01*
X161198245Y-118898631D01*
X161658238Y-119362271D01*
X162172613Y-119764733D01*
X162736505Y-120101986D01*
X163345048Y-120370004D01*
X163703000Y-120488197D01*
X164220039Y-120605687D01*
X164777949Y-120671728D01*
X165349098Y-120684628D01*
X165905853Y-120642697D01*
X166003444Y-120629039D01*
X166644844Y-120490400D01*
X167258263Y-120274407D01*
X167837517Y-119985515D01*
X168376422Y-119628184D01*
X168868793Y-119206870D01*
X169308447Y-118726031D01*
X169689198Y-118190126D01*
X169898531Y-117821429D01*
X170014075Y-117576143D01*
X170078359Y-117380559D01*
X170094340Y-117219348D01*
X170064977Y-117077181D01*
X170049393Y-117039488D01*
X169957677Y-116924116D01*
X169817589Y-116836257D01*
X169665245Y-116797934D01*
X169652783Y-116797667D01*
X169525904Y-116812384D01*
X169416138Y-116863707D01*
X169312214Y-116962395D01*
X169202859Y-117119203D01*
X169076803Y-117344890D01*
X169074204Y-117349855D01*
X168753663Y-117877107D01*
X168378111Y-118344381D01*
X167953770Y-118749096D01*
X167486861Y-119088671D01*
X166983607Y-119360525D01*
X166450230Y-119562075D01*
X165892952Y-119690743D01*
X165317995Y-119743945D01*
X164731580Y-119719102D01*
X164139930Y-119613632D01*
X163830000Y-119525335D01*
X163265027Y-119300558D01*
X162749112Y-119006986D01*
X162283457Y-118645668D01*
X161869261Y-118217653D01*
X161507727Y-117723990D01*
X161253475Y-117275055D01*
X161110349Y-117034004D01*
X160963255Y-116875834D01*
X160808828Y-116798765D01*
X160643704Y-116801014D01*
X160485222Y-116868163D01*
X160353369Y-116980063D01*
X160285945Y-117125583D01*
X160282805Y-117310287D01*
X158701652Y-117310287D01*
X158586337Y-116983578D01*
X158469396Y-116483988D01*
X162560158Y-116483988D01*
X162591643Y-116652991D01*
X162679262Y-116858166D01*
X162812231Y-117083815D01*
X162979770Y-117314240D01*
X163171094Y-117533743D01*
X163375421Y-117726624D01*
X163459936Y-117793979D01*
X163697760Y-117962158D01*
X163913278Y-118086719D01*
X164142019Y-118185880D01*
X164380333Y-118265943D01*
X164649260Y-118324111D01*
X164967290Y-118354493D01*
X165306051Y-118357488D01*
X165637169Y-118333490D01*
X165932270Y-118282899D01*
X166073667Y-118242252D01*
X166448957Y-118078965D01*
X166810092Y-117860730D01*
X167125095Y-117607374D01*
X167174333Y-117559667D01*
X167353653Y-117359140D01*
X167517138Y-117137136D01*
X167653068Y-116913033D01*
X167749721Y-116706210D01*
X167795375Y-116536045D01*
X167795775Y-116532303D01*
X167780598Y-116330593D01*
X167694969Y-116169203D01*
X167545337Y-116058235D01*
X167476826Y-116032510D01*
X167287890Y-116011022D01*
X167120981Y-116068126D01*
X166973111Y-116205562D01*
X166856833Y-116393404D01*
X166647868Y-116718961D01*
X166382947Y-116989310D01*
X166073318Y-117199629D01*
X165730227Y-117345094D01*
X165364921Y-117420884D01*
X164988646Y-117422175D01*
X164628209Y-117349057D01*
X164294782Y-117211686D01*
X164005822Y-117017062D01*
X163751637Y-116756831D01*
X163522539Y-116422638D01*
X163491690Y-116369074D01*
X163397999Y-116215992D01*
X163317823Y-116121608D01*
X163232478Y-116066312D01*
X163186336Y-116048601D01*
X162991724Y-116022313D01*
X162816118Y-116067561D01*
X162675335Y-116173348D01*
X162585193Y-116328676D01*
X162560158Y-116483988D01*
X158469396Y-116483988D01*
X158424407Y-116291792D01*
X158339344Y-115577644D01*
X158326828Y-115178417D01*
X158326667Y-114638667D01*
X161096530Y-114638667D01*
X163866394Y-114638666D01*
X163960301Y-114826699D01*
X164134014Y-115081923D01*
X164379080Y-115300673D01*
X164592000Y-115429561D01*
X164718688Y-115489020D01*
X164832712Y-115524857D01*
X164963586Y-115542807D01*
X165140827Y-115548606D01*
X165205833Y-115548833D01*
X165402151Y-115545521D01*
X165543433Y-115531759D01*
X165659179Y-115501804D01*
X165778889Y-115449918D01*
X165819667Y-115429381D01*
X166054284Y-115289252D01*
X166232397Y-115130573D01*
X166381813Y-114927050D01*
X166420890Y-114860917D01*
X166547415Y-114638666D01*
X169216126Y-114638667D01*
D15*
%TO.C,J1*%
X120710000Y-91500000D02*
X119380000Y-91500000D01*
X120710000Y-90170000D02*
X120710000Y-91500000D01*
X120710000Y-88900000D02*
X118050000Y-88900000D01*
X118050000Y-88900000D02*
X118050000Y-86300000D01*
X120710000Y-88900000D02*
X120710000Y-86300000D01*
X120710000Y-86300000D02*
X118050000Y-86300000D01*
%TO.C,U2*%
X112268000Y-119634000D02*
G75*
G03*
X112268000Y-119634000I-254000J0D01*
G01*
X103422000Y-120120000D02*
X103422000Y-98320000D01*
X112522000Y-120120000D02*
X103422000Y-120120000D01*
X112522000Y-98320000D02*
X103422000Y-98320000D01*
X112522000Y-120120000D02*
X112522000Y-98320000D01*
%TO.C,C1*%
X152562779Y-79250000D02*
X152237221Y-79250000D01*
X152562779Y-78230000D02*
X152237221Y-78230000D01*
%TO.C,C2*%
X152562779Y-80770000D02*
X152237221Y-80770000D01*
X152562779Y-81790000D02*
X152237221Y-81790000D01*
%TO.C,C3*%
X152237221Y-96010000D02*
X152562779Y-96010000D01*
X152237221Y-97030000D02*
X152562779Y-97030000D01*
%TO.C,C4*%
X152237221Y-99570000D02*
X152562779Y-99570000D01*
X152237221Y-98550000D02*
X152562779Y-98550000D01*
D14*
%TO.C,CON1*%
X115531000Y-71080000D02*
X115531000Y-73030000D01*
X115531000Y-63880000D02*
X115531000Y-66080000D01*
X101571000Y-62980000D02*
X101565000Y-73030000D01*
X115531000Y-73030000D02*
X112081000Y-73030000D01*
X115531000Y-63030000D02*
X115531000Y-63880000D01*
X112081000Y-62980000D02*
X115531000Y-62980000D01*
X101571000Y-73030000D02*
X104681000Y-73030000D01*
X101571000Y-62980000D02*
X104681000Y-62980000D01*
D15*
%TO.C,D1*%
X123986000Y-60889000D02*
X121301000Y-60889000D01*
X123986000Y-62809000D02*
X123986000Y-60889000D01*
X121301000Y-62809000D02*
X123986000Y-62809000D01*
%TO.C,J2*%
X146110000Y-100270000D02*
X140910000Y-100270000D01*
X146110000Y-102870000D02*
X146110000Y-100270000D01*
X140910000Y-105470000D02*
X140910000Y-100270000D01*
X146110000Y-102870000D02*
X143510000Y-102870000D01*
X143510000Y-102870000D02*
X143510000Y-105470000D01*
X143510000Y-105470000D02*
X140910000Y-105470000D01*
X146110000Y-104140000D02*
X146110000Y-105470000D01*
X146110000Y-105470000D02*
X144780000Y-105470000D01*
%TO.C,J3*%
X140910000Y-72330000D02*
X142240000Y-72330000D01*
X140910000Y-73660000D02*
X140910000Y-72330000D01*
X143510000Y-72330000D02*
X146110000Y-72330000D01*
X143510000Y-74930000D02*
X143510000Y-72330000D01*
X140910000Y-74930000D02*
X143510000Y-74930000D01*
X146110000Y-72330000D02*
X146110000Y-77530000D01*
X140910000Y-74930000D02*
X140910000Y-77530000D01*
X140910000Y-77530000D02*
X146110000Y-77530000D01*
%TO.C,J4*%
X160214000Y-86300000D02*
X161544000Y-86300000D01*
X160214000Y-87630000D02*
X160214000Y-86300000D01*
X160214000Y-88900000D02*
X162874000Y-88900000D01*
X162874000Y-88900000D02*
X162874000Y-91500000D01*
X160214000Y-88900000D02*
X160214000Y-91500000D01*
X160214000Y-91500000D02*
X162874000Y-91500000D01*
%TO.C,R1*%
X122265221Y-64518000D02*
X122590779Y-64518000D01*
X122265221Y-63498000D02*
X122590779Y-63498000D01*
%TO.C,R2*%
X146560000Y-68417221D02*
X146560000Y-68742779D01*
X145540000Y-68417221D02*
X145540000Y-68742779D01*
%TO.C,R3*%
X146560000Y-110652779D02*
X146560000Y-110327221D01*
X145540000Y-110652779D02*
X145540000Y-110327221D01*
%TO.C,R4*%
X141480000Y-68417221D02*
X141480000Y-68742779D01*
X140460000Y-68417221D02*
X140460000Y-68742779D01*
%TO.C,R5*%
X141480000Y-110652779D02*
X141480000Y-110327221D01*
X140460000Y-110652779D02*
X140460000Y-110327221D01*
%TO.C,R6*%
X128432779Y-93470000D02*
X128107221Y-93470000D01*
X128432779Y-94490000D02*
X128107221Y-94490000D01*
%TO.C,R7*%
X128432779Y-90930000D02*
X128107221Y-90930000D01*
X128432779Y-91950000D02*
X128107221Y-91950000D01*
%TO.C,R8*%
X128432779Y-88390000D02*
X128107221Y-88390000D01*
X128432779Y-89410000D02*
X128107221Y-89410000D01*
%TO.C,R9*%
X128432779Y-86870000D02*
X128107221Y-86870000D01*
X128432779Y-85850000D02*
X128107221Y-85850000D01*
%TO.C,R10*%
X128432779Y-83310000D02*
X128107221Y-83310000D01*
X128432779Y-84330000D02*
X128107221Y-84330000D01*
D18*
%TO.C,SW1*%
X134250000Y-84800000D02*
G75*
G03*
X134250000Y-84800000I-100000J0D01*
G01*
D19*
X134700000Y-93900000D02*
X134700000Y-83900000D01*
X144700000Y-93900000D02*
X134700000Y-93900000D01*
X144700000Y-83900000D02*
X144700000Y-93900000D01*
X134700000Y-83900000D02*
X144700000Y-83900000D01*
D15*
%TO.C,U1*%
X154960000Y-88900000D02*
X154960000Y-86950000D01*
X154960000Y-88900000D02*
X154960000Y-90850000D01*
X149840000Y-88900000D02*
X149840000Y-86950000D01*
X149840000Y-88900000D02*
X149840000Y-92350000D01*
%TO.C,J5*%
X120202000Y-116900000D02*
X118872000Y-116900000D01*
X120202000Y-115570000D02*
X120202000Y-116900000D01*
X120202000Y-114300000D02*
X117542000Y-114300000D01*
X117542000Y-114300000D02*
X117542000Y-106620000D01*
X120202000Y-114300000D02*
X120202000Y-106620000D01*
X120202000Y-106620000D02*
X117542000Y-106620000D01*
%TO.C,U2*%
D14*
X107188095Y-96988380D02*
X107188095Y-97797904D01*
X107235714Y-97893142D01*
X107283333Y-97940761D01*
X107378571Y-97988380D01*
X107569047Y-97988380D01*
X107664285Y-97940761D01*
X107711904Y-97893142D01*
X107759523Y-97797904D01*
X107759523Y-96988380D01*
X108188095Y-97083619D02*
X108235714Y-97036000D01*
X108330952Y-96988380D01*
X108569047Y-96988380D01*
X108664285Y-97036000D01*
X108711904Y-97083619D01*
X108759523Y-97178857D01*
X108759523Y-97274095D01*
X108711904Y-97416952D01*
X108140476Y-97988380D01*
X108759523Y-97988380D01*
%TO.C,C1*%
X154773333Y-79097142D02*
X154725714Y-79144761D01*
X154582857Y-79192380D01*
X154487619Y-79192380D01*
X154344761Y-79144761D01*
X154249523Y-79049523D01*
X154201904Y-78954285D01*
X154154285Y-78763809D01*
X154154285Y-78620952D01*
X154201904Y-78430476D01*
X154249523Y-78335238D01*
X154344761Y-78240000D01*
X154487619Y-78192380D01*
X154582857Y-78192380D01*
X154725714Y-78240000D01*
X154773333Y-78287619D01*
X155725714Y-79192380D02*
X155154285Y-79192380D01*
X155440000Y-79192380D02*
X155440000Y-78192380D01*
X155344761Y-78335238D01*
X155249523Y-78430476D01*
X155154285Y-78478095D01*
%TO.C,C2*%
X154773333Y-81637142D02*
X154725714Y-81684761D01*
X154582857Y-81732380D01*
X154487619Y-81732380D01*
X154344761Y-81684761D01*
X154249523Y-81589523D01*
X154201904Y-81494285D01*
X154154285Y-81303809D01*
X154154285Y-81160952D01*
X154201904Y-80970476D01*
X154249523Y-80875238D01*
X154344761Y-80780000D01*
X154487619Y-80732380D01*
X154582857Y-80732380D01*
X154725714Y-80780000D01*
X154773333Y-80827619D01*
X155154285Y-80827619D02*
X155201904Y-80780000D01*
X155297142Y-80732380D01*
X155535238Y-80732380D01*
X155630476Y-80780000D01*
X155678095Y-80827619D01*
X155725714Y-80922857D01*
X155725714Y-81018095D01*
X155678095Y-81160952D01*
X155106666Y-81732380D01*
X155725714Y-81732380D01*
%TO.C,C3*%
X154773333Y-96877142D02*
X154725714Y-96924761D01*
X154582857Y-96972380D01*
X154487619Y-96972380D01*
X154344761Y-96924761D01*
X154249523Y-96829523D01*
X154201904Y-96734285D01*
X154154285Y-96543809D01*
X154154285Y-96400952D01*
X154201904Y-96210476D01*
X154249523Y-96115238D01*
X154344761Y-96020000D01*
X154487619Y-95972380D01*
X154582857Y-95972380D01*
X154725714Y-96020000D01*
X154773333Y-96067619D01*
X155106666Y-95972380D02*
X155725714Y-95972380D01*
X155392380Y-96353333D01*
X155535238Y-96353333D01*
X155630476Y-96400952D01*
X155678095Y-96448571D01*
X155725714Y-96543809D01*
X155725714Y-96781904D01*
X155678095Y-96877142D01*
X155630476Y-96924761D01*
X155535238Y-96972380D01*
X155249523Y-96972380D01*
X155154285Y-96924761D01*
X155106666Y-96877142D01*
%TO.C,C4*%
X154773333Y-99417142D02*
X154725714Y-99464761D01*
X154582857Y-99512380D01*
X154487619Y-99512380D01*
X154344761Y-99464761D01*
X154249523Y-99369523D01*
X154201904Y-99274285D01*
X154154285Y-99083809D01*
X154154285Y-98940952D01*
X154201904Y-98750476D01*
X154249523Y-98655238D01*
X154344761Y-98560000D01*
X154487619Y-98512380D01*
X154582857Y-98512380D01*
X154725714Y-98560000D01*
X154773333Y-98607619D01*
X155630476Y-98845714D02*
X155630476Y-99512380D01*
X155392380Y-98464761D02*
X155154285Y-99179047D01*
X155773333Y-99179047D01*
%TO.C,CON1*%
X107116714Y-68937142D02*
X107069095Y-68984761D01*
X106926238Y-69032380D01*
X106831000Y-69032380D01*
X106688142Y-68984761D01*
X106592904Y-68889523D01*
X106545285Y-68794285D01*
X106497666Y-68603809D01*
X106497666Y-68460952D01*
X106545285Y-68270476D01*
X106592904Y-68175238D01*
X106688142Y-68080000D01*
X106831000Y-68032380D01*
X106926238Y-68032380D01*
X107069095Y-68080000D01*
X107116714Y-68127619D01*
X107735761Y-68032380D02*
X107926238Y-68032380D01*
X108021476Y-68080000D01*
X108116714Y-68175238D01*
X108164333Y-68365714D01*
X108164333Y-68699047D01*
X108116714Y-68889523D01*
X108021476Y-68984761D01*
X107926238Y-69032380D01*
X107735761Y-69032380D01*
X107640523Y-68984761D01*
X107545285Y-68889523D01*
X107497666Y-68699047D01*
X107497666Y-68365714D01*
X107545285Y-68175238D01*
X107640523Y-68080000D01*
X107735761Y-68032380D01*
X108592904Y-69032380D02*
X108592904Y-68032380D01*
X109164333Y-69032380D01*
X109164333Y-68032380D01*
X110164333Y-69032380D02*
X109592904Y-69032380D01*
X109878619Y-69032380D02*
X109878619Y-68032380D01*
X109783380Y-68175238D01*
X109688142Y-68270476D01*
X109592904Y-68318095D01*
%TO.C,D1*%
X124356904Y-62301380D02*
X124356904Y-61301380D01*
X124595000Y-61301380D01*
X124737857Y-61349000D01*
X124833095Y-61444238D01*
X124880714Y-61539476D01*
X124928333Y-61729952D01*
X124928333Y-61872809D01*
X124880714Y-62063285D01*
X124833095Y-62158523D01*
X124737857Y-62253761D01*
X124595000Y-62301380D01*
X124356904Y-62301380D01*
X125880714Y-62301380D02*
X125309285Y-62301380D01*
X125595000Y-62301380D02*
X125595000Y-61301380D01*
X125499761Y-61444238D01*
X125404523Y-61539476D01*
X125309285Y-61587095D01*
%TO.C,J2*%
X143176666Y-105922380D02*
X143176666Y-106636666D01*
X143129047Y-106779523D01*
X143033809Y-106874761D01*
X142890952Y-106922380D01*
X142795714Y-106922380D01*
X143605238Y-106017619D02*
X143652857Y-105970000D01*
X143748095Y-105922380D01*
X143986190Y-105922380D01*
X144081428Y-105970000D01*
X144129047Y-106017619D01*
X144176666Y-106112857D01*
X144176666Y-106208095D01*
X144129047Y-106350952D01*
X143557619Y-106922380D01*
X144176666Y-106922380D01*
%TO.C,R1*%
X124928333Y-64460380D02*
X124595000Y-63984190D01*
X124356904Y-64460380D02*
X124356904Y-63460380D01*
X124737857Y-63460380D01*
X124833095Y-63508000D01*
X124880714Y-63555619D01*
X124928333Y-63650857D01*
X124928333Y-63793714D01*
X124880714Y-63888952D01*
X124833095Y-63936571D01*
X124737857Y-63984190D01*
X124356904Y-63984190D01*
X125880714Y-64460380D02*
X125309285Y-64460380D01*
X125595000Y-64460380D02*
X125595000Y-63460380D01*
X125499761Y-63603238D01*
X125404523Y-63698476D01*
X125309285Y-63746095D01*
%TO.C,R2*%
X145883333Y-66492380D02*
X145550000Y-66016190D01*
X145311904Y-66492380D02*
X145311904Y-65492380D01*
X145692857Y-65492380D01*
X145788095Y-65540000D01*
X145835714Y-65587619D01*
X145883333Y-65682857D01*
X145883333Y-65825714D01*
X145835714Y-65920952D01*
X145788095Y-65968571D01*
X145692857Y-66016190D01*
X145311904Y-66016190D01*
X146264285Y-65587619D02*
X146311904Y-65540000D01*
X146407142Y-65492380D01*
X146645238Y-65492380D01*
X146740476Y-65540000D01*
X146788095Y-65587619D01*
X146835714Y-65682857D01*
X146835714Y-65778095D01*
X146788095Y-65920952D01*
X146216666Y-66492380D01*
X146835714Y-66492380D01*
%TO.C,R3*%
X145883333Y-113482380D02*
X145550000Y-113006190D01*
X145311904Y-113482380D02*
X145311904Y-112482380D01*
X145692857Y-112482380D01*
X145788095Y-112530000D01*
X145835714Y-112577619D01*
X145883333Y-112672857D01*
X145883333Y-112815714D01*
X145835714Y-112910952D01*
X145788095Y-112958571D01*
X145692857Y-113006190D01*
X145311904Y-113006190D01*
X146216666Y-112482380D02*
X146835714Y-112482380D01*
X146502380Y-112863333D01*
X146645238Y-112863333D01*
X146740476Y-112910952D01*
X146788095Y-112958571D01*
X146835714Y-113053809D01*
X146835714Y-113291904D01*
X146788095Y-113387142D01*
X146740476Y-113434761D01*
X146645238Y-113482380D01*
X146359523Y-113482380D01*
X146264285Y-113434761D01*
X146216666Y-113387142D01*
%TO.C,R4*%
X140803333Y-66492380D02*
X140470000Y-66016190D01*
X140231904Y-66492380D02*
X140231904Y-65492380D01*
X140612857Y-65492380D01*
X140708095Y-65540000D01*
X140755714Y-65587619D01*
X140803333Y-65682857D01*
X140803333Y-65825714D01*
X140755714Y-65920952D01*
X140708095Y-65968571D01*
X140612857Y-66016190D01*
X140231904Y-66016190D01*
X141660476Y-65825714D02*
X141660476Y-66492380D01*
X141422380Y-65444761D02*
X141184285Y-66159047D01*
X141803333Y-66159047D01*
%TO.C,R5*%
X140803333Y-113482380D02*
X140470000Y-113006190D01*
X140231904Y-113482380D02*
X140231904Y-112482380D01*
X140612857Y-112482380D01*
X140708095Y-112530000D01*
X140755714Y-112577619D01*
X140803333Y-112672857D01*
X140803333Y-112815714D01*
X140755714Y-112910952D01*
X140708095Y-112958571D01*
X140612857Y-113006190D01*
X140231904Y-113006190D01*
X141708095Y-112482380D02*
X141231904Y-112482380D01*
X141184285Y-112958571D01*
X141231904Y-112910952D01*
X141327142Y-112863333D01*
X141565238Y-112863333D01*
X141660476Y-112910952D01*
X141708095Y-112958571D01*
X141755714Y-113053809D01*
X141755714Y-113291904D01*
X141708095Y-113387142D01*
X141660476Y-113434761D01*
X141565238Y-113482380D01*
X141327142Y-113482380D01*
X141231904Y-113434761D01*
X141184285Y-113387142D01*
%TO.C,R6*%
X125563333Y-94432380D02*
X125230000Y-93956190D01*
X124991904Y-94432380D02*
X124991904Y-93432380D01*
X125372857Y-93432380D01*
X125468095Y-93480000D01*
X125515714Y-93527619D01*
X125563333Y-93622857D01*
X125563333Y-93765714D01*
X125515714Y-93860952D01*
X125468095Y-93908571D01*
X125372857Y-93956190D01*
X124991904Y-93956190D01*
X126420476Y-93432380D02*
X126230000Y-93432380D01*
X126134761Y-93480000D01*
X126087142Y-93527619D01*
X125991904Y-93670476D01*
X125944285Y-93860952D01*
X125944285Y-94241904D01*
X125991904Y-94337142D01*
X126039523Y-94384761D01*
X126134761Y-94432380D01*
X126325238Y-94432380D01*
X126420476Y-94384761D01*
X126468095Y-94337142D01*
X126515714Y-94241904D01*
X126515714Y-94003809D01*
X126468095Y-93908571D01*
X126420476Y-93860952D01*
X126325238Y-93813333D01*
X126134761Y-93813333D01*
X126039523Y-93860952D01*
X125991904Y-93908571D01*
X125944285Y-94003809D01*
%TO.C,R7*%
X125563333Y-92019380D02*
X125230000Y-91543190D01*
X124991904Y-92019380D02*
X124991904Y-91019380D01*
X125372857Y-91019380D01*
X125468095Y-91067000D01*
X125515714Y-91114619D01*
X125563333Y-91209857D01*
X125563333Y-91352714D01*
X125515714Y-91447952D01*
X125468095Y-91495571D01*
X125372857Y-91543190D01*
X124991904Y-91543190D01*
X125896666Y-91019380D02*
X126563333Y-91019380D01*
X126134761Y-92019380D01*
%TO.C,R8*%
X125563333Y-89352380D02*
X125230000Y-88876190D01*
X124991904Y-89352380D02*
X124991904Y-88352380D01*
X125372857Y-88352380D01*
X125468095Y-88400000D01*
X125515714Y-88447619D01*
X125563333Y-88542857D01*
X125563333Y-88685714D01*
X125515714Y-88780952D01*
X125468095Y-88828571D01*
X125372857Y-88876190D01*
X124991904Y-88876190D01*
X126134761Y-88780952D02*
X126039523Y-88733333D01*
X125991904Y-88685714D01*
X125944285Y-88590476D01*
X125944285Y-88542857D01*
X125991904Y-88447619D01*
X126039523Y-88400000D01*
X126134761Y-88352380D01*
X126325238Y-88352380D01*
X126420476Y-88400000D01*
X126468095Y-88447619D01*
X126515714Y-88542857D01*
X126515714Y-88590476D01*
X126468095Y-88685714D01*
X126420476Y-88733333D01*
X126325238Y-88780952D01*
X126134761Y-88780952D01*
X126039523Y-88828571D01*
X125991904Y-88876190D01*
X125944285Y-88971428D01*
X125944285Y-89161904D01*
X125991904Y-89257142D01*
X126039523Y-89304761D01*
X126134761Y-89352380D01*
X126325238Y-89352380D01*
X126420476Y-89304761D01*
X126468095Y-89257142D01*
X126515714Y-89161904D01*
X126515714Y-88971428D01*
X126468095Y-88876190D01*
X126420476Y-88828571D01*
X126325238Y-88780952D01*
%TO.C,R9*%
X125563333Y-86812380D02*
X125230000Y-86336190D01*
X124991904Y-86812380D02*
X124991904Y-85812380D01*
X125372857Y-85812380D01*
X125468095Y-85860000D01*
X125515714Y-85907619D01*
X125563333Y-86002857D01*
X125563333Y-86145714D01*
X125515714Y-86240952D01*
X125468095Y-86288571D01*
X125372857Y-86336190D01*
X124991904Y-86336190D01*
X126039523Y-86812380D02*
X126230000Y-86812380D01*
X126325238Y-86764761D01*
X126372857Y-86717142D01*
X126468095Y-86574285D01*
X126515714Y-86383809D01*
X126515714Y-86002857D01*
X126468095Y-85907619D01*
X126420476Y-85860000D01*
X126325238Y-85812380D01*
X126134761Y-85812380D01*
X126039523Y-85860000D01*
X125991904Y-85907619D01*
X125944285Y-86002857D01*
X125944285Y-86240952D01*
X125991904Y-86336190D01*
X126039523Y-86383809D01*
X126134761Y-86431428D01*
X126325238Y-86431428D01*
X126420476Y-86383809D01*
X126468095Y-86336190D01*
X126515714Y-86240952D01*
%TO.C,R10*%
X124579142Y-84272380D02*
X124245809Y-83796190D01*
X124007714Y-84272380D02*
X124007714Y-83272380D01*
X124388666Y-83272380D01*
X124483904Y-83320000D01*
X124531523Y-83367619D01*
X124579142Y-83462857D01*
X124579142Y-83605714D01*
X124531523Y-83700952D01*
X124483904Y-83748571D01*
X124388666Y-83796190D01*
X124007714Y-83796190D01*
X125531523Y-84272380D02*
X124960095Y-84272380D01*
X125245809Y-84272380D02*
X125245809Y-83272380D01*
X125150571Y-83415238D01*
X125055333Y-83510476D01*
X124960095Y-83558095D01*
X126150571Y-83272380D02*
X126245809Y-83272380D01*
X126341047Y-83320000D01*
X126388666Y-83367619D01*
X126436285Y-83462857D01*
X126483904Y-83653333D01*
X126483904Y-83891428D01*
X126436285Y-84081904D01*
X126388666Y-84177142D01*
X126341047Y-84224761D01*
X126245809Y-84272380D01*
X126150571Y-84272380D01*
X126055333Y-84224761D01*
X126007714Y-84177142D01*
X125960095Y-84081904D01*
X125912476Y-83891428D01*
X125912476Y-83653333D01*
X125960095Y-83462857D01*
X126007714Y-83367619D01*
X126055333Y-83320000D01*
X126150571Y-83272380D01*
%TO.C,SW1*%
D19*
X138366666Y-95781761D02*
X138509523Y-95829380D01*
X138747619Y-95829380D01*
X138842857Y-95781761D01*
X138890476Y-95734142D01*
X138938095Y-95638904D01*
X138938095Y-95543666D01*
X138890476Y-95448428D01*
X138842857Y-95400809D01*
X138747619Y-95353190D01*
X138557142Y-95305571D01*
X138461904Y-95257952D01*
X138414285Y-95210333D01*
X138366666Y-95115095D01*
X138366666Y-95019857D01*
X138414285Y-94924619D01*
X138461904Y-94877000D01*
X138557142Y-94829380D01*
X138795238Y-94829380D01*
X138938095Y-94877000D01*
X139271428Y-94829380D02*
X139509523Y-95829380D01*
X139700000Y-95115095D01*
X139890476Y-95829380D01*
X140128571Y-94829380D01*
X141033333Y-95829380D02*
X140461904Y-95829380D01*
X140747619Y-95829380D02*
X140747619Y-94829380D01*
X140652380Y-94972238D01*
X140557142Y-95067476D01*
X140461904Y-95115095D01*
%TO.C,U1*%
D14*
X151638095Y-93178380D02*
X151638095Y-93987904D01*
X151685714Y-94083142D01*
X151733333Y-94130761D01*
X151828571Y-94178380D01*
X152019047Y-94178380D01*
X152114285Y-94130761D01*
X152161904Y-94083142D01*
X152209523Y-93987904D01*
X152209523Y-93178380D01*
X153209523Y-94178380D02*
X152638095Y-94178380D01*
X152923809Y-94178380D02*
X152923809Y-93178380D01*
X152828571Y-93321238D01*
X152733333Y-93416476D01*
X152638095Y-93464095D01*
%TD*%
D20*
X210058000Y-99441000D02*
X200660000Y-99441000D01*
X200660000Y-96393000D01*
X210058000Y-96393000D01*
X210058000Y-99441000D01*
D21*
G36*
X210058000Y-99441000D02*
G01*
X200660000Y-99441000D01*
X200660000Y-96393000D01*
X210058000Y-96393000D01*
X210058000Y-99441000D01*
G37*
D20*
X210058000Y-103251000D02*
X200660000Y-103251000D01*
X200660000Y-100203000D01*
X210058000Y-100203000D01*
X210058000Y-103251000D01*
D21*
G36*
X210058000Y-103251000D02*
G01*
X200660000Y-103251000D01*
X200660000Y-100203000D01*
X210058000Y-100203000D01*
X210058000Y-103251000D01*
G37*
D20*
X210058000Y-107061000D02*
X200660000Y-107061000D01*
X200660000Y-104013000D01*
X210058000Y-104013000D01*
X210058000Y-107061000D01*
D21*
G36*
X210058000Y-107061000D02*
G01*
X200660000Y-107061000D01*
X200660000Y-104013000D01*
X210058000Y-104013000D01*
X210058000Y-107061000D01*
G37*
D20*
X210058000Y-110871000D02*
X200660000Y-110871000D01*
X200660000Y-107823000D01*
X210058000Y-107823000D01*
X210058000Y-110871000D01*
D21*
G36*
X210058000Y-110871000D02*
G01*
X200660000Y-110871000D01*
X200660000Y-107823000D01*
X210058000Y-107823000D01*
X210058000Y-110871000D01*
G37*
D20*
X210058000Y-114681000D02*
X200660000Y-114681000D01*
X200660000Y-111633000D01*
X210058000Y-111633000D01*
X210058000Y-114681000D01*
D21*
G36*
X210058000Y-114681000D02*
G01*
X200660000Y-114681000D01*
X200660000Y-111633000D01*
X210058000Y-111633000D01*
X210058000Y-114681000D01*
G37*
M02*
