%TF.GenerationSoftware,KiCad,Pcbnew,(5.1.7)-1*%
%TF.CreationDate,2021-05-11T13:40:29-05:00*%
%TF.ProjectId,instrumentation_amplifier,696e7374-7275-46d6-956e-746174696f6e,1.1*%
%TF.SameCoordinates,Original*%
%TF.FileFunction,Copper,L1,Top*%
%TF.FilePolarity,Positive*%
%FSLAX46Y46*%
G04 Gerber Fmt 4.6, Leading zero omitted, Abs format (unit mm)*
G04 Created by KiCad (PCBNEW (5.1.7)-1) date 2021-05-11 13:40:29*
%MOMM*%
%LPD*%
G01*
G04 APERTURE LIST*
%TA.AperFunction,ComponentPad*%
%ADD10O,1.700000X1.700000*%
%TD*%
%TA.AperFunction,ComponentPad*%
%ADD11R,1.700000X1.700000*%
%TD*%
%TA.AperFunction,ComponentPad*%
%ADD12C,1.509000*%
%TD*%
%TA.AperFunction,SMDPad,CuDef*%
%ADD13R,4.060000X3.300000*%
%TD*%
%TA.AperFunction,SMDPad,CuDef*%
%ADD14R,5.760000X3.810000*%
%TD*%
%TA.AperFunction,SMDPad,CuDef*%
%ADD15R,6.350000X3.810000*%
%TD*%
%TA.AperFunction,ComponentPad*%
%ADD16C,1.308000*%
%TD*%
%TA.AperFunction,ComponentPad*%
%ADD17R,1.308000X1.308000*%
%TD*%
%TA.AperFunction,SMDPad,CuDef*%
%ADD18C,1.000000*%
%TD*%
%TA.AperFunction,ViaPad*%
%ADD19C,0.508000*%
%TD*%
%TA.AperFunction,Conductor*%
%ADD20C,0.304800*%
%TD*%
%TA.AperFunction,Conductor*%
%ADD21C,0.254000*%
%TD*%
%TA.AperFunction,Conductor*%
%ADD22C,0.100000*%
%TD*%
G04 APERTURE END LIST*
D10*
%TO.P,J1,2*%
%TO.N,Net-(J1-Pad2)*%
X119380000Y-87630000D03*
D11*
%TO.P,J1,1*%
%TO.N,Net-(J1-Pad1)*%
X119380000Y-90170000D03*
%TD*%
D12*
%TO.P,U2,1*%
%TO.N,Net-(CON1-Pad2)*%
X106730000Y-117830000D03*
%TO.P,U2,2*%
%TO.N,Net-(CON1-Pad1)*%
X106730000Y-115290000D03*
%TO.P,U2,3*%
%TO.N,N/C*%
X106730000Y-112750000D03*
%TO.P,U2,5*%
X106730000Y-107670000D03*
%TO.P,U2,6*%
%TO.N,+5V*%
X106730000Y-105130000D03*
%TO.P,U2,7*%
%TO.N,GND*%
X106730000Y-102590000D03*
%TO.P,U2,8*%
%TO.N,-5V*%
X106730000Y-100050000D03*
%TD*%
%TO.P,C1,1*%
%TO.N,GND*%
%TA.AperFunction,SMDPad,CuDef*%
G36*
G01*
X153625000Y-78483750D02*
X153625000Y-78996250D01*
G75*
G02*
X153406250Y-79215000I-218750J0D01*
G01*
X152968750Y-79215000D01*
G75*
G02*
X152750000Y-78996250I0J218750D01*
G01*
X152750000Y-78483750D01*
G75*
G02*
X152968750Y-78265000I218750J0D01*
G01*
X153406250Y-78265000D01*
G75*
G02*
X153625000Y-78483750I0J-218750D01*
G01*
G37*
%TD.AperFunction*%
%TO.P,C1,2*%
%TO.N,+5V*%
%TA.AperFunction,SMDPad,CuDef*%
G36*
G01*
X152050000Y-78483750D02*
X152050000Y-78996250D01*
G75*
G02*
X151831250Y-79215000I-218750J0D01*
G01*
X151393750Y-79215000D01*
G75*
G02*
X151175000Y-78996250I0J218750D01*
G01*
X151175000Y-78483750D01*
G75*
G02*
X151393750Y-78265000I218750J0D01*
G01*
X151831250Y-78265000D01*
G75*
G02*
X152050000Y-78483750I0J-218750D01*
G01*
G37*
%TD.AperFunction*%
%TD*%
%TO.P,C2,1*%
%TO.N,GND*%
%TA.AperFunction,SMDPad,CuDef*%
G36*
G01*
X153625000Y-81023750D02*
X153625000Y-81536250D01*
G75*
G02*
X153406250Y-81755000I-218750J0D01*
G01*
X152968750Y-81755000D01*
G75*
G02*
X152750000Y-81536250I0J218750D01*
G01*
X152750000Y-81023750D01*
G75*
G02*
X152968750Y-80805000I218750J0D01*
G01*
X153406250Y-80805000D01*
G75*
G02*
X153625000Y-81023750I0J-218750D01*
G01*
G37*
%TD.AperFunction*%
%TO.P,C2,2*%
%TO.N,+5V*%
%TA.AperFunction,SMDPad,CuDef*%
G36*
G01*
X152050000Y-81023750D02*
X152050000Y-81536250D01*
G75*
G02*
X151831250Y-81755000I-218750J0D01*
G01*
X151393750Y-81755000D01*
G75*
G02*
X151175000Y-81536250I0J218750D01*
G01*
X151175000Y-81023750D01*
G75*
G02*
X151393750Y-80805000I218750J0D01*
G01*
X151831250Y-80805000D01*
G75*
G02*
X152050000Y-81023750I0J-218750D01*
G01*
G37*
%TD.AperFunction*%
%TD*%
%TO.P,C3,2*%
%TO.N,-5V*%
%TA.AperFunction,SMDPad,CuDef*%
G36*
G01*
X152750000Y-96776250D02*
X152750000Y-96263750D01*
G75*
G02*
X152968750Y-96045000I218750J0D01*
G01*
X153406250Y-96045000D01*
G75*
G02*
X153625000Y-96263750I0J-218750D01*
G01*
X153625000Y-96776250D01*
G75*
G02*
X153406250Y-96995000I-218750J0D01*
G01*
X152968750Y-96995000D01*
G75*
G02*
X152750000Y-96776250I0J218750D01*
G01*
G37*
%TD.AperFunction*%
%TO.P,C3,1*%
%TO.N,GND*%
%TA.AperFunction,SMDPad,CuDef*%
G36*
G01*
X151175000Y-96776250D02*
X151175000Y-96263750D01*
G75*
G02*
X151393750Y-96045000I218750J0D01*
G01*
X151831250Y-96045000D01*
G75*
G02*
X152050000Y-96263750I0J-218750D01*
G01*
X152050000Y-96776250D01*
G75*
G02*
X151831250Y-96995000I-218750J0D01*
G01*
X151393750Y-96995000D01*
G75*
G02*
X151175000Y-96776250I0J218750D01*
G01*
G37*
%TD.AperFunction*%
%TD*%
%TO.P,C4,2*%
%TO.N,-5V*%
%TA.AperFunction,SMDPad,CuDef*%
G36*
G01*
X152750000Y-99316250D02*
X152750000Y-98803750D01*
G75*
G02*
X152968750Y-98585000I218750J0D01*
G01*
X153406250Y-98585000D01*
G75*
G02*
X153625000Y-98803750I0J-218750D01*
G01*
X153625000Y-99316250D01*
G75*
G02*
X153406250Y-99535000I-218750J0D01*
G01*
X152968750Y-99535000D01*
G75*
G02*
X152750000Y-99316250I0J218750D01*
G01*
G37*
%TD.AperFunction*%
%TO.P,C4,1*%
%TO.N,GND*%
%TA.AperFunction,SMDPad,CuDef*%
G36*
G01*
X151175000Y-99316250D02*
X151175000Y-98803750D01*
G75*
G02*
X151393750Y-98585000I218750J0D01*
G01*
X151831250Y-98585000D01*
G75*
G02*
X152050000Y-98803750I0J-218750D01*
G01*
X152050000Y-99316250D01*
G75*
G02*
X151831250Y-99535000I-218750J0D01*
G01*
X151393750Y-99535000D01*
G75*
G02*
X151175000Y-99316250I0J218750D01*
G01*
G37*
%TD.AperFunction*%
%TD*%
D13*
%TO.P,CON1,1*%
%TO.N,Net-(CON1-Pad1)*%
X117471000Y-68580000D03*
D14*
%TO.P,CON1,3*%
%TO.N,Net-(CON1-Pad2)*%
X108331000Y-61390000D03*
D15*
%TO.P,CON1,2*%
X108331000Y-74680000D03*
%TD*%
%TO.P,D1,1*%
%TO.N,GND*%
%TA.AperFunction,SMDPad,CuDef*%
G36*
G01*
X123726000Y-61392750D02*
X123726000Y-62305250D01*
G75*
G02*
X123482250Y-62549000I-243750J0D01*
G01*
X122994750Y-62549000D01*
G75*
G02*
X122751000Y-62305250I0J243750D01*
G01*
X122751000Y-61392750D01*
G75*
G02*
X122994750Y-61149000I243750J0D01*
G01*
X123482250Y-61149000D01*
G75*
G02*
X123726000Y-61392750I0J-243750D01*
G01*
G37*
%TD.AperFunction*%
%TO.P,D1,2*%
%TO.N,Net-(D1-Pad2)*%
%TA.AperFunction,SMDPad,CuDef*%
G36*
G01*
X121851000Y-61392750D02*
X121851000Y-62305250D01*
G75*
G02*
X121607250Y-62549000I-243750J0D01*
G01*
X121119750Y-62549000D01*
G75*
G02*
X120876000Y-62305250I0J243750D01*
G01*
X120876000Y-61392750D01*
G75*
G02*
X121119750Y-61149000I243750J0D01*
G01*
X121607250Y-61149000D01*
G75*
G02*
X121851000Y-61392750I0J-243750D01*
G01*
G37*
%TD.AperFunction*%
%TD*%
D10*
%TO.P,J2,4*%
%TO.N,Net-(J1-Pad1)*%
X142240000Y-101600000D03*
%TO.P,J2,3*%
X144780000Y-101600000D03*
%TO.P,J2,2*%
%TO.N,Net-(J2-Pad2)*%
X142240000Y-104140000D03*
D11*
%TO.P,J2,1*%
%TO.N,Net-(J2-Pad1)*%
X144780000Y-104140000D03*
%TD*%
%TO.P,J3,1*%
%TO.N,Net-(J3-Pad1)*%
X142240000Y-73660000D03*
D10*
%TO.P,J3,2*%
%TO.N,Net-(J3-Pad2)*%
X144780000Y-73660000D03*
%TO.P,J3,3*%
%TO.N,Net-(J1-Pad2)*%
X142240000Y-76200000D03*
%TO.P,J3,4*%
X144780000Y-76200000D03*
%TD*%
D11*
%TO.P,J4,1*%
%TO.N,Net-(J4-Pad1)*%
X161544000Y-87630000D03*
D10*
%TO.P,J4,2*%
%TO.N,GND*%
X161544000Y-90170000D03*
%TD*%
%TO.P,R1,1*%
%TO.N,Net-(D1-Pad2)*%
%TA.AperFunction,SMDPad,CuDef*%
G36*
G01*
X121203000Y-64264250D02*
X121203000Y-63751750D01*
G75*
G02*
X121421750Y-63533000I218750J0D01*
G01*
X121859250Y-63533000D01*
G75*
G02*
X122078000Y-63751750I0J-218750D01*
G01*
X122078000Y-64264250D01*
G75*
G02*
X121859250Y-64483000I-218750J0D01*
G01*
X121421750Y-64483000D01*
G75*
G02*
X121203000Y-64264250I0J218750D01*
G01*
G37*
%TD.AperFunction*%
%TO.P,R1,2*%
%TO.N,+5V*%
%TA.AperFunction,SMDPad,CuDef*%
G36*
G01*
X122778000Y-64264250D02*
X122778000Y-63751750D01*
G75*
G02*
X122996750Y-63533000I218750J0D01*
G01*
X123434250Y-63533000D01*
G75*
G02*
X123653000Y-63751750I0J-218750D01*
G01*
X123653000Y-64264250D01*
G75*
G02*
X123434250Y-64483000I-218750J0D01*
G01*
X122996750Y-64483000D01*
G75*
G02*
X122778000Y-64264250I0J218750D01*
G01*
G37*
%TD.AperFunction*%
%TD*%
%TO.P,R2,2*%
%TO.N,Net-(J3-Pad2)*%
%TA.AperFunction,SMDPad,CuDef*%
G36*
G01*
X145793750Y-68930000D02*
X146306250Y-68930000D01*
G75*
G02*
X146525000Y-69148750I0J-218750D01*
G01*
X146525000Y-69586250D01*
G75*
G02*
X146306250Y-69805000I-218750J0D01*
G01*
X145793750Y-69805000D01*
G75*
G02*
X145575000Y-69586250I0J218750D01*
G01*
X145575000Y-69148750D01*
G75*
G02*
X145793750Y-68930000I218750J0D01*
G01*
G37*
%TD.AperFunction*%
%TO.P,R2,1*%
%TO.N,GND*%
%TA.AperFunction,SMDPad,CuDef*%
G36*
G01*
X145793750Y-67355000D02*
X146306250Y-67355000D01*
G75*
G02*
X146525000Y-67573750I0J-218750D01*
G01*
X146525000Y-68011250D01*
G75*
G02*
X146306250Y-68230000I-218750J0D01*
G01*
X145793750Y-68230000D01*
G75*
G02*
X145575000Y-68011250I0J218750D01*
G01*
X145575000Y-67573750D01*
G75*
G02*
X145793750Y-67355000I218750J0D01*
G01*
G37*
%TD.AperFunction*%
%TD*%
%TO.P,R3,1*%
%TO.N,GND*%
%TA.AperFunction,SMDPad,CuDef*%
G36*
G01*
X141226250Y-111715000D02*
X140713750Y-111715000D01*
G75*
G02*
X140495000Y-111496250I0J218750D01*
G01*
X140495000Y-111058750D01*
G75*
G02*
X140713750Y-110840000I218750J0D01*
G01*
X141226250Y-110840000D01*
G75*
G02*
X141445000Y-111058750I0J-218750D01*
G01*
X141445000Y-111496250D01*
G75*
G02*
X141226250Y-111715000I-218750J0D01*
G01*
G37*
%TD.AperFunction*%
%TO.P,R3,2*%
%TO.N,Net-(J2-Pad2)*%
%TA.AperFunction,SMDPad,CuDef*%
G36*
G01*
X141226250Y-110140000D02*
X140713750Y-110140000D01*
G75*
G02*
X140495000Y-109921250I0J218750D01*
G01*
X140495000Y-109483750D01*
G75*
G02*
X140713750Y-109265000I218750J0D01*
G01*
X141226250Y-109265000D01*
G75*
G02*
X141445000Y-109483750I0J-218750D01*
G01*
X141445000Y-109921250D01*
G75*
G02*
X141226250Y-110140000I-218750J0D01*
G01*
G37*
%TD.AperFunction*%
%TD*%
%TO.P,R4,2*%
%TO.N,Net-(J3-Pad1)*%
%TA.AperFunction,SMDPad,CuDef*%
G36*
G01*
X140713750Y-68930000D02*
X141226250Y-68930000D01*
G75*
G02*
X141445000Y-69148750I0J-218750D01*
G01*
X141445000Y-69586250D01*
G75*
G02*
X141226250Y-69805000I-218750J0D01*
G01*
X140713750Y-69805000D01*
G75*
G02*
X140495000Y-69586250I0J218750D01*
G01*
X140495000Y-69148750D01*
G75*
G02*
X140713750Y-68930000I218750J0D01*
G01*
G37*
%TD.AperFunction*%
%TO.P,R4,1*%
%TO.N,GND*%
%TA.AperFunction,SMDPad,CuDef*%
G36*
G01*
X140713750Y-67355000D02*
X141226250Y-67355000D01*
G75*
G02*
X141445000Y-67573750I0J-218750D01*
G01*
X141445000Y-68011250D01*
G75*
G02*
X141226250Y-68230000I-218750J0D01*
G01*
X140713750Y-68230000D01*
G75*
G02*
X140495000Y-68011250I0J218750D01*
G01*
X140495000Y-67573750D01*
G75*
G02*
X140713750Y-67355000I218750J0D01*
G01*
G37*
%TD.AperFunction*%
%TD*%
%TO.P,R5,1*%
%TO.N,GND*%
%TA.AperFunction,SMDPad,CuDef*%
G36*
G01*
X146306250Y-111715000D02*
X145793750Y-111715000D01*
G75*
G02*
X145575000Y-111496250I0J218750D01*
G01*
X145575000Y-111058750D01*
G75*
G02*
X145793750Y-110840000I218750J0D01*
G01*
X146306250Y-110840000D01*
G75*
G02*
X146525000Y-111058750I0J-218750D01*
G01*
X146525000Y-111496250D01*
G75*
G02*
X146306250Y-111715000I-218750J0D01*
G01*
G37*
%TD.AperFunction*%
%TO.P,R5,2*%
%TO.N,Net-(J2-Pad1)*%
%TA.AperFunction,SMDPad,CuDef*%
G36*
G01*
X146306250Y-110140000D02*
X145793750Y-110140000D01*
G75*
G02*
X145575000Y-109921250I0J218750D01*
G01*
X145575000Y-109483750D01*
G75*
G02*
X145793750Y-109265000I218750J0D01*
G01*
X146306250Y-109265000D01*
G75*
G02*
X146525000Y-109483750I0J-218750D01*
G01*
X146525000Y-109921250D01*
G75*
G02*
X146306250Y-110140000I-218750J0D01*
G01*
G37*
%TD.AperFunction*%
%TD*%
%TO.P,R6,1*%
%TO.N,Net-(R6-Pad1)*%
%TA.AperFunction,SMDPad,CuDef*%
G36*
G01*
X129495000Y-93723750D02*
X129495000Y-94236250D01*
G75*
G02*
X129276250Y-94455000I-218750J0D01*
G01*
X128838750Y-94455000D01*
G75*
G02*
X128620000Y-94236250I0J218750D01*
G01*
X128620000Y-93723750D01*
G75*
G02*
X128838750Y-93505000I218750J0D01*
G01*
X129276250Y-93505000D01*
G75*
G02*
X129495000Y-93723750I0J-218750D01*
G01*
G37*
%TD.AperFunction*%
%TO.P,R6,2*%
%TO.N,Net-(R10-Pad2)*%
%TA.AperFunction,SMDPad,CuDef*%
G36*
G01*
X127920000Y-93723750D02*
X127920000Y-94236250D01*
G75*
G02*
X127701250Y-94455000I-218750J0D01*
G01*
X127263750Y-94455000D01*
G75*
G02*
X127045000Y-94236250I0J218750D01*
G01*
X127045000Y-93723750D01*
G75*
G02*
X127263750Y-93505000I218750J0D01*
G01*
X127701250Y-93505000D01*
G75*
G02*
X127920000Y-93723750I0J-218750D01*
G01*
G37*
%TD.AperFunction*%
%TD*%
%TO.P,R7,1*%
%TO.N,Net-(R7-Pad1)*%
%TA.AperFunction,SMDPad,CuDef*%
G36*
G01*
X129495000Y-91183750D02*
X129495000Y-91696250D01*
G75*
G02*
X129276250Y-91915000I-218750J0D01*
G01*
X128838750Y-91915000D01*
G75*
G02*
X128620000Y-91696250I0J218750D01*
G01*
X128620000Y-91183750D01*
G75*
G02*
X128838750Y-90965000I218750J0D01*
G01*
X129276250Y-90965000D01*
G75*
G02*
X129495000Y-91183750I0J-218750D01*
G01*
G37*
%TD.AperFunction*%
%TO.P,R7,2*%
%TO.N,Net-(R10-Pad2)*%
%TA.AperFunction,SMDPad,CuDef*%
G36*
G01*
X127920000Y-91183750D02*
X127920000Y-91696250D01*
G75*
G02*
X127701250Y-91915000I-218750J0D01*
G01*
X127263750Y-91915000D01*
G75*
G02*
X127045000Y-91696250I0J218750D01*
G01*
X127045000Y-91183750D01*
G75*
G02*
X127263750Y-90965000I218750J0D01*
G01*
X127701250Y-90965000D01*
G75*
G02*
X127920000Y-91183750I0J-218750D01*
G01*
G37*
%TD.AperFunction*%
%TD*%
%TO.P,R8,1*%
%TO.N,Net-(R8-Pad1)*%
%TA.AperFunction,SMDPad,CuDef*%
G36*
G01*
X129495000Y-88643750D02*
X129495000Y-89156250D01*
G75*
G02*
X129276250Y-89375000I-218750J0D01*
G01*
X128838750Y-89375000D01*
G75*
G02*
X128620000Y-89156250I0J218750D01*
G01*
X128620000Y-88643750D01*
G75*
G02*
X128838750Y-88425000I218750J0D01*
G01*
X129276250Y-88425000D01*
G75*
G02*
X129495000Y-88643750I0J-218750D01*
G01*
G37*
%TD.AperFunction*%
%TO.P,R8,2*%
%TO.N,Net-(R10-Pad2)*%
%TA.AperFunction,SMDPad,CuDef*%
G36*
G01*
X127920000Y-88643750D02*
X127920000Y-89156250D01*
G75*
G02*
X127701250Y-89375000I-218750J0D01*
G01*
X127263750Y-89375000D01*
G75*
G02*
X127045000Y-89156250I0J218750D01*
G01*
X127045000Y-88643750D01*
G75*
G02*
X127263750Y-88425000I218750J0D01*
G01*
X127701250Y-88425000D01*
G75*
G02*
X127920000Y-88643750I0J-218750D01*
G01*
G37*
%TD.AperFunction*%
%TD*%
%TO.P,R9,1*%
%TO.N,Net-(R9-Pad1)*%
%TA.AperFunction,SMDPad,CuDef*%
G36*
G01*
X129495000Y-86103750D02*
X129495000Y-86616250D01*
G75*
G02*
X129276250Y-86835000I-218750J0D01*
G01*
X128838750Y-86835000D01*
G75*
G02*
X128620000Y-86616250I0J218750D01*
G01*
X128620000Y-86103750D01*
G75*
G02*
X128838750Y-85885000I218750J0D01*
G01*
X129276250Y-85885000D01*
G75*
G02*
X129495000Y-86103750I0J-218750D01*
G01*
G37*
%TD.AperFunction*%
%TO.P,R9,2*%
%TO.N,Net-(R10-Pad2)*%
%TA.AperFunction,SMDPad,CuDef*%
G36*
G01*
X127920000Y-86103750D02*
X127920000Y-86616250D01*
G75*
G02*
X127701250Y-86835000I-218750J0D01*
G01*
X127263750Y-86835000D01*
G75*
G02*
X127045000Y-86616250I0J218750D01*
G01*
X127045000Y-86103750D01*
G75*
G02*
X127263750Y-85885000I218750J0D01*
G01*
X127701250Y-85885000D01*
G75*
G02*
X127920000Y-86103750I0J-218750D01*
G01*
G37*
%TD.AperFunction*%
%TD*%
%TO.P,R10,1*%
%TO.N,Net-(R10-Pad1)*%
%TA.AperFunction,SMDPad,CuDef*%
G36*
G01*
X129495000Y-83563750D02*
X129495000Y-84076250D01*
G75*
G02*
X129276250Y-84295000I-218750J0D01*
G01*
X128838750Y-84295000D01*
G75*
G02*
X128620000Y-84076250I0J218750D01*
G01*
X128620000Y-83563750D01*
G75*
G02*
X128838750Y-83345000I218750J0D01*
G01*
X129276250Y-83345000D01*
G75*
G02*
X129495000Y-83563750I0J-218750D01*
G01*
G37*
%TD.AperFunction*%
%TO.P,R10,2*%
%TO.N,Net-(R10-Pad2)*%
%TA.AperFunction,SMDPad,CuDef*%
G36*
G01*
X127920000Y-83563750D02*
X127920000Y-84076250D01*
G75*
G02*
X127701250Y-84295000I-218750J0D01*
G01*
X127263750Y-84295000D01*
G75*
G02*
X127045000Y-84076250I0J218750D01*
G01*
X127045000Y-83563750D01*
G75*
G02*
X127263750Y-83345000I218750J0D01*
G01*
X127701250Y-83345000D01*
G75*
G02*
X127920000Y-83563750I0J-218750D01*
G01*
G37*
%TD.AperFunction*%
%TD*%
D16*
%TO.P,SW1,3*%
%TO.N,Net-(R8-Pad1)*%
X143510000Y-85090000D03*
%TO.P,SW1,2*%
%TO.N,Net-(R9-Pad1)*%
X140970000Y-85090000D03*
%TO.P,SW1,C*%
%TO.N,Net-(SW1-PadC)*%
X138430000Y-85090000D03*
D17*
%TO.P,SW1,1*%
%TO.N,Net-(R10-Pad1)*%
X135890000Y-85090000D03*
D16*
%TO.P,SW1,NC*%
%TO.N,N/C*%
X143510000Y-92710000D03*
%TO.P,SW1,C1*%
X140970000Y-92710000D03*
%TO.P,SW1,5*%
%TO.N,Net-(R6-Pad1)*%
X138430000Y-92710000D03*
%TO.P,SW1,4*%
%TO.N,Net-(R7-Pad1)*%
X135890000Y-92710000D03*
%TD*%
%TO.P,U1,8*%
%TO.N,Net-(R10-Pad2)*%
%TA.AperFunction,SMDPad,CuDef*%
G36*
G01*
X150645000Y-87400000D02*
X150345000Y-87400000D01*
G75*
G02*
X150195000Y-87250000I0J150000D01*
G01*
X150195000Y-85600000D01*
G75*
G02*
X150345000Y-85450000I150000J0D01*
G01*
X150645000Y-85450000D01*
G75*
G02*
X150795000Y-85600000I0J-150000D01*
G01*
X150795000Y-87250000D01*
G75*
G02*
X150645000Y-87400000I-150000J0D01*
G01*
G37*
%TD.AperFunction*%
%TO.P,U1,7*%
%TO.N,+5V*%
%TA.AperFunction,SMDPad,CuDef*%
G36*
G01*
X151915000Y-87400000D02*
X151615000Y-87400000D01*
G75*
G02*
X151465000Y-87250000I0J150000D01*
G01*
X151465000Y-85600000D01*
G75*
G02*
X151615000Y-85450000I150000J0D01*
G01*
X151915000Y-85450000D01*
G75*
G02*
X152065000Y-85600000I0J-150000D01*
G01*
X152065000Y-87250000D01*
G75*
G02*
X151915000Y-87400000I-150000J0D01*
G01*
G37*
%TD.AperFunction*%
%TO.P,U1,6*%
%TO.N,Net-(J4-Pad1)*%
%TA.AperFunction,SMDPad,CuDef*%
G36*
G01*
X153185000Y-87400000D02*
X152885000Y-87400000D01*
G75*
G02*
X152735000Y-87250000I0J150000D01*
G01*
X152735000Y-85600000D01*
G75*
G02*
X152885000Y-85450000I150000J0D01*
G01*
X153185000Y-85450000D01*
G75*
G02*
X153335000Y-85600000I0J-150000D01*
G01*
X153335000Y-87250000D01*
G75*
G02*
X153185000Y-87400000I-150000J0D01*
G01*
G37*
%TD.AperFunction*%
%TO.P,U1,5*%
%TO.N,GND*%
%TA.AperFunction,SMDPad,CuDef*%
G36*
G01*
X154455000Y-87400000D02*
X154155000Y-87400000D01*
G75*
G02*
X154005000Y-87250000I0J150000D01*
G01*
X154005000Y-85600000D01*
G75*
G02*
X154155000Y-85450000I150000J0D01*
G01*
X154455000Y-85450000D01*
G75*
G02*
X154605000Y-85600000I0J-150000D01*
G01*
X154605000Y-87250000D01*
G75*
G02*
X154455000Y-87400000I-150000J0D01*
G01*
G37*
%TD.AperFunction*%
%TO.P,U1,4*%
%TO.N,-5V*%
%TA.AperFunction,SMDPad,CuDef*%
G36*
G01*
X154455000Y-92350000D02*
X154155000Y-92350000D01*
G75*
G02*
X154005000Y-92200000I0J150000D01*
G01*
X154005000Y-90550000D01*
G75*
G02*
X154155000Y-90400000I150000J0D01*
G01*
X154455000Y-90400000D01*
G75*
G02*
X154605000Y-90550000I0J-150000D01*
G01*
X154605000Y-92200000D01*
G75*
G02*
X154455000Y-92350000I-150000J0D01*
G01*
G37*
%TD.AperFunction*%
%TO.P,U1,3*%
%TO.N,Net-(J1-Pad2)*%
%TA.AperFunction,SMDPad,CuDef*%
G36*
G01*
X153185000Y-92350000D02*
X152885000Y-92350000D01*
G75*
G02*
X152735000Y-92200000I0J150000D01*
G01*
X152735000Y-90550000D01*
G75*
G02*
X152885000Y-90400000I150000J0D01*
G01*
X153185000Y-90400000D01*
G75*
G02*
X153335000Y-90550000I0J-150000D01*
G01*
X153335000Y-92200000D01*
G75*
G02*
X153185000Y-92350000I-150000J0D01*
G01*
G37*
%TD.AperFunction*%
%TO.P,U1,2*%
%TO.N,Net-(J1-Pad1)*%
%TA.AperFunction,SMDPad,CuDef*%
G36*
G01*
X151915000Y-92350000D02*
X151615000Y-92350000D01*
G75*
G02*
X151465000Y-92200000I0J150000D01*
G01*
X151465000Y-90550000D01*
G75*
G02*
X151615000Y-90400000I150000J0D01*
G01*
X151915000Y-90400000D01*
G75*
G02*
X152065000Y-90550000I0J-150000D01*
G01*
X152065000Y-92200000D01*
G75*
G02*
X151915000Y-92350000I-150000J0D01*
G01*
G37*
%TD.AperFunction*%
%TO.P,U1,1*%
%TO.N,Net-(SW1-PadC)*%
%TA.AperFunction,SMDPad,CuDef*%
G36*
G01*
X150645000Y-92350000D02*
X150345000Y-92350000D01*
G75*
G02*
X150195000Y-92200000I0J150000D01*
G01*
X150195000Y-90550000D01*
G75*
G02*
X150345000Y-90400000I150000J0D01*
G01*
X150645000Y-90400000D01*
G75*
G02*
X150795000Y-90550000I0J-150000D01*
G01*
X150795000Y-92200000D01*
G75*
G02*
X150645000Y-92350000I-150000J0D01*
G01*
G37*
%TD.AperFunction*%
%TD*%
D18*
%TO.P,FID1,*%
%TO.N,*%
X110363000Y-124587000D03*
%TD*%
%TO.P,FID2,*%
%TO.N,*%
X220726000Y-58293000D03*
%TD*%
D11*
%TO.P,J5,1*%
%TO.N,+5V*%
X118872000Y-115570000D03*
D10*
%TO.P,J5,2*%
%TO.N,GND*%
X118872000Y-113030000D03*
%TO.P,J5,3*%
X118872000Y-110490000D03*
%TO.P,J5,4*%
%TO.N,-5V*%
X118872000Y-107950000D03*
%TD*%
D19*
%TO.N,+5V*%
X151130000Y-77470000D03*
X124460000Y-64008000D03*
%TO.N,GND*%
X150114000Y-100330000D03*
X152273000Y-102362000D03*
X124460000Y-61849000D03*
%TO.N,Net-(J1-Pad2)*%
X153035000Y-93345000D03*
%TO.N,Net-(R8-Pad1)*%
X143256000Y-88773000D03*
%TD*%
D20*
%TO.N,+5V*%
X151612500Y-78740000D02*
X151612500Y-81280000D01*
X151765000Y-83337500D02*
X151765000Y-86425000D01*
X151765000Y-81432500D02*
X151765000Y-83337500D01*
X151612500Y-81280000D02*
X151765000Y-81432500D01*
X151612500Y-77952500D02*
X151130000Y-77470000D01*
X151612500Y-78740000D02*
X151612500Y-77952500D01*
X123215500Y-64008000D02*
X124460000Y-64008000D01*
%TO.N,GND*%
X123238500Y-61849000D02*
X124460000Y-61849000D01*
%TO.N,-5V*%
X153187500Y-99060000D02*
X153187500Y-96520000D01*
X154305000Y-95402500D02*
X154305000Y-91375000D01*
X153187500Y-96520000D02*
X154305000Y-95402500D01*
X153187500Y-99060000D02*
X153187500Y-99847500D01*
X153187500Y-99847500D02*
X153924000Y-100584000D01*
X153924000Y-100584000D02*
X153924000Y-109728000D01*
X153924000Y-109728000D02*
X149098000Y-114554000D01*
X149098000Y-114554000D02*
X127381000Y-114554000D01*
X120777000Y-107950000D02*
X118872000Y-107950000D01*
X127381000Y-114554000D02*
X120777000Y-107950000D01*
X110972000Y-100050000D02*
X106730000Y-100050000D01*
X118872000Y-107950000D02*
X110972000Y-100050000D01*
%TO.N,Net-(D1-Pad2)*%
X121363500Y-63731000D02*
X121640500Y-64008000D01*
X121363500Y-61849000D02*
X121363500Y-63731000D01*
%TO.N,Net-(J1-Pad2)*%
X153035000Y-91375000D02*
X153035000Y-93345000D01*
X130810000Y-76200000D02*
X119380000Y-87630000D01*
X144780000Y-76200000D02*
X130810000Y-76200000D01*
%TO.N,Net-(J1-Pad1)*%
X130429000Y-101600000D02*
X142240000Y-101600000D01*
X119380000Y-90551000D02*
X130429000Y-101600000D01*
X119380000Y-90170000D02*
X119380000Y-90551000D01*
X142240000Y-101600000D02*
X144780000Y-101600000D01*
X151765000Y-94615000D02*
X151765000Y-91375000D01*
X144780000Y-101600000D02*
X151765000Y-94615000D01*
%TO.N,Net-(J2-Pad2)*%
X140970000Y-105410000D02*
X142240000Y-104140000D01*
X140970000Y-109702500D02*
X140970000Y-105410000D01*
%TO.N,Net-(J2-Pad1)*%
X146050000Y-105410000D02*
X144780000Y-104140000D01*
X146050000Y-109702500D02*
X146050000Y-105410000D01*
%TO.N,Net-(J3-Pad1)*%
X140970000Y-72390000D02*
X142240000Y-73660000D01*
X140970000Y-69367500D02*
X140970000Y-72390000D01*
%TO.N,Net-(J3-Pad2)*%
X146050000Y-72390000D02*
X144780000Y-73660000D01*
X146050000Y-69367500D02*
X146050000Y-72390000D01*
%TO.N,Net-(J4-Pad1)*%
X153035000Y-87400000D02*
X154535000Y-88900000D01*
X153035000Y-86425000D02*
X153035000Y-87400000D01*
X161544000Y-87630000D02*
X157988000Y-87630000D01*
X156718000Y-88900000D02*
X154535000Y-88900000D01*
X157988000Y-87630000D02*
X156718000Y-88900000D01*
%TO.N,Net-(R6-Pad1)*%
X137160000Y-93980000D02*
X138430000Y-92710000D01*
X129057500Y-93980000D02*
X137160000Y-93980000D01*
%TO.N,Net-(R10-Pad2)*%
X127482500Y-83820000D02*
X127482500Y-93980000D01*
X146829569Y-82759569D02*
X150495000Y-86425000D01*
X128542931Y-82759569D02*
X146829569Y-82759569D01*
X127482500Y-83820000D02*
X128542931Y-82759569D01*
%TO.N,Net-(R7-Pad1)*%
X135763000Y-92837000D02*
X135890000Y-92710000D01*
X130454500Y-92837000D02*
X135763000Y-92837000D01*
X129057500Y-91440000D02*
X130454500Y-92837000D01*
%TO.N,Net-(R8-Pad1)*%
X143129000Y-88900000D02*
X143256000Y-88773000D01*
X129057500Y-88900000D02*
X143129000Y-88900000D01*
%TO.N,Net-(R9-Pad1)*%
X129387711Y-86690211D02*
X139369789Y-86690211D01*
X139369789Y-86690211D02*
X140970000Y-85090000D01*
X129057500Y-86360000D02*
X129387711Y-86690211D01*
%TO.N,Net-(R10-Pad1)*%
X134620000Y-83820000D02*
X135890000Y-85090000D01*
X129057500Y-83820000D02*
X134620000Y-83820000D01*
%TO.N,Net-(SW1-PadC)*%
X138430000Y-85090000D02*
X140208000Y-83312000D01*
X140208000Y-83312000D02*
X145923000Y-83312000D01*
X145923000Y-83312000D02*
X149098000Y-86487000D01*
X149098000Y-90678000D02*
X149795000Y-91375000D01*
X149098000Y-86487000D02*
X149098000Y-90678000D01*
X149795000Y-91375000D02*
X150495000Y-91375000D01*
%TO.N,Net-(CON1-Pad1)*%
X105410000Y-113970000D02*
X106730000Y-115290000D01*
X105410000Y-85736592D02*
X105410000Y-113970000D01*
X117471000Y-73675592D02*
X105410000Y-85736592D01*
X117471000Y-68580000D02*
X117471000Y-73675592D01*
%TO.N,Net-(CON1-Pad2)*%
X104952789Y-116052789D02*
X106730000Y-117830000D01*
X104952789Y-85547211D02*
X104952789Y-116052789D01*
X108331000Y-82169000D02*
X104952789Y-85547211D01*
X108331000Y-74680000D02*
X108331000Y-82169000D01*
X108331000Y-61390000D02*
X108331000Y-74680000D01*
%TD*%
D21*
%TO.N,GND*%
X226424545Y-51498909D02*
X226775208Y-51604780D01*
X227098625Y-51776744D01*
X227382484Y-52008254D01*
X227615965Y-52290486D01*
X227790183Y-52612695D01*
X227898502Y-52962614D01*
X227940001Y-53357452D01*
X227940000Y-124427721D01*
X227901091Y-124824545D01*
X227795220Y-125175206D01*
X227623257Y-125498623D01*
X227391748Y-125782482D01*
X227109514Y-126015965D01*
X226787304Y-126190184D01*
X226437385Y-126298502D01*
X226042557Y-126340000D01*
X104172279Y-126340000D01*
X103775455Y-126301091D01*
X103424794Y-126195220D01*
X103101377Y-126023257D01*
X102817518Y-125791748D01*
X102584035Y-125509514D01*
X102409816Y-125187304D01*
X102301498Y-124837385D01*
X102260000Y-124442557D01*
X102260000Y-123604872D01*
X102540000Y-123604872D01*
X102540000Y-124045128D01*
X102625890Y-124476925D01*
X102794369Y-124883669D01*
X103038962Y-125249729D01*
X103350271Y-125561038D01*
X103716331Y-125805631D01*
X104123075Y-125974110D01*
X104554872Y-126060000D01*
X104995128Y-126060000D01*
X105426925Y-125974110D01*
X105833669Y-125805631D01*
X106199729Y-125561038D01*
X106511038Y-125249729D01*
X106755631Y-124883669D01*
X106924110Y-124476925D01*
X106924450Y-124475212D01*
X109228000Y-124475212D01*
X109228000Y-124698788D01*
X109271617Y-124918067D01*
X109357176Y-125124624D01*
X109481388Y-125310520D01*
X109639480Y-125468612D01*
X109825376Y-125592824D01*
X110031933Y-125678383D01*
X110251212Y-125722000D01*
X110474788Y-125722000D01*
X110694067Y-125678383D01*
X110900624Y-125592824D01*
X111086520Y-125468612D01*
X111244612Y-125310520D01*
X111368824Y-125124624D01*
X111454383Y-124918067D01*
X111498000Y-124698788D01*
X111498000Y-124475212D01*
X111454383Y-124255933D01*
X111368824Y-124049376D01*
X111244612Y-123863480D01*
X111086520Y-123705388D01*
X110936088Y-123604872D01*
X223190000Y-123604872D01*
X223190000Y-124045128D01*
X223275890Y-124476925D01*
X223444369Y-124883669D01*
X223688962Y-125249729D01*
X224000271Y-125561038D01*
X224366331Y-125805631D01*
X224773075Y-125974110D01*
X225204872Y-126060000D01*
X225645128Y-126060000D01*
X226076925Y-125974110D01*
X226483669Y-125805631D01*
X226849729Y-125561038D01*
X227161038Y-125249729D01*
X227405631Y-124883669D01*
X227574110Y-124476925D01*
X227660000Y-124045128D01*
X227660000Y-123604872D01*
X227574110Y-123173075D01*
X227405631Y-122766331D01*
X227161038Y-122400271D01*
X226849729Y-122088962D01*
X226483669Y-121844369D01*
X226076925Y-121675890D01*
X225645128Y-121590000D01*
X225204872Y-121590000D01*
X224773075Y-121675890D01*
X224366331Y-121844369D01*
X224000271Y-122088962D01*
X223688962Y-122400271D01*
X223444369Y-122766331D01*
X223275890Y-123173075D01*
X223190000Y-123604872D01*
X110936088Y-123604872D01*
X110900624Y-123581176D01*
X110694067Y-123495617D01*
X110474788Y-123452000D01*
X110251212Y-123452000D01*
X110031933Y-123495617D01*
X109825376Y-123581176D01*
X109639480Y-123705388D01*
X109481388Y-123863480D01*
X109357176Y-124049376D01*
X109271617Y-124255933D01*
X109228000Y-124475212D01*
X106924450Y-124475212D01*
X107010000Y-124045128D01*
X107010000Y-123604872D01*
X106924110Y-123173075D01*
X106755631Y-122766331D01*
X106511038Y-122400271D01*
X106199729Y-122088962D01*
X105833669Y-121844369D01*
X105426925Y-121675890D01*
X104995128Y-121590000D01*
X104554872Y-121590000D01*
X104123075Y-121675890D01*
X103716331Y-121844369D01*
X103350271Y-122088962D01*
X103038962Y-122400271D01*
X102794369Y-122766331D01*
X102625890Y-123173075D01*
X102540000Y-123604872D01*
X102260000Y-123604872D01*
X102260000Y-85547211D01*
X104161581Y-85547211D01*
X104165389Y-85585874D01*
X104165390Y-116014116D01*
X104161581Y-116052789D01*
X104176784Y-116207146D01*
X104221807Y-116355571D01*
X104221808Y-116355572D01*
X104294924Y-116492361D01*
X104393321Y-116612258D01*
X104423362Y-116636912D01*
X105363578Y-117577128D01*
X105340500Y-117693146D01*
X105340500Y-117966854D01*
X105393898Y-118235302D01*
X105498641Y-118488175D01*
X105650705Y-118715754D01*
X105844246Y-118909295D01*
X106071825Y-119061359D01*
X106324698Y-119166102D01*
X106593146Y-119219500D01*
X106866854Y-119219500D01*
X107135302Y-119166102D01*
X107388175Y-119061359D01*
X107615754Y-118909295D01*
X107809295Y-118715754D01*
X107961359Y-118488175D01*
X108066102Y-118235302D01*
X108119500Y-117966854D01*
X108119500Y-117693146D01*
X108066102Y-117424698D01*
X107961359Y-117171825D01*
X107809295Y-116944246D01*
X107615754Y-116750705D01*
X107388175Y-116598641D01*
X107294887Y-116560000D01*
X107388175Y-116521359D01*
X107615754Y-116369295D01*
X107809295Y-116175754D01*
X107961359Y-115948175D01*
X108066102Y-115695302D01*
X108119500Y-115426854D01*
X108119500Y-115153146D01*
X108066102Y-114884698D01*
X107997883Y-114720000D01*
X117383928Y-114720000D01*
X117383928Y-116420000D01*
X117396188Y-116544482D01*
X117432498Y-116664180D01*
X117491463Y-116774494D01*
X117570815Y-116871185D01*
X117667506Y-116950537D01*
X117777820Y-117009502D01*
X117897518Y-117045812D01*
X118022000Y-117058072D01*
X119722000Y-117058072D01*
X119846482Y-117045812D01*
X119966180Y-117009502D01*
X120076494Y-116950537D01*
X120173185Y-116871185D01*
X120252537Y-116774494D01*
X120311502Y-116664180D01*
X120347812Y-116544482D01*
X120360072Y-116420000D01*
X120360072Y-114720000D01*
X120347812Y-114595518D01*
X120311502Y-114475820D01*
X120252537Y-114365506D01*
X120173185Y-114268815D01*
X120076494Y-114189463D01*
X119966180Y-114130498D01*
X119885534Y-114106034D01*
X119969588Y-114030269D01*
X120143641Y-113796920D01*
X120268825Y-113534099D01*
X120313476Y-113386890D01*
X120192155Y-113157000D01*
X118999000Y-113157000D01*
X118999000Y-113177000D01*
X118745000Y-113177000D01*
X118745000Y-113157000D01*
X117551845Y-113157000D01*
X117430524Y-113386890D01*
X117475175Y-113534099D01*
X117600359Y-113796920D01*
X117774412Y-114030269D01*
X117858466Y-114106034D01*
X117777820Y-114130498D01*
X117667506Y-114189463D01*
X117570815Y-114268815D01*
X117491463Y-114365506D01*
X117432498Y-114475820D01*
X117396188Y-114595518D01*
X117383928Y-114720000D01*
X107997883Y-114720000D01*
X107961359Y-114631825D01*
X107809295Y-114404246D01*
X107615754Y-114210705D01*
X107388175Y-114058641D01*
X107294887Y-114020000D01*
X107388175Y-113981359D01*
X107615754Y-113829295D01*
X107809295Y-113635754D01*
X107961359Y-113408175D01*
X108066102Y-113155302D01*
X108119500Y-112886854D01*
X108119500Y-112613146D01*
X108066102Y-112344698D01*
X107961359Y-112091825D01*
X107809295Y-111864246D01*
X107615754Y-111670705D01*
X107388175Y-111518641D01*
X107135302Y-111413898D01*
X106866854Y-111360500D01*
X106593146Y-111360500D01*
X106324698Y-111413898D01*
X106197400Y-111466626D01*
X106197400Y-110846890D01*
X117430524Y-110846890D01*
X117475175Y-110994099D01*
X117600359Y-111256920D01*
X117774412Y-111490269D01*
X117990645Y-111685178D01*
X118116255Y-111760000D01*
X117990645Y-111834822D01*
X117774412Y-112029731D01*
X117600359Y-112263080D01*
X117475175Y-112525901D01*
X117430524Y-112673110D01*
X117551845Y-112903000D01*
X118745000Y-112903000D01*
X118745000Y-110617000D01*
X118999000Y-110617000D01*
X118999000Y-112903000D01*
X120192155Y-112903000D01*
X120313476Y-112673110D01*
X120268825Y-112525901D01*
X120143641Y-112263080D01*
X119969588Y-112029731D01*
X119753355Y-111834822D01*
X119627745Y-111760000D01*
X119753355Y-111685178D01*
X119969588Y-111490269D01*
X120143641Y-111256920D01*
X120268825Y-110994099D01*
X120313476Y-110846890D01*
X120192155Y-110617000D01*
X118999000Y-110617000D01*
X118745000Y-110617000D01*
X117551845Y-110617000D01*
X117430524Y-110846890D01*
X106197400Y-110846890D01*
X106197400Y-108953374D01*
X106324698Y-109006102D01*
X106593146Y-109059500D01*
X106866854Y-109059500D01*
X107135302Y-109006102D01*
X107388175Y-108901359D01*
X107615754Y-108749295D01*
X107809295Y-108555754D01*
X107961359Y-108328175D01*
X108066102Y-108075302D01*
X108119500Y-107806854D01*
X108119500Y-107533146D01*
X108066102Y-107264698D01*
X107961359Y-107011825D01*
X107809295Y-106784246D01*
X107615754Y-106590705D01*
X107388175Y-106438641D01*
X107294887Y-106400000D01*
X107388175Y-106361359D01*
X107615754Y-106209295D01*
X107809295Y-106015754D01*
X107961359Y-105788175D01*
X108066102Y-105535302D01*
X108119500Y-105266854D01*
X108119500Y-104993146D01*
X108066102Y-104724698D01*
X107961359Y-104471825D01*
X107809295Y-104244246D01*
X107615754Y-104050705D01*
X107388175Y-103898641D01*
X107299215Y-103861793D01*
X107330404Y-103850537D01*
X107444532Y-103789534D01*
X107510603Y-103550208D01*
X106730000Y-102769605D01*
X106715858Y-102783748D01*
X106536253Y-102604143D01*
X106550395Y-102590000D01*
X106909605Y-102590000D01*
X107690208Y-103370603D01*
X107929534Y-103304532D01*
X108045883Y-103056785D01*
X108111664Y-102791100D01*
X108124349Y-102517686D01*
X108083449Y-102247052D01*
X107990537Y-101989596D01*
X107929534Y-101875468D01*
X107690208Y-101809397D01*
X106909605Y-102590000D01*
X106550395Y-102590000D01*
X106536253Y-102575858D01*
X106715858Y-102396253D01*
X106730000Y-102410395D01*
X107510603Y-101629792D01*
X107444532Y-101390466D01*
X107294674Y-101320088D01*
X107388175Y-101281359D01*
X107615754Y-101129295D01*
X107809295Y-100935754D01*
X107875013Y-100837400D01*
X110645850Y-100837400D01*
X117424361Y-107615913D01*
X117387000Y-107803740D01*
X117387000Y-108096260D01*
X117444068Y-108383158D01*
X117556010Y-108653411D01*
X117718525Y-108896632D01*
X117925368Y-109103475D01*
X118107534Y-109225195D01*
X117990645Y-109294822D01*
X117774412Y-109489731D01*
X117600359Y-109723080D01*
X117475175Y-109985901D01*
X117430524Y-110133110D01*
X117551845Y-110363000D01*
X118745000Y-110363000D01*
X118745000Y-110343000D01*
X118999000Y-110343000D01*
X118999000Y-110363000D01*
X120192155Y-110363000D01*
X120313476Y-110133110D01*
X120268825Y-109985901D01*
X120143641Y-109723080D01*
X119969588Y-109489731D01*
X119753355Y-109294822D01*
X119636466Y-109225195D01*
X119818632Y-109103475D01*
X120025475Y-108896632D01*
X120131870Y-108737400D01*
X120450850Y-108737400D01*
X126796881Y-115083433D01*
X126821531Y-115113469D01*
X126851567Y-115138119D01*
X126851569Y-115138121D01*
X126915055Y-115190222D01*
X126941428Y-115211866D01*
X127078217Y-115284982D01*
X127226643Y-115330006D01*
X127342327Y-115341400D01*
X127342336Y-115341400D01*
X127380999Y-115345208D01*
X127419662Y-115341400D01*
X149059337Y-115341400D01*
X149098000Y-115345208D01*
X149136663Y-115341400D01*
X149136673Y-115341400D01*
X149252357Y-115330006D01*
X149400783Y-115284982D01*
X149537572Y-115211866D01*
X149657469Y-115113469D01*
X149682128Y-115083422D01*
X154453433Y-110312119D01*
X154483469Y-110287469D01*
X154508119Y-110257433D01*
X154508122Y-110257430D01*
X154581866Y-110167572D01*
X154654982Y-110030783D01*
X154700006Y-109882357D01*
X154711400Y-109766673D01*
X154711400Y-109766665D01*
X154715208Y-109728000D01*
X154711400Y-109689335D01*
X154711400Y-100622662D01*
X154715208Y-100583999D01*
X154711400Y-100545336D01*
X154711400Y-100545327D01*
X154700006Y-100429643D01*
X154654982Y-100281217D01*
X154581866Y-100144428D01*
X154483469Y-100024531D01*
X154453434Y-99999882D01*
X154162963Y-99709411D01*
X154197850Y-99644142D01*
X154246608Y-99483408D01*
X154263072Y-99316250D01*
X154263072Y-98803750D01*
X154246608Y-98636592D01*
X154197850Y-98475858D01*
X154118671Y-98327725D01*
X154012115Y-98197885D01*
X153974900Y-98167344D01*
X153974900Y-97412656D01*
X154012115Y-97382115D01*
X154118671Y-97252275D01*
X154197850Y-97104142D01*
X154246608Y-96943408D01*
X154263072Y-96776250D01*
X154263072Y-96557979D01*
X154834434Y-95986618D01*
X154864469Y-95961969D01*
X154889119Y-95931933D01*
X154889122Y-95931930D01*
X154962866Y-95842072D01*
X155035982Y-95705283D01*
X155081006Y-95556857D01*
X155085181Y-95514463D01*
X155092400Y-95441173D01*
X155092400Y-95441165D01*
X155096208Y-95402500D01*
X155092400Y-95363835D01*
X155092400Y-92659589D01*
X155110258Y-92637829D01*
X155183084Y-92501582D01*
X155227929Y-92353745D01*
X155243072Y-92200000D01*
X155243072Y-90550000D01*
X155240796Y-90526890D01*
X160102524Y-90526890D01*
X160147175Y-90674099D01*
X160272359Y-90936920D01*
X160446412Y-91170269D01*
X160662645Y-91365178D01*
X160912748Y-91514157D01*
X161187109Y-91611481D01*
X161417000Y-91490814D01*
X161417000Y-90297000D01*
X161671000Y-90297000D01*
X161671000Y-91490814D01*
X161900891Y-91611481D01*
X162175252Y-91514157D01*
X162425355Y-91365178D01*
X162641588Y-91170269D01*
X162815641Y-90936920D01*
X162940825Y-90674099D01*
X162985476Y-90526890D01*
X162864155Y-90297000D01*
X161671000Y-90297000D01*
X161417000Y-90297000D01*
X160223845Y-90297000D01*
X160102524Y-90526890D01*
X155240796Y-90526890D01*
X155227929Y-90396255D01*
X155183084Y-90248418D01*
X155110258Y-90112171D01*
X155012251Y-89992749D01*
X154892829Y-89894742D01*
X154756582Y-89821916D01*
X154608745Y-89777071D01*
X154455000Y-89761928D01*
X154155000Y-89761928D01*
X154001255Y-89777071D01*
X153853418Y-89821916D01*
X153717171Y-89894742D01*
X153670000Y-89933454D01*
X153622829Y-89894742D01*
X153486582Y-89821916D01*
X153338745Y-89777071D01*
X153185000Y-89761928D01*
X152885000Y-89761928D01*
X152731255Y-89777071D01*
X152583418Y-89821916D01*
X152447171Y-89894742D01*
X152400000Y-89933454D01*
X152352829Y-89894742D01*
X152216582Y-89821916D01*
X152068745Y-89777071D01*
X151915000Y-89761928D01*
X151615000Y-89761928D01*
X151461255Y-89777071D01*
X151313418Y-89821916D01*
X151177171Y-89894742D01*
X151130000Y-89933454D01*
X151082829Y-89894742D01*
X150946582Y-89821916D01*
X150798745Y-89777071D01*
X150645000Y-89761928D01*
X150345000Y-89761928D01*
X150191255Y-89777071D01*
X150043418Y-89821916D01*
X149907171Y-89894742D01*
X149885400Y-89912609D01*
X149885400Y-87887391D01*
X149907171Y-87905258D01*
X150043418Y-87978084D01*
X150191255Y-88022929D01*
X150345000Y-88038072D01*
X150645000Y-88038072D01*
X150798745Y-88022929D01*
X150946582Y-87978084D01*
X151082829Y-87905258D01*
X151130000Y-87866546D01*
X151177171Y-87905258D01*
X151313418Y-87978084D01*
X151461255Y-88022929D01*
X151615000Y-88038072D01*
X151915000Y-88038072D01*
X152068745Y-88022929D01*
X152216582Y-87978084D01*
X152352829Y-87905258D01*
X152399565Y-87866903D01*
X152475532Y-87959469D01*
X152505573Y-87984123D01*
X153950881Y-89429433D01*
X153975531Y-89459469D01*
X154005567Y-89484119D01*
X154005569Y-89484121D01*
X154005595Y-89484142D01*
X154095428Y-89557866D01*
X154232217Y-89630982D01*
X154380643Y-89676006D01*
X154496327Y-89687400D01*
X154496336Y-89687400D01*
X154534999Y-89691208D01*
X154573662Y-89687400D01*
X156679337Y-89687400D01*
X156718000Y-89691208D01*
X156756663Y-89687400D01*
X156756673Y-89687400D01*
X156872357Y-89676006D01*
X157020783Y-89630982D01*
X157157572Y-89557866D01*
X157277469Y-89459469D01*
X157302127Y-89429423D01*
X158314152Y-88417400D01*
X160055928Y-88417400D01*
X160055928Y-88480000D01*
X160068188Y-88604482D01*
X160104498Y-88724180D01*
X160163463Y-88834494D01*
X160242815Y-88931185D01*
X160339506Y-89010537D01*
X160449820Y-89069502D01*
X160530466Y-89093966D01*
X160446412Y-89169731D01*
X160272359Y-89403080D01*
X160147175Y-89665901D01*
X160102524Y-89813110D01*
X160223845Y-90043000D01*
X161417000Y-90043000D01*
X161417000Y-90023000D01*
X161671000Y-90023000D01*
X161671000Y-90043000D01*
X162864155Y-90043000D01*
X162985476Y-89813110D01*
X162940825Y-89665901D01*
X162815641Y-89403080D01*
X162641588Y-89169731D01*
X162557534Y-89093966D01*
X162638180Y-89069502D01*
X162748494Y-89010537D01*
X162845185Y-88931185D01*
X162924537Y-88834494D01*
X162983502Y-88724180D01*
X163019812Y-88604482D01*
X163032072Y-88480000D01*
X163032072Y-86780000D01*
X163019812Y-86655518D01*
X162983502Y-86535820D01*
X162924537Y-86425506D01*
X162845185Y-86328815D01*
X162748494Y-86249463D01*
X162638180Y-86190498D01*
X162518482Y-86154188D01*
X162394000Y-86141928D01*
X160694000Y-86141928D01*
X160569518Y-86154188D01*
X160449820Y-86190498D01*
X160339506Y-86249463D01*
X160242815Y-86328815D01*
X160163463Y-86425506D01*
X160104498Y-86535820D01*
X160068188Y-86655518D01*
X160055928Y-86780000D01*
X160055928Y-86842600D01*
X158026662Y-86842600D01*
X157987999Y-86838792D01*
X157949336Y-86842600D01*
X157949327Y-86842600D01*
X157833643Y-86853994D01*
X157685217Y-86899018D01*
X157548428Y-86972134D01*
X157548426Y-86972135D01*
X157548427Y-86972135D01*
X157458569Y-87045879D01*
X157458567Y-87045881D01*
X157428531Y-87070531D01*
X157403881Y-87100567D01*
X156391850Y-88112600D01*
X154861152Y-88112600D01*
X154763918Y-88015366D01*
X154849180Y-87989502D01*
X154959494Y-87930537D01*
X155056185Y-87851185D01*
X155135537Y-87754494D01*
X155194502Y-87644180D01*
X155230812Y-87524482D01*
X155243072Y-87400000D01*
X155240000Y-86710750D01*
X155081250Y-86552000D01*
X154432000Y-86552000D01*
X154432000Y-86572000D01*
X154178000Y-86572000D01*
X154178000Y-86552000D01*
X154158000Y-86552000D01*
X154158000Y-86298000D01*
X154178000Y-86298000D01*
X154178000Y-84973750D01*
X154432000Y-84973750D01*
X154432000Y-86298000D01*
X155081250Y-86298000D01*
X155240000Y-86139250D01*
X155243072Y-85450000D01*
X155230812Y-85325518D01*
X155194502Y-85205820D01*
X155135537Y-85095506D01*
X155056185Y-84998815D01*
X154959494Y-84919463D01*
X154849180Y-84860498D01*
X154729482Y-84824188D01*
X154605000Y-84811928D01*
X154590750Y-84815000D01*
X154432000Y-84973750D01*
X154178000Y-84973750D01*
X154019250Y-84815000D01*
X154005000Y-84811928D01*
X153880518Y-84824188D01*
X153760820Y-84860498D01*
X153650506Y-84919463D01*
X153620936Y-84943730D01*
X153486582Y-84871916D01*
X153338745Y-84827071D01*
X153185000Y-84811928D01*
X152885000Y-84811928D01*
X152731255Y-84827071D01*
X152583418Y-84871916D01*
X152552400Y-84888496D01*
X152552400Y-82358632D01*
X152625518Y-82380812D01*
X152750000Y-82393072D01*
X152901750Y-82390000D01*
X153060500Y-82231250D01*
X153060500Y-81407000D01*
X153314500Y-81407000D01*
X153314500Y-82231250D01*
X153473250Y-82390000D01*
X153625000Y-82393072D01*
X153749482Y-82380812D01*
X153869180Y-82344502D01*
X153979494Y-82285537D01*
X154076185Y-82206185D01*
X154155537Y-82109494D01*
X154214502Y-81999180D01*
X154250812Y-81879482D01*
X154263072Y-81755000D01*
X154260000Y-81565750D01*
X154101250Y-81407000D01*
X153314500Y-81407000D01*
X153060500Y-81407000D01*
X153040500Y-81407000D01*
X153040500Y-81153000D01*
X153060500Y-81153000D01*
X153060500Y-80328750D01*
X153314500Y-80328750D01*
X153314500Y-81153000D01*
X154101250Y-81153000D01*
X154260000Y-80994250D01*
X154263072Y-80805000D01*
X154250812Y-80680518D01*
X154214502Y-80560820D01*
X154155537Y-80450506D01*
X154076185Y-80353815D01*
X153979494Y-80274463D01*
X153869180Y-80215498D01*
X153749482Y-80179188D01*
X153625000Y-80166928D01*
X153473250Y-80170000D01*
X153314500Y-80328750D01*
X153060500Y-80328750D01*
X152901750Y-80170000D01*
X152750000Y-80166928D01*
X152625518Y-80179188D01*
X152505820Y-80215498D01*
X152399900Y-80272114D01*
X152399900Y-79747886D01*
X152505820Y-79804502D01*
X152625518Y-79840812D01*
X152750000Y-79853072D01*
X152901750Y-79850000D01*
X153060500Y-79691250D01*
X153060500Y-78867000D01*
X153314500Y-78867000D01*
X153314500Y-79691250D01*
X153473250Y-79850000D01*
X153625000Y-79853072D01*
X153749482Y-79840812D01*
X153869180Y-79804502D01*
X153979494Y-79745537D01*
X154076185Y-79666185D01*
X154155537Y-79569494D01*
X154214502Y-79459180D01*
X154250812Y-79339482D01*
X154263072Y-79215000D01*
X154260000Y-79025750D01*
X154101250Y-78867000D01*
X153314500Y-78867000D01*
X153060500Y-78867000D01*
X153040500Y-78867000D01*
X153040500Y-78613000D01*
X153060500Y-78613000D01*
X153060500Y-77788750D01*
X153314500Y-77788750D01*
X153314500Y-78613000D01*
X154101250Y-78613000D01*
X154260000Y-78454250D01*
X154263072Y-78265000D01*
X154250812Y-78140518D01*
X154214502Y-78020820D01*
X154155537Y-77910506D01*
X154076185Y-77813815D01*
X153979494Y-77734463D01*
X153869180Y-77675498D01*
X153749482Y-77639188D01*
X153625000Y-77626928D01*
X153473250Y-77630000D01*
X153314500Y-77788750D01*
X153060500Y-77788750D01*
X152901750Y-77630000D01*
X152750000Y-77626928D01*
X152625518Y-77639188D01*
X152505820Y-77675498D01*
X152395506Y-77734463D01*
X152374435Y-77751756D01*
X152343482Y-77649717D01*
X152270366Y-77512928D01*
X152171969Y-77393031D01*
X152141922Y-77368372D01*
X151984984Y-77211434D01*
X151984836Y-77210688D01*
X151917821Y-77048901D01*
X151820531Y-76903296D01*
X151696704Y-76779469D01*
X151551099Y-76682179D01*
X151389312Y-76615164D01*
X151217559Y-76581000D01*
X151042441Y-76581000D01*
X150870688Y-76615164D01*
X150708901Y-76682179D01*
X150563296Y-76779469D01*
X150439469Y-76903296D01*
X150342179Y-77048901D01*
X150275164Y-77210688D01*
X150241000Y-77382441D01*
X150241000Y-77557559D01*
X150275164Y-77729312D01*
X150342179Y-77891099D01*
X150439469Y-78036704D01*
X150563296Y-78160531D01*
X150594423Y-78181330D01*
X150553392Y-78316592D01*
X150536928Y-78483750D01*
X150536928Y-78996250D01*
X150553392Y-79163408D01*
X150602150Y-79324142D01*
X150681329Y-79472275D01*
X150787885Y-79602115D01*
X150825100Y-79632657D01*
X150825101Y-80387343D01*
X150787885Y-80417885D01*
X150681329Y-80547725D01*
X150602150Y-80695858D01*
X150553392Y-80856592D01*
X150536928Y-81023750D01*
X150536928Y-81536250D01*
X150553392Y-81703408D01*
X150602150Y-81864142D01*
X150681329Y-82012275D01*
X150787885Y-82142115D01*
X150917725Y-82248671D01*
X150977600Y-82280675D01*
X150977601Y-83298818D01*
X150977600Y-83298828D01*
X150977601Y-84888496D01*
X150946582Y-84871916D01*
X150798745Y-84827071D01*
X150645000Y-84811928D01*
X150345000Y-84811928D01*
X150191255Y-84827071D01*
X150052663Y-84869112D01*
X147413697Y-82230147D01*
X147389038Y-82200100D01*
X147269141Y-82101703D01*
X147132352Y-82028587D01*
X146983926Y-81983563D01*
X146868242Y-81972169D01*
X146868232Y-81972169D01*
X146829569Y-81968361D01*
X146790906Y-81972169D01*
X128581594Y-81972169D01*
X128542931Y-81968361D01*
X128504268Y-81972169D01*
X128504258Y-81972169D01*
X128388574Y-81983563D01*
X128286116Y-82014643D01*
X128240148Y-82028587D01*
X128103358Y-82101703D01*
X128054117Y-82142115D01*
X127983462Y-82200100D01*
X127958808Y-82230141D01*
X127482021Y-82706928D01*
X127263750Y-82706928D01*
X127096592Y-82723392D01*
X126935858Y-82772150D01*
X126787725Y-82851329D01*
X126657885Y-82957885D01*
X126551329Y-83087725D01*
X126472150Y-83235858D01*
X126423392Y-83396592D01*
X126406928Y-83563750D01*
X126406928Y-84076250D01*
X126423392Y-84243408D01*
X126472150Y-84404142D01*
X126551329Y-84552275D01*
X126657885Y-84682115D01*
X126695100Y-84712656D01*
X126695100Y-85467344D01*
X126657885Y-85497885D01*
X126551329Y-85627725D01*
X126472150Y-85775858D01*
X126423392Y-85936592D01*
X126406928Y-86103750D01*
X126406928Y-86616250D01*
X126423392Y-86783408D01*
X126472150Y-86944142D01*
X126551329Y-87092275D01*
X126657885Y-87222115D01*
X126695100Y-87252657D01*
X126695100Y-88007343D01*
X126657885Y-88037885D01*
X126551329Y-88167725D01*
X126472150Y-88315858D01*
X126423392Y-88476592D01*
X126406928Y-88643750D01*
X126406928Y-89156250D01*
X126423392Y-89323408D01*
X126472150Y-89484142D01*
X126551329Y-89632275D01*
X126657885Y-89762115D01*
X126695101Y-89792657D01*
X126695101Y-90547343D01*
X126657885Y-90577885D01*
X126551329Y-90707725D01*
X126472150Y-90855858D01*
X126423392Y-91016592D01*
X126406928Y-91183750D01*
X126406928Y-91696250D01*
X126423392Y-91863408D01*
X126472150Y-92024142D01*
X126551329Y-92172275D01*
X126657885Y-92302115D01*
X126695101Y-92332657D01*
X126695101Y-93087343D01*
X126657885Y-93117885D01*
X126551329Y-93247725D01*
X126472150Y-93395858D01*
X126423392Y-93556592D01*
X126406928Y-93723750D01*
X126406928Y-94236250D01*
X126423392Y-94403408D01*
X126472150Y-94564142D01*
X126551329Y-94712275D01*
X126657885Y-94842115D01*
X126787725Y-94948671D01*
X126935858Y-95027850D01*
X127096592Y-95076608D01*
X127263750Y-95093072D01*
X127701250Y-95093072D01*
X127868408Y-95076608D01*
X128029142Y-95027850D01*
X128177275Y-94948671D01*
X128270000Y-94872574D01*
X128362725Y-94948671D01*
X128510858Y-95027850D01*
X128671592Y-95076608D01*
X128838750Y-95093072D01*
X129276250Y-95093072D01*
X129443408Y-95076608D01*
X129604142Y-95027850D01*
X129752275Y-94948671D01*
X129882115Y-94842115D01*
X129943431Y-94767400D01*
X137121337Y-94767400D01*
X137160000Y-94771208D01*
X137198663Y-94767400D01*
X137198673Y-94767400D01*
X137314357Y-94756006D01*
X137462783Y-94710982D01*
X137599572Y-94637866D01*
X137719469Y-94539469D01*
X137744127Y-94509423D01*
X138262596Y-93990954D01*
X138303045Y-93999000D01*
X138556955Y-93999000D01*
X138805987Y-93949465D01*
X139040570Y-93852297D01*
X139251690Y-93711232D01*
X139431232Y-93531690D01*
X139572297Y-93320570D01*
X139669465Y-93085987D01*
X139700000Y-92932476D01*
X139730535Y-93085987D01*
X139827703Y-93320570D01*
X139968768Y-93531690D01*
X140148310Y-93711232D01*
X140359430Y-93852297D01*
X140594013Y-93949465D01*
X140843045Y-93999000D01*
X141096955Y-93999000D01*
X141345987Y-93949465D01*
X141580570Y-93852297D01*
X141791690Y-93711232D01*
X141971232Y-93531690D01*
X142112297Y-93320570D01*
X142209465Y-93085987D01*
X142240000Y-92932476D01*
X142270535Y-93085987D01*
X142367703Y-93320570D01*
X142508768Y-93531690D01*
X142688310Y-93711232D01*
X142899430Y-93852297D01*
X143134013Y-93949465D01*
X143383045Y-93999000D01*
X143636955Y-93999000D01*
X143885987Y-93949465D01*
X144120570Y-93852297D01*
X144331690Y-93711232D01*
X144511232Y-93531690D01*
X144652297Y-93320570D01*
X144749465Y-93085987D01*
X144799000Y-92836955D01*
X144799000Y-92583045D01*
X144749465Y-92334013D01*
X144652297Y-92099430D01*
X144511232Y-91888310D01*
X144331690Y-91708768D01*
X144120570Y-91567703D01*
X143885987Y-91470535D01*
X143636955Y-91421000D01*
X143383045Y-91421000D01*
X143134013Y-91470535D01*
X142899430Y-91567703D01*
X142688310Y-91708768D01*
X142508768Y-91888310D01*
X142367703Y-92099430D01*
X142270535Y-92334013D01*
X142240000Y-92487524D01*
X142209465Y-92334013D01*
X142112297Y-92099430D01*
X141971232Y-91888310D01*
X141791690Y-91708768D01*
X141580570Y-91567703D01*
X141345987Y-91470535D01*
X141096955Y-91421000D01*
X140843045Y-91421000D01*
X140594013Y-91470535D01*
X140359430Y-91567703D01*
X140148310Y-91708768D01*
X139968768Y-91888310D01*
X139827703Y-92099430D01*
X139730535Y-92334013D01*
X139700000Y-92487524D01*
X139669465Y-92334013D01*
X139572297Y-92099430D01*
X139431232Y-91888310D01*
X139251690Y-91708768D01*
X139040570Y-91567703D01*
X138805987Y-91470535D01*
X138556955Y-91421000D01*
X138303045Y-91421000D01*
X138054013Y-91470535D01*
X137819430Y-91567703D01*
X137608310Y-91708768D01*
X137428768Y-91888310D01*
X137287703Y-92099430D01*
X137190535Y-92334013D01*
X137160000Y-92487524D01*
X137129465Y-92334013D01*
X137032297Y-92099430D01*
X136891232Y-91888310D01*
X136711690Y-91708768D01*
X136500570Y-91567703D01*
X136265987Y-91470535D01*
X136016955Y-91421000D01*
X135763045Y-91421000D01*
X135514013Y-91470535D01*
X135279430Y-91567703D01*
X135068310Y-91708768D01*
X134888768Y-91888310D01*
X134780998Y-92049600D01*
X130780652Y-92049600D01*
X130133072Y-91402021D01*
X130133072Y-91183750D01*
X130116608Y-91016592D01*
X130067850Y-90855858D01*
X129988671Y-90707725D01*
X129882115Y-90577885D01*
X129752275Y-90471329D01*
X129604142Y-90392150D01*
X129443408Y-90343392D01*
X129276250Y-90326928D01*
X128838750Y-90326928D01*
X128671592Y-90343392D01*
X128510858Y-90392150D01*
X128362725Y-90471329D01*
X128270000Y-90547426D01*
X128269900Y-90547344D01*
X128269900Y-89792656D01*
X128270000Y-89792574D01*
X128362725Y-89868671D01*
X128510858Y-89947850D01*
X128671592Y-89996608D01*
X128838750Y-90013072D01*
X129276250Y-90013072D01*
X129443408Y-89996608D01*
X129604142Y-89947850D01*
X129752275Y-89868671D01*
X129882115Y-89762115D01*
X129943431Y-89687400D01*
X143090337Y-89687400D01*
X143129000Y-89691208D01*
X143167663Y-89687400D01*
X143167673Y-89687400D01*
X143283357Y-89676006D01*
X143329529Y-89662000D01*
X143343559Y-89662000D01*
X143515312Y-89627836D01*
X143677099Y-89560821D01*
X143822704Y-89463531D01*
X143946531Y-89339704D01*
X144043821Y-89194099D01*
X144110836Y-89032312D01*
X144145000Y-88860559D01*
X144145000Y-88685441D01*
X144110836Y-88513688D01*
X144043821Y-88351901D01*
X143946531Y-88206296D01*
X143822704Y-88082469D01*
X143677099Y-87985179D01*
X143515312Y-87918164D01*
X143343559Y-87884000D01*
X143168441Y-87884000D01*
X142996688Y-87918164D01*
X142834901Y-87985179D01*
X142689296Y-88082469D01*
X142659165Y-88112600D01*
X129943431Y-88112600D01*
X129882115Y-88037885D01*
X129752275Y-87931329D01*
X129604142Y-87852150D01*
X129443408Y-87803392D01*
X129276250Y-87786928D01*
X128838750Y-87786928D01*
X128671592Y-87803392D01*
X128510858Y-87852150D01*
X128362725Y-87931329D01*
X128270000Y-88007426D01*
X128269900Y-88007344D01*
X128269900Y-87252656D01*
X128270000Y-87252574D01*
X128362725Y-87328671D01*
X128510858Y-87407850D01*
X128671592Y-87456608D01*
X128838750Y-87473072D01*
X129276250Y-87473072D01*
X129289602Y-87471757D01*
X129349038Y-87477611D01*
X129349048Y-87477611D01*
X129387711Y-87481419D01*
X129426374Y-87477611D01*
X139331126Y-87477611D01*
X139369789Y-87481419D01*
X139408452Y-87477611D01*
X139408462Y-87477611D01*
X139524146Y-87466217D01*
X139672572Y-87421193D01*
X139809361Y-87348077D01*
X139929258Y-87249680D01*
X139953916Y-87219634D01*
X140802597Y-86370954D01*
X140843045Y-86379000D01*
X141096955Y-86379000D01*
X141345987Y-86329465D01*
X141580570Y-86232297D01*
X141791690Y-86091232D01*
X141971232Y-85911690D01*
X142112297Y-85700570D01*
X142209465Y-85465987D01*
X142240000Y-85312476D01*
X142270535Y-85465987D01*
X142367703Y-85700570D01*
X142508768Y-85911690D01*
X142688310Y-86091232D01*
X142899430Y-86232297D01*
X143134013Y-86329465D01*
X143383045Y-86379000D01*
X143636955Y-86379000D01*
X143885987Y-86329465D01*
X144120570Y-86232297D01*
X144331690Y-86091232D01*
X144511232Y-85911690D01*
X144652297Y-85700570D01*
X144749465Y-85465987D01*
X144799000Y-85216955D01*
X144799000Y-84963045D01*
X144749465Y-84714013D01*
X144652297Y-84479430D01*
X144511232Y-84268310D01*
X144342322Y-84099400D01*
X145596850Y-84099400D01*
X148310600Y-86813151D01*
X148310601Y-90639327D01*
X148306792Y-90678000D01*
X148321995Y-90832357D01*
X148367018Y-90980782D01*
X148420281Y-91080429D01*
X148440135Y-91117572D01*
X148538532Y-91237469D01*
X148568573Y-91262123D01*
X149210876Y-91904427D01*
X149235531Y-91934469D01*
X149265570Y-91959121D01*
X149355427Y-92032866D01*
X149391477Y-92052135D01*
X149492217Y-92105982D01*
X149556928Y-92125612D01*
X149556928Y-92200000D01*
X149572071Y-92353745D01*
X149616916Y-92501582D01*
X149689742Y-92637829D01*
X149787749Y-92757251D01*
X149907171Y-92855258D01*
X150043418Y-92928084D01*
X150191255Y-92972929D01*
X150345000Y-92988072D01*
X150645000Y-92988072D01*
X150798745Y-92972929D01*
X150946582Y-92928084D01*
X150977601Y-92911504D01*
X150977600Y-94288848D01*
X145114088Y-100152362D01*
X144926260Y-100115000D01*
X144633740Y-100115000D01*
X144346842Y-100172068D01*
X144076589Y-100284010D01*
X143833368Y-100446525D01*
X143626525Y-100653368D01*
X143520130Y-100812600D01*
X143499870Y-100812600D01*
X143393475Y-100653368D01*
X143186632Y-100446525D01*
X142943411Y-100284010D01*
X142673158Y-100172068D01*
X142386260Y-100115000D01*
X142093740Y-100115000D01*
X141806842Y-100172068D01*
X141536589Y-100284010D01*
X141293368Y-100446525D01*
X141086525Y-100653368D01*
X140980130Y-100812600D01*
X130755152Y-100812600D01*
X120868072Y-90925522D01*
X120868072Y-89320000D01*
X120855812Y-89195518D01*
X120819502Y-89075820D01*
X120760537Y-88965506D01*
X120681185Y-88868815D01*
X120584494Y-88789463D01*
X120474180Y-88730498D01*
X120401620Y-88708487D01*
X120533475Y-88576632D01*
X120695990Y-88333411D01*
X120807932Y-88063158D01*
X120865000Y-87776260D01*
X120865000Y-87483740D01*
X120827638Y-87295912D01*
X131136151Y-76987400D01*
X140980130Y-76987400D01*
X141086525Y-77146632D01*
X141293368Y-77353475D01*
X141536589Y-77515990D01*
X141806842Y-77627932D01*
X142093740Y-77685000D01*
X142386260Y-77685000D01*
X142673158Y-77627932D01*
X142943411Y-77515990D01*
X143186632Y-77353475D01*
X143393475Y-77146632D01*
X143499870Y-76987400D01*
X143520130Y-76987400D01*
X143626525Y-77146632D01*
X143833368Y-77353475D01*
X144076589Y-77515990D01*
X144346842Y-77627932D01*
X144633740Y-77685000D01*
X144926260Y-77685000D01*
X145213158Y-77627932D01*
X145483411Y-77515990D01*
X145726632Y-77353475D01*
X145933475Y-77146632D01*
X146095990Y-76903411D01*
X146207932Y-76633158D01*
X146265000Y-76346260D01*
X146265000Y-76053740D01*
X146207932Y-75766842D01*
X146095990Y-75496589D01*
X145933475Y-75253368D01*
X145726632Y-75046525D01*
X145552240Y-74930000D01*
X145726632Y-74813475D01*
X145933475Y-74606632D01*
X146095990Y-74363411D01*
X146207932Y-74093158D01*
X146265000Y-73806260D01*
X146265000Y-73513740D01*
X146227639Y-73325913D01*
X146579433Y-72974119D01*
X146609469Y-72949469D01*
X146634123Y-72919429D01*
X146707865Y-72829573D01*
X146718328Y-72810000D01*
X146780982Y-72692783D01*
X146826006Y-72544357D01*
X146837400Y-72428673D01*
X146837400Y-72428664D01*
X146841208Y-72390001D01*
X146837400Y-72351338D01*
X146837400Y-70253431D01*
X146912115Y-70192115D01*
X147018671Y-70062275D01*
X147097850Y-69914142D01*
X147146608Y-69753408D01*
X147163072Y-69586250D01*
X147163072Y-69148750D01*
X147146608Y-68981592D01*
X147097850Y-68820858D01*
X147018671Y-68672725D01*
X147000900Y-68651070D01*
X147055537Y-68584494D01*
X147114502Y-68474180D01*
X147150812Y-68354482D01*
X147163072Y-68230000D01*
X147160000Y-68078250D01*
X147001250Y-67919500D01*
X146177000Y-67919500D01*
X146177000Y-67939500D01*
X145923000Y-67939500D01*
X145923000Y-67919500D01*
X145098750Y-67919500D01*
X144940000Y-68078250D01*
X144936928Y-68230000D01*
X144949188Y-68354482D01*
X144985498Y-68474180D01*
X145044463Y-68584494D01*
X145099100Y-68651070D01*
X145081329Y-68672725D01*
X145002150Y-68820858D01*
X144953392Y-68981592D01*
X144936928Y-69148750D01*
X144936928Y-69586250D01*
X144953392Y-69753408D01*
X145002150Y-69914142D01*
X145081329Y-70062275D01*
X145187885Y-70192115D01*
X145262600Y-70253432D01*
X145262601Y-72063848D01*
X145114087Y-72212361D01*
X144926260Y-72175000D01*
X144633740Y-72175000D01*
X144346842Y-72232068D01*
X144076589Y-72344010D01*
X143833368Y-72506525D01*
X143701513Y-72638380D01*
X143679502Y-72565820D01*
X143620537Y-72455506D01*
X143541185Y-72358815D01*
X143444494Y-72279463D01*
X143334180Y-72220498D01*
X143214482Y-72184188D01*
X143090000Y-72171928D01*
X141865479Y-72171928D01*
X141757400Y-72063850D01*
X141757400Y-70253431D01*
X141832115Y-70192115D01*
X141938671Y-70062275D01*
X142017850Y-69914142D01*
X142066608Y-69753408D01*
X142083072Y-69586250D01*
X142083072Y-69148750D01*
X142066608Y-68981592D01*
X142017850Y-68820858D01*
X141938671Y-68672725D01*
X141920900Y-68651070D01*
X141975537Y-68584494D01*
X142034502Y-68474180D01*
X142070812Y-68354482D01*
X142083072Y-68230000D01*
X142080000Y-68078250D01*
X141921250Y-67919500D01*
X141097000Y-67919500D01*
X141097000Y-67939500D01*
X140843000Y-67939500D01*
X140843000Y-67919500D01*
X140018750Y-67919500D01*
X139860000Y-68078250D01*
X139856928Y-68230000D01*
X139869188Y-68354482D01*
X139905498Y-68474180D01*
X139964463Y-68584494D01*
X140019100Y-68651070D01*
X140001329Y-68672725D01*
X139922150Y-68820858D01*
X139873392Y-68981592D01*
X139856928Y-69148750D01*
X139856928Y-69586250D01*
X139873392Y-69753408D01*
X139922150Y-69914142D01*
X140001329Y-70062275D01*
X140107885Y-70192115D01*
X140182600Y-70253432D01*
X140182601Y-72351327D01*
X140178792Y-72390000D01*
X140193995Y-72544357D01*
X140239018Y-72692782D01*
X140239019Y-72692783D01*
X140312135Y-72829572D01*
X140410532Y-72949469D01*
X140440573Y-72974123D01*
X140751928Y-73285479D01*
X140751928Y-74510000D01*
X140764188Y-74634482D01*
X140800498Y-74754180D01*
X140859463Y-74864494D01*
X140938815Y-74961185D01*
X141035506Y-75040537D01*
X141145820Y-75099502D01*
X141218380Y-75121513D01*
X141086525Y-75253368D01*
X140980130Y-75412600D01*
X130848662Y-75412600D01*
X130809999Y-75408792D01*
X130771336Y-75412600D01*
X130771327Y-75412600D01*
X130655643Y-75423994D01*
X130507217Y-75469018D01*
X130370428Y-75542134D01*
X130250531Y-75640531D01*
X130225877Y-75670572D01*
X119714088Y-86182362D01*
X119526260Y-86145000D01*
X119233740Y-86145000D01*
X118946842Y-86202068D01*
X118676589Y-86314010D01*
X118433368Y-86476525D01*
X118226525Y-86683368D01*
X118064010Y-86926589D01*
X117952068Y-87196842D01*
X117895000Y-87483740D01*
X117895000Y-87776260D01*
X117952068Y-88063158D01*
X118064010Y-88333411D01*
X118226525Y-88576632D01*
X118358380Y-88708487D01*
X118285820Y-88730498D01*
X118175506Y-88789463D01*
X118078815Y-88868815D01*
X117999463Y-88965506D01*
X117940498Y-89075820D01*
X117904188Y-89195518D01*
X117891928Y-89320000D01*
X117891928Y-91020000D01*
X117904188Y-91144482D01*
X117940498Y-91264180D01*
X117999463Y-91374494D01*
X118078815Y-91471185D01*
X118175506Y-91550537D01*
X118285820Y-91609502D01*
X118405518Y-91645812D01*
X118530000Y-91658072D01*
X119373522Y-91658072D01*
X129844881Y-102129433D01*
X129869531Y-102159469D01*
X129899567Y-102184119D01*
X129899570Y-102184122D01*
X129976251Y-102247052D01*
X129989428Y-102257866D01*
X130126217Y-102330982D01*
X130274643Y-102376006D01*
X130390327Y-102387400D01*
X130390335Y-102387400D01*
X130429000Y-102391208D01*
X130467665Y-102387400D01*
X140980130Y-102387400D01*
X141086525Y-102546632D01*
X141293368Y-102753475D01*
X141467760Y-102870000D01*
X141293368Y-102986525D01*
X141086525Y-103193368D01*
X140924010Y-103436589D01*
X140812068Y-103706842D01*
X140755000Y-103993740D01*
X140755000Y-104286260D01*
X140792362Y-104474088D01*
X140440573Y-104825877D01*
X140410532Y-104850531D01*
X140385879Y-104880571D01*
X140312135Y-104970428D01*
X140239018Y-105107218D01*
X140193995Y-105255643D01*
X140178792Y-105410000D01*
X140182601Y-105448673D01*
X140182600Y-108816568D01*
X140107885Y-108877885D01*
X140001329Y-109007725D01*
X139922150Y-109155858D01*
X139873392Y-109316592D01*
X139856928Y-109483750D01*
X139856928Y-109921250D01*
X139873392Y-110088408D01*
X139922150Y-110249142D01*
X140001329Y-110397275D01*
X140019100Y-110418930D01*
X139964463Y-110485506D01*
X139905498Y-110595820D01*
X139869188Y-110715518D01*
X139856928Y-110840000D01*
X139860000Y-110991750D01*
X140018750Y-111150500D01*
X140843000Y-111150500D01*
X140843000Y-111130500D01*
X141097000Y-111130500D01*
X141097000Y-111150500D01*
X141921250Y-111150500D01*
X142080000Y-110991750D01*
X142083072Y-110840000D01*
X142070812Y-110715518D01*
X142034502Y-110595820D01*
X141975537Y-110485506D01*
X141920900Y-110418930D01*
X141938671Y-110397275D01*
X142017850Y-110249142D01*
X142066608Y-110088408D01*
X142083072Y-109921250D01*
X142083072Y-109483750D01*
X142066608Y-109316592D01*
X142017850Y-109155858D01*
X141938671Y-109007725D01*
X141832115Y-108877885D01*
X141757400Y-108816569D01*
X141757400Y-105736150D01*
X141905912Y-105587638D01*
X142093740Y-105625000D01*
X142386260Y-105625000D01*
X142673158Y-105567932D01*
X142943411Y-105455990D01*
X143186632Y-105293475D01*
X143318487Y-105161620D01*
X143340498Y-105234180D01*
X143399463Y-105344494D01*
X143478815Y-105441185D01*
X143575506Y-105520537D01*
X143685820Y-105579502D01*
X143805518Y-105615812D01*
X143930000Y-105628072D01*
X145154521Y-105628072D01*
X145262601Y-105736153D01*
X145262600Y-108816568D01*
X145187885Y-108877885D01*
X145081329Y-109007725D01*
X145002150Y-109155858D01*
X144953392Y-109316592D01*
X144936928Y-109483750D01*
X144936928Y-109921250D01*
X144953392Y-110088408D01*
X145002150Y-110249142D01*
X145081329Y-110397275D01*
X145099100Y-110418930D01*
X145044463Y-110485506D01*
X144985498Y-110595820D01*
X144949188Y-110715518D01*
X144936928Y-110840000D01*
X144940000Y-110991750D01*
X145098750Y-111150500D01*
X145923000Y-111150500D01*
X145923000Y-111130500D01*
X146177000Y-111130500D01*
X146177000Y-111150500D01*
X147001250Y-111150500D01*
X147160000Y-110991750D01*
X147163072Y-110840000D01*
X147150812Y-110715518D01*
X147114502Y-110595820D01*
X147055537Y-110485506D01*
X147000900Y-110418930D01*
X147018671Y-110397275D01*
X147097850Y-110249142D01*
X147146608Y-110088408D01*
X147163072Y-109921250D01*
X147163072Y-109483750D01*
X147146608Y-109316592D01*
X147097850Y-109155858D01*
X147018671Y-109007725D01*
X146912115Y-108877885D01*
X146837400Y-108816569D01*
X146837400Y-105448662D01*
X146841208Y-105409999D01*
X146837400Y-105371336D01*
X146837400Y-105371327D01*
X146826006Y-105255643D01*
X146780982Y-105107217D01*
X146707866Y-104970428D01*
X146686222Y-104944055D01*
X146634121Y-104880569D01*
X146634119Y-104880567D01*
X146609469Y-104850531D01*
X146579433Y-104825881D01*
X146268072Y-104514521D01*
X146268072Y-103290000D01*
X146255812Y-103165518D01*
X146219502Y-103045820D01*
X146160537Y-102935506D01*
X146081185Y-102838815D01*
X145984494Y-102759463D01*
X145874180Y-102700498D01*
X145801620Y-102678487D01*
X145933475Y-102546632D01*
X146095990Y-102303411D01*
X146207932Y-102033158D01*
X146265000Y-101746260D01*
X146265000Y-101453740D01*
X146227638Y-101265912D01*
X147958550Y-99535000D01*
X150536928Y-99535000D01*
X150549188Y-99659482D01*
X150585498Y-99779180D01*
X150644463Y-99889494D01*
X150723815Y-99986185D01*
X150820506Y-100065537D01*
X150930820Y-100124502D01*
X151050518Y-100160812D01*
X151175000Y-100173072D01*
X151326750Y-100170000D01*
X151485500Y-100011250D01*
X151485500Y-99187000D01*
X150698750Y-99187000D01*
X150540000Y-99345750D01*
X150536928Y-99535000D01*
X147958550Y-99535000D01*
X148908550Y-98585000D01*
X150536928Y-98585000D01*
X150540000Y-98774250D01*
X150698750Y-98933000D01*
X151485500Y-98933000D01*
X151485500Y-98108750D01*
X151326750Y-97950000D01*
X151175000Y-97946928D01*
X151050518Y-97959188D01*
X150930820Y-97995498D01*
X150820506Y-98054463D01*
X150723815Y-98133815D01*
X150644463Y-98230506D01*
X150585498Y-98340820D01*
X150549188Y-98460518D01*
X150536928Y-98585000D01*
X148908550Y-98585000D01*
X150537561Y-96955990D01*
X150536928Y-96995000D01*
X150549188Y-97119482D01*
X150585498Y-97239180D01*
X150644463Y-97349494D01*
X150723815Y-97446185D01*
X150820506Y-97525537D01*
X150930820Y-97584502D01*
X151050518Y-97620812D01*
X151175000Y-97633072D01*
X151326750Y-97630000D01*
X151485500Y-97471250D01*
X151485500Y-96647000D01*
X151465500Y-96647000D01*
X151465500Y-96393000D01*
X151485500Y-96393000D01*
X151485500Y-96373000D01*
X151739500Y-96373000D01*
X151739500Y-96393000D01*
X151759500Y-96393000D01*
X151759500Y-96647000D01*
X151739500Y-96647000D01*
X151739500Y-97471250D01*
X151898250Y-97630000D01*
X152050000Y-97633072D01*
X152174482Y-97620812D01*
X152294180Y-97584502D01*
X152400101Y-97527885D01*
X152400100Y-98052115D01*
X152294180Y-97995498D01*
X152174482Y-97959188D01*
X152050000Y-97946928D01*
X151898250Y-97950000D01*
X151739500Y-98108750D01*
X151739500Y-98933000D01*
X151759500Y-98933000D01*
X151759500Y-99187000D01*
X151739500Y-99187000D01*
X151739500Y-100011250D01*
X151898250Y-100170000D01*
X152050000Y-100173072D01*
X152174482Y-100160812D01*
X152294180Y-100124502D01*
X152404494Y-100065537D01*
X152425566Y-100048244D01*
X152438031Y-100089338D01*
X152456518Y-100150282D01*
X152485422Y-100204357D01*
X152529635Y-100287072D01*
X152628032Y-100406969D01*
X152658072Y-100431623D01*
X153136600Y-100910151D01*
X153136601Y-109401847D01*
X148771850Y-113766600D01*
X127707152Y-113766600D01*
X125655552Y-111715000D01*
X139856928Y-111715000D01*
X139869188Y-111839482D01*
X139905498Y-111959180D01*
X139964463Y-112069494D01*
X140043815Y-112166185D01*
X140140506Y-112245537D01*
X140250820Y-112304502D01*
X140370518Y-112340812D01*
X140495000Y-112353072D01*
X140684250Y-112350000D01*
X140843000Y-112191250D01*
X140843000Y-111404500D01*
X141097000Y-111404500D01*
X141097000Y-112191250D01*
X141255750Y-112350000D01*
X141445000Y-112353072D01*
X141569482Y-112340812D01*
X141689180Y-112304502D01*
X141799494Y-112245537D01*
X141896185Y-112166185D01*
X141975537Y-112069494D01*
X142034502Y-111959180D01*
X142070812Y-111839482D01*
X142083072Y-111715000D01*
X144936928Y-111715000D01*
X144949188Y-111839482D01*
X144985498Y-111959180D01*
X145044463Y-112069494D01*
X145123815Y-112166185D01*
X145220506Y-112245537D01*
X145330820Y-112304502D01*
X145450518Y-112340812D01*
X145575000Y-112353072D01*
X145764250Y-112350000D01*
X145923000Y-112191250D01*
X145923000Y-111404500D01*
X146177000Y-111404500D01*
X146177000Y-112191250D01*
X146335750Y-112350000D01*
X146525000Y-112353072D01*
X146649482Y-112340812D01*
X146769180Y-112304502D01*
X146879494Y-112245537D01*
X146976185Y-112166185D01*
X147055537Y-112069494D01*
X147114502Y-111959180D01*
X147150812Y-111839482D01*
X147163072Y-111715000D01*
X147160000Y-111563250D01*
X147001250Y-111404500D01*
X146177000Y-111404500D01*
X145923000Y-111404500D01*
X145098750Y-111404500D01*
X144940000Y-111563250D01*
X144936928Y-111715000D01*
X142083072Y-111715000D01*
X142080000Y-111563250D01*
X141921250Y-111404500D01*
X141097000Y-111404500D01*
X140843000Y-111404500D01*
X140018750Y-111404500D01*
X139860000Y-111563250D01*
X139856928Y-111715000D01*
X125655552Y-111715000D01*
X121361128Y-107420578D01*
X121336469Y-107390531D01*
X121216572Y-107292134D01*
X121079783Y-107219018D01*
X120931357Y-107173994D01*
X120815673Y-107162600D01*
X120815663Y-107162600D01*
X120777000Y-107158792D01*
X120738337Y-107162600D01*
X120131870Y-107162600D01*
X120025475Y-107003368D01*
X119818632Y-106796525D01*
X119575411Y-106634010D01*
X119305158Y-106522068D01*
X119018260Y-106465000D01*
X118725740Y-106465000D01*
X118537913Y-106502361D01*
X111556128Y-99520578D01*
X111531469Y-99490531D01*
X111411572Y-99392134D01*
X111274783Y-99319018D01*
X111126357Y-99273994D01*
X111010673Y-99262600D01*
X111010663Y-99262600D01*
X110972000Y-99258792D01*
X110933337Y-99262600D01*
X107875013Y-99262600D01*
X107809295Y-99164246D01*
X107615754Y-98970705D01*
X107388175Y-98818641D01*
X107135302Y-98713898D01*
X106866854Y-98660500D01*
X106593146Y-98660500D01*
X106324698Y-98713898D01*
X106197400Y-98766626D01*
X106197400Y-86062742D01*
X118000428Y-74259715D01*
X118030469Y-74235061D01*
X118078835Y-74176127D01*
X118128866Y-74115165D01*
X118201982Y-73978375D01*
X118247006Y-73829950D01*
X118249339Y-73806260D01*
X118258400Y-73714265D01*
X118258400Y-73714258D01*
X118262208Y-73675592D01*
X118258400Y-73636927D01*
X118258400Y-70868072D01*
X119501000Y-70868072D01*
X119625482Y-70855812D01*
X119745180Y-70819502D01*
X119855494Y-70760537D01*
X119952185Y-70681185D01*
X120031537Y-70584494D01*
X120090502Y-70474180D01*
X120126812Y-70354482D01*
X120139072Y-70230000D01*
X120139072Y-67355000D01*
X139856928Y-67355000D01*
X139860000Y-67506750D01*
X140018750Y-67665500D01*
X140843000Y-67665500D01*
X140843000Y-66878750D01*
X141097000Y-66878750D01*
X141097000Y-67665500D01*
X141921250Y-67665500D01*
X142080000Y-67506750D01*
X142083072Y-67355000D01*
X144936928Y-67355000D01*
X144940000Y-67506750D01*
X145098750Y-67665500D01*
X145923000Y-67665500D01*
X145923000Y-66878750D01*
X146177000Y-66878750D01*
X146177000Y-67665500D01*
X147001250Y-67665500D01*
X147160000Y-67506750D01*
X147163072Y-67355000D01*
X147150812Y-67230518D01*
X147114502Y-67110820D01*
X147055537Y-67000506D01*
X146976185Y-66903815D01*
X146879494Y-66824463D01*
X146769180Y-66765498D01*
X146649482Y-66729188D01*
X146525000Y-66716928D01*
X146335750Y-66720000D01*
X146177000Y-66878750D01*
X145923000Y-66878750D01*
X145764250Y-66720000D01*
X145575000Y-66716928D01*
X145450518Y-66729188D01*
X145330820Y-66765498D01*
X145220506Y-66824463D01*
X145123815Y-66903815D01*
X145044463Y-67000506D01*
X144985498Y-67110820D01*
X144949188Y-67230518D01*
X144936928Y-67355000D01*
X142083072Y-67355000D01*
X142070812Y-67230518D01*
X142034502Y-67110820D01*
X141975537Y-67000506D01*
X141896185Y-66903815D01*
X141799494Y-66824463D01*
X141689180Y-66765498D01*
X141569482Y-66729188D01*
X141445000Y-66716928D01*
X141255750Y-66720000D01*
X141097000Y-66878750D01*
X140843000Y-66878750D01*
X140684250Y-66720000D01*
X140495000Y-66716928D01*
X140370518Y-66729188D01*
X140250820Y-66765498D01*
X140140506Y-66824463D01*
X140043815Y-66903815D01*
X139964463Y-67000506D01*
X139905498Y-67110820D01*
X139869188Y-67230518D01*
X139856928Y-67355000D01*
X120139072Y-67355000D01*
X120139072Y-66930000D01*
X120126812Y-66805518D01*
X120090502Y-66685820D01*
X120031537Y-66575506D01*
X119952185Y-66478815D01*
X119855494Y-66399463D01*
X119745180Y-66340498D01*
X119625482Y-66304188D01*
X119501000Y-66291928D01*
X115441000Y-66291928D01*
X115316518Y-66304188D01*
X115196820Y-66340498D01*
X115086506Y-66399463D01*
X114989815Y-66478815D01*
X114910463Y-66575506D01*
X114851498Y-66685820D01*
X114815188Y-66805518D01*
X114802928Y-66930000D01*
X114802928Y-70230000D01*
X114815188Y-70354482D01*
X114851498Y-70474180D01*
X114910463Y-70584494D01*
X114989815Y-70681185D01*
X115086506Y-70760537D01*
X115196820Y-70819502D01*
X115316518Y-70855812D01*
X115441000Y-70868072D01*
X116683600Y-70868072D01*
X116683601Y-73349440D01*
X109118400Y-80914642D01*
X109118400Y-77223072D01*
X111506000Y-77223072D01*
X111630482Y-77210812D01*
X111750180Y-77174502D01*
X111860494Y-77115537D01*
X111957185Y-77036185D01*
X112036537Y-76939494D01*
X112095502Y-76829180D01*
X112131812Y-76709482D01*
X112144072Y-76585000D01*
X112144072Y-72775000D01*
X112131812Y-72650518D01*
X112095502Y-72530820D01*
X112036537Y-72420506D01*
X111957185Y-72323815D01*
X111860494Y-72244463D01*
X111750180Y-72185498D01*
X111630482Y-72149188D01*
X111506000Y-72136928D01*
X109118400Y-72136928D01*
X109118400Y-63933072D01*
X111211000Y-63933072D01*
X111335482Y-63920812D01*
X111455180Y-63884502D01*
X111565494Y-63825537D01*
X111662185Y-63746185D01*
X111741537Y-63649494D01*
X111800502Y-63539180D01*
X111836812Y-63419482D01*
X111849072Y-63295000D01*
X111849072Y-61392750D01*
X120237928Y-61392750D01*
X120237928Y-62305250D01*
X120254872Y-62477285D01*
X120305053Y-62642709D01*
X120386542Y-62795164D01*
X120496208Y-62928792D01*
X120576101Y-62994358D01*
X120576101Y-63638312D01*
X120564928Y-63751750D01*
X120564928Y-64264250D01*
X120581392Y-64431408D01*
X120630150Y-64592142D01*
X120709329Y-64740275D01*
X120815885Y-64870115D01*
X120945725Y-64976671D01*
X121093858Y-65055850D01*
X121254592Y-65104608D01*
X121421750Y-65121072D01*
X121859250Y-65121072D01*
X122026408Y-65104608D01*
X122187142Y-65055850D01*
X122335275Y-64976671D01*
X122428000Y-64900574D01*
X122520725Y-64976671D01*
X122668858Y-65055850D01*
X122829592Y-65104608D01*
X122996750Y-65121072D01*
X123434250Y-65121072D01*
X123601408Y-65104608D01*
X123762142Y-65055850D01*
X123910275Y-64976671D01*
X124040115Y-64870115D01*
X124085310Y-64815044D01*
X124200688Y-64862836D01*
X124372441Y-64897000D01*
X124547559Y-64897000D01*
X124719312Y-64862836D01*
X124881099Y-64795821D01*
X125026704Y-64698531D01*
X125150531Y-64574704D01*
X125247821Y-64429099D01*
X125314836Y-64267312D01*
X125349000Y-64095559D01*
X125349000Y-63920441D01*
X125314836Y-63748688D01*
X125247821Y-63586901D01*
X125150531Y-63441296D01*
X125026704Y-63317469D01*
X124881099Y-63220179D01*
X124719312Y-63153164D01*
X124547559Y-63119000D01*
X124372441Y-63119000D01*
X124200688Y-63153164D01*
X124085310Y-63200956D01*
X124040115Y-63145885D01*
X124007083Y-63118777D01*
X124080494Y-63079537D01*
X124177185Y-63000185D01*
X124256537Y-62903494D01*
X124315502Y-62793180D01*
X124351812Y-62673482D01*
X124364072Y-62549000D01*
X124361000Y-62134750D01*
X124202250Y-61976000D01*
X123365500Y-61976000D01*
X123365500Y-61996000D01*
X123111500Y-61996000D01*
X123111500Y-61976000D01*
X123091500Y-61976000D01*
X123091500Y-61722000D01*
X123111500Y-61722000D01*
X123111500Y-60672750D01*
X123365500Y-60672750D01*
X123365500Y-61722000D01*
X124202250Y-61722000D01*
X124361000Y-61563250D01*
X124364072Y-61149000D01*
X124351812Y-61024518D01*
X124315502Y-60904820D01*
X124256537Y-60794506D01*
X124177185Y-60697815D01*
X124080494Y-60618463D01*
X123970180Y-60559498D01*
X123850482Y-60523188D01*
X123726000Y-60510928D01*
X123524250Y-60514000D01*
X123365500Y-60672750D01*
X123111500Y-60672750D01*
X122952750Y-60514000D01*
X122751000Y-60510928D01*
X122626518Y-60523188D01*
X122506820Y-60559498D01*
X122396506Y-60618463D01*
X122299815Y-60697815D01*
X122236008Y-60775564D01*
X122230792Y-60769208D01*
X122097164Y-60659542D01*
X121944709Y-60578053D01*
X121779285Y-60527872D01*
X121607250Y-60510928D01*
X121119750Y-60510928D01*
X120947715Y-60527872D01*
X120782291Y-60578053D01*
X120629836Y-60659542D01*
X120496208Y-60769208D01*
X120386542Y-60902836D01*
X120305053Y-61055291D01*
X120254872Y-61220715D01*
X120237928Y-61392750D01*
X111849072Y-61392750D01*
X111849072Y-59485000D01*
X111836812Y-59360518D01*
X111800502Y-59240820D01*
X111741537Y-59130506D01*
X111662185Y-59033815D01*
X111565494Y-58954463D01*
X111455180Y-58895498D01*
X111335482Y-58859188D01*
X111211000Y-58846928D01*
X105451000Y-58846928D01*
X105326518Y-58859188D01*
X105206820Y-58895498D01*
X105096506Y-58954463D01*
X104999815Y-59033815D01*
X104920463Y-59130506D01*
X104861498Y-59240820D01*
X104825188Y-59360518D01*
X104812928Y-59485000D01*
X104812928Y-63295000D01*
X104825188Y-63419482D01*
X104861498Y-63539180D01*
X104920463Y-63649494D01*
X104999815Y-63746185D01*
X105096506Y-63825537D01*
X105206820Y-63884502D01*
X105326518Y-63920812D01*
X105451000Y-63933072D01*
X107543600Y-63933072D01*
X107543601Y-72136928D01*
X105156000Y-72136928D01*
X105031518Y-72149188D01*
X104911820Y-72185498D01*
X104801506Y-72244463D01*
X104704815Y-72323815D01*
X104625463Y-72420506D01*
X104566498Y-72530820D01*
X104530188Y-72650518D01*
X104517928Y-72775000D01*
X104517928Y-76585000D01*
X104530188Y-76709482D01*
X104566498Y-76829180D01*
X104625463Y-76939494D01*
X104704815Y-77036185D01*
X104801506Y-77115537D01*
X104911820Y-77174502D01*
X105031518Y-77210812D01*
X105156000Y-77223072D01*
X107543600Y-77223072D01*
X107543601Y-81842848D01*
X104423367Y-84963083D01*
X104393320Y-84987742D01*
X104294923Y-85107640D01*
X104221807Y-85244429D01*
X104176783Y-85392855D01*
X104165389Y-85508539D01*
X104165389Y-85508548D01*
X104161581Y-85547211D01*
X102260000Y-85547211D01*
X102260000Y-58181212D01*
X219591000Y-58181212D01*
X219591000Y-58404788D01*
X219634617Y-58624067D01*
X219720176Y-58830624D01*
X219844388Y-59016520D01*
X220002480Y-59174612D01*
X220188376Y-59298824D01*
X220394933Y-59384383D01*
X220614212Y-59428000D01*
X220837788Y-59428000D01*
X221057067Y-59384383D01*
X221263624Y-59298824D01*
X221449520Y-59174612D01*
X221607612Y-59016520D01*
X221731824Y-58830624D01*
X221817383Y-58624067D01*
X221861000Y-58404788D01*
X221861000Y-58181212D01*
X221817383Y-57961933D01*
X221731824Y-57755376D01*
X221607612Y-57569480D01*
X221449520Y-57411388D01*
X221263624Y-57287176D01*
X221057067Y-57201617D01*
X220837788Y-57158000D01*
X220614212Y-57158000D01*
X220394933Y-57201617D01*
X220188376Y-57287176D01*
X220002480Y-57411388D01*
X219844388Y-57569480D01*
X219720176Y-57755376D01*
X219634617Y-57961933D01*
X219591000Y-58181212D01*
X102260000Y-58181212D01*
X102260000Y-53754872D01*
X102540000Y-53754872D01*
X102540000Y-54195128D01*
X102625890Y-54626925D01*
X102794369Y-55033669D01*
X103038962Y-55399729D01*
X103350271Y-55711038D01*
X103716331Y-55955631D01*
X104123075Y-56124110D01*
X104554872Y-56210000D01*
X104995128Y-56210000D01*
X105426925Y-56124110D01*
X105833669Y-55955631D01*
X106199729Y-55711038D01*
X106511038Y-55399729D01*
X106755631Y-55033669D01*
X106924110Y-54626925D01*
X107010000Y-54195128D01*
X107010000Y-53754872D01*
X223190000Y-53754872D01*
X223190000Y-54195128D01*
X223275890Y-54626925D01*
X223444369Y-55033669D01*
X223688962Y-55399729D01*
X224000271Y-55711038D01*
X224366331Y-55955631D01*
X224773075Y-56124110D01*
X225204872Y-56210000D01*
X225645128Y-56210000D01*
X226076925Y-56124110D01*
X226483669Y-55955631D01*
X226849729Y-55711038D01*
X227161038Y-55399729D01*
X227405631Y-55033669D01*
X227574110Y-54626925D01*
X227660000Y-54195128D01*
X227660000Y-53754872D01*
X227574110Y-53323075D01*
X227405631Y-52916331D01*
X227161038Y-52550271D01*
X226849729Y-52238962D01*
X226483669Y-51994369D01*
X226076925Y-51825890D01*
X225645128Y-51740000D01*
X225204872Y-51740000D01*
X224773075Y-51825890D01*
X224366331Y-51994369D01*
X224000271Y-52238962D01*
X223688962Y-52550271D01*
X223444369Y-52916331D01*
X223275890Y-53323075D01*
X223190000Y-53754872D01*
X107010000Y-53754872D01*
X106924110Y-53323075D01*
X106755631Y-52916331D01*
X106511038Y-52550271D01*
X106199729Y-52238962D01*
X105833669Y-51994369D01*
X105426925Y-51825890D01*
X104995128Y-51740000D01*
X104554872Y-51740000D01*
X104123075Y-51825890D01*
X103716331Y-51994369D01*
X103350271Y-52238962D01*
X103038962Y-52550271D01*
X102794369Y-52916331D01*
X102625890Y-53323075D01*
X102540000Y-53754872D01*
X102260000Y-53754872D01*
X102260000Y-53372279D01*
X102298909Y-52975455D01*
X102404780Y-52624792D01*
X102576744Y-52301375D01*
X102808254Y-52017516D01*
X103090486Y-51784035D01*
X103412695Y-51609817D01*
X103762614Y-51501498D01*
X104157443Y-51460000D01*
X226027721Y-51460000D01*
X226424545Y-51498909D01*
%TA.AperFunction,Conductor*%
D22*
G36*
X226424545Y-51498909D02*
G01*
X226775208Y-51604780D01*
X227098625Y-51776744D01*
X227382484Y-52008254D01*
X227615965Y-52290486D01*
X227790183Y-52612695D01*
X227898502Y-52962614D01*
X227940001Y-53357452D01*
X227940000Y-124427721D01*
X227901091Y-124824545D01*
X227795220Y-125175206D01*
X227623257Y-125498623D01*
X227391748Y-125782482D01*
X227109514Y-126015965D01*
X226787304Y-126190184D01*
X226437385Y-126298502D01*
X226042557Y-126340000D01*
X104172279Y-126340000D01*
X103775455Y-126301091D01*
X103424794Y-126195220D01*
X103101377Y-126023257D01*
X102817518Y-125791748D01*
X102584035Y-125509514D01*
X102409816Y-125187304D01*
X102301498Y-124837385D01*
X102260000Y-124442557D01*
X102260000Y-123604872D01*
X102540000Y-123604872D01*
X102540000Y-124045128D01*
X102625890Y-124476925D01*
X102794369Y-124883669D01*
X103038962Y-125249729D01*
X103350271Y-125561038D01*
X103716331Y-125805631D01*
X104123075Y-125974110D01*
X104554872Y-126060000D01*
X104995128Y-126060000D01*
X105426925Y-125974110D01*
X105833669Y-125805631D01*
X106199729Y-125561038D01*
X106511038Y-125249729D01*
X106755631Y-124883669D01*
X106924110Y-124476925D01*
X106924450Y-124475212D01*
X109228000Y-124475212D01*
X109228000Y-124698788D01*
X109271617Y-124918067D01*
X109357176Y-125124624D01*
X109481388Y-125310520D01*
X109639480Y-125468612D01*
X109825376Y-125592824D01*
X110031933Y-125678383D01*
X110251212Y-125722000D01*
X110474788Y-125722000D01*
X110694067Y-125678383D01*
X110900624Y-125592824D01*
X111086520Y-125468612D01*
X111244612Y-125310520D01*
X111368824Y-125124624D01*
X111454383Y-124918067D01*
X111498000Y-124698788D01*
X111498000Y-124475212D01*
X111454383Y-124255933D01*
X111368824Y-124049376D01*
X111244612Y-123863480D01*
X111086520Y-123705388D01*
X110936088Y-123604872D01*
X223190000Y-123604872D01*
X223190000Y-124045128D01*
X223275890Y-124476925D01*
X223444369Y-124883669D01*
X223688962Y-125249729D01*
X224000271Y-125561038D01*
X224366331Y-125805631D01*
X224773075Y-125974110D01*
X225204872Y-126060000D01*
X225645128Y-126060000D01*
X226076925Y-125974110D01*
X226483669Y-125805631D01*
X226849729Y-125561038D01*
X227161038Y-125249729D01*
X227405631Y-124883669D01*
X227574110Y-124476925D01*
X227660000Y-124045128D01*
X227660000Y-123604872D01*
X227574110Y-123173075D01*
X227405631Y-122766331D01*
X227161038Y-122400271D01*
X226849729Y-122088962D01*
X226483669Y-121844369D01*
X226076925Y-121675890D01*
X225645128Y-121590000D01*
X225204872Y-121590000D01*
X224773075Y-121675890D01*
X224366331Y-121844369D01*
X224000271Y-122088962D01*
X223688962Y-122400271D01*
X223444369Y-122766331D01*
X223275890Y-123173075D01*
X223190000Y-123604872D01*
X110936088Y-123604872D01*
X110900624Y-123581176D01*
X110694067Y-123495617D01*
X110474788Y-123452000D01*
X110251212Y-123452000D01*
X110031933Y-123495617D01*
X109825376Y-123581176D01*
X109639480Y-123705388D01*
X109481388Y-123863480D01*
X109357176Y-124049376D01*
X109271617Y-124255933D01*
X109228000Y-124475212D01*
X106924450Y-124475212D01*
X107010000Y-124045128D01*
X107010000Y-123604872D01*
X106924110Y-123173075D01*
X106755631Y-122766331D01*
X106511038Y-122400271D01*
X106199729Y-122088962D01*
X105833669Y-121844369D01*
X105426925Y-121675890D01*
X104995128Y-121590000D01*
X104554872Y-121590000D01*
X104123075Y-121675890D01*
X103716331Y-121844369D01*
X103350271Y-122088962D01*
X103038962Y-122400271D01*
X102794369Y-122766331D01*
X102625890Y-123173075D01*
X102540000Y-123604872D01*
X102260000Y-123604872D01*
X102260000Y-85547211D01*
X104161581Y-85547211D01*
X104165389Y-85585874D01*
X104165390Y-116014116D01*
X104161581Y-116052789D01*
X104176784Y-116207146D01*
X104221807Y-116355571D01*
X104221808Y-116355572D01*
X104294924Y-116492361D01*
X104393321Y-116612258D01*
X104423362Y-116636912D01*
X105363578Y-117577128D01*
X105340500Y-117693146D01*
X105340500Y-117966854D01*
X105393898Y-118235302D01*
X105498641Y-118488175D01*
X105650705Y-118715754D01*
X105844246Y-118909295D01*
X106071825Y-119061359D01*
X106324698Y-119166102D01*
X106593146Y-119219500D01*
X106866854Y-119219500D01*
X107135302Y-119166102D01*
X107388175Y-119061359D01*
X107615754Y-118909295D01*
X107809295Y-118715754D01*
X107961359Y-118488175D01*
X108066102Y-118235302D01*
X108119500Y-117966854D01*
X108119500Y-117693146D01*
X108066102Y-117424698D01*
X107961359Y-117171825D01*
X107809295Y-116944246D01*
X107615754Y-116750705D01*
X107388175Y-116598641D01*
X107294887Y-116560000D01*
X107388175Y-116521359D01*
X107615754Y-116369295D01*
X107809295Y-116175754D01*
X107961359Y-115948175D01*
X108066102Y-115695302D01*
X108119500Y-115426854D01*
X108119500Y-115153146D01*
X108066102Y-114884698D01*
X107997883Y-114720000D01*
X117383928Y-114720000D01*
X117383928Y-116420000D01*
X117396188Y-116544482D01*
X117432498Y-116664180D01*
X117491463Y-116774494D01*
X117570815Y-116871185D01*
X117667506Y-116950537D01*
X117777820Y-117009502D01*
X117897518Y-117045812D01*
X118022000Y-117058072D01*
X119722000Y-117058072D01*
X119846482Y-117045812D01*
X119966180Y-117009502D01*
X120076494Y-116950537D01*
X120173185Y-116871185D01*
X120252537Y-116774494D01*
X120311502Y-116664180D01*
X120347812Y-116544482D01*
X120360072Y-116420000D01*
X120360072Y-114720000D01*
X120347812Y-114595518D01*
X120311502Y-114475820D01*
X120252537Y-114365506D01*
X120173185Y-114268815D01*
X120076494Y-114189463D01*
X119966180Y-114130498D01*
X119885534Y-114106034D01*
X119969588Y-114030269D01*
X120143641Y-113796920D01*
X120268825Y-113534099D01*
X120313476Y-113386890D01*
X120192155Y-113157000D01*
X118999000Y-113157000D01*
X118999000Y-113177000D01*
X118745000Y-113177000D01*
X118745000Y-113157000D01*
X117551845Y-113157000D01*
X117430524Y-113386890D01*
X117475175Y-113534099D01*
X117600359Y-113796920D01*
X117774412Y-114030269D01*
X117858466Y-114106034D01*
X117777820Y-114130498D01*
X117667506Y-114189463D01*
X117570815Y-114268815D01*
X117491463Y-114365506D01*
X117432498Y-114475820D01*
X117396188Y-114595518D01*
X117383928Y-114720000D01*
X107997883Y-114720000D01*
X107961359Y-114631825D01*
X107809295Y-114404246D01*
X107615754Y-114210705D01*
X107388175Y-114058641D01*
X107294887Y-114020000D01*
X107388175Y-113981359D01*
X107615754Y-113829295D01*
X107809295Y-113635754D01*
X107961359Y-113408175D01*
X108066102Y-113155302D01*
X108119500Y-112886854D01*
X108119500Y-112613146D01*
X108066102Y-112344698D01*
X107961359Y-112091825D01*
X107809295Y-111864246D01*
X107615754Y-111670705D01*
X107388175Y-111518641D01*
X107135302Y-111413898D01*
X106866854Y-111360500D01*
X106593146Y-111360500D01*
X106324698Y-111413898D01*
X106197400Y-111466626D01*
X106197400Y-110846890D01*
X117430524Y-110846890D01*
X117475175Y-110994099D01*
X117600359Y-111256920D01*
X117774412Y-111490269D01*
X117990645Y-111685178D01*
X118116255Y-111760000D01*
X117990645Y-111834822D01*
X117774412Y-112029731D01*
X117600359Y-112263080D01*
X117475175Y-112525901D01*
X117430524Y-112673110D01*
X117551845Y-112903000D01*
X118745000Y-112903000D01*
X118745000Y-110617000D01*
X118999000Y-110617000D01*
X118999000Y-112903000D01*
X120192155Y-112903000D01*
X120313476Y-112673110D01*
X120268825Y-112525901D01*
X120143641Y-112263080D01*
X119969588Y-112029731D01*
X119753355Y-111834822D01*
X119627745Y-111760000D01*
X119753355Y-111685178D01*
X119969588Y-111490269D01*
X120143641Y-111256920D01*
X120268825Y-110994099D01*
X120313476Y-110846890D01*
X120192155Y-110617000D01*
X118999000Y-110617000D01*
X118745000Y-110617000D01*
X117551845Y-110617000D01*
X117430524Y-110846890D01*
X106197400Y-110846890D01*
X106197400Y-108953374D01*
X106324698Y-109006102D01*
X106593146Y-109059500D01*
X106866854Y-109059500D01*
X107135302Y-109006102D01*
X107388175Y-108901359D01*
X107615754Y-108749295D01*
X107809295Y-108555754D01*
X107961359Y-108328175D01*
X108066102Y-108075302D01*
X108119500Y-107806854D01*
X108119500Y-107533146D01*
X108066102Y-107264698D01*
X107961359Y-107011825D01*
X107809295Y-106784246D01*
X107615754Y-106590705D01*
X107388175Y-106438641D01*
X107294887Y-106400000D01*
X107388175Y-106361359D01*
X107615754Y-106209295D01*
X107809295Y-106015754D01*
X107961359Y-105788175D01*
X108066102Y-105535302D01*
X108119500Y-105266854D01*
X108119500Y-104993146D01*
X108066102Y-104724698D01*
X107961359Y-104471825D01*
X107809295Y-104244246D01*
X107615754Y-104050705D01*
X107388175Y-103898641D01*
X107299215Y-103861793D01*
X107330404Y-103850537D01*
X107444532Y-103789534D01*
X107510603Y-103550208D01*
X106730000Y-102769605D01*
X106715858Y-102783748D01*
X106536253Y-102604143D01*
X106550395Y-102590000D01*
X106909605Y-102590000D01*
X107690208Y-103370603D01*
X107929534Y-103304532D01*
X108045883Y-103056785D01*
X108111664Y-102791100D01*
X108124349Y-102517686D01*
X108083449Y-102247052D01*
X107990537Y-101989596D01*
X107929534Y-101875468D01*
X107690208Y-101809397D01*
X106909605Y-102590000D01*
X106550395Y-102590000D01*
X106536253Y-102575858D01*
X106715858Y-102396253D01*
X106730000Y-102410395D01*
X107510603Y-101629792D01*
X107444532Y-101390466D01*
X107294674Y-101320088D01*
X107388175Y-101281359D01*
X107615754Y-101129295D01*
X107809295Y-100935754D01*
X107875013Y-100837400D01*
X110645850Y-100837400D01*
X117424361Y-107615913D01*
X117387000Y-107803740D01*
X117387000Y-108096260D01*
X117444068Y-108383158D01*
X117556010Y-108653411D01*
X117718525Y-108896632D01*
X117925368Y-109103475D01*
X118107534Y-109225195D01*
X117990645Y-109294822D01*
X117774412Y-109489731D01*
X117600359Y-109723080D01*
X117475175Y-109985901D01*
X117430524Y-110133110D01*
X117551845Y-110363000D01*
X118745000Y-110363000D01*
X118745000Y-110343000D01*
X118999000Y-110343000D01*
X118999000Y-110363000D01*
X120192155Y-110363000D01*
X120313476Y-110133110D01*
X120268825Y-109985901D01*
X120143641Y-109723080D01*
X119969588Y-109489731D01*
X119753355Y-109294822D01*
X119636466Y-109225195D01*
X119818632Y-109103475D01*
X120025475Y-108896632D01*
X120131870Y-108737400D01*
X120450850Y-108737400D01*
X126796881Y-115083433D01*
X126821531Y-115113469D01*
X126851567Y-115138119D01*
X126851569Y-115138121D01*
X126915055Y-115190222D01*
X126941428Y-115211866D01*
X127078217Y-115284982D01*
X127226643Y-115330006D01*
X127342327Y-115341400D01*
X127342336Y-115341400D01*
X127380999Y-115345208D01*
X127419662Y-115341400D01*
X149059337Y-115341400D01*
X149098000Y-115345208D01*
X149136663Y-115341400D01*
X149136673Y-115341400D01*
X149252357Y-115330006D01*
X149400783Y-115284982D01*
X149537572Y-115211866D01*
X149657469Y-115113469D01*
X149682128Y-115083422D01*
X154453433Y-110312119D01*
X154483469Y-110287469D01*
X154508119Y-110257433D01*
X154508122Y-110257430D01*
X154581866Y-110167572D01*
X154654982Y-110030783D01*
X154700006Y-109882357D01*
X154711400Y-109766673D01*
X154711400Y-109766665D01*
X154715208Y-109728000D01*
X154711400Y-109689335D01*
X154711400Y-100622662D01*
X154715208Y-100583999D01*
X154711400Y-100545336D01*
X154711400Y-100545327D01*
X154700006Y-100429643D01*
X154654982Y-100281217D01*
X154581866Y-100144428D01*
X154483469Y-100024531D01*
X154453434Y-99999882D01*
X154162963Y-99709411D01*
X154197850Y-99644142D01*
X154246608Y-99483408D01*
X154263072Y-99316250D01*
X154263072Y-98803750D01*
X154246608Y-98636592D01*
X154197850Y-98475858D01*
X154118671Y-98327725D01*
X154012115Y-98197885D01*
X153974900Y-98167344D01*
X153974900Y-97412656D01*
X154012115Y-97382115D01*
X154118671Y-97252275D01*
X154197850Y-97104142D01*
X154246608Y-96943408D01*
X154263072Y-96776250D01*
X154263072Y-96557979D01*
X154834434Y-95986618D01*
X154864469Y-95961969D01*
X154889119Y-95931933D01*
X154889122Y-95931930D01*
X154962866Y-95842072D01*
X155035982Y-95705283D01*
X155081006Y-95556857D01*
X155085181Y-95514463D01*
X155092400Y-95441173D01*
X155092400Y-95441165D01*
X155096208Y-95402500D01*
X155092400Y-95363835D01*
X155092400Y-92659589D01*
X155110258Y-92637829D01*
X155183084Y-92501582D01*
X155227929Y-92353745D01*
X155243072Y-92200000D01*
X155243072Y-90550000D01*
X155240796Y-90526890D01*
X160102524Y-90526890D01*
X160147175Y-90674099D01*
X160272359Y-90936920D01*
X160446412Y-91170269D01*
X160662645Y-91365178D01*
X160912748Y-91514157D01*
X161187109Y-91611481D01*
X161417000Y-91490814D01*
X161417000Y-90297000D01*
X161671000Y-90297000D01*
X161671000Y-91490814D01*
X161900891Y-91611481D01*
X162175252Y-91514157D01*
X162425355Y-91365178D01*
X162641588Y-91170269D01*
X162815641Y-90936920D01*
X162940825Y-90674099D01*
X162985476Y-90526890D01*
X162864155Y-90297000D01*
X161671000Y-90297000D01*
X161417000Y-90297000D01*
X160223845Y-90297000D01*
X160102524Y-90526890D01*
X155240796Y-90526890D01*
X155227929Y-90396255D01*
X155183084Y-90248418D01*
X155110258Y-90112171D01*
X155012251Y-89992749D01*
X154892829Y-89894742D01*
X154756582Y-89821916D01*
X154608745Y-89777071D01*
X154455000Y-89761928D01*
X154155000Y-89761928D01*
X154001255Y-89777071D01*
X153853418Y-89821916D01*
X153717171Y-89894742D01*
X153670000Y-89933454D01*
X153622829Y-89894742D01*
X153486582Y-89821916D01*
X153338745Y-89777071D01*
X153185000Y-89761928D01*
X152885000Y-89761928D01*
X152731255Y-89777071D01*
X152583418Y-89821916D01*
X152447171Y-89894742D01*
X152400000Y-89933454D01*
X152352829Y-89894742D01*
X152216582Y-89821916D01*
X152068745Y-89777071D01*
X151915000Y-89761928D01*
X151615000Y-89761928D01*
X151461255Y-89777071D01*
X151313418Y-89821916D01*
X151177171Y-89894742D01*
X151130000Y-89933454D01*
X151082829Y-89894742D01*
X150946582Y-89821916D01*
X150798745Y-89777071D01*
X150645000Y-89761928D01*
X150345000Y-89761928D01*
X150191255Y-89777071D01*
X150043418Y-89821916D01*
X149907171Y-89894742D01*
X149885400Y-89912609D01*
X149885400Y-87887391D01*
X149907171Y-87905258D01*
X150043418Y-87978084D01*
X150191255Y-88022929D01*
X150345000Y-88038072D01*
X150645000Y-88038072D01*
X150798745Y-88022929D01*
X150946582Y-87978084D01*
X151082829Y-87905258D01*
X151130000Y-87866546D01*
X151177171Y-87905258D01*
X151313418Y-87978084D01*
X151461255Y-88022929D01*
X151615000Y-88038072D01*
X151915000Y-88038072D01*
X152068745Y-88022929D01*
X152216582Y-87978084D01*
X152352829Y-87905258D01*
X152399565Y-87866903D01*
X152475532Y-87959469D01*
X152505573Y-87984123D01*
X153950881Y-89429433D01*
X153975531Y-89459469D01*
X154005567Y-89484119D01*
X154005569Y-89484121D01*
X154005595Y-89484142D01*
X154095428Y-89557866D01*
X154232217Y-89630982D01*
X154380643Y-89676006D01*
X154496327Y-89687400D01*
X154496336Y-89687400D01*
X154534999Y-89691208D01*
X154573662Y-89687400D01*
X156679337Y-89687400D01*
X156718000Y-89691208D01*
X156756663Y-89687400D01*
X156756673Y-89687400D01*
X156872357Y-89676006D01*
X157020783Y-89630982D01*
X157157572Y-89557866D01*
X157277469Y-89459469D01*
X157302127Y-89429423D01*
X158314152Y-88417400D01*
X160055928Y-88417400D01*
X160055928Y-88480000D01*
X160068188Y-88604482D01*
X160104498Y-88724180D01*
X160163463Y-88834494D01*
X160242815Y-88931185D01*
X160339506Y-89010537D01*
X160449820Y-89069502D01*
X160530466Y-89093966D01*
X160446412Y-89169731D01*
X160272359Y-89403080D01*
X160147175Y-89665901D01*
X160102524Y-89813110D01*
X160223845Y-90043000D01*
X161417000Y-90043000D01*
X161417000Y-90023000D01*
X161671000Y-90023000D01*
X161671000Y-90043000D01*
X162864155Y-90043000D01*
X162985476Y-89813110D01*
X162940825Y-89665901D01*
X162815641Y-89403080D01*
X162641588Y-89169731D01*
X162557534Y-89093966D01*
X162638180Y-89069502D01*
X162748494Y-89010537D01*
X162845185Y-88931185D01*
X162924537Y-88834494D01*
X162983502Y-88724180D01*
X163019812Y-88604482D01*
X163032072Y-88480000D01*
X163032072Y-86780000D01*
X163019812Y-86655518D01*
X162983502Y-86535820D01*
X162924537Y-86425506D01*
X162845185Y-86328815D01*
X162748494Y-86249463D01*
X162638180Y-86190498D01*
X162518482Y-86154188D01*
X162394000Y-86141928D01*
X160694000Y-86141928D01*
X160569518Y-86154188D01*
X160449820Y-86190498D01*
X160339506Y-86249463D01*
X160242815Y-86328815D01*
X160163463Y-86425506D01*
X160104498Y-86535820D01*
X160068188Y-86655518D01*
X160055928Y-86780000D01*
X160055928Y-86842600D01*
X158026662Y-86842600D01*
X157987999Y-86838792D01*
X157949336Y-86842600D01*
X157949327Y-86842600D01*
X157833643Y-86853994D01*
X157685217Y-86899018D01*
X157548428Y-86972134D01*
X157548426Y-86972135D01*
X157548427Y-86972135D01*
X157458569Y-87045879D01*
X157458567Y-87045881D01*
X157428531Y-87070531D01*
X157403881Y-87100567D01*
X156391850Y-88112600D01*
X154861152Y-88112600D01*
X154763918Y-88015366D01*
X154849180Y-87989502D01*
X154959494Y-87930537D01*
X155056185Y-87851185D01*
X155135537Y-87754494D01*
X155194502Y-87644180D01*
X155230812Y-87524482D01*
X155243072Y-87400000D01*
X155240000Y-86710750D01*
X155081250Y-86552000D01*
X154432000Y-86552000D01*
X154432000Y-86572000D01*
X154178000Y-86572000D01*
X154178000Y-86552000D01*
X154158000Y-86552000D01*
X154158000Y-86298000D01*
X154178000Y-86298000D01*
X154178000Y-84973750D01*
X154432000Y-84973750D01*
X154432000Y-86298000D01*
X155081250Y-86298000D01*
X155240000Y-86139250D01*
X155243072Y-85450000D01*
X155230812Y-85325518D01*
X155194502Y-85205820D01*
X155135537Y-85095506D01*
X155056185Y-84998815D01*
X154959494Y-84919463D01*
X154849180Y-84860498D01*
X154729482Y-84824188D01*
X154605000Y-84811928D01*
X154590750Y-84815000D01*
X154432000Y-84973750D01*
X154178000Y-84973750D01*
X154019250Y-84815000D01*
X154005000Y-84811928D01*
X153880518Y-84824188D01*
X153760820Y-84860498D01*
X153650506Y-84919463D01*
X153620936Y-84943730D01*
X153486582Y-84871916D01*
X153338745Y-84827071D01*
X153185000Y-84811928D01*
X152885000Y-84811928D01*
X152731255Y-84827071D01*
X152583418Y-84871916D01*
X152552400Y-84888496D01*
X152552400Y-82358632D01*
X152625518Y-82380812D01*
X152750000Y-82393072D01*
X152901750Y-82390000D01*
X153060500Y-82231250D01*
X153060500Y-81407000D01*
X153314500Y-81407000D01*
X153314500Y-82231250D01*
X153473250Y-82390000D01*
X153625000Y-82393072D01*
X153749482Y-82380812D01*
X153869180Y-82344502D01*
X153979494Y-82285537D01*
X154076185Y-82206185D01*
X154155537Y-82109494D01*
X154214502Y-81999180D01*
X154250812Y-81879482D01*
X154263072Y-81755000D01*
X154260000Y-81565750D01*
X154101250Y-81407000D01*
X153314500Y-81407000D01*
X153060500Y-81407000D01*
X153040500Y-81407000D01*
X153040500Y-81153000D01*
X153060500Y-81153000D01*
X153060500Y-80328750D01*
X153314500Y-80328750D01*
X153314500Y-81153000D01*
X154101250Y-81153000D01*
X154260000Y-80994250D01*
X154263072Y-80805000D01*
X154250812Y-80680518D01*
X154214502Y-80560820D01*
X154155537Y-80450506D01*
X154076185Y-80353815D01*
X153979494Y-80274463D01*
X153869180Y-80215498D01*
X153749482Y-80179188D01*
X153625000Y-80166928D01*
X153473250Y-80170000D01*
X153314500Y-80328750D01*
X153060500Y-80328750D01*
X152901750Y-80170000D01*
X152750000Y-80166928D01*
X152625518Y-80179188D01*
X152505820Y-80215498D01*
X152399900Y-80272114D01*
X152399900Y-79747886D01*
X152505820Y-79804502D01*
X152625518Y-79840812D01*
X152750000Y-79853072D01*
X152901750Y-79850000D01*
X153060500Y-79691250D01*
X153060500Y-78867000D01*
X153314500Y-78867000D01*
X153314500Y-79691250D01*
X153473250Y-79850000D01*
X153625000Y-79853072D01*
X153749482Y-79840812D01*
X153869180Y-79804502D01*
X153979494Y-79745537D01*
X154076185Y-79666185D01*
X154155537Y-79569494D01*
X154214502Y-79459180D01*
X154250812Y-79339482D01*
X154263072Y-79215000D01*
X154260000Y-79025750D01*
X154101250Y-78867000D01*
X153314500Y-78867000D01*
X153060500Y-78867000D01*
X153040500Y-78867000D01*
X153040500Y-78613000D01*
X153060500Y-78613000D01*
X153060500Y-77788750D01*
X153314500Y-77788750D01*
X153314500Y-78613000D01*
X154101250Y-78613000D01*
X154260000Y-78454250D01*
X154263072Y-78265000D01*
X154250812Y-78140518D01*
X154214502Y-78020820D01*
X154155537Y-77910506D01*
X154076185Y-77813815D01*
X153979494Y-77734463D01*
X153869180Y-77675498D01*
X153749482Y-77639188D01*
X153625000Y-77626928D01*
X153473250Y-77630000D01*
X153314500Y-77788750D01*
X153060500Y-77788750D01*
X152901750Y-77630000D01*
X152750000Y-77626928D01*
X152625518Y-77639188D01*
X152505820Y-77675498D01*
X152395506Y-77734463D01*
X152374435Y-77751756D01*
X152343482Y-77649717D01*
X152270366Y-77512928D01*
X152171969Y-77393031D01*
X152141922Y-77368372D01*
X151984984Y-77211434D01*
X151984836Y-77210688D01*
X151917821Y-77048901D01*
X151820531Y-76903296D01*
X151696704Y-76779469D01*
X151551099Y-76682179D01*
X151389312Y-76615164D01*
X151217559Y-76581000D01*
X151042441Y-76581000D01*
X150870688Y-76615164D01*
X150708901Y-76682179D01*
X150563296Y-76779469D01*
X150439469Y-76903296D01*
X150342179Y-77048901D01*
X150275164Y-77210688D01*
X150241000Y-77382441D01*
X150241000Y-77557559D01*
X150275164Y-77729312D01*
X150342179Y-77891099D01*
X150439469Y-78036704D01*
X150563296Y-78160531D01*
X150594423Y-78181330D01*
X150553392Y-78316592D01*
X150536928Y-78483750D01*
X150536928Y-78996250D01*
X150553392Y-79163408D01*
X150602150Y-79324142D01*
X150681329Y-79472275D01*
X150787885Y-79602115D01*
X150825100Y-79632657D01*
X150825101Y-80387343D01*
X150787885Y-80417885D01*
X150681329Y-80547725D01*
X150602150Y-80695858D01*
X150553392Y-80856592D01*
X150536928Y-81023750D01*
X150536928Y-81536250D01*
X150553392Y-81703408D01*
X150602150Y-81864142D01*
X150681329Y-82012275D01*
X150787885Y-82142115D01*
X150917725Y-82248671D01*
X150977600Y-82280675D01*
X150977601Y-83298818D01*
X150977600Y-83298828D01*
X150977601Y-84888496D01*
X150946582Y-84871916D01*
X150798745Y-84827071D01*
X150645000Y-84811928D01*
X150345000Y-84811928D01*
X150191255Y-84827071D01*
X150052663Y-84869112D01*
X147413697Y-82230147D01*
X147389038Y-82200100D01*
X147269141Y-82101703D01*
X147132352Y-82028587D01*
X146983926Y-81983563D01*
X146868242Y-81972169D01*
X146868232Y-81972169D01*
X146829569Y-81968361D01*
X146790906Y-81972169D01*
X128581594Y-81972169D01*
X128542931Y-81968361D01*
X128504268Y-81972169D01*
X128504258Y-81972169D01*
X128388574Y-81983563D01*
X128286116Y-82014643D01*
X128240148Y-82028587D01*
X128103358Y-82101703D01*
X128054117Y-82142115D01*
X127983462Y-82200100D01*
X127958808Y-82230141D01*
X127482021Y-82706928D01*
X127263750Y-82706928D01*
X127096592Y-82723392D01*
X126935858Y-82772150D01*
X126787725Y-82851329D01*
X126657885Y-82957885D01*
X126551329Y-83087725D01*
X126472150Y-83235858D01*
X126423392Y-83396592D01*
X126406928Y-83563750D01*
X126406928Y-84076250D01*
X126423392Y-84243408D01*
X126472150Y-84404142D01*
X126551329Y-84552275D01*
X126657885Y-84682115D01*
X126695100Y-84712656D01*
X126695100Y-85467344D01*
X126657885Y-85497885D01*
X126551329Y-85627725D01*
X126472150Y-85775858D01*
X126423392Y-85936592D01*
X126406928Y-86103750D01*
X126406928Y-86616250D01*
X126423392Y-86783408D01*
X126472150Y-86944142D01*
X126551329Y-87092275D01*
X126657885Y-87222115D01*
X126695100Y-87252657D01*
X126695100Y-88007343D01*
X126657885Y-88037885D01*
X126551329Y-88167725D01*
X126472150Y-88315858D01*
X126423392Y-88476592D01*
X126406928Y-88643750D01*
X126406928Y-89156250D01*
X126423392Y-89323408D01*
X126472150Y-89484142D01*
X126551329Y-89632275D01*
X126657885Y-89762115D01*
X126695101Y-89792657D01*
X126695101Y-90547343D01*
X126657885Y-90577885D01*
X126551329Y-90707725D01*
X126472150Y-90855858D01*
X126423392Y-91016592D01*
X126406928Y-91183750D01*
X126406928Y-91696250D01*
X126423392Y-91863408D01*
X126472150Y-92024142D01*
X126551329Y-92172275D01*
X126657885Y-92302115D01*
X126695101Y-92332657D01*
X126695101Y-93087343D01*
X126657885Y-93117885D01*
X126551329Y-93247725D01*
X126472150Y-93395858D01*
X126423392Y-93556592D01*
X126406928Y-93723750D01*
X126406928Y-94236250D01*
X126423392Y-94403408D01*
X126472150Y-94564142D01*
X126551329Y-94712275D01*
X126657885Y-94842115D01*
X126787725Y-94948671D01*
X126935858Y-95027850D01*
X127096592Y-95076608D01*
X127263750Y-95093072D01*
X127701250Y-95093072D01*
X127868408Y-95076608D01*
X128029142Y-95027850D01*
X128177275Y-94948671D01*
X128270000Y-94872574D01*
X128362725Y-94948671D01*
X128510858Y-95027850D01*
X128671592Y-95076608D01*
X128838750Y-95093072D01*
X129276250Y-95093072D01*
X129443408Y-95076608D01*
X129604142Y-95027850D01*
X129752275Y-94948671D01*
X129882115Y-94842115D01*
X129943431Y-94767400D01*
X137121337Y-94767400D01*
X137160000Y-94771208D01*
X137198663Y-94767400D01*
X137198673Y-94767400D01*
X137314357Y-94756006D01*
X137462783Y-94710982D01*
X137599572Y-94637866D01*
X137719469Y-94539469D01*
X137744127Y-94509423D01*
X138262596Y-93990954D01*
X138303045Y-93999000D01*
X138556955Y-93999000D01*
X138805987Y-93949465D01*
X139040570Y-93852297D01*
X139251690Y-93711232D01*
X139431232Y-93531690D01*
X139572297Y-93320570D01*
X139669465Y-93085987D01*
X139700000Y-92932476D01*
X139730535Y-93085987D01*
X139827703Y-93320570D01*
X139968768Y-93531690D01*
X140148310Y-93711232D01*
X140359430Y-93852297D01*
X140594013Y-93949465D01*
X140843045Y-93999000D01*
X141096955Y-93999000D01*
X141345987Y-93949465D01*
X141580570Y-93852297D01*
X141791690Y-93711232D01*
X141971232Y-93531690D01*
X142112297Y-93320570D01*
X142209465Y-93085987D01*
X142240000Y-92932476D01*
X142270535Y-93085987D01*
X142367703Y-93320570D01*
X142508768Y-93531690D01*
X142688310Y-93711232D01*
X142899430Y-93852297D01*
X143134013Y-93949465D01*
X143383045Y-93999000D01*
X143636955Y-93999000D01*
X143885987Y-93949465D01*
X144120570Y-93852297D01*
X144331690Y-93711232D01*
X144511232Y-93531690D01*
X144652297Y-93320570D01*
X144749465Y-93085987D01*
X144799000Y-92836955D01*
X144799000Y-92583045D01*
X144749465Y-92334013D01*
X144652297Y-92099430D01*
X144511232Y-91888310D01*
X144331690Y-91708768D01*
X144120570Y-91567703D01*
X143885987Y-91470535D01*
X143636955Y-91421000D01*
X143383045Y-91421000D01*
X143134013Y-91470535D01*
X142899430Y-91567703D01*
X142688310Y-91708768D01*
X142508768Y-91888310D01*
X142367703Y-92099430D01*
X142270535Y-92334013D01*
X142240000Y-92487524D01*
X142209465Y-92334013D01*
X142112297Y-92099430D01*
X141971232Y-91888310D01*
X141791690Y-91708768D01*
X141580570Y-91567703D01*
X141345987Y-91470535D01*
X141096955Y-91421000D01*
X140843045Y-91421000D01*
X140594013Y-91470535D01*
X140359430Y-91567703D01*
X140148310Y-91708768D01*
X139968768Y-91888310D01*
X139827703Y-92099430D01*
X139730535Y-92334013D01*
X139700000Y-92487524D01*
X139669465Y-92334013D01*
X139572297Y-92099430D01*
X139431232Y-91888310D01*
X139251690Y-91708768D01*
X139040570Y-91567703D01*
X138805987Y-91470535D01*
X138556955Y-91421000D01*
X138303045Y-91421000D01*
X138054013Y-91470535D01*
X137819430Y-91567703D01*
X137608310Y-91708768D01*
X137428768Y-91888310D01*
X137287703Y-92099430D01*
X137190535Y-92334013D01*
X137160000Y-92487524D01*
X137129465Y-92334013D01*
X137032297Y-92099430D01*
X136891232Y-91888310D01*
X136711690Y-91708768D01*
X136500570Y-91567703D01*
X136265987Y-91470535D01*
X136016955Y-91421000D01*
X135763045Y-91421000D01*
X135514013Y-91470535D01*
X135279430Y-91567703D01*
X135068310Y-91708768D01*
X134888768Y-91888310D01*
X134780998Y-92049600D01*
X130780652Y-92049600D01*
X130133072Y-91402021D01*
X130133072Y-91183750D01*
X130116608Y-91016592D01*
X130067850Y-90855858D01*
X129988671Y-90707725D01*
X129882115Y-90577885D01*
X129752275Y-90471329D01*
X129604142Y-90392150D01*
X129443408Y-90343392D01*
X129276250Y-90326928D01*
X128838750Y-90326928D01*
X128671592Y-90343392D01*
X128510858Y-90392150D01*
X128362725Y-90471329D01*
X128270000Y-90547426D01*
X128269900Y-90547344D01*
X128269900Y-89792656D01*
X128270000Y-89792574D01*
X128362725Y-89868671D01*
X128510858Y-89947850D01*
X128671592Y-89996608D01*
X128838750Y-90013072D01*
X129276250Y-90013072D01*
X129443408Y-89996608D01*
X129604142Y-89947850D01*
X129752275Y-89868671D01*
X129882115Y-89762115D01*
X129943431Y-89687400D01*
X143090337Y-89687400D01*
X143129000Y-89691208D01*
X143167663Y-89687400D01*
X143167673Y-89687400D01*
X143283357Y-89676006D01*
X143329529Y-89662000D01*
X143343559Y-89662000D01*
X143515312Y-89627836D01*
X143677099Y-89560821D01*
X143822704Y-89463531D01*
X143946531Y-89339704D01*
X144043821Y-89194099D01*
X144110836Y-89032312D01*
X144145000Y-88860559D01*
X144145000Y-88685441D01*
X144110836Y-88513688D01*
X144043821Y-88351901D01*
X143946531Y-88206296D01*
X143822704Y-88082469D01*
X143677099Y-87985179D01*
X143515312Y-87918164D01*
X143343559Y-87884000D01*
X143168441Y-87884000D01*
X142996688Y-87918164D01*
X142834901Y-87985179D01*
X142689296Y-88082469D01*
X142659165Y-88112600D01*
X129943431Y-88112600D01*
X129882115Y-88037885D01*
X129752275Y-87931329D01*
X129604142Y-87852150D01*
X129443408Y-87803392D01*
X129276250Y-87786928D01*
X128838750Y-87786928D01*
X128671592Y-87803392D01*
X128510858Y-87852150D01*
X128362725Y-87931329D01*
X128270000Y-88007426D01*
X128269900Y-88007344D01*
X128269900Y-87252656D01*
X128270000Y-87252574D01*
X128362725Y-87328671D01*
X128510858Y-87407850D01*
X128671592Y-87456608D01*
X128838750Y-87473072D01*
X129276250Y-87473072D01*
X129289602Y-87471757D01*
X129349038Y-87477611D01*
X129349048Y-87477611D01*
X129387711Y-87481419D01*
X129426374Y-87477611D01*
X139331126Y-87477611D01*
X139369789Y-87481419D01*
X139408452Y-87477611D01*
X139408462Y-87477611D01*
X139524146Y-87466217D01*
X139672572Y-87421193D01*
X139809361Y-87348077D01*
X139929258Y-87249680D01*
X139953916Y-87219634D01*
X140802597Y-86370954D01*
X140843045Y-86379000D01*
X141096955Y-86379000D01*
X141345987Y-86329465D01*
X141580570Y-86232297D01*
X141791690Y-86091232D01*
X141971232Y-85911690D01*
X142112297Y-85700570D01*
X142209465Y-85465987D01*
X142240000Y-85312476D01*
X142270535Y-85465987D01*
X142367703Y-85700570D01*
X142508768Y-85911690D01*
X142688310Y-86091232D01*
X142899430Y-86232297D01*
X143134013Y-86329465D01*
X143383045Y-86379000D01*
X143636955Y-86379000D01*
X143885987Y-86329465D01*
X144120570Y-86232297D01*
X144331690Y-86091232D01*
X144511232Y-85911690D01*
X144652297Y-85700570D01*
X144749465Y-85465987D01*
X144799000Y-85216955D01*
X144799000Y-84963045D01*
X144749465Y-84714013D01*
X144652297Y-84479430D01*
X144511232Y-84268310D01*
X144342322Y-84099400D01*
X145596850Y-84099400D01*
X148310600Y-86813151D01*
X148310601Y-90639327D01*
X148306792Y-90678000D01*
X148321995Y-90832357D01*
X148367018Y-90980782D01*
X148420281Y-91080429D01*
X148440135Y-91117572D01*
X148538532Y-91237469D01*
X148568573Y-91262123D01*
X149210876Y-91904427D01*
X149235531Y-91934469D01*
X149265570Y-91959121D01*
X149355427Y-92032866D01*
X149391477Y-92052135D01*
X149492217Y-92105982D01*
X149556928Y-92125612D01*
X149556928Y-92200000D01*
X149572071Y-92353745D01*
X149616916Y-92501582D01*
X149689742Y-92637829D01*
X149787749Y-92757251D01*
X149907171Y-92855258D01*
X150043418Y-92928084D01*
X150191255Y-92972929D01*
X150345000Y-92988072D01*
X150645000Y-92988072D01*
X150798745Y-92972929D01*
X150946582Y-92928084D01*
X150977601Y-92911504D01*
X150977600Y-94288848D01*
X145114088Y-100152362D01*
X144926260Y-100115000D01*
X144633740Y-100115000D01*
X144346842Y-100172068D01*
X144076589Y-100284010D01*
X143833368Y-100446525D01*
X143626525Y-100653368D01*
X143520130Y-100812600D01*
X143499870Y-100812600D01*
X143393475Y-100653368D01*
X143186632Y-100446525D01*
X142943411Y-100284010D01*
X142673158Y-100172068D01*
X142386260Y-100115000D01*
X142093740Y-100115000D01*
X141806842Y-100172068D01*
X141536589Y-100284010D01*
X141293368Y-100446525D01*
X141086525Y-100653368D01*
X140980130Y-100812600D01*
X130755152Y-100812600D01*
X120868072Y-90925522D01*
X120868072Y-89320000D01*
X120855812Y-89195518D01*
X120819502Y-89075820D01*
X120760537Y-88965506D01*
X120681185Y-88868815D01*
X120584494Y-88789463D01*
X120474180Y-88730498D01*
X120401620Y-88708487D01*
X120533475Y-88576632D01*
X120695990Y-88333411D01*
X120807932Y-88063158D01*
X120865000Y-87776260D01*
X120865000Y-87483740D01*
X120827638Y-87295912D01*
X131136151Y-76987400D01*
X140980130Y-76987400D01*
X141086525Y-77146632D01*
X141293368Y-77353475D01*
X141536589Y-77515990D01*
X141806842Y-77627932D01*
X142093740Y-77685000D01*
X142386260Y-77685000D01*
X142673158Y-77627932D01*
X142943411Y-77515990D01*
X143186632Y-77353475D01*
X143393475Y-77146632D01*
X143499870Y-76987400D01*
X143520130Y-76987400D01*
X143626525Y-77146632D01*
X143833368Y-77353475D01*
X144076589Y-77515990D01*
X144346842Y-77627932D01*
X144633740Y-77685000D01*
X144926260Y-77685000D01*
X145213158Y-77627932D01*
X145483411Y-77515990D01*
X145726632Y-77353475D01*
X145933475Y-77146632D01*
X146095990Y-76903411D01*
X146207932Y-76633158D01*
X146265000Y-76346260D01*
X146265000Y-76053740D01*
X146207932Y-75766842D01*
X146095990Y-75496589D01*
X145933475Y-75253368D01*
X145726632Y-75046525D01*
X145552240Y-74930000D01*
X145726632Y-74813475D01*
X145933475Y-74606632D01*
X146095990Y-74363411D01*
X146207932Y-74093158D01*
X146265000Y-73806260D01*
X146265000Y-73513740D01*
X146227639Y-73325913D01*
X146579433Y-72974119D01*
X146609469Y-72949469D01*
X146634123Y-72919429D01*
X146707865Y-72829573D01*
X146718328Y-72810000D01*
X146780982Y-72692783D01*
X146826006Y-72544357D01*
X146837400Y-72428673D01*
X146837400Y-72428664D01*
X146841208Y-72390001D01*
X146837400Y-72351338D01*
X146837400Y-70253431D01*
X146912115Y-70192115D01*
X147018671Y-70062275D01*
X147097850Y-69914142D01*
X147146608Y-69753408D01*
X147163072Y-69586250D01*
X147163072Y-69148750D01*
X147146608Y-68981592D01*
X147097850Y-68820858D01*
X147018671Y-68672725D01*
X147000900Y-68651070D01*
X147055537Y-68584494D01*
X147114502Y-68474180D01*
X147150812Y-68354482D01*
X147163072Y-68230000D01*
X147160000Y-68078250D01*
X147001250Y-67919500D01*
X146177000Y-67919500D01*
X146177000Y-67939500D01*
X145923000Y-67939500D01*
X145923000Y-67919500D01*
X145098750Y-67919500D01*
X144940000Y-68078250D01*
X144936928Y-68230000D01*
X144949188Y-68354482D01*
X144985498Y-68474180D01*
X145044463Y-68584494D01*
X145099100Y-68651070D01*
X145081329Y-68672725D01*
X145002150Y-68820858D01*
X144953392Y-68981592D01*
X144936928Y-69148750D01*
X144936928Y-69586250D01*
X144953392Y-69753408D01*
X145002150Y-69914142D01*
X145081329Y-70062275D01*
X145187885Y-70192115D01*
X145262600Y-70253432D01*
X145262601Y-72063848D01*
X145114087Y-72212361D01*
X144926260Y-72175000D01*
X144633740Y-72175000D01*
X144346842Y-72232068D01*
X144076589Y-72344010D01*
X143833368Y-72506525D01*
X143701513Y-72638380D01*
X143679502Y-72565820D01*
X143620537Y-72455506D01*
X143541185Y-72358815D01*
X143444494Y-72279463D01*
X143334180Y-72220498D01*
X143214482Y-72184188D01*
X143090000Y-72171928D01*
X141865479Y-72171928D01*
X141757400Y-72063850D01*
X141757400Y-70253431D01*
X141832115Y-70192115D01*
X141938671Y-70062275D01*
X142017850Y-69914142D01*
X142066608Y-69753408D01*
X142083072Y-69586250D01*
X142083072Y-69148750D01*
X142066608Y-68981592D01*
X142017850Y-68820858D01*
X141938671Y-68672725D01*
X141920900Y-68651070D01*
X141975537Y-68584494D01*
X142034502Y-68474180D01*
X142070812Y-68354482D01*
X142083072Y-68230000D01*
X142080000Y-68078250D01*
X141921250Y-67919500D01*
X141097000Y-67919500D01*
X141097000Y-67939500D01*
X140843000Y-67939500D01*
X140843000Y-67919500D01*
X140018750Y-67919500D01*
X139860000Y-68078250D01*
X139856928Y-68230000D01*
X139869188Y-68354482D01*
X139905498Y-68474180D01*
X139964463Y-68584494D01*
X140019100Y-68651070D01*
X140001329Y-68672725D01*
X139922150Y-68820858D01*
X139873392Y-68981592D01*
X139856928Y-69148750D01*
X139856928Y-69586250D01*
X139873392Y-69753408D01*
X139922150Y-69914142D01*
X140001329Y-70062275D01*
X140107885Y-70192115D01*
X140182600Y-70253432D01*
X140182601Y-72351327D01*
X140178792Y-72390000D01*
X140193995Y-72544357D01*
X140239018Y-72692782D01*
X140239019Y-72692783D01*
X140312135Y-72829572D01*
X140410532Y-72949469D01*
X140440573Y-72974123D01*
X140751928Y-73285479D01*
X140751928Y-74510000D01*
X140764188Y-74634482D01*
X140800498Y-74754180D01*
X140859463Y-74864494D01*
X140938815Y-74961185D01*
X141035506Y-75040537D01*
X141145820Y-75099502D01*
X141218380Y-75121513D01*
X141086525Y-75253368D01*
X140980130Y-75412600D01*
X130848662Y-75412600D01*
X130809999Y-75408792D01*
X130771336Y-75412600D01*
X130771327Y-75412600D01*
X130655643Y-75423994D01*
X130507217Y-75469018D01*
X130370428Y-75542134D01*
X130250531Y-75640531D01*
X130225877Y-75670572D01*
X119714088Y-86182362D01*
X119526260Y-86145000D01*
X119233740Y-86145000D01*
X118946842Y-86202068D01*
X118676589Y-86314010D01*
X118433368Y-86476525D01*
X118226525Y-86683368D01*
X118064010Y-86926589D01*
X117952068Y-87196842D01*
X117895000Y-87483740D01*
X117895000Y-87776260D01*
X117952068Y-88063158D01*
X118064010Y-88333411D01*
X118226525Y-88576632D01*
X118358380Y-88708487D01*
X118285820Y-88730498D01*
X118175506Y-88789463D01*
X118078815Y-88868815D01*
X117999463Y-88965506D01*
X117940498Y-89075820D01*
X117904188Y-89195518D01*
X117891928Y-89320000D01*
X117891928Y-91020000D01*
X117904188Y-91144482D01*
X117940498Y-91264180D01*
X117999463Y-91374494D01*
X118078815Y-91471185D01*
X118175506Y-91550537D01*
X118285820Y-91609502D01*
X118405518Y-91645812D01*
X118530000Y-91658072D01*
X119373522Y-91658072D01*
X129844881Y-102129433D01*
X129869531Y-102159469D01*
X129899567Y-102184119D01*
X129899570Y-102184122D01*
X129976251Y-102247052D01*
X129989428Y-102257866D01*
X130126217Y-102330982D01*
X130274643Y-102376006D01*
X130390327Y-102387400D01*
X130390335Y-102387400D01*
X130429000Y-102391208D01*
X130467665Y-102387400D01*
X140980130Y-102387400D01*
X141086525Y-102546632D01*
X141293368Y-102753475D01*
X141467760Y-102870000D01*
X141293368Y-102986525D01*
X141086525Y-103193368D01*
X140924010Y-103436589D01*
X140812068Y-103706842D01*
X140755000Y-103993740D01*
X140755000Y-104286260D01*
X140792362Y-104474088D01*
X140440573Y-104825877D01*
X140410532Y-104850531D01*
X140385879Y-104880571D01*
X140312135Y-104970428D01*
X140239018Y-105107218D01*
X140193995Y-105255643D01*
X140178792Y-105410000D01*
X140182601Y-105448673D01*
X140182600Y-108816568D01*
X140107885Y-108877885D01*
X140001329Y-109007725D01*
X139922150Y-109155858D01*
X139873392Y-109316592D01*
X139856928Y-109483750D01*
X139856928Y-109921250D01*
X139873392Y-110088408D01*
X139922150Y-110249142D01*
X140001329Y-110397275D01*
X140019100Y-110418930D01*
X139964463Y-110485506D01*
X139905498Y-110595820D01*
X139869188Y-110715518D01*
X139856928Y-110840000D01*
X139860000Y-110991750D01*
X140018750Y-111150500D01*
X140843000Y-111150500D01*
X140843000Y-111130500D01*
X141097000Y-111130500D01*
X141097000Y-111150500D01*
X141921250Y-111150500D01*
X142080000Y-110991750D01*
X142083072Y-110840000D01*
X142070812Y-110715518D01*
X142034502Y-110595820D01*
X141975537Y-110485506D01*
X141920900Y-110418930D01*
X141938671Y-110397275D01*
X142017850Y-110249142D01*
X142066608Y-110088408D01*
X142083072Y-109921250D01*
X142083072Y-109483750D01*
X142066608Y-109316592D01*
X142017850Y-109155858D01*
X141938671Y-109007725D01*
X141832115Y-108877885D01*
X141757400Y-108816569D01*
X141757400Y-105736150D01*
X141905912Y-105587638D01*
X142093740Y-105625000D01*
X142386260Y-105625000D01*
X142673158Y-105567932D01*
X142943411Y-105455990D01*
X143186632Y-105293475D01*
X143318487Y-105161620D01*
X143340498Y-105234180D01*
X143399463Y-105344494D01*
X143478815Y-105441185D01*
X143575506Y-105520537D01*
X143685820Y-105579502D01*
X143805518Y-105615812D01*
X143930000Y-105628072D01*
X145154521Y-105628072D01*
X145262601Y-105736153D01*
X145262600Y-108816568D01*
X145187885Y-108877885D01*
X145081329Y-109007725D01*
X145002150Y-109155858D01*
X144953392Y-109316592D01*
X144936928Y-109483750D01*
X144936928Y-109921250D01*
X144953392Y-110088408D01*
X145002150Y-110249142D01*
X145081329Y-110397275D01*
X145099100Y-110418930D01*
X145044463Y-110485506D01*
X144985498Y-110595820D01*
X144949188Y-110715518D01*
X144936928Y-110840000D01*
X144940000Y-110991750D01*
X145098750Y-111150500D01*
X145923000Y-111150500D01*
X145923000Y-111130500D01*
X146177000Y-111130500D01*
X146177000Y-111150500D01*
X147001250Y-111150500D01*
X147160000Y-110991750D01*
X147163072Y-110840000D01*
X147150812Y-110715518D01*
X147114502Y-110595820D01*
X147055537Y-110485506D01*
X147000900Y-110418930D01*
X147018671Y-110397275D01*
X147097850Y-110249142D01*
X147146608Y-110088408D01*
X147163072Y-109921250D01*
X147163072Y-109483750D01*
X147146608Y-109316592D01*
X147097850Y-109155858D01*
X147018671Y-109007725D01*
X146912115Y-108877885D01*
X146837400Y-108816569D01*
X146837400Y-105448662D01*
X146841208Y-105409999D01*
X146837400Y-105371336D01*
X146837400Y-105371327D01*
X146826006Y-105255643D01*
X146780982Y-105107217D01*
X146707866Y-104970428D01*
X146686222Y-104944055D01*
X146634121Y-104880569D01*
X146634119Y-104880567D01*
X146609469Y-104850531D01*
X146579433Y-104825881D01*
X146268072Y-104514521D01*
X146268072Y-103290000D01*
X146255812Y-103165518D01*
X146219502Y-103045820D01*
X146160537Y-102935506D01*
X146081185Y-102838815D01*
X145984494Y-102759463D01*
X145874180Y-102700498D01*
X145801620Y-102678487D01*
X145933475Y-102546632D01*
X146095990Y-102303411D01*
X146207932Y-102033158D01*
X146265000Y-101746260D01*
X146265000Y-101453740D01*
X146227638Y-101265912D01*
X147958550Y-99535000D01*
X150536928Y-99535000D01*
X150549188Y-99659482D01*
X150585498Y-99779180D01*
X150644463Y-99889494D01*
X150723815Y-99986185D01*
X150820506Y-100065537D01*
X150930820Y-100124502D01*
X151050518Y-100160812D01*
X151175000Y-100173072D01*
X151326750Y-100170000D01*
X151485500Y-100011250D01*
X151485500Y-99187000D01*
X150698750Y-99187000D01*
X150540000Y-99345750D01*
X150536928Y-99535000D01*
X147958550Y-99535000D01*
X148908550Y-98585000D01*
X150536928Y-98585000D01*
X150540000Y-98774250D01*
X150698750Y-98933000D01*
X151485500Y-98933000D01*
X151485500Y-98108750D01*
X151326750Y-97950000D01*
X151175000Y-97946928D01*
X151050518Y-97959188D01*
X150930820Y-97995498D01*
X150820506Y-98054463D01*
X150723815Y-98133815D01*
X150644463Y-98230506D01*
X150585498Y-98340820D01*
X150549188Y-98460518D01*
X150536928Y-98585000D01*
X148908550Y-98585000D01*
X150537561Y-96955990D01*
X150536928Y-96995000D01*
X150549188Y-97119482D01*
X150585498Y-97239180D01*
X150644463Y-97349494D01*
X150723815Y-97446185D01*
X150820506Y-97525537D01*
X150930820Y-97584502D01*
X151050518Y-97620812D01*
X151175000Y-97633072D01*
X151326750Y-97630000D01*
X151485500Y-97471250D01*
X151485500Y-96647000D01*
X151465500Y-96647000D01*
X151465500Y-96393000D01*
X151485500Y-96393000D01*
X151485500Y-96373000D01*
X151739500Y-96373000D01*
X151739500Y-96393000D01*
X151759500Y-96393000D01*
X151759500Y-96647000D01*
X151739500Y-96647000D01*
X151739500Y-97471250D01*
X151898250Y-97630000D01*
X152050000Y-97633072D01*
X152174482Y-97620812D01*
X152294180Y-97584502D01*
X152400101Y-97527885D01*
X152400100Y-98052115D01*
X152294180Y-97995498D01*
X152174482Y-97959188D01*
X152050000Y-97946928D01*
X151898250Y-97950000D01*
X151739500Y-98108750D01*
X151739500Y-98933000D01*
X151759500Y-98933000D01*
X151759500Y-99187000D01*
X151739500Y-99187000D01*
X151739500Y-100011250D01*
X151898250Y-100170000D01*
X152050000Y-100173072D01*
X152174482Y-100160812D01*
X152294180Y-100124502D01*
X152404494Y-100065537D01*
X152425566Y-100048244D01*
X152438031Y-100089338D01*
X152456518Y-100150282D01*
X152485422Y-100204357D01*
X152529635Y-100287072D01*
X152628032Y-100406969D01*
X152658072Y-100431623D01*
X153136600Y-100910151D01*
X153136601Y-109401847D01*
X148771850Y-113766600D01*
X127707152Y-113766600D01*
X125655552Y-111715000D01*
X139856928Y-111715000D01*
X139869188Y-111839482D01*
X139905498Y-111959180D01*
X139964463Y-112069494D01*
X140043815Y-112166185D01*
X140140506Y-112245537D01*
X140250820Y-112304502D01*
X140370518Y-112340812D01*
X140495000Y-112353072D01*
X140684250Y-112350000D01*
X140843000Y-112191250D01*
X140843000Y-111404500D01*
X141097000Y-111404500D01*
X141097000Y-112191250D01*
X141255750Y-112350000D01*
X141445000Y-112353072D01*
X141569482Y-112340812D01*
X141689180Y-112304502D01*
X141799494Y-112245537D01*
X141896185Y-112166185D01*
X141975537Y-112069494D01*
X142034502Y-111959180D01*
X142070812Y-111839482D01*
X142083072Y-111715000D01*
X144936928Y-111715000D01*
X144949188Y-111839482D01*
X144985498Y-111959180D01*
X145044463Y-112069494D01*
X145123815Y-112166185D01*
X145220506Y-112245537D01*
X145330820Y-112304502D01*
X145450518Y-112340812D01*
X145575000Y-112353072D01*
X145764250Y-112350000D01*
X145923000Y-112191250D01*
X145923000Y-111404500D01*
X146177000Y-111404500D01*
X146177000Y-112191250D01*
X146335750Y-112350000D01*
X146525000Y-112353072D01*
X146649482Y-112340812D01*
X146769180Y-112304502D01*
X146879494Y-112245537D01*
X146976185Y-112166185D01*
X147055537Y-112069494D01*
X147114502Y-111959180D01*
X147150812Y-111839482D01*
X147163072Y-111715000D01*
X147160000Y-111563250D01*
X147001250Y-111404500D01*
X146177000Y-111404500D01*
X145923000Y-111404500D01*
X145098750Y-111404500D01*
X144940000Y-111563250D01*
X144936928Y-111715000D01*
X142083072Y-111715000D01*
X142080000Y-111563250D01*
X141921250Y-111404500D01*
X141097000Y-111404500D01*
X140843000Y-111404500D01*
X140018750Y-111404500D01*
X139860000Y-111563250D01*
X139856928Y-111715000D01*
X125655552Y-111715000D01*
X121361128Y-107420578D01*
X121336469Y-107390531D01*
X121216572Y-107292134D01*
X121079783Y-107219018D01*
X120931357Y-107173994D01*
X120815673Y-107162600D01*
X120815663Y-107162600D01*
X120777000Y-107158792D01*
X120738337Y-107162600D01*
X120131870Y-107162600D01*
X120025475Y-107003368D01*
X119818632Y-106796525D01*
X119575411Y-106634010D01*
X119305158Y-106522068D01*
X119018260Y-106465000D01*
X118725740Y-106465000D01*
X118537913Y-106502361D01*
X111556128Y-99520578D01*
X111531469Y-99490531D01*
X111411572Y-99392134D01*
X111274783Y-99319018D01*
X111126357Y-99273994D01*
X111010673Y-99262600D01*
X111010663Y-99262600D01*
X110972000Y-99258792D01*
X110933337Y-99262600D01*
X107875013Y-99262600D01*
X107809295Y-99164246D01*
X107615754Y-98970705D01*
X107388175Y-98818641D01*
X107135302Y-98713898D01*
X106866854Y-98660500D01*
X106593146Y-98660500D01*
X106324698Y-98713898D01*
X106197400Y-98766626D01*
X106197400Y-86062742D01*
X118000428Y-74259715D01*
X118030469Y-74235061D01*
X118078835Y-74176127D01*
X118128866Y-74115165D01*
X118201982Y-73978375D01*
X118247006Y-73829950D01*
X118249339Y-73806260D01*
X118258400Y-73714265D01*
X118258400Y-73714258D01*
X118262208Y-73675592D01*
X118258400Y-73636927D01*
X118258400Y-70868072D01*
X119501000Y-70868072D01*
X119625482Y-70855812D01*
X119745180Y-70819502D01*
X119855494Y-70760537D01*
X119952185Y-70681185D01*
X120031537Y-70584494D01*
X120090502Y-70474180D01*
X120126812Y-70354482D01*
X120139072Y-70230000D01*
X120139072Y-67355000D01*
X139856928Y-67355000D01*
X139860000Y-67506750D01*
X140018750Y-67665500D01*
X140843000Y-67665500D01*
X140843000Y-66878750D01*
X141097000Y-66878750D01*
X141097000Y-67665500D01*
X141921250Y-67665500D01*
X142080000Y-67506750D01*
X142083072Y-67355000D01*
X144936928Y-67355000D01*
X144940000Y-67506750D01*
X145098750Y-67665500D01*
X145923000Y-67665500D01*
X145923000Y-66878750D01*
X146177000Y-66878750D01*
X146177000Y-67665500D01*
X147001250Y-67665500D01*
X147160000Y-67506750D01*
X147163072Y-67355000D01*
X147150812Y-67230518D01*
X147114502Y-67110820D01*
X147055537Y-67000506D01*
X146976185Y-66903815D01*
X146879494Y-66824463D01*
X146769180Y-66765498D01*
X146649482Y-66729188D01*
X146525000Y-66716928D01*
X146335750Y-66720000D01*
X146177000Y-66878750D01*
X145923000Y-66878750D01*
X145764250Y-66720000D01*
X145575000Y-66716928D01*
X145450518Y-66729188D01*
X145330820Y-66765498D01*
X145220506Y-66824463D01*
X145123815Y-66903815D01*
X145044463Y-67000506D01*
X144985498Y-67110820D01*
X144949188Y-67230518D01*
X144936928Y-67355000D01*
X142083072Y-67355000D01*
X142070812Y-67230518D01*
X142034502Y-67110820D01*
X141975537Y-67000506D01*
X141896185Y-66903815D01*
X141799494Y-66824463D01*
X141689180Y-66765498D01*
X141569482Y-66729188D01*
X141445000Y-66716928D01*
X141255750Y-66720000D01*
X141097000Y-66878750D01*
X140843000Y-66878750D01*
X140684250Y-66720000D01*
X140495000Y-66716928D01*
X140370518Y-66729188D01*
X140250820Y-66765498D01*
X140140506Y-66824463D01*
X140043815Y-66903815D01*
X139964463Y-67000506D01*
X139905498Y-67110820D01*
X139869188Y-67230518D01*
X139856928Y-67355000D01*
X120139072Y-67355000D01*
X120139072Y-66930000D01*
X120126812Y-66805518D01*
X120090502Y-66685820D01*
X120031537Y-66575506D01*
X119952185Y-66478815D01*
X119855494Y-66399463D01*
X119745180Y-66340498D01*
X119625482Y-66304188D01*
X119501000Y-66291928D01*
X115441000Y-66291928D01*
X115316518Y-66304188D01*
X115196820Y-66340498D01*
X115086506Y-66399463D01*
X114989815Y-66478815D01*
X114910463Y-66575506D01*
X114851498Y-66685820D01*
X114815188Y-66805518D01*
X114802928Y-66930000D01*
X114802928Y-70230000D01*
X114815188Y-70354482D01*
X114851498Y-70474180D01*
X114910463Y-70584494D01*
X114989815Y-70681185D01*
X115086506Y-70760537D01*
X115196820Y-70819502D01*
X115316518Y-70855812D01*
X115441000Y-70868072D01*
X116683600Y-70868072D01*
X116683601Y-73349440D01*
X109118400Y-80914642D01*
X109118400Y-77223072D01*
X111506000Y-77223072D01*
X111630482Y-77210812D01*
X111750180Y-77174502D01*
X111860494Y-77115537D01*
X111957185Y-77036185D01*
X112036537Y-76939494D01*
X112095502Y-76829180D01*
X112131812Y-76709482D01*
X112144072Y-76585000D01*
X112144072Y-72775000D01*
X112131812Y-72650518D01*
X112095502Y-72530820D01*
X112036537Y-72420506D01*
X111957185Y-72323815D01*
X111860494Y-72244463D01*
X111750180Y-72185498D01*
X111630482Y-72149188D01*
X111506000Y-72136928D01*
X109118400Y-72136928D01*
X109118400Y-63933072D01*
X111211000Y-63933072D01*
X111335482Y-63920812D01*
X111455180Y-63884502D01*
X111565494Y-63825537D01*
X111662185Y-63746185D01*
X111741537Y-63649494D01*
X111800502Y-63539180D01*
X111836812Y-63419482D01*
X111849072Y-63295000D01*
X111849072Y-61392750D01*
X120237928Y-61392750D01*
X120237928Y-62305250D01*
X120254872Y-62477285D01*
X120305053Y-62642709D01*
X120386542Y-62795164D01*
X120496208Y-62928792D01*
X120576101Y-62994358D01*
X120576101Y-63638312D01*
X120564928Y-63751750D01*
X120564928Y-64264250D01*
X120581392Y-64431408D01*
X120630150Y-64592142D01*
X120709329Y-64740275D01*
X120815885Y-64870115D01*
X120945725Y-64976671D01*
X121093858Y-65055850D01*
X121254592Y-65104608D01*
X121421750Y-65121072D01*
X121859250Y-65121072D01*
X122026408Y-65104608D01*
X122187142Y-65055850D01*
X122335275Y-64976671D01*
X122428000Y-64900574D01*
X122520725Y-64976671D01*
X122668858Y-65055850D01*
X122829592Y-65104608D01*
X122996750Y-65121072D01*
X123434250Y-65121072D01*
X123601408Y-65104608D01*
X123762142Y-65055850D01*
X123910275Y-64976671D01*
X124040115Y-64870115D01*
X124085310Y-64815044D01*
X124200688Y-64862836D01*
X124372441Y-64897000D01*
X124547559Y-64897000D01*
X124719312Y-64862836D01*
X124881099Y-64795821D01*
X125026704Y-64698531D01*
X125150531Y-64574704D01*
X125247821Y-64429099D01*
X125314836Y-64267312D01*
X125349000Y-64095559D01*
X125349000Y-63920441D01*
X125314836Y-63748688D01*
X125247821Y-63586901D01*
X125150531Y-63441296D01*
X125026704Y-63317469D01*
X124881099Y-63220179D01*
X124719312Y-63153164D01*
X124547559Y-63119000D01*
X124372441Y-63119000D01*
X124200688Y-63153164D01*
X124085310Y-63200956D01*
X124040115Y-63145885D01*
X124007083Y-63118777D01*
X124080494Y-63079537D01*
X124177185Y-63000185D01*
X124256537Y-62903494D01*
X124315502Y-62793180D01*
X124351812Y-62673482D01*
X124364072Y-62549000D01*
X124361000Y-62134750D01*
X124202250Y-61976000D01*
X123365500Y-61976000D01*
X123365500Y-61996000D01*
X123111500Y-61996000D01*
X123111500Y-61976000D01*
X123091500Y-61976000D01*
X123091500Y-61722000D01*
X123111500Y-61722000D01*
X123111500Y-60672750D01*
X123365500Y-60672750D01*
X123365500Y-61722000D01*
X124202250Y-61722000D01*
X124361000Y-61563250D01*
X124364072Y-61149000D01*
X124351812Y-61024518D01*
X124315502Y-60904820D01*
X124256537Y-60794506D01*
X124177185Y-60697815D01*
X124080494Y-60618463D01*
X123970180Y-60559498D01*
X123850482Y-60523188D01*
X123726000Y-60510928D01*
X123524250Y-60514000D01*
X123365500Y-60672750D01*
X123111500Y-60672750D01*
X122952750Y-60514000D01*
X122751000Y-60510928D01*
X122626518Y-60523188D01*
X122506820Y-60559498D01*
X122396506Y-60618463D01*
X122299815Y-60697815D01*
X122236008Y-60775564D01*
X122230792Y-60769208D01*
X122097164Y-60659542D01*
X121944709Y-60578053D01*
X121779285Y-60527872D01*
X121607250Y-60510928D01*
X121119750Y-60510928D01*
X120947715Y-60527872D01*
X120782291Y-60578053D01*
X120629836Y-60659542D01*
X120496208Y-60769208D01*
X120386542Y-60902836D01*
X120305053Y-61055291D01*
X120254872Y-61220715D01*
X120237928Y-61392750D01*
X111849072Y-61392750D01*
X111849072Y-59485000D01*
X111836812Y-59360518D01*
X111800502Y-59240820D01*
X111741537Y-59130506D01*
X111662185Y-59033815D01*
X111565494Y-58954463D01*
X111455180Y-58895498D01*
X111335482Y-58859188D01*
X111211000Y-58846928D01*
X105451000Y-58846928D01*
X105326518Y-58859188D01*
X105206820Y-58895498D01*
X105096506Y-58954463D01*
X104999815Y-59033815D01*
X104920463Y-59130506D01*
X104861498Y-59240820D01*
X104825188Y-59360518D01*
X104812928Y-59485000D01*
X104812928Y-63295000D01*
X104825188Y-63419482D01*
X104861498Y-63539180D01*
X104920463Y-63649494D01*
X104999815Y-63746185D01*
X105096506Y-63825537D01*
X105206820Y-63884502D01*
X105326518Y-63920812D01*
X105451000Y-63933072D01*
X107543600Y-63933072D01*
X107543601Y-72136928D01*
X105156000Y-72136928D01*
X105031518Y-72149188D01*
X104911820Y-72185498D01*
X104801506Y-72244463D01*
X104704815Y-72323815D01*
X104625463Y-72420506D01*
X104566498Y-72530820D01*
X104530188Y-72650518D01*
X104517928Y-72775000D01*
X104517928Y-76585000D01*
X104530188Y-76709482D01*
X104566498Y-76829180D01*
X104625463Y-76939494D01*
X104704815Y-77036185D01*
X104801506Y-77115537D01*
X104911820Y-77174502D01*
X105031518Y-77210812D01*
X105156000Y-77223072D01*
X107543600Y-77223072D01*
X107543601Y-81842848D01*
X104423367Y-84963083D01*
X104393320Y-84987742D01*
X104294923Y-85107640D01*
X104221807Y-85244429D01*
X104176783Y-85392855D01*
X104165389Y-85508539D01*
X104165389Y-85508548D01*
X104161581Y-85547211D01*
X102260000Y-85547211D01*
X102260000Y-58181212D01*
X219591000Y-58181212D01*
X219591000Y-58404788D01*
X219634617Y-58624067D01*
X219720176Y-58830624D01*
X219844388Y-59016520D01*
X220002480Y-59174612D01*
X220188376Y-59298824D01*
X220394933Y-59384383D01*
X220614212Y-59428000D01*
X220837788Y-59428000D01*
X221057067Y-59384383D01*
X221263624Y-59298824D01*
X221449520Y-59174612D01*
X221607612Y-59016520D01*
X221731824Y-58830624D01*
X221817383Y-58624067D01*
X221861000Y-58404788D01*
X221861000Y-58181212D01*
X221817383Y-57961933D01*
X221731824Y-57755376D01*
X221607612Y-57569480D01*
X221449520Y-57411388D01*
X221263624Y-57287176D01*
X221057067Y-57201617D01*
X220837788Y-57158000D01*
X220614212Y-57158000D01*
X220394933Y-57201617D01*
X220188376Y-57287176D01*
X220002480Y-57411388D01*
X219844388Y-57569480D01*
X219720176Y-57755376D01*
X219634617Y-57961933D01*
X219591000Y-58181212D01*
X102260000Y-58181212D01*
X102260000Y-53754872D01*
X102540000Y-53754872D01*
X102540000Y-54195128D01*
X102625890Y-54626925D01*
X102794369Y-55033669D01*
X103038962Y-55399729D01*
X103350271Y-55711038D01*
X103716331Y-55955631D01*
X104123075Y-56124110D01*
X104554872Y-56210000D01*
X104995128Y-56210000D01*
X105426925Y-56124110D01*
X105833669Y-55955631D01*
X106199729Y-55711038D01*
X106511038Y-55399729D01*
X106755631Y-55033669D01*
X106924110Y-54626925D01*
X107010000Y-54195128D01*
X107010000Y-53754872D01*
X223190000Y-53754872D01*
X223190000Y-54195128D01*
X223275890Y-54626925D01*
X223444369Y-55033669D01*
X223688962Y-55399729D01*
X224000271Y-55711038D01*
X224366331Y-55955631D01*
X224773075Y-56124110D01*
X225204872Y-56210000D01*
X225645128Y-56210000D01*
X226076925Y-56124110D01*
X226483669Y-55955631D01*
X226849729Y-55711038D01*
X227161038Y-55399729D01*
X227405631Y-55033669D01*
X227574110Y-54626925D01*
X227660000Y-54195128D01*
X227660000Y-53754872D01*
X227574110Y-53323075D01*
X227405631Y-52916331D01*
X227161038Y-52550271D01*
X226849729Y-52238962D01*
X226483669Y-51994369D01*
X226076925Y-51825890D01*
X225645128Y-51740000D01*
X225204872Y-51740000D01*
X224773075Y-51825890D01*
X224366331Y-51994369D01*
X224000271Y-52238962D01*
X223688962Y-52550271D01*
X223444369Y-52916331D01*
X223275890Y-53323075D01*
X223190000Y-53754872D01*
X107010000Y-53754872D01*
X106924110Y-53323075D01*
X106755631Y-52916331D01*
X106511038Y-52550271D01*
X106199729Y-52238962D01*
X105833669Y-51994369D01*
X105426925Y-51825890D01*
X104995128Y-51740000D01*
X104554872Y-51740000D01*
X104123075Y-51825890D01*
X103716331Y-51994369D01*
X103350271Y-52238962D01*
X103038962Y-52550271D01*
X102794369Y-52916331D01*
X102625890Y-53323075D01*
X102540000Y-53754872D01*
X102260000Y-53754872D01*
X102260000Y-53372279D01*
X102298909Y-52975455D01*
X102404780Y-52624792D01*
X102576744Y-52301375D01*
X102808254Y-52017516D01*
X103090486Y-51784035D01*
X103412695Y-51609817D01*
X103762614Y-51501498D01*
X104157443Y-51460000D01*
X226027721Y-51460000D01*
X226424545Y-51498909D01*
G37*
%TD.AperFunction*%
%TD*%
M02*
